<?xml version="1.0" encoding="utf-8" standalone="no"?>
<!DOCTYPE svg PUBLIC "-//W3C//DTD SVG 1.1//EN"
  "http://www.w3.org/Graphics/SVG/1.1/DTD/svg11.dtd">
<svg height="317.99625pt" version="1.1" viewBox="0 0 1158.023206 317.99625" width="1158.023206pt" xmlns="http://www.w3.org/2000/svg" xmlns:xlink="http://www.w3.org/1999/xlink">
 <metadata>
  <rdf:RDF xmlns:cc="http://creativecommons.org/ns#" xmlns:dc="http://purl.org/dc/elements/1.1/" xmlns:rdf="http://www.w3.org/1999/02/22-rdf-syntax-ns#">
   <cc:Work>
    <dc:type rdf:resource="http://purl.org/dc/dcmitype/StillImage"/>
    <dc:date>2021-04-10T17:47:11.736981</dc:date>
    <dc:format>image/svg+xml</dc:format>
    <dc:creator>
     <cc:Agent>
      <dc:title>Matplotlib v3.4.1, https://matplotlib.org/</dc:title>
     </cc:Agent>
    </dc:creator>
   </cc:Work>
  </rdf:RDF>
 </metadata>
 <defs>
  <style type="text/css">*{stroke-linecap:butt;stroke-linejoin:round;}</style>
 </defs>
 <g id="figure_1">
  <g id="patch_1">
   <path d="M 0 317.99625 
L 1158.023206 317.99625 
L 1158.023206 0 
L 0 0 
z
" style="fill:none;"/>
  </g>
  <g id="axes_1">
   <g id="patch_2">
    <path d="M 30.103125 294.118125 
L 272.711821 294.118125 
L 272.711821 22.318125 
L 30.103125 22.318125 
z
" style="fill:#ffffff;"/>
   </g>
   <g id="matplotlib.axis_1">
    <g id="xtick_1">
     <g id="line2d_1">
      <defs>
       <path d="M 0 0 
L 0 3.5 
" id="m454da0b0d8" style="stroke:#000000;stroke-width:0.8;"/>
      </defs>
      <g>
       <use style="stroke:#000000;stroke-width:0.8;" x="36.438168" xlink:href="#m454da0b0d8" y="294.118125"/>
      </g>
     </g>
     <g id="text_1">
      <!-- 0 -->
      <g transform="translate(33.256918 308.716563)scale(0.1 -0.1)">
       <defs>
        <path d="M 2034 4250 
Q 1547 4250 1301 3770 
Q 1056 3291 1056 2328 
Q 1056 1369 1301 889 
Q 1547 409 2034 409 
Q 2525 409 2770 889 
Q 3016 1369 3016 2328 
Q 3016 3291 2770 3770 
Q 2525 4250 2034 4250 
z
M 2034 4750 
Q 2819 4750 3233 4129 
Q 3647 3509 3647 2328 
Q 3647 1150 3233 529 
Q 2819 -91 2034 -91 
Q 1250 -91 836 529 
Q 422 1150 422 2328 
Q 422 3509 836 4129 
Q 1250 4750 2034 4750 
z
" id="DejaVuSans-30" transform="scale(0.015625)"/>
       </defs>
       <use xlink:href="#DejaVuSans-30"/>
      </g>
     </g>
    </g>
    <g id="xtick_2">
     <g id="line2d_2">
      <g>
       <use style="stroke:#000000;stroke-width:0.8;" x="83.364415" xlink:href="#m454da0b0d8" y="294.118125"/>
      </g>
     </g>
     <g id="text_2">
      <!-- 10 -->
      <g transform="translate(77.001915 308.716563)scale(0.1 -0.1)">
       <defs>
        <path d="M 794 531 
L 1825 531 
L 1825 4091 
L 703 3866 
L 703 4441 
L 1819 4666 
L 2450 4666 
L 2450 531 
L 3481 531 
L 3481 0 
L 794 0 
L 794 531 
z
" id="DejaVuSans-31" transform="scale(0.015625)"/>
       </defs>
       <use xlink:href="#DejaVuSans-31"/>
       <use x="63.623047" xlink:href="#DejaVuSans-30"/>
      </g>
     </g>
    </g>
    <g id="xtick_3">
     <g id="line2d_3">
      <g>
       <use style="stroke:#000000;stroke-width:0.8;" x="130.290662" xlink:href="#m454da0b0d8" y="294.118125"/>
      </g>
     </g>
     <g id="text_3">
      <!-- 20 -->
      <g transform="translate(123.928162 308.716563)scale(0.1 -0.1)">
       <defs>
        <path d="M 1228 531 
L 3431 531 
L 3431 0 
L 469 0 
L 469 531 
Q 828 903 1448 1529 
Q 2069 2156 2228 2338 
Q 2531 2678 2651 2914 
Q 2772 3150 2772 3378 
Q 2772 3750 2511 3984 
Q 2250 4219 1831 4219 
Q 1534 4219 1204 4116 
Q 875 4013 500 3803 
L 500 4441 
Q 881 4594 1212 4672 
Q 1544 4750 1819 4750 
Q 2544 4750 2975 4387 
Q 3406 4025 3406 3419 
Q 3406 3131 3298 2873 
Q 3191 2616 2906 2266 
Q 2828 2175 2409 1742 
Q 1991 1309 1228 531 
z
" id="DejaVuSans-32" transform="scale(0.015625)"/>
       </defs>
       <use xlink:href="#DejaVuSans-32"/>
       <use x="63.623047" xlink:href="#DejaVuSans-30"/>
      </g>
     </g>
    </g>
    <g id="xtick_4">
     <g id="line2d_4">
      <g>
       <use style="stroke:#000000;stroke-width:0.8;" x="177.216909" xlink:href="#m454da0b0d8" y="294.118125"/>
      </g>
     </g>
     <g id="text_4">
      <!-- 30 -->
      <g transform="translate(170.854409 308.716563)scale(0.1 -0.1)">
       <defs>
        <path d="M 2597 2516 
Q 3050 2419 3304 2112 
Q 3559 1806 3559 1356 
Q 3559 666 3084 287 
Q 2609 -91 1734 -91 
Q 1441 -91 1130 -33 
Q 819 25 488 141 
L 488 750 
Q 750 597 1062 519 
Q 1375 441 1716 441 
Q 2309 441 2620 675 
Q 2931 909 2931 1356 
Q 2931 1769 2642 2001 
Q 2353 2234 1838 2234 
L 1294 2234 
L 1294 2753 
L 1863 2753 
Q 2328 2753 2575 2939 
Q 2822 3125 2822 3475 
Q 2822 3834 2567 4026 
Q 2313 4219 1838 4219 
Q 1578 4219 1281 4162 
Q 984 4106 628 3988 
L 628 4550 
Q 988 4650 1302 4700 
Q 1616 4750 1894 4750 
Q 2613 4750 3031 4423 
Q 3450 4097 3450 3541 
Q 3450 3153 3228 2886 
Q 3006 2619 2597 2516 
z
" id="DejaVuSans-33" transform="scale(0.015625)"/>
       </defs>
       <use xlink:href="#DejaVuSans-33"/>
       <use x="63.623047" xlink:href="#DejaVuSans-30"/>
      </g>
     </g>
    </g>
    <g id="xtick_5">
     <g id="line2d_5">
      <g>
       <use style="stroke:#000000;stroke-width:0.8;" x="224.143155" xlink:href="#m454da0b0d8" y="294.118125"/>
      </g>
     </g>
     <g id="text_5">
      <!-- 40 -->
      <g transform="translate(217.780655 308.716563)scale(0.1 -0.1)">
       <defs>
        <path d="M 2419 4116 
L 825 1625 
L 2419 1625 
L 2419 4116 
z
M 2253 4666 
L 3047 4666 
L 3047 1625 
L 3713 1625 
L 3713 1100 
L 3047 1100 
L 3047 0 
L 2419 0 
L 2419 1100 
L 313 1100 
L 313 1709 
L 2253 4666 
z
" id="DejaVuSans-34" transform="scale(0.015625)"/>
       </defs>
       <use xlink:href="#DejaVuSans-34"/>
       <use x="63.623047" xlink:href="#DejaVuSans-30"/>
      </g>
     </g>
    </g>
    <g id="xtick_6">
     <g id="line2d_6">
      <g>
       <use style="stroke:#000000;stroke-width:0.8;" x="271.069402" xlink:href="#m454da0b0d8" y="294.118125"/>
      </g>
     </g>
     <g id="text_6">
      <!-- 50 -->
      <g transform="translate(264.706902 308.716563)scale(0.1 -0.1)">
       <defs>
        <path d="M 691 4666 
L 3169 4666 
L 3169 4134 
L 1269 4134 
L 1269 2991 
Q 1406 3038 1543 3061 
Q 1681 3084 1819 3084 
Q 2600 3084 3056 2656 
Q 3513 2228 3513 1497 
Q 3513 744 3044 326 
Q 2575 -91 1722 -91 
Q 1428 -91 1123 -41 
Q 819 9 494 109 
L 494 744 
Q 775 591 1075 516 
Q 1375 441 1709 441 
Q 2250 441 2565 725 
Q 2881 1009 2881 1497 
Q 2881 1984 2565 2268 
Q 2250 2553 1709 2553 
Q 1456 2553 1204 2497 
Q 953 2441 691 2322 
L 691 4666 
z
" id="DejaVuSans-35" transform="scale(0.015625)"/>
       </defs>
       <use xlink:href="#DejaVuSans-35"/>
       <use x="63.623047" xlink:href="#DejaVuSans-30"/>
      </g>
     </g>
    </g>
   </g>
   <g id="matplotlib.axis_2">
    <g id="ytick_1">
     <g id="line2d_7">
      <defs>
       <path d="M 0 0 
L -3.5 0 
" id="m331149caac" style="stroke:#000000;stroke-width:0.8;"/>
      </defs>
      <g>
       <use style="stroke:#000000;stroke-width:0.8;" x="30.103125" xlink:href="#m331149caac" y="281.76358"/>
      </g>
     </g>
     <g id="text_7">
      <!-- 0.0 -->
      <g transform="translate(7.2 285.562798)scale(0.1 -0.1)">
       <defs>
        <path d="M 684 794 
L 1344 794 
L 1344 0 
L 684 0 
L 684 794 
z
" id="DejaVuSans-2e" transform="scale(0.015625)"/>
       </defs>
       <use xlink:href="#DejaVuSans-30"/>
       <use x="63.623047" xlink:href="#DejaVuSans-2e"/>
       <use x="95.410156" xlink:href="#DejaVuSans-30"/>
      </g>
     </g>
    </g>
    <g id="ytick_2">
     <g id="line2d_8">
      <g>
       <use style="stroke:#000000;stroke-width:0.8;" x="30.103125" xlink:href="#m331149caac" y="242.177861"/>
      </g>
     </g>
     <g id="text_8">
      <!-- 0.1 -->
      <g transform="translate(7.2 245.97708)scale(0.1 -0.1)">
       <use xlink:href="#DejaVuSans-30"/>
       <use x="63.623047" xlink:href="#DejaVuSans-2e"/>
       <use x="95.410156" xlink:href="#DejaVuSans-31"/>
      </g>
     </g>
    </g>
    <g id="ytick_3">
     <g id="line2d_9">
      <g>
       <use style="stroke:#000000;stroke-width:0.8;" x="30.103125" xlink:href="#m331149caac" y="202.592143"/>
      </g>
     </g>
     <g id="text_9">
      <!-- 0.2 -->
      <g transform="translate(7.2 206.391362)scale(0.1 -0.1)">
       <use xlink:href="#DejaVuSans-30"/>
       <use x="63.623047" xlink:href="#DejaVuSans-2e"/>
       <use x="95.410156" xlink:href="#DejaVuSans-32"/>
      </g>
     </g>
    </g>
    <g id="ytick_4">
     <g id="line2d_10">
      <g>
       <use style="stroke:#000000;stroke-width:0.8;" x="30.103125" xlink:href="#m331149caac" y="163.006425"/>
      </g>
     </g>
     <g id="text_10">
      <!-- 0.3 -->
      <g transform="translate(7.2 166.805644)scale(0.1 -0.1)">
       <use xlink:href="#DejaVuSans-30"/>
       <use x="63.623047" xlink:href="#DejaVuSans-2e"/>
       <use x="95.410156" xlink:href="#DejaVuSans-33"/>
      </g>
     </g>
    </g>
    <g id="ytick_5">
     <g id="line2d_11">
      <g>
       <use style="stroke:#000000;stroke-width:0.8;" x="30.103125" xlink:href="#m331149caac" y="123.420707"/>
      </g>
     </g>
     <g id="text_11">
      <!-- 0.4 -->
      <g transform="translate(7.2 127.219926)scale(0.1 -0.1)">
       <use xlink:href="#DejaVuSans-30"/>
       <use x="63.623047" xlink:href="#DejaVuSans-2e"/>
       <use x="95.410156" xlink:href="#DejaVuSans-34"/>
      </g>
     </g>
    </g>
    <g id="ytick_6">
     <g id="line2d_12">
      <g>
       <use style="stroke:#000000;stroke-width:0.8;" x="30.103125" xlink:href="#m331149caac" y="83.834989"/>
      </g>
     </g>
     <g id="text_12">
      <!-- 0.5 -->
      <g transform="translate(7.2 87.634208)scale(0.1 -0.1)">
       <use xlink:href="#DejaVuSans-30"/>
       <use x="63.623047" xlink:href="#DejaVuSans-2e"/>
       <use x="95.410156" xlink:href="#DejaVuSans-35"/>
      </g>
     </g>
    </g>
    <g id="ytick_7">
     <g id="line2d_13">
      <g>
       <use style="stroke:#000000;stroke-width:0.8;" x="30.103125" xlink:href="#m331149caac" y="44.249271"/>
      </g>
     </g>
     <g id="text_13">
      <!-- 0.6 -->
      <g transform="translate(7.2 48.04849)scale(0.1 -0.1)">
       <defs>
        <path d="M 2113 2584 
Q 1688 2584 1439 2293 
Q 1191 2003 1191 1497 
Q 1191 994 1439 701 
Q 1688 409 2113 409 
Q 2538 409 2786 701 
Q 3034 994 3034 1497 
Q 3034 2003 2786 2293 
Q 2538 2584 2113 2584 
z
M 3366 4563 
L 3366 3988 
Q 3128 4100 2886 4159 
Q 2644 4219 2406 4219 
Q 1781 4219 1451 3797 
Q 1122 3375 1075 2522 
Q 1259 2794 1537 2939 
Q 1816 3084 2150 3084 
Q 2853 3084 3261 2657 
Q 3669 2231 3669 1497 
Q 3669 778 3244 343 
Q 2819 -91 2113 -91 
Q 1303 -91 875 529 
Q 447 1150 447 2328 
Q 447 3434 972 4092 
Q 1497 4750 2381 4750 
Q 2619 4750 2861 4703 
Q 3103 4656 3366 4563 
z
" id="DejaVuSans-36" transform="scale(0.015625)"/>
       </defs>
       <use xlink:href="#DejaVuSans-30"/>
       <use x="63.623047" xlink:href="#DejaVuSans-2e"/>
       <use x="95.410156" xlink:href="#DejaVuSans-36"/>
      </g>
     </g>
    </g>
   </g>
   <g id="line2d_14">
    <path clip-path="url(#p0f599c2519)" d="M 41.130793 251.340003 
L 45.823418 256.920738 
L 50.516042 261.191237 
L 55.208667 256.10252 
L 59.901292 263.713851 
L 64.593916 262.362839 
L 69.286541 264.431493 
L 73.979166 259.603732 
L 78.67179 258.516397 
L 83.364415 260.098468 
L 88.05704 264.670702 
L 92.749664 224.320982 
L 97.442289 128.123422 
L 102.134914 100.032176 
L 106.827538 150.326766 
L 111.520163 160.29489 
L 116.212788 134.864889 
L 120.905412 109.774679 
L 125.598037 112.705042 
L 130.290662 147.818649 
L 134.983286 218.219839 
L 139.675911 223.659221 
L 144.368536 234.399352 
L 149.06116 245.370543 
L 153.753785 230.919888 
L 158.44641 223.621164 
L 163.139035 240.009989 
L 167.831659 245.395914 
L 172.524284 257.559547 
L 177.216909 262.838548 
L 181.909533 271.151207 
L 186.602158 269.752173 
L 191.294783 240.031737 
L 195.987407 229.253549 
L 200.680032 215.436263 
L 205.372657 208.284332 
L 210.065281 219.328916 
L 214.757906 239.985526 
L 219.450531 251.426985 
L 224.143155 254.191232 
L 228.83578 256.624439 
L 233.528405 262.895633 
L 238.221029 255.493613 
L 242.913654 202.651947 
L 247.606279 223.917463 
L 252.298903 244.552325 
L 256.991528 254.775971 
L 261.684153 258.385919 
" style="fill:none;stroke:#0000ff;stroke-dasharray:7.4,3.2;stroke-dashoffset:0;stroke-width:2;"/>
   </g>
   <g id="line2d_15">
    <path clip-path="url(#p0f599c2519)" d="M 41.130793 281.76358 
L 45.823418 275.184236 
L 50.516042 278.108389 
L 55.208667 260.197953 
L 59.901292 275.549755 
L 64.593916 281.76358 
L 69.286541 252.887571 
L 73.979166 281.76358 
L 78.67179 280.667022 
L 83.364415 281.76358 
L 88.05704 281.76358 
L 92.749664 133.362826 
L 97.442289 258.735876 
L 102.134914 256.177243 
L 106.827538 226.570196 
L 111.520163 150.542224 
L 116.212788 270.432488 
L 120.905412 251.059975 
L 125.598037 215.604623 
L 130.290662 279.204946 
L 134.983286 234.246097 
L 139.675911 187.094134 
L 144.368536 248.501342 
L 149.06116 202.080417 
L 153.753785 34.67267 
L 158.44641 234.977135 
L 163.139035 240.094403 
L 167.831659 166.990583 
L 172.524284 221.08741 
L 177.216909 244.115113 
L 181.909533 251.059975 
L 186.602158 174.300965 
L 191.294783 65.010755 
L 195.987407 95.71436 
L 200.680032 103.75578 
L 205.372657 199.521783 
L 210.065281 178.321675 
L 214.757906 237.535769 
L 219.450531 222.915005 
L 224.143155 244.115113 
L 228.83578 262.391067 
L 233.528405 219.990852 
L 238.221029 240.094403 
L 242.913654 210.852875 
L 247.606279 254.715166 
L 252.298903 281.39806 
L 256.991528 281.76358 
L 261.684153 281.76358 
" style="fill:none;stroke:#008000;stroke-linecap:square;"/>
   </g>
   <g id="line2d_16">
    <path clip-path="url(#p0f599c2519)" d="M 41.130793 281.76358 
L 45.823418 281.76358 
L 50.516042 281.76358 
L 55.208667 281.76358 
L 59.901292 281.76358 
L 64.593916 281.76358 
L 69.286541 281.76358 
L 73.979166 281.76358 
L 78.67179 281.76358 
L 83.364415 281.76358 
L 88.05704 281.76358 
L 92.749664 210.59227 
L 97.442289 152.550099 
L 102.134914 160.903601 
L 106.827538 153.348612 
L 111.520163 114.075902 
L 116.212788 160.89919 
L 120.905412 281.76358 
L 125.598037 281.76358 
L 130.290662 281.76358 
L 134.983286 281.76358 
L 139.675911 281.76358 
L 144.368536 281.76358 
L 149.06116 281.76358 
L 153.753785 281.76358 
L 158.44641 281.76358 
L 163.139035 281.76358 
L 167.831659 281.76358 
L 172.524284 281.76358 
L 177.216909 281.76358 
L 181.909533 281.76358 
L 186.602158 281.76358 
L 191.294783 281.76358 
L 195.987407 281.76358 
L 200.680032 281.76358 
L 205.372657 281.76358 
L 210.065281 281.76358 
L 214.757906 281.76358 
L 219.450531 281.76358 
L 224.143155 281.76358 
L 228.83578 269.159431 
L 233.528405 279.32613 
L 238.221029 281.76358 
L 242.913654 280.764336 
L 247.606279 278.869522 
L 252.298903 281.542996 
L 256.991528 281.76358 
L 261.684153 281.734904 
" style="fill:none;stroke:#ff0000;stroke-linecap:square;"/>
   </g>
   <g id="patch_3">
    <path d="M 30.103125 294.118125 
L 30.103125 22.318125 
" style="fill:none;stroke:#000000;stroke-linecap:square;stroke-linejoin:miter;stroke-width:0.8;"/>
   </g>
   <g id="patch_4">
    <path d="M 272.711821 294.118125 
L 272.711821 22.318125 
" style="fill:none;stroke:#000000;stroke-linecap:square;stroke-linejoin:miter;stroke-width:0.8;"/>
   </g>
   <g id="patch_5">
    <path d="M 30.103125 294.118125 
L 272.711821 294.118125 
" style="fill:none;stroke:#000000;stroke-linecap:square;stroke-linejoin:miter;stroke-width:0.8;"/>
   </g>
   <g id="patch_6">
    <path d="M 30.103125 22.318125 
L 272.711821 22.318125 
" style="fill:none;stroke:#000000;stroke-linecap:square;stroke-linejoin:miter;stroke-width:0.8;"/>
   </g>
   <g id="text_14">
    <!-- Year 1953 -->
    <g transform="translate(121.525598 16.318125)scale(0.12 -0.12)">
     <defs>
      <path d="M -13 4666 
L 666 4666 
L 1959 2747 
L 3244 4666 
L 3922 4666 
L 2272 2222 
L 2272 0 
L 1638 0 
L 1638 2222 
L -13 4666 
z
" id="DejaVuSans-59" transform="scale(0.015625)"/>
      <path d="M 3597 1894 
L 3597 1613 
L 953 1613 
Q 991 1019 1311 708 
Q 1631 397 2203 397 
Q 2534 397 2845 478 
Q 3156 559 3463 722 
L 3463 178 
Q 3153 47 2828 -22 
Q 2503 -91 2169 -91 
Q 1331 -91 842 396 
Q 353 884 353 1716 
Q 353 2575 817 3079 
Q 1281 3584 2069 3584 
Q 2775 3584 3186 3129 
Q 3597 2675 3597 1894 
z
M 3022 2063 
Q 3016 2534 2758 2815 
Q 2500 3097 2075 3097 
Q 1594 3097 1305 2825 
Q 1016 2553 972 2059 
L 3022 2063 
z
" id="DejaVuSans-65" transform="scale(0.015625)"/>
      <path d="M 2194 1759 
Q 1497 1759 1228 1600 
Q 959 1441 959 1056 
Q 959 750 1161 570 
Q 1363 391 1709 391 
Q 2188 391 2477 730 
Q 2766 1069 2766 1631 
L 2766 1759 
L 2194 1759 
z
M 3341 1997 
L 3341 0 
L 2766 0 
L 2766 531 
Q 2569 213 2275 61 
Q 1981 -91 1556 -91 
Q 1019 -91 701 211 
Q 384 513 384 1019 
Q 384 1609 779 1909 
Q 1175 2209 1959 2209 
L 2766 2209 
L 2766 2266 
Q 2766 2663 2505 2880 
Q 2244 3097 1772 3097 
Q 1472 3097 1187 3025 
Q 903 2953 641 2809 
L 641 3341 
Q 956 3463 1253 3523 
Q 1550 3584 1831 3584 
Q 2591 3584 2966 3190 
Q 3341 2797 3341 1997 
z
" id="DejaVuSans-61" transform="scale(0.015625)"/>
      <path d="M 2631 2963 
Q 2534 3019 2420 3045 
Q 2306 3072 2169 3072 
Q 1681 3072 1420 2755 
Q 1159 2438 1159 1844 
L 1159 0 
L 581 0 
L 581 3500 
L 1159 3500 
L 1159 2956 
Q 1341 3275 1631 3429 
Q 1922 3584 2338 3584 
Q 2397 3584 2469 3576 
Q 2541 3569 2628 3553 
L 2631 2963 
z
" id="DejaVuSans-72" transform="scale(0.015625)"/>
      <path id="DejaVuSans-20" transform="scale(0.015625)"/>
      <path d="M 703 97 
L 703 672 
Q 941 559 1184 500 
Q 1428 441 1663 441 
Q 2288 441 2617 861 
Q 2947 1281 2994 2138 
Q 2813 1869 2534 1725 
Q 2256 1581 1919 1581 
Q 1219 1581 811 2004 
Q 403 2428 403 3163 
Q 403 3881 828 4315 
Q 1253 4750 1959 4750 
Q 2769 4750 3195 4129 
Q 3622 3509 3622 2328 
Q 3622 1225 3098 567 
Q 2575 -91 1691 -91 
Q 1453 -91 1209 -44 
Q 966 3 703 97 
z
M 1959 2075 
Q 2384 2075 2632 2365 
Q 2881 2656 2881 3163 
Q 2881 3666 2632 3958 
Q 2384 4250 1959 4250 
Q 1534 4250 1286 3958 
Q 1038 3666 1038 3163 
Q 1038 2656 1286 2365 
Q 1534 2075 1959 2075 
z
" id="DejaVuSans-39" transform="scale(0.015625)"/>
     </defs>
     <use xlink:href="#DejaVuSans-59"/>
     <use x="47.833984" xlink:href="#DejaVuSans-65"/>
     <use x="109.357422" xlink:href="#DejaVuSans-61"/>
     <use x="170.636719" xlink:href="#DejaVuSans-72"/>
     <use x="211.75" xlink:href="#DejaVuSans-20"/>
     <use x="243.537109" xlink:href="#DejaVuSans-31"/>
     <use x="307.160156" xlink:href="#DejaVuSans-39"/>
     <use x="370.783203" xlink:href="#DejaVuSans-35"/>
     <use x="434.40625" xlink:href="#DejaVuSans-33"/>
    </g>
   </g>
   <g id="legend_1">
    <g id="patch_7">
     <path d="M 37.103125 74.3525 
L 121.85625 74.3525 
Q 123.85625 74.3525 123.85625 72.3525 
L 123.85625 29.318125 
Q 123.85625 27.318125 121.85625 27.318125 
L 37.103125 27.318125 
Q 35.103125 27.318125 35.103125 29.318125 
L 35.103125 72.3525 
Q 35.103125 74.3525 37.103125 74.3525 
z
" style="fill:#ffffff;opacity:0.8;stroke:#cccccc;stroke-linejoin:miter;"/>
    </g>
    <g id="line2d_17">
     <path d="M 39.103125 35.416562 
L 59.103125 35.416562 
" style="fill:none;stroke:#0000ff;stroke-dasharray:7.4,3.2;stroke-dashoffset:0;stroke-width:2;"/>
    </g>
    <g id="line2d_18"/>
    <g id="text_15">
     <!-- Inflow -->
     <g transform="translate(67.103125 38.916562)scale(0.1 -0.1)">
      <defs>
       <path d="M 628 4666 
L 1259 4666 
L 1259 0 
L 628 0 
L 628 4666 
z
" id="DejaVuSans-49" transform="scale(0.015625)"/>
       <path d="M 3513 2113 
L 3513 0 
L 2938 0 
L 2938 2094 
Q 2938 2591 2744 2837 
Q 2550 3084 2163 3084 
Q 1697 3084 1428 2787 
Q 1159 2491 1159 1978 
L 1159 0 
L 581 0 
L 581 3500 
L 1159 3500 
L 1159 2956 
Q 1366 3272 1645 3428 
Q 1925 3584 2291 3584 
Q 2894 3584 3203 3211 
Q 3513 2838 3513 2113 
z
" id="DejaVuSans-6e" transform="scale(0.015625)"/>
       <path d="M 2375 4863 
L 2375 4384 
L 1825 4384 
Q 1516 4384 1395 4259 
Q 1275 4134 1275 3809 
L 1275 3500 
L 2222 3500 
L 2222 3053 
L 1275 3053 
L 1275 0 
L 697 0 
L 697 3053 
L 147 3053 
L 147 3500 
L 697 3500 
L 697 3744 
Q 697 4328 969 4595 
Q 1241 4863 1831 4863 
L 2375 4863 
z
" id="DejaVuSans-66" transform="scale(0.015625)"/>
       <path d="M 603 4863 
L 1178 4863 
L 1178 0 
L 603 0 
L 603 4863 
z
" id="DejaVuSans-6c" transform="scale(0.015625)"/>
       <path d="M 1959 3097 
Q 1497 3097 1228 2736 
Q 959 2375 959 1747 
Q 959 1119 1226 758 
Q 1494 397 1959 397 
Q 2419 397 2687 759 
Q 2956 1122 2956 1747 
Q 2956 2369 2687 2733 
Q 2419 3097 1959 3097 
z
M 1959 3584 
Q 2709 3584 3137 3096 
Q 3566 2609 3566 1747 
Q 3566 888 3137 398 
Q 2709 -91 1959 -91 
Q 1206 -91 779 398 
Q 353 888 353 1747 
Q 353 2609 779 3096 
Q 1206 3584 1959 3584 
z
" id="DejaVuSans-6f" transform="scale(0.015625)"/>
       <path d="M 269 3500 
L 844 3500 
L 1563 769 
L 2278 3500 
L 2956 3500 
L 3675 769 
L 4391 3500 
L 4966 3500 
L 4050 0 
L 3372 0 
L 2619 2869 
L 1863 0 
L 1184 0 
L 269 3500 
z
" id="DejaVuSans-77" transform="scale(0.015625)"/>
      </defs>
      <use xlink:href="#DejaVuSans-49"/>
      <use x="29.492188" xlink:href="#DejaVuSans-6e"/>
      <use x="92.871094" xlink:href="#DejaVuSans-66"/>
      <use x="128.076172" xlink:href="#DejaVuSans-6c"/>
      <use x="155.859375" xlink:href="#DejaVuSans-6f"/>
      <use x="217.041016" xlink:href="#DejaVuSans-77"/>
     </g>
    </g>
    <g id="line2d_19">
     <path d="M 39.103125 50.094688 
L 59.103125 50.094688 
" style="fill:none;stroke:#008000;stroke-linecap:square;"/>
    </g>
    <g id="line2d_20"/>
    <g id="text_16">
     <!-- Rainfall -->
     <g transform="translate(67.103125 53.594688)scale(0.1 -0.1)">
      <defs>
       <path d="M 2841 2188 
Q 3044 2119 3236 1894 
Q 3428 1669 3622 1275 
L 4263 0 
L 3584 0 
L 2988 1197 
Q 2756 1666 2539 1819 
Q 2322 1972 1947 1972 
L 1259 1972 
L 1259 0 
L 628 0 
L 628 4666 
L 2053 4666 
Q 2853 4666 3247 4331 
Q 3641 3997 3641 3322 
Q 3641 2881 3436 2590 
Q 3231 2300 2841 2188 
z
M 1259 4147 
L 1259 2491 
L 2053 2491 
Q 2509 2491 2742 2702 
Q 2975 2913 2975 3322 
Q 2975 3731 2742 3939 
Q 2509 4147 2053 4147 
L 1259 4147 
z
" id="DejaVuSans-52" transform="scale(0.015625)"/>
       <path d="M 603 3500 
L 1178 3500 
L 1178 0 
L 603 0 
L 603 3500 
z
M 603 4863 
L 1178 4863 
L 1178 4134 
L 603 4134 
L 603 4863 
z
" id="DejaVuSans-69" transform="scale(0.015625)"/>
      </defs>
      <use xlink:href="#DejaVuSans-52"/>
      <use x="67.232422" xlink:href="#DejaVuSans-61"/>
      <use x="128.511719" xlink:href="#DejaVuSans-69"/>
      <use x="156.294922" xlink:href="#DejaVuSans-6e"/>
      <use x="219.673828" xlink:href="#DejaVuSans-66"/>
      <use x="254.878906" xlink:href="#DejaVuSans-61"/>
      <use x="316.158203" xlink:href="#DejaVuSans-6c"/>
      <use x="343.941406" xlink:href="#DejaVuSans-6c"/>
     </g>
    </g>
    <g id="line2d_21">
     <path d="M 39.103125 64.772812 
L 59.103125 64.772812 
" style="fill:none;stroke:#ff0000;stroke-linecap:square;"/>
    </g>
    <g id="line2d_22"/>
    <g id="text_17">
     <!-- Snow melt -->
     <g transform="translate(67.103125 68.272812)scale(0.1 -0.1)">
      <defs>
       <path d="M 3425 4513 
L 3425 3897 
Q 3066 4069 2747 4153 
Q 2428 4238 2131 4238 
Q 1616 4238 1336 4038 
Q 1056 3838 1056 3469 
Q 1056 3159 1242 3001 
Q 1428 2844 1947 2747 
L 2328 2669 
Q 3034 2534 3370 2195 
Q 3706 1856 3706 1288 
Q 3706 609 3251 259 
Q 2797 -91 1919 -91 
Q 1588 -91 1214 -16 
Q 841 59 441 206 
L 441 856 
Q 825 641 1194 531 
Q 1563 422 1919 422 
Q 2459 422 2753 634 
Q 3047 847 3047 1241 
Q 3047 1584 2836 1778 
Q 2625 1972 2144 2069 
L 1759 2144 
Q 1053 2284 737 2584 
Q 422 2884 422 3419 
Q 422 4038 858 4394 
Q 1294 4750 2059 4750 
Q 2388 4750 2728 4690 
Q 3069 4631 3425 4513 
z
" id="DejaVuSans-53" transform="scale(0.015625)"/>
       <path d="M 3328 2828 
Q 3544 3216 3844 3400 
Q 4144 3584 4550 3584 
Q 5097 3584 5394 3201 
Q 5691 2819 5691 2113 
L 5691 0 
L 5113 0 
L 5113 2094 
Q 5113 2597 4934 2840 
Q 4756 3084 4391 3084 
Q 3944 3084 3684 2787 
Q 3425 2491 3425 1978 
L 3425 0 
L 2847 0 
L 2847 2094 
Q 2847 2600 2669 2842 
Q 2491 3084 2119 3084 
Q 1678 3084 1418 2786 
Q 1159 2488 1159 1978 
L 1159 0 
L 581 0 
L 581 3500 
L 1159 3500 
L 1159 2956 
Q 1356 3278 1631 3431 
Q 1906 3584 2284 3584 
Q 2666 3584 2933 3390 
Q 3200 3197 3328 2828 
z
" id="DejaVuSans-6d" transform="scale(0.015625)"/>
       <path d="M 1172 4494 
L 1172 3500 
L 2356 3500 
L 2356 3053 
L 1172 3053 
L 1172 1153 
Q 1172 725 1289 603 
Q 1406 481 1766 481 
L 2356 481 
L 2356 0 
L 1766 0 
Q 1100 0 847 248 
Q 594 497 594 1153 
L 594 3053 
L 172 3053 
L 172 3500 
L 594 3500 
L 594 4494 
L 1172 4494 
z
" id="DejaVuSans-74" transform="scale(0.015625)"/>
      </defs>
      <use xlink:href="#DejaVuSans-53"/>
      <use x="63.476562" xlink:href="#DejaVuSans-6e"/>
      <use x="126.855469" xlink:href="#DejaVuSans-6f"/>
      <use x="188.037109" xlink:href="#DejaVuSans-77"/>
      <use x="269.824219" xlink:href="#DejaVuSans-20"/>
      <use x="301.611328" xlink:href="#DejaVuSans-6d"/>
      <use x="399.023438" xlink:href="#DejaVuSans-65"/>
      <use x="460.546875" xlink:href="#DejaVuSans-6c"/>
      <use x="488.330078" xlink:href="#DejaVuSans-74"/>
     </g>
    </g>
   </g>
  </g>
  <g id="axes_2">
   <g id="patch_8">
    <path d="M 321.23356 294.118125 
L 563.842255 294.118125 
L 563.842255 22.318125 
L 321.23356 22.318125 
z
" style="fill:#ffffff;"/>
   </g>
   <g id="matplotlib.axis_3">
    <g id="xtick_7">
     <g id="line2d_23">
      <g>
       <use style="stroke:#000000;stroke-width:0.8;" x="327.568603" xlink:href="#m454da0b0d8" y="294.118125"/>
      </g>
     </g>
     <g id="text_18">
      <!-- 0 -->
      <g transform="translate(324.387353 308.716563)scale(0.1 -0.1)">
       <use xlink:href="#DejaVuSans-30"/>
      </g>
     </g>
    </g>
    <g id="xtick_8">
     <g id="line2d_24">
      <g>
       <use style="stroke:#000000;stroke-width:0.8;" x="374.49485" xlink:href="#m454da0b0d8" y="294.118125"/>
      </g>
     </g>
     <g id="text_19">
      <!-- 10 -->
      <g transform="translate(368.13235 308.716563)scale(0.1 -0.1)">
       <use xlink:href="#DejaVuSans-31"/>
       <use x="63.623047" xlink:href="#DejaVuSans-30"/>
      </g>
     </g>
    </g>
    <g id="xtick_9">
     <g id="line2d_25">
      <g>
       <use style="stroke:#000000;stroke-width:0.8;" x="421.421097" xlink:href="#m454da0b0d8" y="294.118125"/>
      </g>
     </g>
     <g id="text_20">
      <!-- 20 -->
      <g transform="translate(415.058597 308.716563)scale(0.1 -0.1)">
       <use xlink:href="#DejaVuSans-32"/>
       <use x="63.623047" xlink:href="#DejaVuSans-30"/>
      </g>
     </g>
    </g>
    <g id="xtick_10">
     <g id="line2d_26">
      <g>
       <use style="stroke:#000000;stroke-width:0.8;" x="468.347343" xlink:href="#m454da0b0d8" y="294.118125"/>
      </g>
     </g>
     <g id="text_21">
      <!-- 30 -->
      <g transform="translate(461.984843 308.716563)scale(0.1 -0.1)">
       <use xlink:href="#DejaVuSans-33"/>
       <use x="63.623047" xlink:href="#DejaVuSans-30"/>
      </g>
     </g>
    </g>
    <g id="xtick_11">
     <g id="line2d_27">
      <g>
       <use style="stroke:#000000;stroke-width:0.8;" x="515.27359" xlink:href="#m454da0b0d8" y="294.118125"/>
      </g>
     </g>
     <g id="text_22">
      <!-- 40 -->
      <g transform="translate(508.91109 308.716563)scale(0.1 -0.1)">
       <use xlink:href="#DejaVuSans-34"/>
       <use x="63.623047" xlink:href="#DejaVuSans-30"/>
      </g>
     </g>
    </g>
    <g id="xtick_12">
     <g id="line2d_28">
      <g>
       <use style="stroke:#000000;stroke-width:0.8;" x="562.199837" xlink:href="#m454da0b0d8" y="294.118125"/>
      </g>
     </g>
     <g id="text_23">
      <!-- 50 -->
      <g transform="translate(555.837337 308.716563)scale(0.1 -0.1)">
       <use xlink:href="#DejaVuSans-35"/>
       <use x="63.623047" xlink:href="#DejaVuSans-30"/>
      </g>
     </g>
    </g>
   </g>
   <g id="matplotlib.axis_4">
    <g id="ytick_8">
     <g id="line2d_29">
      <g>
       <use style="stroke:#000000;stroke-width:0.8;" x="321.23356" xlink:href="#m331149caac" y="281.76358"/>
      </g>
     </g>
     <g id="text_24">
      <!-- 0.0 -->
      <g transform="translate(298.330435 285.562798)scale(0.1 -0.1)">
       <use xlink:href="#DejaVuSans-30"/>
       <use x="63.623047" xlink:href="#DejaVuSans-2e"/>
       <use x="95.410156" xlink:href="#DejaVuSans-30"/>
      </g>
     </g>
    </g>
    <g id="ytick_9">
     <g id="line2d_30">
      <g>
       <use style="stroke:#000000;stroke-width:0.8;" x="321.23356" xlink:href="#m331149caac" y="231.977635"/>
      </g>
     </g>
     <g id="text_25">
      <!-- 0.2 -->
      <g transform="translate(298.330435 235.776853)scale(0.1 -0.1)">
       <use xlink:href="#DejaVuSans-30"/>
       <use x="63.623047" xlink:href="#DejaVuSans-2e"/>
       <use x="95.410156" xlink:href="#DejaVuSans-32"/>
      </g>
     </g>
    </g>
    <g id="ytick_10">
     <g id="line2d_31">
      <g>
       <use style="stroke:#000000;stroke-width:0.8;" x="321.23356" xlink:href="#m331149caac" y="182.191689"/>
      </g>
     </g>
     <g id="text_26">
      <!-- 0.4 -->
      <g transform="translate(298.330435 185.990908)scale(0.1 -0.1)">
       <use xlink:href="#DejaVuSans-30"/>
       <use x="63.623047" xlink:href="#DejaVuSans-2e"/>
       <use x="95.410156" xlink:href="#DejaVuSans-34"/>
      </g>
     </g>
    </g>
    <g id="ytick_11">
     <g id="line2d_32">
      <g>
       <use style="stroke:#000000;stroke-width:0.8;" x="321.23356" xlink:href="#m331149caac" y="132.405744"/>
      </g>
     </g>
     <g id="text_27">
      <!-- 0.6 -->
      <g transform="translate(298.330435 136.204963)scale(0.1 -0.1)">
       <use xlink:href="#DejaVuSans-30"/>
       <use x="63.623047" xlink:href="#DejaVuSans-2e"/>
       <use x="95.410156" xlink:href="#DejaVuSans-36"/>
      </g>
     </g>
    </g>
    <g id="ytick_12">
     <g id="line2d_33">
      <g>
       <use style="stroke:#000000;stroke-width:0.8;" x="321.23356" xlink:href="#m331149caac" y="82.619799"/>
      </g>
     </g>
     <g id="text_28">
      <!-- 0.8 -->
      <g transform="translate(298.330435 86.419018)scale(0.1 -0.1)">
       <defs>
        <path d="M 2034 2216 
Q 1584 2216 1326 1975 
Q 1069 1734 1069 1313 
Q 1069 891 1326 650 
Q 1584 409 2034 409 
Q 2484 409 2743 651 
Q 3003 894 3003 1313 
Q 3003 1734 2745 1975 
Q 2488 2216 2034 2216 
z
M 1403 2484 
Q 997 2584 770 2862 
Q 544 3141 544 3541 
Q 544 4100 942 4425 
Q 1341 4750 2034 4750 
Q 2731 4750 3128 4425 
Q 3525 4100 3525 3541 
Q 3525 3141 3298 2862 
Q 3072 2584 2669 2484 
Q 3125 2378 3379 2068 
Q 3634 1759 3634 1313 
Q 3634 634 3220 271 
Q 2806 -91 2034 -91 
Q 1263 -91 848 271 
Q 434 634 434 1313 
Q 434 1759 690 2068 
Q 947 2378 1403 2484 
z
M 1172 3481 
Q 1172 3119 1398 2916 
Q 1625 2713 2034 2713 
Q 2441 2713 2670 2916 
Q 2900 3119 2900 3481 
Q 2900 3844 2670 4047 
Q 2441 4250 2034 4250 
Q 1625 4250 1398 4047 
Q 1172 3844 1172 3481 
z
" id="DejaVuSans-38" transform="scale(0.015625)"/>
       </defs>
       <use xlink:href="#DejaVuSans-30"/>
       <use x="63.623047" xlink:href="#DejaVuSans-2e"/>
       <use x="95.410156" xlink:href="#DejaVuSans-38"/>
      </g>
     </g>
    </g>
    <g id="ytick_13">
     <g id="line2d_34">
      <g>
       <use style="stroke:#000000;stroke-width:0.8;" x="321.23356" xlink:href="#m331149caac" y="32.833854"/>
      </g>
     </g>
     <g id="text_29">
      <!-- 1.0 -->
      <g transform="translate(298.330435 36.633073)scale(0.1 -0.1)">
       <use xlink:href="#DejaVuSans-31"/>
       <use x="63.623047" xlink:href="#DejaVuSans-2e"/>
       <use x="95.410156" xlink:href="#DejaVuSans-30"/>
      </g>
     </g>
    </g>
   </g>
   <g id="line2d_35">
    <path clip-path="url(#pfc92ccf257)" d="M 332.261228 271.643997 
L 336.953852 271.298702 
L 341.646477 272.149978 
L 346.339102 272.519205 
L 351.031726 274.050818 
L 355.724351 276.455927 
L 360.416976 274.802948 
L 365.1096 277.449082 
L 369.802225 276.881566 
L 374.49485 277.197802 
L 379.187475 279.055906 
L 383.880099 278.51802 
L 388.572724 272.792706 
L 393.265349 250.250999 
L 397.957973 259.3911 
L 402.650598 240.092103 
L 407.343223 197.743707 
L 412.035847 190.147185 
L 416.728472 137.012548 
L 421.421097 180.080026 
L 426.113721 190.646325 
L 430.806346 231.476784 
L 435.498971 248.847593 
L 440.191595 255.886854 
L 444.88422 265.03892 
L 449.576845 248.26469 
L 454.269469 229.579362 
L 458.962094 245.439448 
L 463.654719 237.497252 
L 468.347343 237.710924 
L 473.039968 256.765479 
L 477.732593 262.840266 
L 482.425217 269.278205 
L 487.117842 253.122772 
L 491.810467 229.634063 
L 496.503091 249.114256 
L 501.195716 260.293656 
L 505.888341 263.808161 
L 510.580965 259.035549 
L 515.27359 260.978934 
L 519.966215 267.418391 
L 524.658839 268.678209 
L 529.351464 274.064494 
L 534.044089 273.09356 
L 538.736713 271.425197 
L 543.429338 274.385858 
L 548.121963 275.951657 
L 552.814587 274.337995 
" style="fill:none;stroke:#0000ff;stroke-dasharray:7.4,3.2;stroke-dashoffset:0;stroke-width:2;"/>
   </g>
   <g id="line2d_36">
    <path clip-path="url(#pfc92ccf257)" d="M 332.261228 281.76358 
L 336.953852 276.017279 
L 341.646477 281.76358 
L 346.339102 281.76358 
L 351.031726 281.533728 
L 355.724351 281.76358 
L 360.416976 281.76358 
L 365.1096 281.76358 
L 369.802225 281.76358 
L 374.49485 281.76358 
L 379.187475 281.76358 
L 383.880099 278.085947 
L 388.572724 249.354446 
L 393.265349 267.972459 
L 397.957973 258.088823 
L 402.650598 246.596222 
L 407.343223 162.930091 
L 412.035847 249.584298 
L 416.728472 240.390218 
L 421.421097 167.527131 
L 426.113721 221.082649 
L 430.806346 253.26193 
L 435.498971 220.622945 
L 440.191595 227.748358 
L 444.88422 281.76358 
L 449.576845 34.67267 
L 454.269469 212.807977 
L 458.962094 142.013558 
L 463.654719 156.953939 
L 468.347343 227.97821 
L 473.039968 236.712586 
L 477.732593 229.817026 
L 482.425217 186.8347 
L 487.117842 127.992586 
L 491.810467 225.909541 
L 496.503091 252.11267 
L 501.195716 261.766455 
L 505.888341 191.43174 
L 510.580965 261.996307 
L 515.27359 252.342522 
L 519.966215 281.76358 
L 524.658839 273.948611 
L 529.351464 281.76358 
L 534.044089 281.533728 
L 538.736713 271.650091 
L 543.429338 281.76358 
L 548.121963 281.76358 
L 552.814587 281.76358 
" style="fill:none;stroke:#008000;stroke-linecap:square;"/>
   </g>
   <g id="line2d_37">
    <path clip-path="url(#pfc92ccf257)" d="M 332.261228 281.76358 
L 336.953852 281.76358 
L 341.646477 281.76358 
L 346.339102 281.76358 
L 351.031726 281.76358 
L 355.724351 281.76358 
L 360.416976 281.76358 
L 365.1096 281.76358 
L 369.802225 281.237864 
L 374.49485 278.241702 
L 379.187475 278.918613 
L 383.880099 233.944282 
L 388.572724 241.2072 
L 393.265349 241.401396 
L 397.957973 219.571028 
L 402.650598 232.529428 
L 407.343223 137.90065 
L 412.035847 275.71161 
L 416.728472 281.76358 
L 421.421097 281.76358 
L 426.113721 281.76358 
L 430.806346 281.76358 
L 435.498971 281.76358 
L 440.191595 281.76358 
L 444.88422 281.76358 
L 449.576845 281.76358 
L 454.269469 281.76358 
L 458.962094 281.76358 
L 463.654719 281.76358 
L 468.347343 281.76358 
L 473.039968 281.76358 
L 477.732593 281.76358 
L 482.425217 281.76358 
L 487.117842 281.76358 
L 491.810467 281.76358 
L 496.503091 281.76358 
L 501.195716 281.76358 
L 505.888341 281.76358 
L 510.580965 281.76358 
L 515.27359 276.627104 
L 519.966215 281.106088 
L 524.658839 274.31895 
L 529.351464 280.408371 
L 534.044089 260.643413 
L 538.736713 261.732296 
L 543.429338 281.76358 
L 548.121963 281.76358 
L 552.814587 281.76358 
" style="fill:none;stroke:#ff0000;stroke-linecap:square;"/>
   </g>
   <g id="patch_9">
    <path d="M 321.23356 294.118125 
L 321.23356 22.318125 
" style="fill:none;stroke:#000000;stroke-linecap:square;stroke-linejoin:miter;stroke-width:0.8;"/>
   </g>
   <g id="patch_10">
    <path d="M 563.842255 294.118125 
L 563.842255 22.318125 
" style="fill:none;stroke:#000000;stroke-linecap:square;stroke-linejoin:miter;stroke-width:0.8;"/>
   </g>
   <g id="patch_11">
    <path d="M 321.23356 294.118125 
L 563.842255 294.118125 
" style="fill:none;stroke:#000000;stroke-linecap:square;stroke-linejoin:miter;stroke-width:0.8;"/>
   </g>
   <g id="patch_12">
    <path d="M 321.23356 22.318125 
L 563.842255 22.318125 
" style="fill:none;stroke:#000000;stroke-linecap:square;stroke-linejoin:miter;stroke-width:0.8;"/>
   </g>
   <g id="text_30">
    <!-- Year 1962 -->
    <g transform="translate(412.656033 16.318125)scale(0.12 -0.12)">
     <use xlink:href="#DejaVuSans-59"/>
     <use x="47.833984" xlink:href="#DejaVuSans-65"/>
     <use x="109.357422" xlink:href="#DejaVuSans-61"/>
     <use x="170.636719" xlink:href="#DejaVuSans-72"/>
     <use x="211.75" xlink:href="#DejaVuSans-20"/>
     <use x="243.537109" xlink:href="#DejaVuSans-31"/>
     <use x="307.160156" xlink:href="#DejaVuSans-39"/>
     <use x="370.783203" xlink:href="#DejaVuSans-36"/>
     <use x="434.40625" xlink:href="#DejaVuSans-32"/>
    </g>
   </g>
   <g id="legend_2">
    <g id="patch_13">
     <path d="M 472.08913 74.3525 
L 556.842255 74.3525 
Q 558.842255 74.3525 558.842255 72.3525 
L 558.842255 29.318125 
Q 558.842255 27.318125 556.842255 27.318125 
L 472.08913 27.318125 
Q 470.08913 27.318125 470.08913 29.318125 
L 470.08913 72.3525 
Q 470.08913 74.3525 472.08913 74.3525 
z
" style="fill:#ffffff;opacity:0.8;stroke:#cccccc;stroke-linejoin:miter;"/>
    </g>
    <g id="line2d_38">
     <path d="M 474.08913 35.416562 
L 494.08913 35.416562 
" style="fill:none;stroke:#0000ff;stroke-dasharray:7.4,3.2;stroke-dashoffset:0;stroke-width:2;"/>
    </g>
    <g id="line2d_39"/>
    <g id="text_31">
     <!-- Inflow -->
     <g transform="translate(502.08913 38.916562)scale(0.1 -0.1)">
      <use xlink:href="#DejaVuSans-49"/>
      <use x="29.492188" xlink:href="#DejaVuSans-6e"/>
      <use x="92.871094" xlink:href="#DejaVuSans-66"/>
      <use x="128.076172" xlink:href="#DejaVuSans-6c"/>
      <use x="155.859375" xlink:href="#DejaVuSans-6f"/>
      <use x="217.041016" xlink:href="#DejaVuSans-77"/>
     </g>
    </g>
    <g id="line2d_40">
     <path d="M 474.08913 50.094688 
L 494.08913 50.094688 
" style="fill:none;stroke:#008000;stroke-linecap:square;"/>
    </g>
    <g id="line2d_41"/>
    <g id="text_32">
     <!-- Rainfall -->
     <g transform="translate(502.08913 53.594688)scale(0.1 -0.1)">
      <use xlink:href="#DejaVuSans-52"/>
      <use x="67.232422" xlink:href="#DejaVuSans-61"/>
      <use x="128.511719" xlink:href="#DejaVuSans-69"/>
      <use x="156.294922" xlink:href="#DejaVuSans-6e"/>
      <use x="219.673828" xlink:href="#DejaVuSans-66"/>
      <use x="254.878906" xlink:href="#DejaVuSans-61"/>
      <use x="316.158203" xlink:href="#DejaVuSans-6c"/>
      <use x="343.941406" xlink:href="#DejaVuSans-6c"/>
     </g>
    </g>
    <g id="line2d_42">
     <path d="M 474.08913 64.772812 
L 494.08913 64.772812 
" style="fill:none;stroke:#ff0000;stroke-linecap:square;"/>
    </g>
    <g id="line2d_43"/>
    <g id="text_33">
     <!-- Snow melt -->
     <g transform="translate(502.08913 68.272812)scale(0.1 -0.1)">
      <use xlink:href="#DejaVuSans-53"/>
      <use x="63.476562" xlink:href="#DejaVuSans-6e"/>
      <use x="126.855469" xlink:href="#DejaVuSans-6f"/>
      <use x="188.037109" xlink:href="#DejaVuSans-77"/>
      <use x="269.824219" xlink:href="#DejaVuSans-20"/>
      <use x="301.611328" xlink:href="#DejaVuSans-6d"/>
      <use x="399.023438" xlink:href="#DejaVuSans-65"/>
      <use x="460.546875" xlink:href="#DejaVuSans-6c"/>
      <use x="488.330078" xlink:href="#DejaVuSans-74"/>
     </g>
    </g>
   </g>
  </g>
  <g id="axes_3">
   <g id="patch_14">
    <path d="M 612.363995 294.118125 
L 854.97269 294.118125 
L 854.97269 22.318125 
L 612.363995 22.318125 
z
" style="fill:#ffffff;"/>
   </g>
   <g id="matplotlib.axis_5">
    <g id="xtick_13">
     <g id="line2d_44">
      <g>
       <use style="stroke:#000000;stroke-width:0.8;" x="618.699038" xlink:href="#m454da0b0d8" y="294.118125"/>
      </g>
     </g>
     <g id="text_34">
      <!-- 0 -->
      <g transform="translate(615.517788 308.716563)scale(0.1 -0.1)">
       <use xlink:href="#DejaVuSans-30"/>
      </g>
     </g>
    </g>
    <g id="xtick_14">
     <g id="line2d_45">
      <g>
       <use style="stroke:#000000;stroke-width:0.8;" x="665.625285" xlink:href="#m454da0b0d8" y="294.118125"/>
      </g>
     </g>
     <g id="text_35">
      <!-- 10 -->
      <g transform="translate(659.262785 308.716563)scale(0.1 -0.1)">
       <use xlink:href="#DejaVuSans-31"/>
       <use x="63.623047" xlink:href="#DejaVuSans-30"/>
      </g>
     </g>
    </g>
    <g id="xtick_15">
     <g id="line2d_46">
      <g>
       <use style="stroke:#000000;stroke-width:0.8;" x="712.551531" xlink:href="#m454da0b0d8" y="294.118125"/>
      </g>
     </g>
     <g id="text_36">
      <!-- 20 -->
      <g transform="translate(706.189031 308.716563)scale(0.1 -0.1)">
       <use xlink:href="#DejaVuSans-32"/>
       <use x="63.623047" xlink:href="#DejaVuSans-30"/>
      </g>
     </g>
    </g>
    <g id="xtick_16">
     <g id="line2d_47">
      <g>
       <use style="stroke:#000000;stroke-width:0.8;" x="759.477778" xlink:href="#m454da0b0d8" y="294.118125"/>
      </g>
     </g>
     <g id="text_37">
      <!-- 30 -->
      <g transform="translate(753.115278 308.716563)scale(0.1 -0.1)">
       <use xlink:href="#DejaVuSans-33"/>
       <use x="63.623047" xlink:href="#DejaVuSans-30"/>
      </g>
     </g>
    </g>
    <g id="xtick_17">
     <g id="line2d_48">
      <g>
       <use style="stroke:#000000;stroke-width:0.8;" x="806.404025" xlink:href="#m454da0b0d8" y="294.118125"/>
      </g>
     </g>
     <g id="text_38">
      <!-- 40 -->
      <g transform="translate(800.041525 308.716563)scale(0.1 -0.1)">
       <use xlink:href="#DejaVuSans-34"/>
       <use x="63.623047" xlink:href="#DejaVuSans-30"/>
      </g>
     </g>
    </g>
    <g id="xtick_18">
     <g id="line2d_49">
      <g>
       <use style="stroke:#000000;stroke-width:0.8;" x="853.330272" xlink:href="#m454da0b0d8" y="294.118125"/>
      </g>
     </g>
     <g id="text_39">
      <!-- 50 -->
      <g transform="translate(846.967772 308.716563)scale(0.1 -0.1)">
       <use xlink:href="#DejaVuSans-35"/>
       <use x="63.623047" xlink:href="#DejaVuSans-30"/>
      </g>
     </g>
    </g>
   </g>
   <g id="matplotlib.axis_6">
    <g id="ytick_14">
     <g id="line2d_50">
      <g>
       <use style="stroke:#000000;stroke-width:0.8;" x="612.363995" xlink:href="#m331149caac" y="281.76358"/>
      </g>
     </g>
     <g id="text_40">
      <!-- 0.0 -->
      <g transform="translate(589.46087 285.562798)scale(0.1 -0.1)">
       <use xlink:href="#DejaVuSans-30"/>
       <use x="63.623047" xlink:href="#DejaVuSans-2e"/>
       <use x="95.410156" xlink:href="#DejaVuSans-30"/>
      </g>
     </g>
    </g>
    <g id="ytick_15">
     <g id="line2d_51">
      <g>
       <use style="stroke:#000000;stroke-width:0.8;" x="612.363995" xlink:href="#m331149caac" y="242.882515"/>
      </g>
     </g>
     <g id="text_41">
      <!-- 0.1 -->
      <g transform="translate(589.46087 246.681734)scale(0.1 -0.1)">
       <use xlink:href="#DejaVuSans-30"/>
       <use x="63.623047" xlink:href="#DejaVuSans-2e"/>
       <use x="95.410156" xlink:href="#DejaVuSans-31"/>
      </g>
     </g>
    </g>
    <g id="ytick_16">
     <g id="line2d_52">
      <g>
       <use style="stroke:#000000;stroke-width:0.8;" x="612.363995" xlink:href="#m331149caac" y="204.001451"/>
      </g>
     </g>
     <g id="text_42">
      <!-- 0.2 -->
      <g transform="translate(589.46087 207.80067)scale(0.1 -0.1)">
       <use xlink:href="#DejaVuSans-30"/>
       <use x="63.623047" xlink:href="#DejaVuSans-2e"/>
       <use x="95.410156" xlink:href="#DejaVuSans-32"/>
      </g>
     </g>
    </g>
    <g id="ytick_17">
     <g id="line2d_53">
      <g>
       <use style="stroke:#000000;stroke-width:0.8;" x="612.363995" xlink:href="#m331149caac" y="165.120387"/>
      </g>
     </g>
     <g id="text_43">
      <!-- 0.3 -->
      <g transform="translate(589.46087 168.919605)scale(0.1 -0.1)">
       <use xlink:href="#DejaVuSans-30"/>
       <use x="63.623047" xlink:href="#DejaVuSans-2e"/>
       <use x="95.410156" xlink:href="#DejaVuSans-33"/>
      </g>
     </g>
    </g>
    <g id="ytick_18">
     <g id="line2d_54">
      <g>
       <use style="stroke:#000000;stroke-width:0.8;" x="612.363995" xlink:href="#m331149caac" y="126.239322"/>
      </g>
     </g>
     <g id="text_44">
      <!-- 0.4 -->
      <g transform="translate(589.46087 130.038541)scale(0.1 -0.1)">
       <use xlink:href="#DejaVuSans-30"/>
       <use x="63.623047" xlink:href="#DejaVuSans-2e"/>
       <use x="95.410156" xlink:href="#DejaVuSans-34"/>
      </g>
     </g>
    </g>
    <g id="ytick_19">
     <g id="line2d_55">
      <g>
       <use style="stroke:#000000;stroke-width:0.8;" x="612.363995" xlink:href="#m331149caac" y="87.358258"/>
      </g>
     </g>
     <g id="text_45">
      <!-- 0.5 -->
      <g transform="translate(589.46087 91.157477)scale(0.1 -0.1)">
       <use xlink:href="#DejaVuSans-30"/>
       <use x="63.623047" xlink:href="#DejaVuSans-2e"/>
       <use x="95.410156" xlink:href="#DejaVuSans-35"/>
      </g>
     </g>
    </g>
    <g id="ytick_20">
     <g id="line2d_56">
      <g>
       <use style="stroke:#000000;stroke-width:0.8;" x="612.363995" xlink:href="#m331149caac" y="48.477193"/>
      </g>
     </g>
     <g id="text_46">
      <!-- 0.6 -->
      <g transform="translate(589.46087 52.276412)scale(0.1 -0.1)">
       <use xlink:href="#DejaVuSans-30"/>
       <use x="63.623047" xlink:href="#DejaVuSans-2e"/>
       <use x="95.410156" xlink:href="#DejaVuSans-36"/>
      </g>
     </g>
    </g>
   </g>
   <g id="line2d_57">
    <path clip-path="url(#pbf779a161a)" d="M 623.391663 265.402162 
L 628.084287 267.530106 
L 632.776912 270.186702 
L 637.469537 270.248404 
L 642.162161 270.336219 
L 646.854786 270.782098 
L 651.547411 273.305195 
L 656.240035 274.971242 
L 660.93266 273.048878 
L 665.625285 275.379742 
L 670.317909 271.12652 
L 675.010534 274.335199 
L 679.703159 275.505232 
L 684.395783 273.193058 
L 689.088408 258.695258 
L 693.781033 244.560575 
L 698.473657 205.403171 
L 703.166282 163.615874 
L 707.858907 53.771693 
L 712.551531 85.860866 
L 717.244156 117.978518 
L 721.936781 201.443645 
L 726.629405 189.981571 
L 731.32203 197.929998 
L 736.014655 225.26756 
L 740.707279 237.234248 
L 745.399904 232.123975 
L 750.092529 252.70509 
L 754.785153 248.036843 
L 759.477778 245.887537 
L 764.170403 257.435045 
L 768.863027 247.854101 
L 773.555652 237.079393 
L 778.248277 243.252302 
L 782.940901 244.427076 
L 787.633526 236.150251 
L 792.326151 191.903934 
L 797.018775 207.181355 
L 801.7114 216.937331 
L 806.404025 230.144656 
L 811.09665 243.295019 
L 815.789274 247.121052 
L 820.481899 264.547777 
L 825.174524 264.259424 
L 829.867148 263.607959 
L 834.559773 264.577147 
L 839.252398 267.623554 
L 843.945022 266.394195 
" style="fill:none;stroke:#0000ff;stroke-dasharray:7.4,3.2;stroke-dashoffset:0;stroke-width:2;"/>
   </g>
   <g id="line2d_58">
    <path clip-path="url(#pbf779a161a)" d="M 623.391663 281.76358 
L 628.084287 273.865302 
L 632.776912 270.634189 
L 637.469537 281.76358 
L 642.162161 281.76358 
L 646.854786 281.76358 
L 651.547411 281.76358 
L 656.240035 281.76358 
L 660.93266 281.76358 
L 665.625285 281.76358 
L 670.317909 265.249 
L 675.010534 277.096416 
L 679.703159 276.737403 
L 684.395783 281.404567 
L 689.088408 273.147277 
L 693.781033 276.019378 
L 698.473657 219.6544 
L 703.166282 281.404567 
L 707.858907 261.299861 
L 712.551531 180.163014 
L 717.244156 137.081503 
L 721.936781 132.414339 
L 726.629405 134.927427 
L 731.32203 206.370934 
L 736.014655 188.061292 
L 740.707279 96.513079 
L 745.399904 217.141312 
L 750.092529 151.082994 
L 754.785153 140.671629 
L 759.477778 179.444989 
L 764.170403 220.731438 
L 768.863027 128.4652 
L 773.555652 119.130873 
L 778.248277 215.346249 
L 782.940901 178.726964 
L 787.633526 58.816756 
L 792.326151 174.0598 
L 797.018775 212.833161 
L 801.7114 255.55566 
L 806.404025 209.602047 
L 811.09665 274.224315 
L 815.789274 265.249 
L 820.481899 281.76358 
L 825.174524 276.737403 
L 829.867148 273.50629 
L 834.559773 281.76358 
L 839.252398 280.686542 
L 843.945022 277.814441 
" style="fill:none;stroke:#008000;stroke-linecap:square;"/>
   </g>
   <g id="line2d_59">
    <path clip-path="url(#pbf779a161a)" d="M 623.391663 281.76358 
L 628.084287 281.74408 
L 632.776912 281.728914 
L 637.469537 281.60542 
L 642.162161 281.76358 
L 646.854786 281.739747 
L 651.547411 281.76358 
L 656.240035 281.76358 
L 660.93266 281.76358 
L 665.625285 281.75058 
L 670.317909 273.196958 
L 675.010534 259.20741 
L 679.703159 273.134128 
L 684.395783 264.636837 
L 689.088408 226.942837 
L 693.781033 237.602365 
L 698.473657 171.129804 
L 703.166282 182.831453 
L 707.858907 34.67267 
L 712.551531 71.053729 
L 717.244156 281.76358 
L 721.936781 281.76358 
L 726.629405 281.76358 
L 731.32203 281.76358 
L 736.014655 281.76358 
L 740.707279 281.76358 
L 745.399904 281.76358 
L 750.092529 281.76358 
L 754.785153 281.76358 
L 759.477778 281.76358 
L 764.170403 281.76358 
L 768.863027 281.76358 
L 773.555652 281.76358 
L 778.248277 281.76358 
L 782.940901 281.76358 
L 787.633526 281.76358 
L 792.326151 281.76358 
L 797.018775 275.272533 
L 801.7114 250.24214 
L 806.404025 275.933337 
L 811.09665 280.002157 
L 815.789274 274.494734 
L 820.481899 281.76358 
L 825.174524 281.689916 
L 829.867148 281.76358 
L 834.559773 281.76358 
L 839.252398 281.76358 
L 843.945022 281.76358 
" style="fill:none;stroke:#ff0000;stroke-linecap:square;"/>
   </g>
   <g id="patch_15">
    <path d="M 612.363995 294.118125 
L 612.363995 22.318125 
" style="fill:none;stroke:#000000;stroke-linecap:square;stroke-linejoin:miter;stroke-width:0.8;"/>
   </g>
   <g id="patch_16">
    <path d="M 854.97269 294.118125 
L 854.97269 22.318125 
" style="fill:none;stroke:#000000;stroke-linecap:square;stroke-linejoin:miter;stroke-width:0.8;"/>
   </g>
   <g id="patch_17">
    <path d="M 612.363995 294.118125 
L 854.97269 294.118125 
" style="fill:none;stroke:#000000;stroke-linecap:square;stroke-linejoin:miter;stroke-width:0.8;"/>
   </g>
   <g id="patch_18">
    <path d="M 612.363995 22.318125 
L 854.97269 22.318125 
" style="fill:none;stroke:#000000;stroke-linecap:square;stroke-linejoin:miter;stroke-width:0.8;"/>
   </g>
   <g id="text_47">
    <!-- Year 1972 -->
    <g transform="translate(703.786467 16.318125)scale(0.12 -0.12)">
     <defs>
      <path d="M 525 4666 
L 3525 4666 
L 3525 4397 
L 1831 0 
L 1172 0 
L 2766 4134 
L 525 4134 
L 525 4666 
z
" id="DejaVuSans-37" transform="scale(0.015625)"/>
     </defs>
     <use xlink:href="#DejaVuSans-59"/>
     <use x="47.833984" xlink:href="#DejaVuSans-65"/>
     <use x="109.357422" xlink:href="#DejaVuSans-61"/>
     <use x="170.636719" xlink:href="#DejaVuSans-72"/>
     <use x="211.75" xlink:href="#DejaVuSans-20"/>
     <use x="243.537109" xlink:href="#DejaVuSans-31"/>
     <use x="307.160156" xlink:href="#DejaVuSans-39"/>
     <use x="370.783203" xlink:href="#DejaVuSans-37"/>
     <use x="434.40625" xlink:href="#DejaVuSans-32"/>
    </g>
   </g>
   <g id="legend_3">
    <g id="patch_19">
     <path d="M 619.363995 74.3525 
L 704.11712 74.3525 
Q 706.11712 74.3525 706.11712 72.3525 
L 706.11712 29.318125 
Q 706.11712 27.318125 704.11712 27.318125 
L 619.363995 27.318125 
Q 617.363995 27.318125 617.363995 29.318125 
L 617.363995 72.3525 
Q 617.363995 74.3525 619.363995 74.3525 
z
" style="fill:#ffffff;opacity:0.8;stroke:#cccccc;stroke-linejoin:miter;"/>
    </g>
    <g id="line2d_60">
     <path d="M 621.363995 35.416562 
L 641.363995 35.416562 
" style="fill:none;stroke:#0000ff;stroke-dasharray:7.4,3.2;stroke-dashoffset:0;stroke-width:2;"/>
    </g>
    <g id="line2d_61"/>
    <g id="text_48">
     <!-- Inflow -->
     <g transform="translate(649.363995 38.916562)scale(0.1 -0.1)">
      <use xlink:href="#DejaVuSans-49"/>
      <use x="29.492188" xlink:href="#DejaVuSans-6e"/>
      <use x="92.871094" xlink:href="#DejaVuSans-66"/>
      <use x="128.076172" xlink:href="#DejaVuSans-6c"/>
      <use x="155.859375" xlink:href="#DejaVuSans-6f"/>
      <use x="217.041016" xlink:href="#DejaVuSans-77"/>
     </g>
    </g>
    <g id="line2d_62">
     <path d="M 621.363995 50.094688 
L 641.363995 50.094688 
" style="fill:none;stroke:#008000;stroke-linecap:square;"/>
    </g>
    <g id="line2d_63"/>
    <g id="text_49">
     <!-- Rainfall -->
     <g transform="translate(649.363995 53.594688)scale(0.1 -0.1)">
      <use xlink:href="#DejaVuSans-52"/>
      <use x="67.232422" xlink:href="#DejaVuSans-61"/>
      <use x="128.511719" xlink:href="#DejaVuSans-69"/>
      <use x="156.294922" xlink:href="#DejaVuSans-6e"/>
      <use x="219.673828" xlink:href="#DejaVuSans-66"/>
      <use x="254.878906" xlink:href="#DejaVuSans-61"/>
      <use x="316.158203" xlink:href="#DejaVuSans-6c"/>
      <use x="343.941406" xlink:href="#DejaVuSans-6c"/>
     </g>
    </g>
    <g id="line2d_64">
     <path d="M 621.363995 64.772812 
L 641.363995 64.772812 
" style="fill:none;stroke:#ff0000;stroke-linecap:square;"/>
    </g>
    <g id="line2d_65"/>
    <g id="text_50">
     <!-- Snow melt -->
     <g transform="translate(649.363995 68.272812)scale(0.1 -0.1)">
      <use xlink:href="#DejaVuSans-53"/>
      <use x="63.476562" xlink:href="#DejaVuSans-6e"/>
      <use x="126.855469" xlink:href="#DejaVuSans-6f"/>
      <use x="188.037109" xlink:href="#DejaVuSans-77"/>
      <use x="269.824219" xlink:href="#DejaVuSans-20"/>
      <use x="301.611328" xlink:href="#DejaVuSans-6d"/>
      <use x="399.023438" xlink:href="#DejaVuSans-65"/>
      <use x="460.546875" xlink:href="#DejaVuSans-6c"/>
      <use x="488.330078" xlink:href="#DejaVuSans-74"/>
     </g>
    </g>
   </g>
  </g>
  <g id="axes_4">
   <g id="patch_20">
    <path d="M 903.494429 294.118125 
L 1146.103125 294.118125 
L 1146.103125 22.318125 
L 903.494429 22.318125 
z
" style="fill:#ffffff;"/>
   </g>
   <g id="matplotlib.axis_7">
    <g id="xtick_19">
     <g id="line2d_66">
      <g>
       <use style="stroke:#000000;stroke-width:0.8;" x="909.829473" xlink:href="#m454da0b0d8" y="294.118125"/>
      </g>
     </g>
     <g id="text_51">
      <!-- 0 -->
      <g transform="translate(906.648223 308.716563)scale(0.1 -0.1)">
       <use xlink:href="#DejaVuSans-30"/>
      </g>
     </g>
    </g>
    <g id="xtick_20">
     <g id="line2d_67">
      <g>
       <use style="stroke:#000000;stroke-width:0.8;" x="956.755719" xlink:href="#m454da0b0d8" y="294.118125"/>
      </g>
     </g>
     <g id="text_52">
      <!-- 10 -->
      <g transform="translate(950.393219 308.716563)scale(0.1 -0.1)">
       <use xlink:href="#DejaVuSans-31"/>
       <use x="63.623047" xlink:href="#DejaVuSans-30"/>
      </g>
     </g>
    </g>
    <g id="xtick_21">
     <g id="line2d_68">
      <g>
       <use style="stroke:#000000;stroke-width:0.8;" x="1003.681966" xlink:href="#m454da0b0d8" y="294.118125"/>
      </g>
     </g>
     <g id="text_53">
      <!-- 20 -->
      <g transform="translate(997.319466 308.716563)scale(0.1 -0.1)">
       <use xlink:href="#DejaVuSans-32"/>
       <use x="63.623047" xlink:href="#DejaVuSans-30"/>
      </g>
     </g>
    </g>
    <g id="xtick_22">
     <g id="line2d_69">
      <g>
       <use style="stroke:#000000;stroke-width:0.8;" x="1050.608213" xlink:href="#m454da0b0d8" y="294.118125"/>
      </g>
     </g>
     <g id="text_54">
      <!-- 30 -->
      <g transform="translate(1044.245713 308.716563)scale(0.1 -0.1)">
       <use xlink:href="#DejaVuSans-33"/>
       <use x="63.623047" xlink:href="#DejaVuSans-30"/>
      </g>
     </g>
    </g>
    <g id="xtick_23">
     <g id="line2d_70">
      <g>
       <use style="stroke:#000000;stroke-width:0.8;" x="1097.53446" xlink:href="#m454da0b0d8" y="294.118125"/>
      </g>
     </g>
     <g id="text_55">
      <!-- 40 -->
      <g transform="translate(1091.17196 308.716563)scale(0.1 -0.1)">
       <use xlink:href="#DejaVuSans-34"/>
       <use x="63.623047" xlink:href="#DejaVuSans-30"/>
      </g>
     </g>
    </g>
    <g id="xtick_24">
     <g id="line2d_71">
      <g>
       <use style="stroke:#000000;stroke-width:0.8;" x="1144.460706" xlink:href="#m454da0b0d8" y="294.118125"/>
      </g>
     </g>
     <g id="text_56">
      <!-- 50 -->
      <g transform="translate(1138.098206 308.716563)scale(0.1 -0.1)">
       <use xlink:href="#DejaVuSans-35"/>
       <use x="63.623047" xlink:href="#DejaVuSans-30"/>
      </g>
     </g>
    </g>
   </g>
   <g id="matplotlib.axis_8">
    <g id="ytick_21">
     <g id="line2d_72">
      <g>
       <use style="stroke:#000000;stroke-width:0.8;" x="903.494429" xlink:href="#m331149caac" y="281.76358"/>
      </g>
     </g>
     <g id="text_57">
      <!-- 0.0 -->
      <g transform="translate(880.591304 285.562798)scale(0.1 -0.1)">
       <use xlink:href="#DejaVuSans-30"/>
       <use x="63.623047" xlink:href="#DejaVuSans-2e"/>
       <use x="95.410156" xlink:href="#DejaVuSans-30"/>
      </g>
     </g>
    </g>
    <g id="ytick_22">
     <g id="line2d_73">
      <g>
       <use style="stroke:#000000;stroke-width:0.8;" x="903.494429" xlink:href="#m331149caac" y="224.462651"/>
      </g>
     </g>
     <g id="text_58">
      <!-- 0.2 -->
      <g transform="translate(880.591304 228.26187)scale(0.1 -0.1)">
       <use xlink:href="#DejaVuSans-30"/>
       <use x="63.623047" xlink:href="#DejaVuSans-2e"/>
       <use x="95.410156" xlink:href="#DejaVuSans-32"/>
      </g>
     </g>
    </g>
    <g id="ytick_23">
     <g id="line2d_74">
      <g>
       <use style="stroke:#000000;stroke-width:0.8;" x="903.494429" xlink:href="#m331149caac" y="167.161723"/>
      </g>
     </g>
     <g id="text_59">
      <!-- 0.4 -->
      <g transform="translate(880.591304 170.960941)scale(0.1 -0.1)">
       <use xlink:href="#DejaVuSans-30"/>
       <use x="63.623047" xlink:href="#DejaVuSans-2e"/>
       <use x="95.410156" xlink:href="#DejaVuSans-34"/>
      </g>
     </g>
    </g>
    <g id="ytick_24">
     <g id="line2d_75">
      <g>
       <use style="stroke:#000000;stroke-width:0.8;" x="903.494429" xlink:href="#m331149caac" y="109.860794"/>
      </g>
     </g>
     <g id="text_60">
      <!-- 0.6 -->
      <g transform="translate(880.591304 113.660013)scale(0.1 -0.1)">
       <use xlink:href="#DejaVuSans-30"/>
       <use x="63.623047" xlink:href="#DejaVuSans-2e"/>
       <use x="95.410156" xlink:href="#DejaVuSans-36"/>
      </g>
     </g>
    </g>
    <g id="ytick_25">
     <g id="line2d_76">
      <g>
       <use style="stroke:#000000;stroke-width:0.8;" x="903.494429" xlink:href="#m331149caac" y="52.559866"/>
      </g>
     </g>
     <g id="text_61">
      <!-- 0.8 -->
      <g transform="translate(880.591304 56.359085)scale(0.1 -0.1)">
       <use xlink:href="#DejaVuSans-30"/>
       <use x="63.623047" xlink:href="#DejaVuSans-2e"/>
       <use x="95.410156" xlink:href="#DejaVuSans-38"/>
      </g>
     </g>
    </g>
   </g>
   <g id="line2d_77">
    <path clip-path="url(#p6a74f969f0)" d="M 914.522097 268.259293 
L 919.214722 271.352831 
L 923.907347 271.805086 
L 928.599971 273.119166 
L 933.292596 271.671701 
L 937.985221 273.823214 
L 942.677845 275.184145 
L 947.37047 275.371256 
L 952.063095 274.372728 
L 956.755719 277.596869 
L 961.448344 277.768461 
L 966.140969 275.120542 
L 970.833593 276.045585 
L 975.526218 273.273699 
L 980.218843 257.916478 
L 984.911467 211.801049 
L 989.604092 156.30011 
L 994.296717 34.67267 
L 998.989341 103.107688 
L 1003.681966 179.689856 
L 1008.374591 192.436054 
L 1013.067215 236.568093 
L 1017.75984 214.566683 
L 1022.452465 208.134378 
L 1027.14509 232.417905 
L 1031.837714 231.94342 
L 1036.530339 226.776874 
L 1041.222964 245.095558 
L 1045.915588 256.627098 
L 1050.608213 262.059718 
L 1055.300838 263.401895 
L 1059.993462 254.199015 
L 1064.686087 246.840049 
L 1069.378712 246.386405 
L 1074.071336 244.461366 
L 1078.763961 250.213553 
L 1083.456586 257.927593 
L 1088.14921 256.112321 
L 1092.841835 250.046824 
L 1097.53446 242.00488 
L 1102.227084 233.457189 
L 1106.919709 225.650753 
L 1111.612334 237.669899 
L 1116.304958 248.341314 
L 1120.997583 239.025972 
L 1125.690208 249.970405 
L 1130.382832 258.555611 
L 1135.075457 259.018747 
" style="fill:none;stroke:#0000ff;stroke-dasharray:7.4,3.2;stroke-dashoffset:0;stroke-width:2;"/>
   </g>
   <g id="line2d_78">
    <path clip-path="url(#p6a74f969f0)" d="M 914.522097 281.76358 
L 919.214722 281.76358 
L 923.907347 281.76358 
L 928.599971 281.76358 
L 933.292596 281.76358 
L 937.985221 281.76358 
L 942.677845 281.76358 
L 947.37047 281.76358 
L 952.063095 281.76358 
L 956.755719 270.917143 
L 961.448344 281.76358 
L 966.140969 265.890746 
L 970.833593 280.176296 
L 975.526218 279.647202 
L 980.218843 180.177446 
L 984.911467 273.298068 
L 989.604092 273.033521 
L 994.296717 238.377835 
L 998.989341 191.817524 
L 1003.681966 247.372441 
L 1008.374591 223.563191 
L 1013.067215 179.912899 
L 1017.75984 125.416171 
L 1022.452465 205.573979 
L 1027.14509 159.013668 
L 1031.837714 198.960299 
L 1036.530339 216.420416 
L 1041.222964 180.177446 
L 1045.915588 264.303463 
L 1050.608213 214.568585 
L 1055.300838 197.90211 
L 1059.993462 171.447388 
L 1064.686087 207.954904 
L 1069.378712 223.034096 
L 1074.071336 174.357407 
L 1078.763961 243.139685 
L 1083.456586 249.224271 
L 1088.14921 169.860104 
L 1092.841835 226.208663 
L 1097.53446 275.414446 
L 1102.227084 109.014243 
L 1106.919709 259.80616 
L 1111.612334 242.081496 
L 1116.304958 266.419841 
L 1120.997583 176.209238 
L 1125.690208 281.76358 
L 1130.382832 281.76358 
L 1135.075457 231.499607 
" style="fill:none;stroke:#008000;stroke-linecap:square;"/>
   </g>
   <g id="line2d_79">
    <path clip-path="url(#p6a74f969f0)" d="M 914.522097 281.760387 
L 919.214722 281.76358 
L 923.907347 281.76358 
L 928.599971 281.76358 
L 933.292596 281.76358 
L 937.985221 281.76358 
L 942.677845 281.738036 
L 947.37047 281.76358 
L 952.063095 281.76358 
L 956.755719 281.043562 
L 961.448344 277.70051 
L 966.140969 254.905815 
L 970.833593 273.049933 
L 975.526218 275.816651 
L 980.218843 185.539886 
L 984.911467 196.696164 
L 989.604092 136.460566 
L 994.296717 189.056955 
L 998.989341 281.76358 
L 1003.681966 281.76358 
L 1008.374591 281.76358 
L 1013.067215 281.76358 
L 1017.75984 281.76358 
L 1022.452465 281.76358 
L 1027.14509 281.76358 
L 1031.837714 281.76358 
L 1036.530339 281.76358 
L 1041.222964 281.76358 
L 1045.915588 281.76358 
L 1050.608213 281.76358 
L 1055.300838 281.76358 
L 1059.993462 281.76358 
L 1064.686087 281.76358 
L 1069.378712 281.76358 
L 1074.071336 281.76358 
L 1078.763961 281.76358 
L 1083.456586 281.76358 
L 1088.14921 281.76358 
L 1092.841835 281.76358 
L 1097.53446 281.76358 
L 1102.227084 281.76358 
L 1106.919709 272.808863 
L 1111.612334 274.501143 
L 1116.304958 281.696527 
L 1120.997583 218.85386 
L 1125.690208 281.76358 
L 1130.382832 281.76358 
L 1135.075457 279.745615 
" style="fill:none;stroke:#ff0000;stroke-linecap:square;"/>
   </g>
   <g id="patch_21">
    <path d="M 903.494429 294.118125 
L 903.494429 22.318125 
" style="fill:none;stroke:#000000;stroke-linecap:square;stroke-linejoin:miter;stroke-width:0.8;"/>
   </g>
   <g id="patch_22">
    <path d="M 1146.103125 294.118125 
L 1146.103125 22.318125 
" style="fill:none;stroke:#000000;stroke-linecap:square;stroke-linejoin:miter;stroke-width:0.8;"/>
   </g>
   <g id="patch_23">
    <path d="M 903.494429 294.118125 
L 1146.103125 294.118125 
" style="fill:none;stroke:#000000;stroke-linecap:square;stroke-linejoin:miter;stroke-width:0.8;"/>
   </g>
   <g id="patch_24">
    <path d="M 903.494429 22.318125 
L 1146.103125 22.318125 
" style="fill:none;stroke:#000000;stroke-linecap:square;stroke-linejoin:miter;stroke-width:0.8;"/>
   </g>
   <g id="text_62">
    <!-- Year 1982 -->
    <g transform="translate(994.916902 16.318125)scale(0.12 -0.12)">
     <use xlink:href="#DejaVuSans-59"/>
     <use x="47.833984" xlink:href="#DejaVuSans-65"/>
     <use x="109.357422" xlink:href="#DejaVuSans-61"/>
     <use x="170.636719" xlink:href="#DejaVuSans-72"/>
     <use x="211.75" xlink:href="#DejaVuSans-20"/>
     <use x="243.537109" xlink:href="#DejaVuSans-31"/>
     <use x="307.160156" xlink:href="#DejaVuSans-39"/>
     <use x="370.783203" xlink:href="#DejaVuSans-38"/>
     <use x="434.40625" xlink:href="#DejaVuSans-32"/>
    </g>
   </g>
   <g id="legend_4">
    <g id="patch_25">
     <path d="M 1054.35 74.3525 
L 1139.103125 74.3525 
Q 1141.103125 74.3525 1141.103125 72.3525 
L 1141.103125 29.318125 
Q 1141.103125 27.318125 1139.103125 27.318125 
L 1054.35 27.318125 
Q 1052.35 27.318125 1052.35 29.318125 
L 1052.35 72.3525 
Q 1052.35 74.3525 1054.35 74.3525 
z
" style="fill:#ffffff;opacity:0.8;stroke:#cccccc;stroke-linejoin:miter;"/>
    </g>
    <g id="line2d_80">
     <path d="M 1056.35 35.416562 
L 1076.35 35.416562 
" style="fill:none;stroke:#0000ff;stroke-dasharray:7.4,3.2;stroke-dashoffset:0;stroke-width:2;"/>
    </g>
    <g id="line2d_81"/>
    <g id="text_63">
     <!-- Inflow -->
     <g transform="translate(1084.35 38.916562)scale(0.1 -0.1)">
      <use xlink:href="#DejaVuSans-49"/>
      <use x="29.492188" xlink:href="#DejaVuSans-6e"/>
      <use x="92.871094" xlink:href="#DejaVuSans-66"/>
      <use x="128.076172" xlink:href="#DejaVuSans-6c"/>
      <use x="155.859375" xlink:href="#DejaVuSans-6f"/>
      <use x="217.041016" xlink:href="#DejaVuSans-77"/>
     </g>
    </g>
    <g id="line2d_82">
     <path d="M 1056.35 50.094688 
L 1076.35 50.094688 
" style="fill:none;stroke:#008000;stroke-linecap:square;"/>
    </g>
    <g id="line2d_83"/>
    <g id="text_64">
     <!-- Rainfall -->
     <g transform="translate(1084.35 53.594688)scale(0.1 -0.1)">
      <use xlink:href="#DejaVuSans-52"/>
      <use x="67.232422" xlink:href="#DejaVuSans-61"/>
      <use x="128.511719" xlink:href="#DejaVuSans-69"/>
      <use x="156.294922" xlink:href="#DejaVuSans-6e"/>
      <use x="219.673828" xlink:href="#DejaVuSans-66"/>
      <use x="254.878906" xlink:href="#DejaVuSans-61"/>
      <use x="316.158203" xlink:href="#DejaVuSans-6c"/>
      <use x="343.941406" xlink:href="#DejaVuSans-6c"/>
     </g>
    </g>
    <g id="line2d_84">
     <path d="M 1056.35 64.772812 
L 1076.35 64.772812 
" style="fill:none;stroke:#ff0000;stroke-linecap:square;"/>
    </g>
    <g id="line2d_85"/>
    <g id="text_65">
     <!-- Snow melt -->
     <g transform="translate(1084.35 68.272812)scale(0.1 -0.1)">
      <use xlink:href="#DejaVuSans-53"/>
      <use x="63.476562" xlink:href="#DejaVuSans-6e"/>
      <use x="126.855469" xlink:href="#DejaVuSans-6f"/>
      <use x="188.037109" xlink:href="#DejaVuSans-77"/>
      <use x="269.824219" xlink:href="#DejaVuSans-20"/>
      <use x="301.611328" xlink:href="#DejaVuSans-6d"/>
      <use x="399.023438" xlink:href="#DejaVuSans-65"/>
      <use x="460.546875" xlink:href="#DejaVuSans-6c"/>
      <use x="488.330078" xlink:href="#DejaVuSans-74"/>
     </g>
    </g>
   </g>
  </g>
 </g>
 <defs>
  <clipPath id="p0f599c2519">
   <rect height="271.8" width="242.608696" x="30.103125" y="22.318125"/>
  </clipPath>
  <clipPath id="pfc92ccf257">
   <rect height="271.8" width="242.608696" x="321.23356" y="22.318125"/>
  </clipPath>
  <clipPath id="pbf779a161a">
   <rect height="271.8" width="242.608696" x="612.363995" y="22.318125"/>
  </clipPath>
  <clipPath id="p6a74f969f0">
   <rect height="271.8" width="242.608696" x="903.494429" y="22.318125"/>
  </clipPath>
 </defs>
</svg>
