<?xml version="1.0" encoding="utf-8" standalone="no"?>
<!DOCTYPE svg PUBLIC "-//W3C//DTD SVG 1.1//EN"
  "http://www.w3.org/Graphics/SVG/1.1/DTD/svg11.dtd">
<svg height="589.79625pt" version="1.1" viewBox="0 0 1150.125 589.79625" width="1150.125pt" xmlns="http://www.w3.org/2000/svg" xmlns:xlink="http://www.w3.org/1999/xlink">
 <metadata>
  <rdf:RDF xmlns:cc="http://creativecommons.org/ns#" xmlns:dc="http://purl.org/dc/elements/1.1/" xmlns:rdf="http://www.w3.org/1999/02/22-rdf-syntax-ns#">
   <cc:Work>
    <dc:type rdf:resource="http://purl.org/dc/dcmitype/StillImage"/>
    <dc:date>2021-04-10T11:31:37.994686</dc:date>
    <dc:format>image/svg+xml</dc:format>
    <dc:creator>
     <cc:Agent>
      <dc:title>Matplotlib v3.4.1, https://matplotlib.org/</dc:title>
     </cc:Agent>
    </dc:creator>
   </cc:Work>
  </rdf:RDF>
 </metadata>
 <defs>
  <style type="text/css">*{stroke-linecap:butt;stroke-linejoin:round;}</style>
 </defs>
 <g id="figure_1">
  <g id="patch_1">
   <path d="M 0 589.79625 
L 1150.125 589.79625 
L 1150.125 0 
L 0 0 
z
" style="fill:none;"/>
  </g>
  <g id="axes_1">
   <g id="patch_2">
    <path d="M 26.925 565.918125 
L 1142.925 565.918125 
L 1142.925 22.318125 
L 26.925 22.318125 
z
" style="fill:#ffffff;"/>
   </g>
   <g id="matplotlib.axis_1">
    <g id="xtick_1">
     <g id="line2d_1">
      <defs>
       <path d="M 0 0 
L 0 3.5 
" id="m8dd0ed614f" style="stroke:#000000;stroke-width:0.8;"/>
      </defs>
      <g>
       <use style="stroke:#000000;stroke-width:0.8;" x="56.066199" xlink:href="#m8dd0ed614f" y="565.918125"/>
      </g>
     </g>
     <g id="text_1">
      <!-- 0 -->
      <g transform="translate(52.884949 580.516562)scale(0.1 -0.1)">
       <defs>
        <path d="M 2034 4250 
Q 1547 4250 1301 3770 
Q 1056 3291 1056 2328 
Q 1056 1369 1301 889 
Q 1547 409 2034 409 
Q 2525 409 2770 889 
Q 3016 1369 3016 2328 
Q 3016 3291 2770 3770 
Q 2525 4250 2034 4250 
z
M 2034 4750 
Q 2819 4750 3233 4129 
Q 3647 3509 3647 2328 
Q 3647 1150 3233 529 
Q 2819 -91 2034 -91 
Q 1250 -91 836 529 
Q 422 1150 422 2328 
Q 422 3509 836 4129 
Q 1250 4750 2034 4750 
z
" id="DejaVuSans-30" transform="scale(0.015625)"/>
       </defs>
       <use xlink:href="#DejaVuSans-30"/>
      </g>
     </g>
    </g>
    <g id="xtick_2">
     <g id="line2d_2">
      <g>
       <use style="stroke:#000000;stroke-width:0.8;" x="271.926934" xlink:href="#m8dd0ed614f" y="565.918125"/>
      </g>
     </g>
     <g id="text_2">
      <!-- 10 -->
      <g transform="translate(265.564434 580.516562)scale(0.1 -0.1)">
       <defs>
        <path d="M 794 531 
L 1825 531 
L 1825 4091 
L 703 3866 
L 703 4441 
L 1819 4666 
L 2450 4666 
L 2450 531 
L 3481 531 
L 3481 0 
L 794 0 
L 794 531 
z
" id="DejaVuSans-31" transform="scale(0.015625)"/>
       </defs>
       <use xlink:href="#DejaVuSans-31"/>
       <use x="63.623047" xlink:href="#DejaVuSans-30"/>
      </g>
     </g>
    </g>
    <g id="xtick_3">
     <g id="line2d_3">
      <g>
       <use style="stroke:#000000;stroke-width:0.8;" x="487.787669" xlink:href="#m8dd0ed614f" y="565.918125"/>
      </g>
     </g>
     <g id="text_3">
      <!-- 20 -->
      <g transform="translate(481.425169 580.516562)scale(0.1 -0.1)">
       <defs>
        <path d="M 1228 531 
L 3431 531 
L 3431 0 
L 469 0 
L 469 531 
Q 828 903 1448 1529 
Q 2069 2156 2228 2338 
Q 2531 2678 2651 2914 
Q 2772 3150 2772 3378 
Q 2772 3750 2511 3984 
Q 2250 4219 1831 4219 
Q 1534 4219 1204 4116 
Q 875 4013 500 3803 
L 500 4441 
Q 881 4594 1212 4672 
Q 1544 4750 1819 4750 
Q 2544 4750 2975 4387 
Q 3406 4025 3406 3419 
Q 3406 3131 3298 2873 
Q 3191 2616 2906 2266 
Q 2828 2175 2409 1742 
Q 1991 1309 1228 531 
z
" id="DejaVuSans-32" transform="scale(0.015625)"/>
       </defs>
       <use xlink:href="#DejaVuSans-32"/>
       <use x="63.623047" xlink:href="#DejaVuSans-30"/>
      </g>
     </g>
    </g>
    <g id="xtick_4">
     <g id="line2d_4">
      <g>
       <use style="stroke:#000000;stroke-width:0.8;" x="703.648404" xlink:href="#m8dd0ed614f" y="565.918125"/>
      </g>
     </g>
     <g id="text_4">
      <!-- 30 -->
      <g transform="translate(697.285904 580.516562)scale(0.1 -0.1)">
       <defs>
        <path d="M 2597 2516 
Q 3050 2419 3304 2112 
Q 3559 1806 3559 1356 
Q 3559 666 3084 287 
Q 2609 -91 1734 -91 
Q 1441 -91 1130 -33 
Q 819 25 488 141 
L 488 750 
Q 750 597 1062 519 
Q 1375 441 1716 441 
Q 2309 441 2620 675 
Q 2931 909 2931 1356 
Q 2931 1769 2642 2001 
Q 2353 2234 1838 2234 
L 1294 2234 
L 1294 2753 
L 1863 2753 
Q 2328 2753 2575 2939 
Q 2822 3125 2822 3475 
Q 2822 3834 2567 4026 
Q 2313 4219 1838 4219 
Q 1578 4219 1281 4162 
Q 984 4106 628 3988 
L 628 4550 
Q 988 4650 1302 4700 
Q 1616 4750 1894 4750 
Q 2613 4750 3031 4423 
Q 3450 4097 3450 3541 
Q 3450 3153 3228 2886 
Q 3006 2619 2597 2516 
z
" id="DejaVuSans-33" transform="scale(0.015625)"/>
       </defs>
       <use xlink:href="#DejaVuSans-33"/>
       <use x="63.623047" xlink:href="#DejaVuSans-30"/>
      </g>
     </g>
    </g>
    <g id="xtick_5">
     <g id="line2d_5">
      <g>
       <use style="stroke:#000000;stroke-width:0.8;" x="919.509139" xlink:href="#m8dd0ed614f" y="565.918125"/>
      </g>
     </g>
     <g id="text_5">
      <!-- 40 -->
      <g transform="translate(913.146639 580.516562)scale(0.1 -0.1)">
       <defs>
        <path d="M 2419 4116 
L 825 1625 
L 2419 1625 
L 2419 4116 
z
M 2253 4666 
L 3047 4666 
L 3047 1625 
L 3713 1625 
L 3713 1100 
L 3047 1100 
L 3047 0 
L 2419 0 
L 2419 1100 
L 313 1100 
L 313 1709 
L 2253 4666 
z
" id="DejaVuSans-34" transform="scale(0.015625)"/>
       </defs>
       <use xlink:href="#DejaVuSans-34"/>
       <use x="63.623047" xlink:href="#DejaVuSans-30"/>
      </g>
     </g>
    </g>
    <g id="xtick_6">
     <g id="line2d_6">
      <g>
       <use style="stroke:#000000;stroke-width:0.8;" x="1135.369874" xlink:href="#m8dd0ed614f" y="565.918125"/>
      </g>
     </g>
     <g id="text_6">
      <!-- 50 -->
      <g transform="translate(1129.007374 580.516562)scale(0.1 -0.1)">
       <defs>
        <path d="M 691 4666 
L 3169 4666 
L 3169 4134 
L 1269 4134 
L 1269 2991 
Q 1406 3038 1543 3061 
Q 1681 3084 1819 3084 
Q 2600 3084 3056 2656 
Q 3513 2228 3513 1497 
Q 3513 744 3044 326 
Q 2575 -91 1722 -91 
Q 1428 -91 1123 -41 
Q 819 9 494 109 
L 494 744 
Q 775 591 1075 516 
Q 1375 441 1709 441 
Q 2250 441 2565 725 
Q 2881 1009 2881 1497 
Q 2881 1984 2565 2268 
Q 2250 2553 1709 2553 
Q 1456 2553 1204 2497 
Q 953 2441 691 2322 
L 691 4666 
z
" id="DejaVuSans-35" transform="scale(0.015625)"/>
       </defs>
       <use xlink:href="#DejaVuSans-35"/>
       <use x="63.623047" xlink:href="#DejaVuSans-30"/>
      </g>
     </g>
    </g>
   </g>
   <g id="matplotlib.axis_2">
    <g id="ytick_1">
     <g id="line2d_7">
      <defs>
       <path d="M 0 0 
L -3.5 0 
" id="m3bc42a91d4" style="stroke:#000000;stroke-width:0.8;"/>
      </defs>
      <g>
       <use style="stroke:#000000;stroke-width:0.8;" x="26.925" xlink:href="#m3bc42a91d4" y="541.209034"/>
      </g>
     </g>
     <g id="text_7">
      <!-- 0 -->
      <g transform="translate(13.5625 545.008253)scale(0.1 -0.1)">
       <use xlink:href="#DejaVuSans-30"/>
      </g>
     </g>
    </g>
    <g id="ytick_2">
     <g id="line2d_8">
      <g>
       <use style="stroke:#000000;stroke-width:0.8;" x="26.925" xlink:href="#m3bc42a91d4" y="449.947387"/>
      </g>
     </g>
     <g id="text_8">
      <!-- 2 -->
      <g transform="translate(13.5625 453.746606)scale(0.1 -0.1)">
       <use xlink:href="#DejaVuSans-32"/>
      </g>
     </g>
    </g>
    <g id="ytick_3">
     <g id="line2d_9">
      <g>
       <use style="stroke:#000000;stroke-width:0.8;" x="26.925" xlink:href="#m3bc42a91d4" y="358.68574"/>
      </g>
     </g>
     <g id="text_9">
      <!-- 4 -->
      <g transform="translate(13.5625 362.484959)scale(0.1 -0.1)">
       <use xlink:href="#DejaVuSans-34"/>
      </g>
     </g>
    </g>
    <g id="ytick_4">
     <g id="line2d_10">
      <g>
       <use style="stroke:#000000;stroke-width:0.8;" x="26.925" xlink:href="#m3bc42a91d4" y="267.424093"/>
      </g>
     </g>
     <g id="text_10">
      <!-- 6 -->
      <g transform="translate(13.5625 271.223312)scale(0.1 -0.1)">
       <defs>
        <path d="M 2113 2584 
Q 1688 2584 1439 2293 
Q 1191 2003 1191 1497 
Q 1191 994 1439 701 
Q 1688 409 2113 409 
Q 2538 409 2786 701 
Q 3034 994 3034 1497 
Q 3034 2003 2786 2293 
Q 2538 2584 2113 2584 
z
M 3366 4563 
L 3366 3988 
Q 3128 4100 2886 4159 
Q 2644 4219 2406 4219 
Q 1781 4219 1451 3797 
Q 1122 3375 1075 2522 
Q 1259 2794 1537 2939 
Q 1816 3084 2150 3084 
Q 2853 3084 3261 2657 
Q 3669 2231 3669 1497 
Q 3669 778 3244 343 
Q 2819 -91 2113 -91 
Q 1303 -91 875 529 
Q 447 1150 447 2328 
Q 447 3434 972 4092 
Q 1497 4750 2381 4750 
Q 2619 4750 2861 4703 
Q 3103 4656 3366 4563 
z
" id="DejaVuSans-36" transform="scale(0.015625)"/>
       </defs>
       <use xlink:href="#DejaVuSans-36"/>
      </g>
     </g>
    </g>
    <g id="ytick_5">
     <g id="line2d_11">
      <g>
       <use style="stroke:#000000;stroke-width:0.8;" x="26.925" xlink:href="#m3bc42a91d4" y="176.162446"/>
      </g>
     </g>
     <g id="text_11">
      <!-- 8 -->
      <g transform="translate(13.5625 179.961665)scale(0.1 -0.1)">
       <defs>
        <path d="M 2034 2216 
Q 1584 2216 1326 1975 
Q 1069 1734 1069 1313 
Q 1069 891 1326 650 
Q 1584 409 2034 409 
Q 2484 409 2743 651 
Q 3003 894 3003 1313 
Q 3003 1734 2745 1975 
Q 2488 2216 2034 2216 
z
M 1403 2484 
Q 997 2584 770 2862 
Q 544 3141 544 3541 
Q 544 4100 942 4425 
Q 1341 4750 2034 4750 
Q 2731 4750 3128 4425 
Q 3525 4100 3525 3541 
Q 3525 3141 3298 2862 
Q 3072 2584 2669 2484 
Q 3125 2378 3379 2068 
Q 3634 1759 3634 1313 
Q 3634 634 3220 271 
Q 2806 -91 2034 -91 
Q 1263 -91 848 271 
Q 434 634 434 1313 
Q 434 1759 690 2068 
Q 947 2378 1403 2484 
z
M 1172 3481 
Q 1172 3119 1398 2916 
Q 1625 2713 2034 2713 
Q 2441 2713 2670 2916 
Q 2900 3119 2900 3481 
Q 2900 3844 2670 4047 
Q 2441 4250 2034 4250 
Q 1625 4250 1398 4047 
Q 1172 3844 1172 3481 
z
" id="DejaVuSans-38" transform="scale(0.015625)"/>
       </defs>
       <use xlink:href="#DejaVuSans-38"/>
      </g>
     </g>
    </g>
    <g id="ytick_6">
     <g id="line2d_12">
      <g>
       <use style="stroke:#000000;stroke-width:0.8;" x="26.925" xlink:href="#m3bc42a91d4" y="84.900799"/>
      </g>
     </g>
     <g id="text_12">
      <!-- 10 -->
      <g transform="translate(7.2 88.700018)scale(0.1 -0.1)">
       <use xlink:href="#DejaVuSans-31"/>
       <use x="63.623047" xlink:href="#DejaVuSans-30"/>
      </g>
     </g>
    </g>
   </g>
   <g id="line2d_13">
    <path clip-path="url(#p656a2337ea)" d="M 77.652273 541.209034 
L 99.238346 532.995486 
L 120.82442 536.645952 
L 142.410493 514.286848 
L 163.996567 533.451794 
L 185.58264 541.209034 
L 207.168714 505.160684 
L 228.754787 541.209034 
L 250.340861 539.840109 
L 271.926934 541.209034 
L 293.513008 541.209034 
L 315.099081 355.947891 
L 336.685155 512.461615 
L 358.271228 509.267458 
L 379.857302 472.306491 
L 401.443375 377.394378 
L 423.029449 527.063479 
L 444.615522 502.879142 
L 466.201596 458.617244 
L 487.787669 538.014876 
L 509.373743 481.888964 
L 530.959816 423.025201 
L 552.54589 499.684985 
L 574.131963 441.733839 
L 595.718037 232.744667 
L 617.30411 482.80158 
L 638.890184 489.189895 
L 660.476257 397.928248 
L 682.062331 465.461867 
L 703.648404 494.209286 
L 725.234478 502.879142 
L 746.820551 407.054413 
L 768.406625 270.618251 
L 789.992698 308.948143 
L 811.578772 318.986924 
L 833.164845 438.539681 
L 854.750919 412.073804 
L 876.336992 485.995738 
L 897.923066 467.743408 
L 919.509139 494.209286 
L 941.095213 517.024698 
L 962.681286 464.092942 
L 984.26736 489.189895 
L 1005.853433 452.685237 
L 1027.439507 507.442225 
L 1049.02558 540.752726 
L 1070.611654 541.209034 
L 1092.197727 541.209034 
" style="fill:none;stroke:#1f77b4;stroke-linecap:square;stroke-width:1.5;"/>
   </g>
   <g id="line2d_14">
    <path clip-path="url(#p656a2337ea)" d="M 77.652273 541.209034 
L 99.238346 541.209034 
L 120.82442 541.209034 
L 142.410493 541.209034 
L 163.996567 541.209034 
L 185.58264 522.956705 
L 207.168714 512.005307 
L 228.754787 541.209034 
L 250.340861 513.83054 
L 271.926934 541.209034 
L 293.513008 541.209034 
L 315.099081 534.820719 
L 336.685155 390.627317 
L 358.271228 520.218855 
L 379.857302 339.064486 
L 401.443375 539.383801 
L 423.029449 274.725025 
L 444.615522 354.122658 
L 466.201596 428.5009 
L 487.787669 444.927997 
L 509.373743 263.317319 
L 530.959816 501.053909 
L 552.54589 415.267961 
L 574.131963 470.024949 
L 595.718037 346.821726 
L 617.30411 449.947387 
L 638.890184 435.801832 
L 660.476257 374.20022 
L 682.062331 401.122406 
L 703.648404 324.918931 
L 725.234478 429.869825 
L 746.820551 402.491331 
L 768.406625 426.675667 
L 789.992698 394.277783 
L 811.578772 320.355848 
L 833.164845 322.63739 
L 854.750919 476.869573 
L 876.336992 404.772872 
L 897.923066 525.694554 
L 919.509139 492.384053 
L 941.095213 460.442477 
L 962.681286 536.645952 
L 984.26736 317.161691 
L 1005.853433 541.209034 
L 1027.439507 541.209034 
L 1049.02558 541.209034 
L 1070.611654 541.209034 
L 1092.197727 541.209034 
" style="fill:none;stroke:#ff7f0e;stroke-linecap:square;stroke-width:1.5;"/>
   </g>
   <g id="line2d_15">
    <path clip-path="url(#p656a2337ea)" d="M 77.652273 541.209034 
L 99.238346 541.209034 
L 120.82442 541.209034 
L 142.410493 541.209034 
L 163.996567 541.209034 
L 185.58264 541.209034 
L 207.168714 535.277027 
L 228.754787 541.209034 
L 250.340861 541.209034 
L 271.926934 509.723766 
L 293.513008 541.209034 
L 315.099081 541.209034 
L 336.685155 536.645952 
L 358.271228 413.899037 
L 379.857302 492.840361 
L 401.443375 527.063479 
L 423.029449 419.374735 
L 444.615522 454.966778 
L 466.201596 511.092691 
L 487.787669 340.433411 
L 509.373743 538.014876 
L 530.959816 438.99599 
L 552.54589 508.811149 
L 574.131963 376.481761 
L 595.718037 418.462119 
L 617.30411 465.005559 
L 638.890184 245.06499 
L 660.476257 369.637138 
L 682.062331 401.578714 
L 703.648404 425.306742 
L 725.234478 277.919183 
L 746.820551 435.801832 
L 768.406625 463.636634 
L 789.992698 355.491583 
L 811.578772 230.919434 
L 833.164845 437.170757 
L 854.750919 459.52986 
L 876.336992 536.645952 
L 897.923066 483.714197 
L 919.509139 375.569145 
L 941.095213 461.811401 
L 962.681286 527.519787 
L 984.26736 537.10226 
L 1005.853433 541.209034 
L 1027.439507 541.209034 
L 1049.02558 541.209034 
L 1070.611654 541.209034 
L 1092.197727 541.209034 
" style="fill:none;stroke:#2ca02c;stroke-linecap:square;stroke-width:1.5;"/>
   </g>
   <g id="line2d_16">
    <path clip-path="url(#p656a2337ea)" d="M 77.652273 541.209034 
L 99.238346 530.257636 
L 120.82442 541.209034 
L 142.410493 541.209034 
L 163.996567 541.209034 
L 185.58264 541.209034 
L 207.168714 541.209034 
L 228.754787 541.209034 
L 250.340861 541.209034 
L 271.926934 541.209034 
L 293.513008 541.209034 
L 315.099081 541.209034 
L 336.685155 425.306742 
L 358.271228 489.646204 
L 379.857302 420.74366 
L 401.443375 520.218855 
L 423.029449 498.772368 
L 444.615522 375.569145 
L 466.201596 478.694806 
L 487.787669 448.122154 
L 509.373743 421.199968 
L 530.959816 462.724018 
L 552.54589 444.01538 
L 574.131963 395.190399 
L 595.718037 486.452046 
L 617.30411 298.453053 
L 638.890184 453.141545 
L 660.476257 366.899288 
L 682.062331 474.131724 
L 703.648404 336.326637 
L 725.234478 427.588284 
L 746.820551 315.792766 
L 768.406625 334.045096 
L 789.992698 397.015632 
L 811.578772 270.161943 
L 833.164845 511.092691 
L 854.750919 302.103519 
L 876.336992 485.995738 
L 897.923066 506.529608 
L 919.509139 473.219107 
L 941.095213 522.956705 
L 962.681286 536.645952 
L 984.26736 463.180326 
L 1005.853433 541.209034 
L 1027.439507 536.645952 
L 1049.02558 540.296418 
L 1070.611654 541.209034 
L 1092.197727 541.209034 
" style="fill:none;stroke:#d62728;stroke-linecap:square;stroke-width:1.5;"/>
   </g>
   <g id="line2d_17">
    <path clip-path="url(#p656a2337ea)" d="M 77.652273 541.209034 
L 99.238346 541.209034 
L 120.82442 485.995738 
L 142.410493 539.840109 
L 163.996567 540.752726 
L 185.58264 541.209034 
L 207.168714 541.209034 
L 228.754787 536.645952 
L 250.340861 541.209034 
L 271.926934 527.519787 
L 293.513008 535.277027 
L 315.099081 541.209034 
L 336.685155 530.713945 
L 358.271228 540.296418 
L 379.857302 449.491079 
L 401.443375 477.782189 
L 423.029449 530.713945 
L 444.615522 519.306239 
L 466.201596 521.131472 
L 487.787669 381.95746 
L 509.373743 454.054161 
L 530.959816 426.675667 
L 552.54589 311.229684 
L 574.131963 251.453305 
L 595.718037 396.559324 
L 617.30411 321.268465 
L 638.890184 449.947387 
L 660.476257 305.753985 
L 682.062331 392.45255 
L 703.648404 438.083373 
L 725.234478 497.403444 
L 746.820551 432.607674 
L 768.406625 113.648218 
L 789.992698 296.62782 
L 811.578772 312.598609 
L 833.164845 459.073552 
L 854.750919 515.199465 
L 876.336992 520.218855 
L 897.923066 363.248823 
L 919.509139 448.122154 
L 941.095213 473.219107 
L 962.681286 331.763554 
L 984.26736 404.772872 
L 1005.853433 541.209034 
L 1027.439507 527.063479 
L 1049.02558 512.005307 
L 1070.611654 467.743408 
L 1092.197727 530.713945 
" style="fill:none;stroke:#9467bd;stroke-linecap:square;stroke-width:1.5;"/>
   </g>
   <g id="line2d_18">
    <path clip-path="url(#p656a2337ea)" d="M 77.652273 541.209034 
L 99.238346 541.209034 
L 120.82442 541.209034 
L 142.410493 541.209034 
L 163.996567 541.209034 
L 185.58264 541.209034 
L 207.168714 541.209034 
L 228.754787 541.209034 
L 250.340861 541.209034 
L 271.926934 525.694554 
L 293.513008 541.209034 
L 315.099081 540.752726 
L 336.685155 541.209034 
L 358.271228 541.209034 
L 379.857302 305.753985 
L 401.443375 413.442728 
L 423.029449 495.578211 
L 444.615522 451.316312 
L 466.201596 391.996241 
L 487.787669 351.384808 
L 509.373743 410.704879 
L 530.959816 246.890223 
L 552.54589 442.190147 
L 574.131963 312.1423 
L 595.718037 421.199968 
L 617.30411 153.803343 
L 638.890184 479.151114 
L 660.476257 397.015632 
L 682.062331 416.180578 
L 703.648404 367.355597 
L 725.234478 313.054917 
L 746.820551 332.676171 
L 768.406625 366.44298 
L 789.992698 329.938321 
L 811.578772 405.685488 
L 833.164845 432.607674 
L 854.750919 452.685237 
L 876.336992 264.686244 
L 897.923066 511.092691 
L 919.509139 506.529608 
L 941.095213 528.888712 
L 962.681286 509.723766 
L 984.26736 429.869825 
L 1005.853433 539.383801 
L 1027.439507 541.209034 
L 1049.02558 541.209034 
L 1070.611654 541.209034 
L 1092.197727 541.209034 
" style="fill:none;stroke:#8c564b;stroke-linecap:square;stroke-width:1.5;"/>
   </g>
   <g id="line2d_19">
    <path clip-path="url(#p656a2337ea)" d="M 77.652273 541.209034 
L 99.238346 541.209034 
L 120.82442 533.451794 
L 142.410493 541.209034 
L 163.996567 541.209034 
L 185.58264 541.209034 
L 207.168714 541.209034 
L 228.754787 541.209034 
L 250.340861 541.209034 
L 271.926934 541.209034 
L 293.513008 540.752726 
L 315.099081 541.209034 
L 336.685155 522.500396 
L 358.271228 540.752726 
L 379.857302 507.442225 
L 401.443375 476.413265 
L 423.029449 521.131472 
L 444.615522 413.899037 
L 466.201596 438.99599 
L 487.787669 490.55882 
L 509.373743 358.68574 
L 530.959816 128.250082 
L 552.54589 498.772368 
L 574.131963 451.77262 
L 595.718037 255.560079 
L 617.30411 429.413517 
L 638.890184 285.676423 
L 660.476257 343.627568 
L 682.062331 520.218855 
L 703.648404 398.384557 
L 725.234478 335.41402 
L 746.820551 418.918427 
L 768.406625 426.675667 
L 789.992698 430.326133 
L 811.578772 376.93807 
L 833.164845 466.830792 
L 854.750919 457.704627 
L 876.336992 465.461867 
L 897.923066 498.772368 
L 919.509139 453.597853 
L 941.095213 448.122154 
L 962.681286 493.752978 
L 984.26736 530.257636 
L 1005.853433 478.238498 
L 1027.439507 523.413013 
L 1049.02558 541.209034 
L 1070.611654 541.209034 
L 1092.197727 541.209034 
" style="fill:none;stroke:#e377c2;stroke-linecap:square;stroke-width:1.5;"/>
   </g>
   <g id="line2d_20">
    <path clip-path="url(#p656a2337ea)" d="M 77.652273 541.209034 
L 99.238346 541.209034 
L 120.82442 541.209034 
L 142.410493 541.209034 
L 163.996567 541.209034 
L 185.58264 465.461867 
L 207.168714 541.209034 
L 228.754787 541.209034 
L 250.340861 541.209034 
L 271.926934 541.209034 
L 293.513008 541.209034 
L 315.099081 518.393622 
L 336.685155 495.121902 
L 358.271228 527.976095 
L 379.857302 421.199968 
L 401.443375 540.752726 
L 423.029449 372.831295 
L 444.615522 278.375491 
L 466.201596 536.645952 
L 487.787669 531.170253 
L 509.373743 367.811905 
L 530.959816 461.811401 
L 552.54589 420.74366 
L 574.131963 281.569649 
L 595.718037 369.18083 
L 617.30411 392.908858 
L 638.890184 360.510973 
L 660.476257 186.657536 
L 682.062331 255.103771 
L 703.648404 434.432907 
L 725.234478 504.248067 
L 746.820551 399.297173 
L 768.406625 436.714448 
L 789.992698 260.123162 
L 811.578772 416.180578 
L 833.164845 477.325881 
L 854.750919 428.957208 
L 876.336992 507.898533 
L 897.923066 462.267709 
L 919.509139 483.257888 
L 941.095213 481.432655 
L 962.681286 459.52986 
L 984.26736 463.180326 
L 1005.853433 488.277279 
L 1027.439507 530.713945 
L 1049.02558 541.209034 
L 1070.611654 541.209034 
L 1092.197727 541.209034 
" style="fill:none;stroke:#7f7f7f;stroke-linecap:square;stroke-width:1.5;"/>
   </g>
   <g id="line2d_21">
    <path clip-path="url(#p656a2337ea)" d="M 77.652273 541.209034 
L 99.238346 541.209034 
L 120.82442 541.209034 
L 142.410493 541.209034 
L 163.996567 541.209034 
L 185.58264 541.209034 
L 207.168714 541.209034 
L 228.754787 541.209034 
L 250.340861 541.209034 
L 271.926934 541.209034 
L 293.513008 541.209034 
L 315.099081 531.626561 
L 336.685155 495.121902 
L 358.271228 533.908102 
L 379.857302 522.500396 
L 401.443375 538.927493 
L 423.029449 506.529608 
L 444.615522 367.811905 
L 466.201596 458.617244 
L 487.787669 531.170253 
L 509.373743 318.074307 
L 530.959816 513.83054 
L 552.54589 304.38506 
L 574.131963 390.171008 
L 595.718037 454.966778 
L 617.30411 399.753481 
L 638.890184 443.559072 
L 660.476257 346.821726 
L 682.062331 387.889467 
L 703.648404 233.657284 
L 725.234478 432.151366 
L 746.820551 325.831547 
L 768.406625 459.073552 
L 789.992698 210.841872 
L 811.578772 534.820719 
L 833.164845 391.083625 
L 854.750919 518.849931 
L 876.336992 471.393874 
L 897.923066 541.209034 
L 919.509139 483.714197 
L 941.095213 515.199465 
L 962.681286 462.724018 
L 984.26736 527.519787 
L 1005.853433 512.461615 
L 1027.439507 506.0733 
L 1049.02558 534.820719 
L 1070.611654 541.209034 
L 1092.197727 541.209034 
" style="fill:none;stroke:#bcbd22;stroke-linecap:square;stroke-width:1.5;"/>
   </g>
   <g id="line2d_22">
    <path clip-path="url(#p656a2337ea)" d="M 77.652273 541.209034 
L 99.238346 529.801328 
L 120.82442 541.209034 
L 142.410493 541.209034 
L 163.996567 540.752726 
L 185.58264 541.209034 
L 207.168714 541.209034 
L 228.754787 541.209034 
L 250.340861 541.209034 
L 271.926934 541.209034 
L 293.513008 541.209034 
L 315.099081 533.908102 
L 336.685155 476.869573 
L 358.271228 513.83054 
L 379.857302 494.209286 
L 401.443375 471.393874 
L 423.029449 305.297677 
L 444.615522 477.325881 
L 466.201596 459.073552 
L 487.787669 314.423841 
L 509.373743 420.74366 
L 530.959816 484.626813 
L 552.54589 419.831044 
L 574.131963 433.976599 
L 595.718037 541.209034 
L 617.30411 50.677682 
L 638.890184 404.316564 
L 660.476257 263.773627 
L 682.062331 293.433663 
L 703.648404 434.432907 
L 725.234478 451.77262 
L 746.820551 438.083373 
L 768.406625 352.753733 
L 789.992698 235.938825 
L 811.578772 430.326133 
L 833.164845 482.345272 
L 854.750919 501.510218 
L 876.336992 361.879898 
L 897.923066 501.966526 
L 919.509139 482.80158 
L 941.095213 541.209034 
L 962.681286 525.694554 
L 984.26736 541.209034 
L 1005.853433 540.752726 
L 1027.439507 521.131472 
L 1049.02558 541.209034 
L 1070.611654 541.209034 
L 1092.197727 541.209034 
" style="fill:none;stroke:#17becf;stroke-linecap:square;stroke-width:1.5;"/>
   </g>
   <g id="line2d_23">
    <path clip-path="url(#p656a2337ea)" d="M 77.652273 541.209034 
L 99.238346 541.209034 
L 120.82442 541.209034 
L 142.410493 541.209034 
L 163.996567 541.209034 
L 185.58264 541.209034 
L 207.168714 541.209034 
L 228.754787 541.209034 
L 250.340861 541.209034 
L 271.926934 541.209034 
L 293.513008 541.209034 
L 315.099081 401.122406 
L 336.685155 500.141293 
L 358.271228 532.539178 
L 379.857302 381.501152 
L 401.443375 494.209286 
L 423.029449 514.286848 
L 444.615522 530.257636 
L 466.201596 343.627568 
L 487.787669 460.442477 
L 509.373743 412.073804 
L 530.959816 499.684985 
L 552.54589 132.356856 
L 574.131963 499.684985 
L 595.718037 262.861011 
L 617.30411 276.09395 
L 638.890184 296.171512 
L 660.476257 401.578714 
L 682.062331 366.44298 
L 703.648404 390.627317 
L 725.234478 344.540185 
L 746.820551 376.93807 
L 768.406625 443.559072 
L 789.992698 323.550006 
L 811.578772 485.083121 
L 833.164845 461.811401 
L 854.750919 386.520543 
L 876.336992 473.219107 
L 897.923066 460.898785 
L 919.509139 500.141293 
L 941.095213 462.267709 
L 962.681286 449.491079 
L 984.26736 447.209538 
L 1005.853433 449.947387 
L 1027.439507 541.209034 
L 1049.02558 541.209034 
L 1070.611654 541.209034 
L 1092.197727 541.209034 
" style="fill:none;stroke:#1f77b4;stroke-linecap:square;stroke-width:1.5;"/>
   </g>
   <g id="line2d_24">
    <path clip-path="url(#p656a2337ea)" d="M 77.652273 541.209034 
L 99.238346 541.209034 
L 120.82442 541.209034 
L 142.410493 541.209034 
L 163.996567 541.209034 
L 185.58264 541.209034 
L 207.168714 541.209034 
L 228.754787 541.209034 
L 250.340861 433.520291 
L 271.926934 531.626561 
L 293.513008 541.209034 
L 315.099081 541.209034 
L 336.685155 518.849931 
L 358.271228 473.219107 
L 379.857302 504.248067 
L 401.443375 520.675164 
L 423.029449 515.655773 
L 444.615522 252.82223 
L 466.201596 429.869825 
L 487.787669 376.025453 
L 509.373743 307.12291 
L 530.959816 295.715204 
L 552.54589 313.511225 
L 574.131963 267.880402 
L 595.718037 369.637138 
L 617.30411 371.918679 
L 638.890184 344.540185 
L 660.476257 344.996493 
L 682.062331 477.325881 
L 703.648404 238.676674 
L 725.234478 381.501152 
L 746.820551 459.986168 
L 768.406625 391.996241 
L 789.992698 445.384305 
L 811.578772 390.627317 
L 833.164845 396.103015 
L 854.750919 409.335954 
L 876.336992 465.918175 
L 897.923066 444.927997 
L 919.509139 508.811149 
L 941.095213 505.160684 
L 962.681286 475.04434 
L 984.26736 541.209034 
L 1005.853433 418.005811 
L 1027.439507 536.189644 
L 1049.02558 536.645952 
L 1070.611654 541.209034 
L 1092.197727 380.588535 
" style="fill:none;stroke:#ff7f0e;stroke-linecap:square;stroke-width:1.5;"/>
   </g>
   <g id="line2d_25">
    <path clip-path="url(#p656a2337ea)" d="M 77.652273 541.209034 
L 99.238346 517.481006 
L 120.82442 541.209034 
L 142.410493 541.209034 
L 163.996567 491.015128 
L 185.58264 529.34502 
L 207.168714 541.209034 
L 228.754787 541.209034 
L 250.340861 523.413013 
L 271.926934 541.209034 
L 293.513008 541.209034 
L 315.099081 541.209034 
L 336.685155 531.626561 
L 358.271228 513.374232 
L 379.857302 499.684985 
L 401.443375 538.927493 
L 423.029449 509.267458 
L 444.615522 368.724521 
L 466.201596 256.472696 
L 487.787669 418.918427 
L 509.373743 419.831044 
L 530.959816 468.656025 
L 552.54589 504.248067 
L 574.131963 368.724521 
L 595.718037 312.598609 
L 617.30411 336.782945 
L 638.890184 333.132479 
L 660.476257 409.335954 
L 682.062331 156.541192 
L 703.648404 425.306742 
L 725.234478 311.229684 
L 746.820551 382.870077 
L 768.406625 399.753481 
L 789.992698 360.967281 
L 811.578772 318.074307 
L 833.164845 429.869825 
L 854.750919 381.95746 
L 876.336992 334.957712 
L 897.923066 396.559324 
L 919.509139 496.490827 
L 941.095213 532.082869 
L 962.681286 501.966526 
L 984.26736 541.209034 
L 1005.853433 541.209034 
L 1027.439507 533.451794 
L 1049.02558 541.209034 
L 1070.611654 541.209034 
L 1092.197727 538.014876 
" style="fill:none;stroke:#2ca02c;stroke-linecap:square;stroke-width:1.5;"/>
   </g>
   <g id="line2d_26">
    <path clip-path="url(#p656a2337ea)" d="M 77.652273 541.209034 
L 99.238346 541.209034 
L 120.82442 541.209034 
L 142.410493 541.209034 
L 163.996567 541.209034 
L 185.58264 468.656025 
L 207.168714 541.209034 
L 228.754787 540.296418 
L 250.340861 527.519787 
L 271.926934 541.209034 
L 293.513008 506.0733 
L 315.099081 491.927745 
L 336.685155 540.752726 
L 358.271228 539.383801 
L 379.857302 519.762547 
L 401.443375 457.248319 
L 423.029449 521.58778 
L 444.615522 531.626561 
L 466.201596 343.17126 
L 487.787669 454.966778 
L 509.373743 395.646707 
L 530.959816 390.627317 
L 552.54589 478.694806 
L 574.131963 411.617495 
L 595.718037 409.335954 
L 617.30411 375.112837 
L 638.890184 457.704627 
L 660.476257 360.054665 
L 682.062331 114.104526 
L 703.648404 421.199968 
L 725.234478 438.99599 
L 746.820551 353.66635 
L 768.406625 308.948143 
L 789.992698 431.23875 
L 811.578772 328.113088 
L 833.164845 268.33671 
L 854.750919 337.239253 
L 876.336992 267.880402 
L 897.923066 518.393622 
L 919.509139 508.811149 
L 941.095213 280.657032 
L 962.681286 432.151366 
L 984.26736 521.131472 
L 1005.853433 303.472444 
L 1027.439507 540.752726 
L 1049.02558 509.267458 
L 1070.611654 541.209034 
L 1092.197727 541.209034 
" style="fill:none;stroke:#d62728;stroke-linecap:square;stroke-width:1.5;"/>
   </g>
   <g id="line2d_27">
    <path clip-path="url(#p656a2337ea)" d="M 77.652273 541.209034 
L 99.238346 541.209034 
L 120.82442 541.209034 
L 142.410493 540.296418 
L 163.996567 541.209034 
L 185.58264 541.209034 
L 207.168714 541.209034 
L 228.754787 541.209034 
L 250.340861 541.209034 
L 271.926934 541.209034 
L 293.513008 541.209034 
L 315.099081 494.665594 
L 336.685155 535.277027 
L 358.271228 493.296669 
L 379.857302 500.597601 
L 401.443375 537.10226 
L 423.029449 410.704879 
L 444.615522 516.568389 
L 466.201596 401.122406 
L 487.787669 532.082869 
L 509.373743 350.9285 
L 530.959816 472.762799 
L 552.54589 520.218855 
L 574.131963 484.170505 
L 595.718037 358.68574 
L 617.30411 349.103267 
L 638.890184 465.461867 
L 660.476257 383.326385 
L 682.062331 423.937818 
L 703.648404 299.821978 
L 725.234478 424.394126 
L 746.820551 478.694806 
L 768.406625 493.752978 
L 789.992698 506.985916 
L 811.578772 322.181081 
L 833.164845 96.308505 
L 854.750919 485.083121 
L 876.336992 363.248823 
L 897.923066 55.697072 
L 919.509139 444.927997 
L 941.095213 326.287856 
L 962.681286 491.015128 
L 984.26736 538.471185 
L 1005.853433 470.937566 
L 1027.439507 522.500396 
L 1049.02558 495.578211 
L 1070.611654 496.034519 
L 1092.197727 541.209034 
" style="fill:none;stroke:#9467bd;stroke-linecap:square;stroke-width:1.5;"/>
   </g>
   <g id="line2d_28">
    <path clip-path="url(#p656a2337ea)" d="M 77.652273 541.209034 
L 99.238346 541.209034 
L 120.82442 540.752726 
L 142.410493 541.209034 
L 163.996567 496.947135 
L 185.58264 541.209034 
L 207.168714 541.209034 
L 228.754787 541.209034 
L 250.340861 541.209034 
L 271.926934 541.209034 
L 293.513008 536.645952 
L 315.099081 464.092942 
L 336.685155 501.510218 
L 358.271228 482.80158 
L 379.857302 539.840109 
L 401.443375 435.345524 
L 423.029449 540.752726 
L 444.615522 507.442225 
L 466.201596 515.655773 
L 487.787669 528.432404 
L 509.373743 404.772872 
L 530.959816 482.345272 
L 552.54589 410.704879 
L 574.131963 458.617244 
L 595.718037 450.403695 
L 617.30411 406.141797 
L 638.890184 256.929004 
L 660.476257 301.190903 
L 682.062331 439.452298 
L 703.648404 362.792514 
L 725.234478 253.734846 
L 746.820551 378.763303 
L 768.406625 440.364914 
L 789.992698 417.093194 
L 811.578772 479.151114 
L 833.164845 444.927997 
L 854.750919 391.996241 
L 876.336992 423.937818 
L 897.923066 456.335702 
L 919.509139 415.267961 
L 941.095213 533.908102 
L 962.681286 541.209034 
L 984.26736 541.209034 
L 1005.853433 536.189644 
L 1027.439507 541.209034 
L 1049.02558 532.082869 
L 1070.611654 541.209034 
L 1092.197727 541.209034 
" style="fill:none;stroke:#8c564b;stroke-linecap:square;stroke-width:1.5;"/>
   </g>
   <g id="line2d_29">
    <path clip-path="url(#p656a2337ea)" d="M 77.652273 541.209034 
L 99.238346 541.209034 
L 120.82442 541.209034 
L 142.410493 510.180074 
L 163.996567 541.209034 
L 185.58264 540.752726 
L 207.168714 541.209034 
L 228.754787 541.209034 
L 250.340861 541.209034 
L 271.926934 539.383801 
L 293.513008 531.626561 
L 315.099081 533.908102 
L 336.685155 540.752726 
L 358.271228 465.005559 
L 379.857302 512.461615 
L 401.443375 536.189644 
L 423.029449 507.442225 
L 444.615522 361.42359 
L 466.201596 407.510721 
L 487.787669 514.286848 
L 509.373743 285.676423 
L 530.959816 493.752978 
L 552.54589 353.66635 
L 574.131963 379.675919 
L 595.718037 363.248823 
L 617.30411 356.860507 
L 638.890184 474.131724 
L 660.476257 309.404451 
L 682.062331 247.346531 
L 703.648404 245.521298 
L 725.234478 413.899037 
L 746.820551 426.219359 
L 768.406625 321.724773 
L 789.992698 386.976851 
L 811.578772 476.869573 
L 833.164845 395.190399 
L 854.750919 467.743408 
L 876.336992 423.937818 
L 897.923066 468.199717 
L 919.509139 530.257636 
L 941.095213 303.928752 
L 962.681286 411.617495 
L 984.26736 446.75323 
L 1005.853433 541.209034 
L 1027.439507 541.209034 
L 1049.02558 454.510469 
L 1070.611654 541.209034 
L 1092.197727 539.840109 
" style="fill:none;stroke:#e377c2;stroke-linecap:square;stroke-width:1.5;"/>
   </g>
   <g id="line2d_30">
    <path clip-path="url(#p656a2337ea)" d="M 77.652273 541.209034 
L 99.238346 541.209034 
L 120.82442 541.209034 
L 142.410493 541.209034 
L 163.996567 533.451794 
L 185.58264 538.471185 
L 207.168714 541.209034 
L 228.754787 541.209034 
L 250.340861 541.209034 
L 271.926934 541.209034 
L 293.513008 540.752726 
L 315.099081 541.209034 
L 336.685155 541.209034 
L 358.271228 531.626561 
L 379.857302 515.655773 
L 401.443375 501.966526 
L 423.029449 444.927997 
L 444.615522 535.277027 
L 466.201596 424.394126 
L 487.787669 375.569145 
L 509.373743 268.793018 
L 530.959816 379.675919 
L 552.54589 365.986672 
L 574.131963 389.7147 
L 595.718037 303.928752 
L 617.30411 302.103519 
L 638.890184 87.638649 
L 660.476257 299.36567 
L 682.062331 393.365166 
L 703.648404 481.432655 
L 725.234478 346.365418 
L 746.820551 358.68574 
L 768.406625 163.842124 
L 789.992698 441.733839 
L 811.578772 385.607926 
L 833.164845 412.98642 
L 854.750919 469.568641 
L 876.336992 470.937566 
L 897.923066 495.578211 
L 919.509139 537.10226 
L 941.095213 536.189644 
L 962.681286 378.763303 
L 984.26736 463.180326 
L 1005.853433 541.209034 
L 1027.439507 527.063479 
L 1049.02558 540.296418 
L 1070.611654 538.471185 
L 1092.197727 541.209034 
" style="fill:none;stroke:#7f7f7f;stroke-linecap:square;stroke-width:1.5;"/>
   </g>
   <g id="line2d_31">
    <path clip-path="url(#p656a2337ea)" d="M 77.652273 541.209034 
L 99.238346 541.209034 
L 120.82442 541.209034 
L 142.410493 541.209034 
L 163.996567 541.209034 
L 185.58264 541.209034 
L 207.168714 541.209034 
L 228.754787 534.364411 
L 250.340861 541.209034 
L 271.926934 499.684985 
L 293.513008 540.752726 
L 315.099081 541.209034 
L 336.685155 512.461615 
L 358.271228 485.539429 
L 379.857302 464.092942 
L 401.443375 493.752978 
L 423.029449 441.277531 
L 444.615522 456.335702 
L 466.201596 441.277531 
L 487.787669 493.752978 
L 509.373743 435.801832 
L 530.959816 535.277027 
L 552.54589 369.18083 
L 574.131963 418.462119 
L 595.718037 393.821474 
L 617.30411 395.646707 
L 638.890184 290.239505 
L 660.476257 369.18083 
L 682.062331 421.199968 
L 703.648404 326.287856 
L 725.234478 399.753481 
L 746.820551 317.617999 
L 768.406625 350.9285 
L 789.992698 475.04434 
L 811.578772 282.938573 
L 833.164845 375.569145 
L 854.750919 242.783449 
L 876.336992 418.918427 
L 897.923066 385.607926 
L 919.509139 489.646204 
L 941.095213 500.597601 
L 962.681286 541.209034 
L 984.26736 476.869573 
L 1005.853433 540.752726 
L 1027.439507 539.383801 
L 1049.02558 520.218855 
L 1070.611654 539.383801 
L 1092.197727 541.209034 
" style="fill:none;stroke:#bcbd22;stroke-linecap:square;stroke-width:1.5;"/>
   </g>
   <g id="line2d_32">
    <path clip-path="url(#p656a2337ea)" d="M 77.652273 541.209034 
L 99.238346 531.170253 
L 120.82442 527.063479 
L 142.410493 541.209034 
L 163.996567 541.209034 
L 185.58264 541.209034 
L 207.168714 541.209034 
L 228.754787 541.209034 
L 250.340861 541.209034 
L 271.926934 541.209034 
L 293.513008 520.218855 
L 315.099081 535.277027 
L 336.685155 534.820719 
L 358.271228 540.752726 
L 379.857302 530.257636 
L 401.443375 533.908102 
L 423.029449 462.267709 
L 444.615522 540.752726 
L 466.201596 515.199465 
L 487.787669 412.073804 
L 509.373743 357.316816 
L 530.959816 351.384808 
L 552.54589 354.578966 
L 574.131963 445.384305 
L 595.718037 422.112585 
L 617.30411 305.753985 
L 638.890184 459.073552 
L 660.476257 375.112837 
L 682.062331 361.879898 
L 703.648404 411.161187 
L 725.234478 463.636634 
L 746.820551 346.365418 
L 768.406625 334.501404 
L 789.992698 456.792011 
L 811.578772 410.248571 
L 833.164845 257.84162 
L 854.750919 404.316564 
L 876.336992 453.597853 
L 897.923066 507.898533 
L 919.509139 449.491079 
L 941.095213 531.626561 
L 962.681286 520.218855 
L 984.26736 541.209034 
L 1005.853433 534.820719 
L 1027.439507 530.713945 
L 1049.02558 541.209034 
L 1070.611654 539.840109 
L 1092.197727 536.189644 
" style="fill:none;stroke:#17becf;stroke-linecap:square;stroke-width:1.5;"/>
   </g>
   <g id="line2d_33">
    <path clip-path="url(#p656a2337ea)" d="M 77.652273 539.840109 
L 99.238346 541.209034 
L 120.82442 459.073552 
L 142.410493 531.170253 
L 163.996567 517.937314 
L 185.58264 541.209034 
L 207.168714 541.209034 
L 228.754787 541.209034 
L 250.340861 514.286848 
L 271.926934 478.238498 
L 293.513008 525.694554 
L 315.099081 518.849931 
L 336.685155 531.626561 
L 358.271228 531.170253 
L 379.857302 329.482013 
L 401.443375 390.627317 
L 423.029449 265.59886 
L 444.615522 425.763051 
L 466.201596 389.258392 
L 487.787669 470.024949 
L 509.373743 329.938321 
L 530.959816 415.72427 
L 552.54589 404.316564 
L 574.131963 392.45255 
L 595.718037 235.026209 
L 617.30411 306.210293 
L 638.890184 498.772368 
L 660.476257 299.36567 
L 682.062331 103.153129 
L 703.648404 298.909361 
L 725.234478 450.403695 
L 746.820551 361.42359 
L 768.406625 297.540437 
L 789.992698 341.346027 
L 811.578772 487.820971 
L 833.164845 452.228928 
L 854.750919 361.42359 
L 876.336992 354.122658 
L 897.923066 494.209286 
L 919.509139 471.393874 
L 941.095213 522.500396 
L 962.681286 533.908102 
L 984.26736 527.519787 
L 1005.853433 509.267458 
L 1027.439507 467.743408 
L 1049.02558 525.238246 
L 1070.611654 541.209034 
L 1092.197727 539.840109 
" style="fill:none;stroke:#1f77b4;stroke-linecap:square;stroke-width:1.5;"/>
   </g>
   <g id="line2d_34">
    <path clip-path="url(#p656a2337ea)" d="M 77.652273 541.209034 
L 99.238346 540.296418 
L 120.82442 528.888712 
L 142.410493 536.645952 
L 163.996567 541.209034 
L 185.58264 541.209034 
L 207.168714 541.209034 
L 228.754787 541.209034 
L 250.340861 513.374232 
L 271.926934 541.209034 
L 293.513008 540.752726 
L 315.099081 533.908102 
L 336.685155 470.937566 
L 358.271228 429.413517 
L 379.857302 419.374735 
L 401.443375 497.403444 
L 423.029449 481.432655 
L 444.615522 156.084884 
L 466.201596 478.694806 
L 487.787669 328.569397 
L 509.373743 515.655773 
L 530.959816 441.733839 
L 552.54589 322.63739 
L 574.131963 491.015128 
L 595.718037 317.161691 
L 617.30411 444.01538 
L 638.890184 408.879646 
L 660.476257 305.753985 
L 682.062331 306.666601 
L 703.648404 496.034519 
L 725.234478 383.326385 
L 746.820551 355.035274 
L 768.406625 509.267458 
L 789.992698 307.12291 
L 811.578772 320.812157 
L 833.164845 401.122406 
L 854.750919 467.743408 
L 876.336992 381.501152 
L 897.923066 496.034519 
L 919.509139 405.685488 
L 941.095213 504.248067 
L 962.681286 413.442728 
L 984.26736 534.820719 
L 1005.853433 538.927493 
L 1027.439507 521.58778 
L 1049.02558 418.918427 
L 1070.611654 541.209034 
L 1092.197727 541.209034 
" style="fill:none;stroke:#ff7f0e;stroke-linecap:square;stroke-width:1.5;"/>
   </g>
   <g id="line2d_35">
    <path clip-path="url(#p656a2337ea)" d="M 77.652273 541.209034 
L 99.238346 506.985916 
L 120.82442 541.209034 
L 142.410493 541.209034 
L 163.996567 541.209034 
L 185.58264 541.209034 
L 207.168714 540.752726 
L 228.754787 507.898533 
L 250.340861 541.209034 
L 271.926934 540.752726 
L 293.513008 442.646455 
L 315.099081 539.383801 
L 336.685155 538.014876 
L 358.271228 537.10226 
L 379.857302 431.695058 
L 401.443375 482.345272 
L 423.029449 524.781938 
L 444.615522 534.820719 
L 466.201596 327.200472 
L 487.787669 339.064486 
L 509.373743 427.131975 
L 530.959816 381.044844 
L 552.54589 400.20979 
L 574.131963 499.684985 
L 595.718037 323.550006 
L 617.30411 445.384305 
L 638.890184 267.424093 
L 660.476257 313.054917 
L 682.062331 427.131975 
L 703.648404 428.5009 
L 725.234478 362.792514 
L 746.820551 512.461615 
L 768.406625 332.676171 
L 789.992698 219.511729 
L 811.578772 404.772872 
L 833.164845 485.539429 
L 854.750919 449.947387 
L 876.336992 517.937314 
L 897.923066 375.569145 
L 919.509139 474.588032 
L 941.095213 483.257888 
L 962.681286 467.743408 
L 984.26736 515.199465 
L 1005.853433 463.636634 
L 1027.439507 532.539178 
L 1049.02558 522.956705 
L 1070.611654 540.752726 
L 1092.197727 522.044088 
" style="fill:none;stroke:#2ca02c;stroke-linecap:square;stroke-width:1.5;"/>
   </g>
   <g id="line2d_36">
    <path clip-path="url(#p656a2337ea)" d="M 77.652273 541.209034 
L 99.238346 541.209034 
L 120.82442 541.209034 
L 142.410493 531.170253 
L 163.996567 541.209034 
L 185.58264 541.209034 
L 207.168714 541.209034 
L 228.754787 537.10226 
L 250.340861 531.626561 
L 271.926934 541.209034 
L 293.513008 491.471437 
L 315.099081 431.23875 
L 336.685155 474.131724 
L 358.271228 538.471185 
L 379.857302 419.831044 
L 401.443375 520.675164 
L 423.029449 435.801832 
L 444.615522 344.540185 
L 466.201596 221.336962 
L 487.787669 493.752978 
L 509.373743 539.383801 
L 530.959816 318.530616 
L 552.54589 477.782189 
L 574.131963 429.413517 
L 595.718037 454.510469 
L 617.30411 366.899288 
L 638.890184 377.394378 
L 660.476257 316.705383 
L 682.062331 395.646707 
L 703.648404 242.32714 
L 725.234478 455.879394 
L 746.820551 384.239001 
L 768.406625 370.549754 
L 789.992698 397.47194 
L 811.578772 481.432655 
L 833.164845 465.918175 
L 854.750919 481.888964 
L 876.336992 334.957712 
L 897.923066 506.529608 
L 919.509139 536.189644 
L 941.095213 534.820719 
L 962.681286 541.209034 
L 984.26736 541.209034 
L 1005.853433 540.296418 
L 1027.439507 541.209034 
L 1049.02558 538.471185 
L 1070.611654 538.471185 
L 1092.197727 457.704627 
" style="fill:none;stroke:#d62728;stroke-linecap:square;stroke-width:1.5;"/>
   </g>
   <g id="line2d_37">
    <path clip-path="url(#p656a2337ea)" d="M 77.652273 539.840109 
L 99.238346 538.927493 
L 120.82442 539.383801 
L 142.410493 539.383801 
L 163.996567 539.840109 
L 185.58264 541.209034 
L 207.168714 539.383801 
L 228.754787 538.014876 
L 250.340861 538.014876 
L 271.926934 514.743156 
L 293.513008 524.325629 
L 315.099081 523.413013 
L 336.685155 535.277027 
L 358.271228 523.869321 
L 379.857302 507.898533 
L 401.443375 523.413013 
L 423.029449 466.830792 
L 444.615522 534.364411 
L 466.201596 472.306491 
L 487.787669 500.597601 
L 509.373743 297.540437 
L 530.959816 499.228676 
L 552.54589 375.569145 
L 574.131963 397.015632 
L 595.718037 444.927997 
L 617.30411 402.491331 
L 638.890184 229.094202 
L 660.476257 328.113088 
L 682.062331 425.763051 
L 703.648404 381.501152 
L 725.234478 318.986924 
L 746.820551 399.297173 
L 768.406625 485.995738 
L 789.992698 413.899037 
L 811.578772 525.694554 
L 833.164845 418.462119 
L 854.750919 445.840613 
L 876.336992 414.355345 
L 897.923066 451.316312 
L 919.509139 522.956705 
L 941.095213 488.277279 
L 962.681286 481.432655 
L 984.26736 482.345272 
L 1005.853433 541.209034 
L 1027.439507 524.781938 
L 1049.02558 527.063479 
L 1070.611654 528.888712 
L 1092.197727 536.189644 
" style="fill:none;stroke:#9467bd;stroke-linecap:square;stroke-width:1.5;"/>
   </g>
   <g id="line2d_38">
    <path clip-path="url(#p656a2337ea)" d="M 77.652273 536.645952 
L 99.238346 467.743408 
L 120.82442 534.820719 
L 142.410493 534.820719 
L 163.996567 541.209034 
L 185.58264 541.209034 
L 207.168714 538.471185 
L 228.754787 541.209034 
L 250.340861 541.209034 
L 271.926934 541.209034 
L 293.513008 541.209034 
L 315.099081 541.209034 
L 336.685155 541.209034 
L 358.271228 512.461615 
L 379.857302 501.510218 
L 401.443375 534.820719 
L 423.029449 530.257636 
L 444.615522 417.093194 
L 466.201596 405.685488 
L 487.787669 369.18083 
L 509.373743 431.695058 
L 530.959816 224.987427 
L 552.54589 402.491331 
L 574.131963 345.452801 
L 595.718037 454.510469 
L 617.30411 331.763554 
L 638.890184 344.996493 
L 660.476257 347.734343 
L 682.062331 377.394378 
L 703.648404 472.306491 
L 725.234478 412.073804 
L 746.820551 448.122154 
L 768.406625 260.123162 
L 789.992698 360.510973 
L 811.578772 517.937314 
L 833.164845 331.763554 
L 854.750919 376.93807 
L 876.336992 484.626813 
L 897.923066 496.034519 
L 919.509139 490.55882 
L 941.095213 521.131472 
L 962.681286 503.335451 
L 984.26736 461.811401 
L 1005.853433 541.209034 
L 1027.439507 541.209034 
L 1049.02558 541.209034 
L 1070.611654 541.209034 
L 1092.197727 541.209034 
" style="fill:none;stroke:#8c564b;stroke-linecap:square;stroke-width:1.5;"/>
   </g>
   <g id="line2d_39">
    <path clip-path="url(#p656a2337ea)" d="M 77.652273 541.209034 
L 99.238346 541.209034 
L 120.82442 541.209034 
L 142.410493 502.879142 
L 163.996567 541.209034 
L 185.58264 541.209034 
L 207.168714 541.209034 
L 228.754787 541.209034 
L 250.340861 494.209286 
L 271.926934 526.607171 
L 293.513008 541.209034 
L 315.099081 474.131724 
L 336.685155 518.393622 
L 358.271228 531.170253 
L 379.857302 527.063479 
L 401.443375 449.947387 
L 423.029449 495.121902 
L 444.615522 359.142048 
L 466.201596 344.540185 
L 487.787669 381.95746 
L 509.373743 445.384305 
L 530.959816 213.579722 
L 552.54589 405.685488 
L 574.131963 421.199968 
L 595.718037 405.685488 
L 617.30411 407.510721 
L 638.890184 491.015128 
L 660.476257 219.05542 
L 682.062331 301.190903 
L 703.648404 409.335954 
L 725.234478 498.772368 
L 746.820551 357.316816 
L 768.406625 381.95746 
L 789.992698 246.433914 
L 811.578772 430.326133 
L 833.164845 404.772872 
L 854.750919 274.725025 
L 876.336992 475.04434 
L 897.923066 397.015632 
L 919.509139 461.811401 
L 941.095213 515.655773 
L 962.681286 537.558568 
L 984.26736 527.519787 
L 1005.853433 402.947639 
L 1027.439507 541.209034 
L 1049.02558 541.209034 
L 1070.611654 541.209034 
L 1092.197727 540.752726 
" style="fill:none;stroke:#e377c2;stroke-linecap:square;stroke-width:1.5;"/>
   </g>
   <g id="line2d_40">
    <path clip-path="url(#p656a2337ea)" d="M 77.652273 541.209034 
L 99.238346 530.257636 
L 120.82442 541.209034 
L 142.410493 541.209034 
L 163.996567 541.209034 
L 185.58264 541.209034 
L 207.168714 541.209034 
L 228.754787 541.209034 
L 250.340861 541.209034 
L 271.926934 541.209034 
L 293.513008 527.063479 
L 315.099081 540.296418 
L 336.685155 532.539178 
L 358.271228 290.239505 
L 379.857302 519.762547 
L 401.443375 496.034519 
L 423.029449 410.704879 
L 444.615522 438.99599 
L 466.201596 422.568893 
L 487.787669 461.811401 
L 509.373743 432.151366 
L 530.959816 451.77262 
L 552.54589 444.927997 
L 574.131963 408.423338 
L 595.718037 224.531119 
L 617.30411 240.501907 
L 638.890184 488.277279 
L 660.476257 346.365418 
L 682.062331 399.297173 
L 703.648404 47.027216 
L 725.234478 525.694554 
L 746.820551 466.830792 
L 768.406625 448.122154 
L 789.992698 417.093194 
L 811.578772 187.113844 
L 833.164845 344.540185 
L 854.750919 371.006063 
L 876.336992 445.840613 
L 897.923066 418.462119 
L 919.509139 440.364914 
L 941.095213 505.160684 
L 962.681286 540.752726 
L 984.26736 541.209034 
L 1005.853433 540.296418 
L 1027.439507 541.209034 
L 1049.02558 541.209034 
L 1070.611654 541.209034 
L 1092.197727 541.209034 
" style="fill:none;stroke:#7f7f7f;stroke-linecap:square;stroke-width:1.5;"/>
   </g>
   <g id="line2d_41">
    <path clip-path="url(#p656a2337ea)" d="M 77.652273 541.209034 
L 99.238346 541.209034 
L 120.82442 541.209034 
L 142.410493 541.209034 
L 163.996567 541.209034 
L 185.58264 494.209286 
L 207.168714 318.986924 
L 228.754787 528.432404 
L 250.340861 540.752726 
L 271.926934 541.209034 
L 293.513008 536.645952 
L 315.099081 517.481006 
L 336.685155 384.239001 
L 358.271228 457.248319 
L 379.857302 495.121902 
L 401.443375 462.724018 
L 423.029449 510.636382 
L 444.615522 241.870832 
L 466.201596 448.578462 
L 487.787669 437.627065 
L 509.373743 466.374484 
L 530.959816 336.326637 
L 552.54589 248.715456 
L 574.131963 410.704879 
L 595.718037 444.927997 
L 617.30411 416.180578 
L 638.890184 284.307498 
L 660.476257 400.666098 
L 682.062331 410.248571 
L 703.648404 442.646455 
L 725.234478 480.520039 
L 746.820551 517.937314 
L 768.406625 462.267709 
L 789.992698 263.317319 
L 811.578772 399.297173 
L 833.164845 474.131724 
L 854.750919 321.724773 
L 876.336992 470.024949 
L 897.923066 501.510218 
L 919.509139 514.286848 
L 941.095213 433.520291 
L 962.681286 538.927493 
L 984.26736 535.277027 
L 1005.853433 541.209034 
L 1027.439507 538.014876 
L 1049.02558 539.383801 
L 1070.611654 541.209034 
L 1092.197727 541.209034 
" style="fill:none;stroke:#bcbd22;stroke-linecap:square;stroke-width:1.5;"/>
   </g>
   <g id="line2d_42">
    <path clip-path="url(#p656a2337ea)" d="M 77.652273 541.209034 
L 99.238346 541.209034 
L 120.82442 541.209034 
L 142.410493 541.209034 
L 163.996567 541.209034 
L 185.58264 541.209034 
L 207.168714 541.209034 
L 228.754787 541.209034 
L 250.340861 541.209034 
L 271.926934 522.500396 
L 293.513008 541.209034 
L 315.099081 513.83054 
L 336.685155 538.471185 
L 358.271228 537.558568 
L 379.857302 365.986672 
L 401.443375 526.607171 
L 423.029449 526.150862 
L 444.615522 466.374484 
L 466.201596 386.064234 
L 487.787669 481.888964 
L 509.373743 440.821222 
L 530.959816 365.530364 
L 552.54589 271.530867 
L 574.131963 409.792262 
L 595.718037 329.482013 
L 617.30411 398.384557 
L 638.890184 428.5009 
L 660.476257 365.986672 
L 682.062331 511.092691 
L 703.648404 425.306742 
L 725.234478 396.559324 
L 746.820551 350.9285 
L 768.406625 413.899037 
L 789.992698 439.908606 
L 811.578772 355.947891 
L 833.164845 474.588032 
L 854.750919 485.083121 
L 876.336992 348.190651 
L 897.923066 445.384305 
L 919.509139 530.257636 
L 941.095213 243.239757 
L 962.681286 503.335451 
L 984.26736 472.762799 
L 1005.853433 514.743156 
L 1027.439507 359.142048 
L 1049.02558 541.209034 
L 1070.611654 541.209034 
L 1092.197727 454.510469 
" style="fill:none;stroke:#17becf;stroke-linecap:square;stroke-width:1.5;"/>
   </g>
   <g id="line2d_43">
    <path clip-path="url(#p656a2337ea)" d="M 77.652273 540.96567 
L 99.238346 535.003242 
L 120.82442 535.048873 
L 142.410493 536.828475 
L 163.996567 536.691583 
L 185.58264 533.588687 
L 207.168714 531.261515 
L 228.754787 539.018755 
L 250.340861 531.778664 
L 271.926934 533.314902 
L 293.513008 531.961187 
L 315.099081 513.328601 
L 336.685155 508.294 
L 358.271228 502.574937 
L 379.857302 463.712686 
L 401.443375 493.88987 
L 423.029449 465.583549 
L 444.615522 423.861766 
L 466.201596 421.930062 
L 487.787669 440.10634 
L 509.373743 399.951215 
L 530.959816 403.54084 
L 552.54589 394.064839 
L 574.131963 404.453456 
L 595.718037 373.470127 
L 617.30411 355.963101 
L 638.890184 377.668163 
L 660.476257 338.288762 
L 682.062331 368.891834 
L 703.648404 371.127745 
L 725.234478 407.845347 
L 746.820551 398.065141 
L 768.406625 375.401832 
L 789.992698 362.397047 
L 811.578772 386.900799 
L 833.164845 407.023993 
L 854.750919 417.94497 
L 876.336992 427.603494 
L 897.923066 454.480049 
L 919.509139 480.748193 
L 941.095213 473.827518 
L 962.681286 488.414171 
L 984.26736 496.718981 
L 1005.853433 506.271034 
L 1027.439507 524.614625 
L 1049.02558 527.474156 
L 1070.611654 536.53948 
L 1092.197727 528.645347 
" style="fill:none;stroke:#000000;stroke-dasharray:11.1,4.8;stroke-dashoffset:0;stroke-width:3;"/>
   </g>
   <g id="patch_3">
    <path d="M 26.925 565.918125 
L 26.925 22.318125 
" style="fill:none;stroke:#000000;stroke-linecap:square;stroke-linejoin:miter;stroke-width:0.8;"/>
   </g>
   <g id="patch_4">
    <path d="M 1142.925 565.918125 
L 1142.925 22.318125 
" style="fill:none;stroke:#000000;stroke-linecap:square;stroke-linejoin:miter;stroke-width:0.8;"/>
   </g>
   <g id="patch_5">
    <path d="M 26.925 565.918125 
L 1142.925 565.918125 
" style="fill:none;stroke:#000000;stroke-linecap:square;stroke-linejoin:miter;stroke-width:0.8;"/>
   </g>
   <g id="patch_6">
    <path d="M 26.925 22.318125 
L 1142.925 22.318125 
" style="fill:none;stroke:#000000;stroke-linecap:square;stroke-linejoin:miter;stroke-width:0.8;"/>
   </g>
   <g id="text_13">
    <!-- Quarter monthly Rainfall per year -->
    <g transform="translate(483.769687 16.318125)scale(0.12 -0.12)">
     <defs>
      <path d="M 2522 4238 
Q 1834 4238 1429 3725 
Q 1025 3213 1025 2328 
Q 1025 1447 1429 934 
Q 1834 422 2522 422 
Q 3209 422 3611 934 
Q 4013 1447 4013 2328 
Q 4013 3213 3611 3725 
Q 3209 4238 2522 4238 
z
M 3406 84 
L 4238 -825 
L 3475 -825 
L 2784 -78 
Q 2681 -84 2626 -87 
Q 2572 -91 2522 -91 
Q 1538 -91 948 567 
Q 359 1225 359 2328 
Q 359 3434 948 4092 
Q 1538 4750 2522 4750 
Q 3503 4750 4090 4092 
Q 4678 3434 4678 2328 
Q 4678 1516 4351 937 
Q 4025 359 3406 84 
z
" id="DejaVuSans-51" transform="scale(0.015625)"/>
      <path d="M 544 1381 
L 544 3500 
L 1119 3500 
L 1119 1403 
Q 1119 906 1312 657 
Q 1506 409 1894 409 
Q 2359 409 2629 706 
Q 2900 1003 2900 1516 
L 2900 3500 
L 3475 3500 
L 3475 0 
L 2900 0 
L 2900 538 
Q 2691 219 2414 64 
Q 2138 -91 1772 -91 
Q 1169 -91 856 284 
Q 544 659 544 1381 
z
M 1991 3584 
L 1991 3584 
z
" id="DejaVuSans-75" transform="scale(0.015625)"/>
      <path d="M 2194 1759 
Q 1497 1759 1228 1600 
Q 959 1441 959 1056 
Q 959 750 1161 570 
Q 1363 391 1709 391 
Q 2188 391 2477 730 
Q 2766 1069 2766 1631 
L 2766 1759 
L 2194 1759 
z
M 3341 1997 
L 3341 0 
L 2766 0 
L 2766 531 
Q 2569 213 2275 61 
Q 1981 -91 1556 -91 
Q 1019 -91 701 211 
Q 384 513 384 1019 
Q 384 1609 779 1909 
Q 1175 2209 1959 2209 
L 2766 2209 
L 2766 2266 
Q 2766 2663 2505 2880 
Q 2244 3097 1772 3097 
Q 1472 3097 1187 3025 
Q 903 2953 641 2809 
L 641 3341 
Q 956 3463 1253 3523 
Q 1550 3584 1831 3584 
Q 2591 3584 2966 3190 
Q 3341 2797 3341 1997 
z
" id="DejaVuSans-61" transform="scale(0.015625)"/>
      <path d="M 2631 2963 
Q 2534 3019 2420 3045 
Q 2306 3072 2169 3072 
Q 1681 3072 1420 2755 
Q 1159 2438 1159 1844 
L 1159 0 
L 581 0 
L 581 3500 
L 1159 3500 
L 1159 2956 
Q 1341 3275 1631 3429 
Q 1922 3584 2338 3584 
Q 2397 3584 2469 3576 
Q 2541 3569 2628 3553 
L 2631 2963 
z
" id="DejaVuSans-72" transform="scale(0.015625)"/>
      <path d="M 1172 4494 
L 1172 3500 
L 2356 3500 
L 2356 3053 
L 1172 3053 
L 1172 1153 
Q 1172 725 1289 603 
Q 1406 481 1766 481 
L 2356 481 
L 2356 0 
L 1766 0 
Q 1100 0 847 248 
Q 594 497 594 1153 
L 594 3053 
L 172 3053 
L 172 3500 
L 594 3500 
L 594 4494 
L 1172 4494 
z
" id="DejaVuSans-74" transform="scale(0.015625)"/>
      <path d="M 3597 1894 
L 3597 1613 
L 953 1613 
Q 991 1019 1311 708 
Q 1631 397 2203 397 
Q 2534 397 2845 478 
Q 3156 559 3463 722 
L 3463 178 
Q 3153 47 2828 -22 
Q 2503 -91 2169 -91 
Q 1331 -91 842 396 
Q 353 884 353 1716 
Q 353 2575 817 3079 
Q 1281 3584 2069 3584 
Q 2775 3584 3186 3129 
Q 3597 2675 3597 1894 
z
M 3022 2063 
Q 3016 2534 2758 2815 
Q 2500 3097 2075 3097 
Q 1594 3097 1305 2825 
Q 1016 2553 972 2059 
L 3022 2063 
z
" id="DejaVuSans-65" transform="scale(0.015625)"/>
      <path id="DejaVuSans-20" transform="scale(0.015625)"/>
      <path d="M 3328 2828 
Q 3544 3216 3844 3400 
Q 4144 3584 4550 3584 
Q 5097 3584 5394 3201 
Q 5691 2819 5691 2113 
L 5691 0 
L 5113 0 
L 5113 2094 
Q 5113 2597 4934 2840 
Q 4756 3084 4391 3084 
Q 3944 3084 3684 2787 
Q 3425 2491 3425 1978 
L 3425 0 
L 2847 0 
L 2847 2094 
Q 2847 2600 2669 2842 
Q 2491 3084 2119 3084 
Q 1678 3084 1418 2786 
Q 1159 2488 1159 1978 
L 1159 0 
L 581 0 
L 581 3500 
L 1159 3500 
L 1159 2956 
Q 1356 3278 1631 3431 
Q 1906 3584 2284 3584 
Q 2666 3584 2933 3390 
Q 3200 3197 3328 2828 
z
" id="DejaVuSans-6d" transform="scale(0.015625)"/>
      <path d="M 1959 3097 
Q 1497 3097 1228 2736 
Q 959 2375 959 1747 
Q 959 1119 1226 758 
Q 1494 397 1959 397 
Q 2419 397 2687 759 
Q 2956 1122 2956 1747 
Q 2956 2369 2687 2733 
Q 2419 3097 1959 3097 
z
M 1959 3584 
Q 2709 3584 3137 3096 
Q 3566 2609 3566 1747 
Q 3566 888 3137 398 
Q 2709 -91 1959 -91 
Q 1206 -91 779 398 
Q 353 888 353 1747 
Q 353 2609 779 3096 
Q 1206 3584 1959 3584 
z
" id="DejaVuSans-6f" transform="scale(0.015625)"/>
      <path d="M 3513 2113 
L 3513 0 
L 2938 0 
L 2938 2094 
Q 2938 2591 2744 2837 
Q 2550 3084 2163 3084 
Q 1697 3084 1428 2787 
Q 1159 2491 1159 1978 
L 1159 0 
L 581 0 
L 581 3500 
L 1159 3500 
L 1159 2956 
Q 1366 3272 1645 3428 
Q 1925 3584 2291 3584 
Q 2894 3584 3203 3211 
Q 3513 2838 3513 2113 
z
" id="DejaVuSans-6e" transform="scale(0.015625)"/>
      <path d="M 3513 2113 
L 3513 0 
L 2938 0 
L 2938 2094 
Q 2938 2591 2744 2837 
Q 2550 3084 2163 3084 
Q 1697 3084 1428 2787 
Q 1159 2491 1159 1978 
L 1159 0 
L 581 0 
L 581 4863 
L 1159 4863 
L 1159 2956 
Q 1366 3272 1645 3428 
Q 1925 3584 2291 3584 
Q 2894 3584 3203 3211 
Q 3513 2838 3513 2113 
z
" id="DejaVuSans-68" transform="scale(0.015625)"/>
      <path d="M 603 4863 
L 1178 4863 
L 1178 0 
L 603 0 
L 603 4863 
z
" id="DejaVuSans-6c" transform="scale(0.015625)"/>
      <path d="M 2059 -325 
Q 1816 -950 1584 -1140 
Q 1353 -1331 966 -1331 
L 506 -1331 
L 506 -850 
L 844 -850 
Q 1081 -850 1212 -737 
Q 1344 -625 1503 -206 
L 1606 56 
L 191 3500 
L 800 3500 
L 1894 763 
L 2988 3500 
L 3597 3500 
L 2059 -325 
z
" id="DejaVuSans-79" transform="scale(0.015625)"/>
      <path d="M 2841 2188 
Q 3044 2119 3236 1894 
Q 3428 1669 3622 1275 
L 4263 0 
L 3584 0 
L 2988 1197 
Q 2756 1666 2539 1819 
Q 2322 1972 1947 1972 
L 1259 1972 
L 1259 0 
L 628 0 
L 628 4666 
L 2053 4666 
Q 2853 4666 3247 4331 
Q 3641 3997 3641 3322 
Q 3641 2881 3436 2590 
Q 3231 2300 2841 2188 
z
M 1259 4147 
L 1259 2491 
L 2053 2491 
Q 2509 2491 2742 2702 
Q 2975 2913 2975 3322 
Q 2975 3731 2742 3939 
Q 2509 4147 2053 4147 
L 1259 4147 
z
" id="DejaVuSans-52" transform="scale(0.015625)"/>
      <path d="M 603 3500 
L 1178 3500 
L 1178 0 
L 603 0 
L 603 3500 
z
M 603 4863 
L 1178 4863 
L 1178 4134 
L 603 4134 
L 603 4863 
z
" id="DejaVuSans-69" transform="scale(0.015625)"/>
      <path d="M 2375 4863 
L 2375 4384 
L 1825 4384 
Q 1516 4384 1395 4259 
Q 1275 4134 1275 3809 
L 1275 3500 
L 2222 3500 
L 2222 3053 
L 1275 3053 
L 1275 0 
L 697 0 
L 697 3053 
L 147 3053 
L 147 3500 
L 697 3500 
L 697 3744 
Q 697 4328 969 4595 
Q 1241 4863 1831 4863 
L 2375 4863 
z
" id="DejaVuSans-66" transform="scale(0.015625)"/>
      <path d="M 1159 525 
L 1159 -1331 
L 581 -1331 
L 581 3500 
L 1159 3500 
L 1159 2969 
Q 1341 3281 1617 3432 
Q 1894 3584 2278 3584 
Q 2916 3584 3314 3078 
Q 3713 2572 3713 1747 
Q 3713 922 3314 415 
Q 2916 -91 2278 -91 
Q 1894 -91 1617 61 
Q 1341 213 1159 525 
z
M 3116 1747 
Q 3116 2381 2855 2742 
Q 2594 3103 2138 3103 
Q 1681 3103 1420 2742 
Q 1159 2381 1159 1747 
Q 1159 1113 1420 752 
Q 1681 391 2138 391 
Q 2594 391 2855 752 
Q 3116 1113 3116 1747 
z
" id="DejaVuSans-70" transform="scale(0.015625)"/>
     </defs>
     <use xlink:href="#DejaVuSans-51"/>
     <use x="78.710938" xlink:href="#DejaVuSans-75"/>
     <use x="142.089844" xlink:href="#DejaVuSans-61"/>
     <use x="203.369141" xlink:href="#DejaVuSans-72"/>
     <use x="244.482422" xlink:href="#DejaVuSans-74"/>
     <use x="283.691406" xlink:href="#DejaVuSans-65"/>
     <use x="345.214844" xlink:href="#DejaVuSans-72"/>
     <use x="386.328125" xlink:href="#DejaVuSans-20"/>
     <use x="418.115234" xlink:href="#DejaVuSans-6d"/>
     <use x="515.527344" xlink:href="#DejaVuSans-6f"/>
     <use x="576.708984" xlink:href="#DejaVuSans-6e"/>
     <use x="640.087891" xlink:href="#DejaVuSans-74"/>
     <use x="679.296875" xlink:href="#DejaVuSans-68"/>
     <use x="742.675781" xlink:href="#DejaVuSans-6c"/>
     <use x="770.458984" xlink:href="#DejaVuSans-79"/>
     <use x="829.638672" xlink:href="#DejaVuSans-20"/>
     <use x="861.425781" xlink:href="#DejaVuSans-52"/>
     <use x="928.658203" xlink:href="#DejaVuSans-61"/>
     <use x="989.9375" xlink:href="#DejaVuSans-69"/>
     <use x="1017.720703" xlink:href="#DejaVuSans-6e"/>
     <use x="1081.099609" xlink:href="#DejaVuSans-66"/>
     <use x="1116.304688" xlink:href="#DejaVuSans-61"/>
     <use x="1177.583984" xlink:href="#DejaVuSans-6c"/>
     <use x="1205.367188" xlink:href="#DejaVuSans-6c"/>
     <use x="1233.150391" xlink:href="#DejaVuSans-20"/>
     <use x="1264.9375" xlink:href="#DejaVuSans-70"/>
     <use x="1328.414062" xlink:href="#DejaVuSans-65"/>
     <use x="1389.9375" xlink:href="#DejaVuSans-72"/>
     <use x="1431.050781" xlink:href="#DejaVuSans-20"/>
     <use x="1462.837891" xlink:href="#DejaVuSans-79"/>
     <use x="1522.017578" xlink:href="#DejaVuSans-65"/>
     <use x="1583.541016" xlink:href="#DejaVuSans-61"/>
     <use x="1644.820312" xlink:href="#DejaVuSans-72"/>
    </g>
   </g>
   <g id="legend_1">
    <g id="patch_7">
     <path d="M 33.925 485.34 
L 100.915625 485.34 
Q 102.915625 485.34 102.915625 483.34 
L 102.915625 29.318125 
Q 102.915625 27.318125 100.915625 27.318125 
L 33.925 27.318125 
Q 31.925 27.318125 31.925 29.318125 
L 31.925 483.34 
Q 31.925 485.34 33.925 485.34 
z
" style="fill:#ffffff;opacity:0.8;stroke:#cccccc;stroke-linejoin:miter;"/>
    </g>
    <g id="line2d_44">
     <path d="M 35.925 35.416562 
L 55.925 35.416562 
" style="fill:none;stroke:#1f77b4;stroke-linecap:square;stroke-width:1.5;"/>
    </g>
    <g id="line2d_45"/>
    <g id="text_14">
     <!-- 1953.0 -->
     <g transform="translate(63.925 38.916562)scale(0.1 -0.1)">
      <defs>
       <path d="M 703 97 
L 703 672 
Q 941 559 1184 500 
Q 1428 441 1663 441 
Q 2288 441 2617 861 
Q 2947 1281 2994 2138 
Q 2813 1869 2534 1725 
Q 2256 1581 1919 1581 
Q 1219 1581 811 2004 
Q 403 2428 403 3163 
Q 403 3881 828 4315 
Q 1253 4750 1959 4750 
Q 2769 4750 3195 4129 
Q 3622 3509 3622 2328 
Q 3622 1225 3098 567 
Q 2575 -91 1691 -91 
Q 1453 -91 1209 -44 
Q 966 3 703 97 
z
M 1959 2075 
Q 2384 2075 2632 2365 
Q 2881 2656 2881 3163 
Q 2881 3666 2632 3958 
Q 2384 4250 1959 4250 
Q 1534 4250 1286 3958 
Q 1038 3666 1038 3163 
Q 1038 2656 1286 2365 
Q 1534 2075 1959 2075 
z
" id="DejaVuSans-39" transform="scale(0.015625)"/>
       <path d="M 684 794 
L 1344 794 
L 1344 0 
L 684 0 
L 684 794 
z
" id="DejaVuSans-2e" transform="scale(0.015625)"/>
      </defs>
      <use xlink:href="#DejaVuSans-31"/>
      <use x="63.623047" xlink:href="#DejaVuSans-39"/>
      <use x="127.246094" xlink:href="#DejaVuSans-35"/>
      <use x="190.869141" xlink:href="#DejaVuSans-33"/>
      <use x="254.492188" xlink:href="#DejaVuSans-2e"/>
      <use x="286.279297" xlink:href="#DejaVuSans-30"/>
     </g>
    </g>
    <g id="line2d_46">
     <path d="M 35.925 50.094687 
L 55.925 50.094687 
" style="fill:none;stroke:#ff7f0e;stroke-linecap:square;stroke-width:1.5;"/>
    </g>
    <g id="line2d_47"/>
    <g id="text_15">
     <!-- 1954.0 -->
     <g transform="translate(63.925 53.594687)scale(0.1 -0.1)">
      <use xlink:href="#DejaVuSans-31"/>
      <use x="63.623047" xlink:href="#DejaVuSans-39"/>
      <use x="127.246094" xlink:href="#DejaVuSans-35"/>
      <use x="190.869141" xlink:href="#DejaVuSans-34"/>
      <use x="254.492188" xlink:href="#DejaVuSans-2e"/>
      <use x="286.279297" xlink:href="#DejaVuSans-30"/>
     </g>
    </g>
    <g id="line2d_48">
     <path d="M 35.925 64.772812 
L 55.925 64.772812 
" style="fill:none;stroke:#2ca02c;stroke-linecap:square;stroke-width:1.5;"/>
    </g>
    <g id="line2d_49"/>
    <g id="text_16">
     <!-- 1955.0 -->
     <g transform="translate(63.925 68.272812)scale(0.1 -0.1)">
      <use xlink:href="#DejaVuSans-31"/>
      <use x="63.623047" xlink:href="#DejaVuSans-39"/>
      <use x="127.246094" xlink:href="#DejaVuSans-35"/>
      <use x="190.869141" xlink:href="#DejaVuSans-35"/>
      <use x="254.492188" xlink:href="#DejaVuSans-2e"/>
      <use x="286.279297" xlink:href="#DejaVuSans-30"/>
     </g>
    </g>
    <g id="line2d_50">
     <path d="M 35.925 79.450937 
L 55.925 79.450937 
" style="fill:none;stroke:#d62728;stroke-linecap:square;stroke-width:1.5;"/>
    </g>
    <g id="line2d_51"/>
    <g id="text_17">
     <!-- 1956.0 -->
     <g transform="translate(63.925 82.950937)scale(0.1 -0.1)">
      <use xlink:href="#DejaVuSans-31"/>
      <use x="63.623047" xlink:href="#DejaVuSans-39"/>
      <use x="127.246094" xlink:href="#DejaVuSans-35"/>
      <use x="190.869141" xlink:href="#DejaVuSans-36"/>
      <use x="254.492188" xlink:href="#DejaVuSans-2e"/>
      <use x="286.279297" xlink:href="#DejaVuSans-30"/>
     </g>
    </g>
    <g id="line2d_52">
     <path d="M 35.925 94.129062 
L 55.925 94.129062 
" style="fill:none;stroke:#9467bd;stroke-linecap:square;stroke-width:1.5;"/>
    </g>
    <g id="line2d_53"/>
    <g id="text_18">
     <!-- 1957.0 -->
     <g transform="translate(63.925 97.629062)scale(0.1 -0.1)">
      <defs>
       <path d="M 525 4666 
L 3525 4666 
L 3525 4397 
L 1831 0 
L 1172 0 
L 2766 4134 
L 525 4134 
L 525 4666 
z
" id="DejaVuSans-37" transform="scale(0.015625)"/>
      </defs>
      <use xlink:href="#DejaVuSans-31"/>
      <use x="63.623047" xlink:href="#DejaVuSans-39"/>
      <use x="127.246094" xlink:href="#DejaVuSans-35"/>
      <use x="190.869141" xlink:href="#DejaVuSans-37"/>
      <use x="254.492188" xlink:href="#DejaVuSans-2e"/>
      <use x="286.279297" xlink:href="#DejaVuSans-30"/>
     </g>
    </g>
    <g id="line2d_54">
     <path d="M 35.925 108.807187 
L 55.925 108.807187 
" style="fill:none;stroke:#8c564b;stroke-linecap:square;stroke-width:1.5;"/>
    </g>
    <g id="line2d_55"/>
    <g id="text_19">
     <!-- 1958.0 -->
     <g transform="translate(63.925 112.307187)scale(0.1 -0.1)">
      <use xlink:href="#DejaVuSans-31"/>
      <use x="63.623047" xlink:href="#DejaVuSans-39"/>
      <use x="127.246094" xlink:href="#DejaVuSans-35"/>
      <use x="190.869141" xlink:href="#DejaVuSans-38"/>
      <use x="254.492188" xlink:href="#DejaVuSans-2e"/>
      <use x="286.279297" xlink:href="#DejaVuSans-30"/>
     </g>
    </g>
    <g id="line2d_56">
     <path d="M 35.925 123.485312 
L 55.925 123.485312 
" style="fill:none;stroke:#e377c2;stroke-linecap:square;stroke-width:1.5;"/>
    </g>
    <g id="line2d_57"/>
    <g id="text_20">
     <!-- 1959.0 -->
     <g transform="translate(63.925 126.985312)scale(0.1 -0.1)">
      <use xlink:href="#DejaVuSans-31"/>
      <use x="63.623047" xlink:href="#DejaVuSans-39"/>
      <use x="127.246094" xlink:href="#DejaVuSans-35"/>
      <use x="190.869141" xlink:href="#DejaVuSans-39"/>
      <use x="254.492188" xlink:href="#DejaVuSans-2e"/>
      <use x="286.279297" xlink:href="#DejaVuSans-30"/>
     </g>
    </g>
    <g id="line2d_58">
     <path d="M 35.925 138.163437 
L 55.925 138.163437 
" style="fill:none;stroke:#7f7f7f;stroke-linecap:square;stroke-width:1.5;"/>
    </g>
    <g id="line2d_59"/>
    <g id="text_21">
     <!-- 1960.0 -->
     <g transform="translate(63.925 141.663437)scale(0.1 -0.1)">
      <use xlink:href="#DejaVuSans-31"/>
      <use x="63.623047" xlink:href="#DejaVuSans-39"/>
      <use x="127.246094" xlink:href="#DejaVuSans-36"/>
      <use x="190.869141" xlink:href="#DejaVuSans-30"/>
      <use x="254.492188" xlink:href="#DejaVuSans-2e"/>
      <use x="286.279297" xlink:href="#DejaVuSans-30"/>
     </g>
    </g>
    <g id="line2d_60">
     <path d="M 35.925 152.841562 
L 55.925 152.841562 
" style="fill:none;stroke:#bcbd22;stroke-linecap:square;stroke-width:1.5;"/>
    </g>
    <g id="line2d_61"/>
    <g id="text_22">
     <!-- 1961.0 -->
     <g transform="translate(63.925 156.341562)scale(0.1 -0.1)">
      <use xlink:href="#DejaVuSans-31"/>
      <use x="63.623047" xlink:href="#DejaVuSans-39"/>
      <use x="127.246094" xlink:href="#DejaVuSans-36"/>
      <use x="190.869141" xlink:href="#DejaVuSans-31"/>
      <use x="254.492188" xlink:href="#DejaVuSans-2e"/>
      <use x="286.279297" xlink:href="#DejaVuSans-30"/>
     </g>
    </g>
    <g id="line2d_62">
     <path d="M 35.925 167.519687 
L 55.925 167.519687 
" style="fill:none;stroke:#17becf;stroke-linecap:square;stroke-width:1.5;"/>
    </g>
    <g id="line2d_63"/>
    <g id="text_23">
     <!-- 1962.0 -->
     <g transform="translate(63.925 171.019687)scale(0.1 -0.1)">
      <use xlink:href="#DejaVuSans-31"/>
      <use x="63.623047" xlink:href="#DejaVuSans-39"/>
      <use x="127.246094" xlink:href="#DejaVuSans-36"/>
      <use x="190.869141" xlink:href="#DejaVuSans-32"/>
      <use x="254.492188" xlink:href="#DejaVuSans-2e"/>
      <use x="286.279297" xlink:href="#DejaVuSans-30"/>
     </g>
    </g>
    <g id="line2d_64">
     <path d="M 35.925 182.197812 
L 55.925 182.197812 
" style="fill:none;stroke:#1f77b4;stroke-linecap:square;stroke-width:1.5;"/>
    </g>
    <g id="line2d_65"/>
    <g id="text_24">
     <!-- 1963.0 -->
     <g transform="translate(63.925 185.697812)scale(0.1 -0.1)">
      <use xlink:href="#DejaVuSans-31"/>
      <use x="63.623047" xlink:href="#DejaVuSans-39"/>
      <use x="127.246094" xlink:href="#DejaVuSans-36"/>
      <use x="190.869141" xlink:href="#DejaVuSans-33"/>
      <use x="254.492188" xlink:href="#DejaVuSans-2e"/>
      <use x="286.279297" xlink:href="#DejaVuSans-30"/>
     </g>
    </g>
    <g id="line2d_66">
     <path d="M 35.925 196.875937 
L 55.925 196.875937 
" style="fill:none;stroke:#ff7f0e;stroke-linecap:square;stroke-width:1.5;"/>
    </g>
    <g id="line2d_67"/>
    <g id="text_25">
     <!-- 1964.0 -->
     <g transform="translate(63.925 200.375937)scale(0.1 -0.1)">
      <use xlink:href="#DejaVuSans-31"/>
      <use x="63.623047" xlink:href="#DejaVuSans-39"/>
      <use x="127.246094" xlink:href="#DejaVuSans-36"/>
      <use x="190.869141" xlink:href="#DejaVuSans-34"/>
      <use x="254.492188" xlink:href="#DejaVuSans-2e"/>
      <use x="286.279297" xlink:href="#DejaVuSans-30"/>
     </g>
    </g>
    <g id="line2d_68">
     <path d="M 35.925 211.554062 
L 55.925 211.554062 
" style="fill:none;stroke:#2ca02c;stroke-linecap:square;stroke-width:1.5;"/>
    </g>
    <g id="line2d_69"/>
    <g id="text_26">
     <!-- 1965.0 -->
     <g transform="translate(63.925 215.054062)scale(0.1 -0.1)">
      <use xlink:href="#DejaVuSans-31"/>
      <use x="63.623047" xlink:href="#DejaVuSans-39"/>
      <use x="127.246094" xlink:href="#DejaVuSans-36"/>
      <use x="190.869141" xlink:href="#DejaVuSans-35"/>
      <use x="254.492188" xlink:href="#DejaVuSans-2e"/>
      <use x="286.279297" xlink:href="#DejaVuSans-30"/>
     </g>
    </g>
    <g id="line2d_70">
     <path d="M 35.925 226.232187 
L 55.925 226.232187 
" style="fill:none;stroke:#d62728;stroke-linecap:square;stroke-width:1.5;"/>
    </g>
    <g id="line2d_71"/>
    <g id="text_27">
     <!-- 1966.0 -->
     <g transform="translate(63.925 229.732187)scale(0.1 -0.1)">
      <use xlink:href="#DejaVuSans-31"/>
      <use x="63.623047" xlink:href="#DejaVuSans-39"/>
      <use x="127.246094" xlink:href="#DejaVuSans-36"/>
      <use x="190.869141" xlink:href="#DejaVuSans-36"/>
      <use x="254.492188" xlink:href="#DejaVuSans-2e"/>
      <use x="286.279297" xlink:href="#DejaVuSans-30"/>
     </g>
    </g>
    <g id="line2d_72">
     <path d="M 35.925 240.910312 
L 55.925 240.910312 
" style="fill:none;stroke:#9467bd;stroke-linecap:square;stroke-width:1.5;"/>
    </g>
    <g id="line2d_73"/>
    <g id="text_28">
     <!-- 1967.0 -->
     <g transform="translate(63.925 244.410312)scale(0.1 -0.1)">
      <use xlink:href="#DejaVuSans-31"/>
      <use x="63.623047" xlink:href="#DejaVuSans-39"/>
      <use x="127.246094" xlink:href="#DejaVuSans-36"/>
      <use x="190.869141" xlink:href="#DejaVuSans-37"/>
      <use x="254.492188" xlink:href="#DejaVuSans-2e"/>
      <use x="286.279297" xlink:href="#DejaVuSans-30"/>
     </g>
    </g>
    <g id="line2d_74">
     <path d="M 35.925 255.588437 
L 55.925 255.588437 
" style="fill:none;stroke:#8c564b;stroke-linecap:square;stroke-width:1.5;"/>
    </g>
    <g id="line2d_75"/>
    <g id="text_29">
     <!-- 1968.0 -->
     <g transform="translate(63.925 259.088437)scale(0.1 -0.1)">
      <use xlink:href="#DejaVuSans-31"/>
      <use x="63.623047" xlink:href="#DejaVuSans-39"/>
      <use x="127.246094" xlink:href="#DejaVuSans-36"/>
      <use x="190.869141" xlink:href="#DejaVuSans-38"/>
      <use x="254.492188" xlink:href="#DejaVuSans-2e"/>
      <use x="286.279297" xlink:href="#DejaVuSans-30"/>
     </g>
    </g>
    <g id="line2d_76">
     <path d="M 35.925 270.266562 
L 55.925 270.266562 
" style="fill:none;stroke:#e377c2;stroke-linecap:square;stroke-width:1.5;"/>
    </g>
    <g id="line2d_77"/>
    <g id="text_30">
     <!-- 1969.0 -->
     <g transform="translate(63.925 273.766562)scale(0.1 -0.1)">
      <use xlink:href="#DejaVuSans-31"/>
      <use x="63.623047" xlink:href="#DejaVuSans-39"/>
      <use x="127.246094" xlink:href="#DejaVuSans-36"/>
      <use x="190.869141" xlink:href="#DejaVuSans-39"/>
      <use x="254.492188" xlink:href="#DejaVuSans-2e"/>
      <use x="286.279297" xlink:href="#DejaVuSans-30"/>
     </g>
    </g>
    <g id="line2d_78">
     <path d="M 35.925 284.944687 
L 55.925 284.944687 
" style="fill:none;stroke:#7f7f7f;stroke-linecap:square;stroke-width:1.5;"/>
    </g>
    <g id="line2d_79"/>
    <g id="text_31">
     <!-- 1970.0 -->
     <g transform="translate(63.925 288.444687)scale(0.1 -0.1)">
      <use xlink:href="#DejaVuSans-31"/>
      <use x="63.623047" xlink:href="#DejaVuSans-39"/>
      <use x="127.246094" xlink:href="#DejaVuSans-37"/>
      <use x="190.869141" xlink:href="#DejaVuSans-30"/>
      <use x="254.492188" xlink:href="#DejaVuSans-2e"/>
      <use x="286.279297" xlink:href="#DejaVuSans-30"/>
     </g>
    </g>
    <g id="line2d_80">
     <path d="M 35.925 299.622812 
L 55.925 299.622812 
" style="fill:none;stroke:#bcbd22;stroke-linecap:square;stroke-width:1.5;"/>
    </g>
    <g id="line2d_81"/>
    <g id="text_32">
     <!-- 1971.0 -->
     <g transform="translate(63.925 303.122812)scale(0.1 -0.1)">
      <use xlink:href="#DejaVuSans-31"/>
      <use x="63.623047" xlink:href="#DejaVuSans-39"/>
      <use x="127.246094" xlink:href="#DejaVuSans-37"/>
      <use x="190.869141" xlink:href="#DejaVuSans-31"/>
      <use x="254.492188" xlink:href="#DejaVuSans-2e"/>
      <use x="286.279297" xlink:href="#DejaVuSans-30"/>
     </g>
    </g>
    <g id="line2d_82">
     <path d="M 35.925 314.300937 
L 55.925 314.300937 
" style="fill:none;stroke:#17becf;stroke-linecap:square;stroke-width:1.5;"/>
    </g>
    <g id="line2d_83"/>
    <g id="text_33">
     <!-- 1972.0 -->
     <g transform="translate(63.925 317.800937)scale(0.1 -0.1)">
      <use xlink:href="#DejaVuSans-31"/>
      <use x="63.623047" xlink:href="#DejaVuSans-39"/>
      <use x="127.246094" xlink:href="#DejaVuSans-37"/>
      <use x="190.869141" xlink:href="#DejaVuSans-32"/>
      <use x="254.492188" xlink:href="#DejaVuSans-2e"/>
      <use x="286.279297" xlink:href="#DejaVuSans-30"/>
     </g>
    </g>
    <g id="line2d_84">
     <path d="M 35.925 328.979062 
L 55.925 328.979062 
" style="fill:none;stroke:#1f77b4;stroke-linecap:square;stroke-width:1.5;"/>
    </g>
    <g id="line2d_85"/>
    <g id="text_34">
     <!-- 1973.0 -->
     <g transform="translate(63.925 332.479062)scale(0.1 -0.1)">
      <use xlink:href="#DejaVuSans-31"/>
      <use x="63.623047" xlink:href="#DejaVuSans-39"/>
      <use x="127.246094" xlink:href="#DejaVuSans-37"/>
      <use x="190.869141" xlink:href="#DejaVuSans-33"/>
      <use x="254.492188" xlink:href="#DejaVuSans-2e"/>
      <use x="286.279297" xlink:href="#DejaVuSans-30"/>
     </g>
    </g>
    <g id="line2d_86">
     <path d="M 35.925 343.657187 
L 55.925 343.657187 
" style="fill:none;stroke:#ff7f0e;stroke-linecap:square;stroke-width:1.5;"/>
    </g>
    <g id="line2d_87"/>
    <g id="text_35">
     <!-- 1974.0 -->
     <g transform="translate(63.925 347.157187)scale(0.1 -0.1)">
      <use xlink:href="#DejaVuSans-31"/>
      <use x="63.623047" xlink:href="#DejaVuSans-39"/>
      <use x="127.246094" xlink:href="#DejaVuSans-37"/>
      <use x="190.869141" xlink:href="#DejaVuSans-34"/>
      <use x="254.492188" xlink:href="#DejaVuSans-2e"/>
      <use x="286.279297" xlink:href="#DejaVuSans-30"/>
     </g>
    </g>
    <g id="line2d_88">
     <path d="M 35.925 358.335312 
L 55.925 358.335312 
" style="fill:none;stroke:#2ca02c;stroke-linecap:square;stroke-width:1.5;"/>
    </g>
    <g id="line2d_89"/>
    <g id="text_36">
     <!-- 1975.0 -->
     <g transform="translate(63.925 361.835312)scale(0.1 -0.1)">
      <use xlink:href="#DejaVuSans-31"/>
      <use x="63.623047" xlink:href="#DejaVuSans-39"/>
      <use x="127.246094" xlink:href="#DejaVuSans-37"/>
      <use x="190.869141" xlink:href="#DejaVuSans-35"/>
      <use x="254.492188" xlink:href="#DejaVuSans-2e"/>
      <use x="286.279297" xlink:href="#DejaVuSans-30"/>
     </g>
    </g>
    <g id="line2d_90">
     <path d="M 35.925 373.013438 
L 55.925 373.013438 
" style="fill:none;stroke:#d62728;stroke-linecap:square;stroke-width:1.5;"/>
    </g>
    <g id="line2d_91"/>
    <g id="text_37">
     <!-- 1976.0 -->
     <g transform="translate(63.925 376.513438)scale(0.1 -0.1)">
      <use xlink:href="#DejaVuSans-31"/>
      <use x="63.623047" xlink:href="#DejaVuSans-39"/>
      <use x="127.246094" xlink:href="#DejaVuSans-37"/>
      <use x="190.869141" xlink:href="#DejaVuSans-36"/>
      <use x="254.492188" xlink:href="#DejaVuSans-2e"/>
      <use x="286.279297" xlink:href="#DejaVuSans-30"/>
     </g>
    </g>
    <g id="line2d_92">
     <path d="M 35.925 387.691563 
L 55.925 387.691563 
" style="fill:none;stroke:#9467bd;stroke-linecap:square;stroke-width:1.5;"/>
    </g>
    <g id="line2d_93"/>
    <g id="text_38">
     <!-- 1977.0 -->
     <g transform="translate(63.925 391.191563)scale(0.1 -0.1)">
      <use xlink:href="#DejaVuSans-31"/>
      <use x="63.623047" xlink:href="#DejaVuSans-39"/>
      <use x="127.246094" xlink:href="#DejaVuSans-37"/>
      <use x="190.869141" xlink:href="#DejaVuSans-37"/>
      <use x="254.492188" xlink:href="#DejaVuSans-2e"/>
      <use x="286.279297" xlink:href="#DejaVuSans-30"/>
     </g>
    </g>
    <g id="line2d_94">
     <path d="M 35.925 402.369688 
L 55.925 402.369688 
" style="fill:none;stroke:#8c564b;stroke-linecap:square;stroke-width:1.5;"/>
    </g>
    <g id="line2d_95"/>
    <g id="text_39">
     <!-- 1978.0 -->
     <g transform="translate(63.925 405.869688)scale(0.1 -0.1)">
      <use xlink:href="#DejaVuSans-31"/>
      <use x="63.623047" xlink:href="#DejaVuSans-39"/>
      <use x="127.246094" xlink:href="#DejaVuSans-37"/>
      <use x="190.869141" xlink:href="#DejaVuSans-38"/>
      <use x="254.492188" xlink:href="#DejaVuSans-2e"/>
      <use x="286.279297" xlink:href="#DejaVuSans-30"/>
     </g>
    </g>
    <g id="line2d_96">
     <path d="M 35.925 417.047813 
L 55.925 417.047813 
" style="fill:none;stroke:#e377c2;stroke-linecap:square;stroke-width:1.5;"/>
    </g>
    <g id="line2d_97"/>
    <g id="text_40">
     <!-- 1979.0 -->
     <g transform="translate(63.925 420.547813)scale(0.1 -0.1)">
      <use xlink:href="#DejaVuSans-31"/>
      <use x="63.623047" xlink:href="#DejaVuSans-39"/>
      <use x="127.246094" xlink:href="#DejaVuSans-37"/>
      <use x="190.869141" xlink:href="#DejaVuSans-39"/>
      <use x="254.492188" xlink:href="#DejaVuSans-2e"/>
      <use x="286.279297" xlink:href="#DejaVuSans-30"/>
     </g>
    </g>
    <g id="line2d_98">
     <path d="M 35.925 431.725938 
L 55.925 431.725938 
" style="fill:none;stroke:#7f7f7f;stroke-linecap:square;stroke-width:1.5;"/>
    </g>
    <g id="line2d_99"/>
    <g id="text_41">
     <!-- 1980.0 -->
     <g transform="translate(63.925 435.225938)scale(0.1 -0.1)">
      <use xlink:href="#DejaVuSans-31"/>
      <use x="63.623047" xlink:href="#DejaVuSans-39"/>
      <use x="127.246094" xlink:href="#DejaVuSans-38"/>
      <use x="190.869141" xlink:href="#DejaVuSans-30"/>
      <use x="254.492188" xlink:href="#DejaVuSans-2e"/>
      <use x="286.279297" xlink:href="#DejaVuSans-30"/>
     </g>
    </g>
    <g id="line2d_100">
     <path d="M 35.925 446.404063 
L 55.925 446.404063 
" style="fill:none;stroke:#bcbd22;stroke-linecap:square;stroke-width:1.5;"/>
    </g>
    <g id="line2d_101"/>
    <g id="text_42">
     <!-- 1981.0 -->
     <g transform="translate(63.925 449.904063)scale(0.1 -0.1)">
      <use xlink:href="#DejaVuSans-31"/>
      <use x="63.623047" xlink:href="#DejaVuSans-39"/>
      <use x="127.246094" xlink:href="#DejaVuSans-38"/>
      <use x="190.869141" xlink:href="#DejaVuSans-31"/>
      <use x="254.492188" xlink:href="#DejaVuSans-2e"/>
      <use x="286.279297" xlink:href="#DejaVuSans-30"/>
     </g>
    </g>
    <g id="line2d_102">
     <path d="M 35.925 461.082188 
L 55.925 461.082188 
" style="fill:none;stroke:#17becf;stroke-linecap:square;stroke-width:1.5;"/>
    </g>
    <g id="line2d_103"/>
    <g id="text_43">
     <!-- 1982.0 -->
     <g transform="translate(63.925 464.582188)scale(0.1 -0.1)">
      <use xlink:href="#DejaVuSans-31"/>
      <use x="63.623047" xlink:href="#DejaVuSans-39"/>
      <use x="127.246094" xlink:href="#DejaVuSans-38"/>
      <use x="190.869141" xlink:href="#DejaVuSans-32"/>
      <use x="254.492188" xlink:href="#DejaVuSans-2e"/>
      <use x="286.279297" xlink:href="#DejaVuSans-30"/>
     </g>
    </g>
    <g id="line2d_104">
     <path d="M 35.925 475.760313 
L 55.925 475.760313 
" style="fill:none;stroke:#000000;stroke-dasharray:11.1,4.8;stroke-dashoffset:0;stroke-width:3;"/>
    </g>
    <g id="line2d_105"/>
    <g id="text_44">
     <!-- Mean -->
     <g transform="translate(63.925 479.260313)scale(0.1 -0.1)">
      <defs>
       <path d="M 628 4666 
L 1569 4666 
L 2759 1491 
L 3956 4666 
L 4897 4666 
L 4897 0 
L 4281 0 
L 4281 4097 
L 3078 897 
L 2444 897 
L 1241 4097 
L 1241 0 
L 628 0 
L 628 4666 
z
" id="DejaVuSans-4d" transform="scale(0.015625)"/>
      </defs>
      <use xlink:href="#DejaVuSans-4d"/>
      <use x="86.279297" xlink:href="#DejaVuSans-65"/>
      <use x="147.802734" xlink:href="#DejaVuSans-61"/>
      <use x="209.082031" xlink:href="#DejaVuSans-6e"/>
     </g>
    </g>
   </g>
  </g>
 </g>
 <defs>
  <clipPath id="p656a2337ea">
   <rect height="543.6" width="1116" x="26.925" y="22.318125"/>
  </clipPath>
 </defs>
</svg>
