<?xml version="1.0" encoding="utf-8" standalone="no"?>
<!DOCTYPE svg PUBLIC "-//W3C//DTD SVG 1.1//EN"
  "http://www.w3.org/Graphics/SVG/1.1/DTD/svg11.dtd">
<svg height="308.99625pt" version="1.1" viewBox="0 0 2266.125 308.99625" width="2266.125pt" xmlns="http://www.w3.org/2000/svg" xmlns:xlink="http://www.w3.org/1999/xlink">
 <metadata>
  <rdf:RDF xmlns:cc="http://creativecommons.org/ns#" xmlns:dc="http://purl.org/dc/elements/1.1/" xmlns:rdf="http://www.w3.org/1999/02/22-rdf-syntax-ns#">
   <cc:Work>
    <dc:type rdf:resource="http://purl.org/dc/dcmitype/StillImage"/>
    <dc:date>2021-04-11T13:32:15.129500</dc:date>
    <dc:format>image/svg+xml</dc:format>
    <dc:creator>
     <cc:Agent>
      <dc:title>Matplotlib v3.4.1, https://matplotlib.org/</dc:title>
     </cc:Agent>
    </dc:creator>
   </cc:Work>
  </rdf:RDF>
 </metadata>
 <defs>
  <style type="text/css">*{stroke-linecap:butt;stroke-linejoin:round;}</style>
 </defs>
 <g id="figure_1">
  <g id="patch_1">
   <path d="M 0 308.99625 
L 2266.125 308.99625 
L 2266.125 0 
L 0 0 
z
" style="fill:none;"/>
  </g>
  <g id="axes_1">
   <g id="patch_2">
    <path d="M 26.925 285.118125 
L 2258.925 285.118125 
L 2258.925 22.318125 
L 26.925 22.318125 
z
" style="fill:#ffffff;"/>
   </g>
   <g id="patch_3">
    <path clip-path="url(#pd124c84e11)" d="M 26.925 285.118125 
L 26.925 22.318125 
L 101.325 22.318125 
L 101.325 285.118125 
z
" style="fill:none;stroke:#000000;stroke-linejoin:miter;"/>
   </g>
   <g id="patch_4">
    <path clip-path="url(#pd124c84e11)" d="M 175.725 285.118125 
L 175.725 22.318125 
L 250.125 22.318125 
L 250.125 285.118125 
z
" style="fill:none;stroke:#000000;stroke-linejoin:miter;"/>
   </g>
   <g id="patch_5">
    <path clip-path="url(#pd124c84e11)" d="M 324.525 285.118125 
L 324.525 22.318125 
L 398.925 22.318125 
L 398.925 285.118125 
z
" style="fill:none;stroke:#000000;stroke-linejoin:miter;"/>
   </g>
   <g id="patch_6">
    <path clip-path="url(#pd124c84e11)" d="M 473.325 285.118125 
L 473.325 22.318125 
L 547.725 22.318125 
L 547.725 285.118125 
z
" style="fill:none;stroke:#000000;stroke-linejoin:miter;"/>
   </g>
   <g id="patch_7">
    <path clip-path="url(#pd124c84e11)" d="M 622.125 285.118125 
L 622.125 22.318125 
L 696.525 22.318125 
L 696.525 285.118125 
z
" style="fill:none;stroke:#000000;stroke-linejoin:miter;"/>
   </g>
   <g id="patch_8">
    <path clip-path="url(#pd124c84e11)" d="M 770.925 285.118125 
L 770.925 22.318125 
L 845.325 22.318125 
L 845.325 285.118125 
z
" style="fill:none;stroke:#000000;stroke-linejoin:miter;"/>
   </g>
   <g id="patch_9">
    <path clip-path="url(#pd124c84e11)" d="M 919.725 285.118125 
L 919.725 22.318125 
L 994.125 22.318125 
L 994.125 285.118125 
z
" style="fill:none;stroke:#000000;stroke-linejoin:miter;"/>
   </g>
   <g id="patch_10">
    <path clip-path="url(#pd124c84e11)" d="M 1068.525 285.118125 
L 1068.525 22.318125 
L 1142.925 22.318125 
L 1142.925 285.118125 
z
" style="fill:none;stroke:#000000;stroke-linejoin:miter;"/>
   </g>
   <g id="patch_11">
    <path clip-path="url(#pd124c84e11)" d="M 1217.325 285.118125 
L 1217.325 22.318125 
L 1291.725 22.318125 
L 1291.725 285.118125 
z
" style="fill:none;stroke:#000000;stroke-linejoin:miter;"/>
   </g>
   <g id="patch_12">
    <path clip-path="url(#pd124c84e11)" d="M 1366.125 285.118125 
L 1366.125 22.318125 
L 1440.525 22.318125 
L 1440.525 285.118125 
z
" style="fill:none;stroke:#000000;stroke-linejoin:miter;"/>
   </g>
   <g id="patch_13">
    <path clip-path="url(#pd124c84e11)" d="M 1514.925 285.118125 
L 1514.925 22.318125 
L 1589.325 22.318125 
L 1589.325 285.118125 
z
" style="fill:none;stroke:#000000;stroke-linejoin:miter;"/>
   </g>
   <g id="patch_14">
    <path clip-path="url(#pd124c84e11)" d="M 1663.725 285.118125 
L 1663.725 22.318125 
L 1738.125 22.318125 
L 1738.125 285.118125 
z
" style="fill:none;stroke:#000000;stroke-linejoin:miter;"/>
   </g>
   <g id="patch_15">
    <path clip-path="url(#pd124c84e11)" d="M 1812.525 285.118125 
L 1812.525 22.318125 
L 1886.925 22.318125 
L 1886.925 285.118125 
z
" style="fill:none;stroke:#000000;stroke-linejoin:miter;"/>
   </g>
   <g id="patch_16">
    <path clip-path="url(#pd124c84e11)" d="M 1961.325 285.118125 
L 1961.325 22.318125 
L 2035.725 22.318125 
L 2035.725 285.118125 
z
" style="fill:none;stroke:#000000;stroke-linejoin:miter;"/>
   </g>
   <g id="patch_17">
    <path clip-path="url(#pd124c84e11)" d="M 2110.125 285.118125 
L 2110.125 22.318125 
L 2184.525 22.318125 
L 2184.525 285.118125 
z
" style="fill:none;stroke:#000000;stroke-linejoin:miter;"/>
   </g>
   <g id="matplotlib.axis_1">
    <g id="xtick_1">
     <g id="line2d_1">
      <defs>
       <path d="M 0 0 
L 0 3.5 
" id="mc1913b983f" style="stroke:#000000;stroke-width:0.8;"/>
      </defs>
      <g>
       <use style="stroke:#000000;stroke-width:0.8;" x="64.125" xlink:href="#mc1913b983f" y="285.118125"/>
      </g>
     </g>
     <g id="text_1">
      <!-- Y:1953 -->
      <g transform="translate(47.324219 299.716562)scale(0.1 -0.1)">
       <defs>
        <path d="M -13 4666 
L 666 4666 
L 1959 2747 
L 3244 4666 
L 3922 4666 
L 2272 2222 
L 2272 0 
L 1638 0 
L 1638 2222 
L -13 4666 
z
" id="DejaVuSans-59" transform="scale(0.015625)"/>
        <path d="M 750 794 
L 1409 794 
L 1409 0 
L 750 0 
L 750 794 
z
M 750 3309 
L 1409 3309 
L 1409 2516 
L 750 2516 
L 750 3309 
z
" id="DejaVuSans-3a" transform="scale(0.015625)"/>
        <path d="M 794 531 
L 1825 531 
L 1825 4091 
L 703 3866 
L 703 4441 
L 1819 4666 
L 2450 4666 
L 2450 531 
L 3481 531 
L 3481 0 
L 794 0 
L 794 531 
z
" id="DejaVuSans-31" transform="scale(0.015625)"/>
        <path d="M 703 97 
L 703 672 
Q 941 559 1184 500 
Q 1428 441 1663 441 
Q 2288 441 2617 861 
Q 2947 1281 2994 2138 
Q 2813 1869 2534 1725 
Q 2256 1581 1919 1581 
Q 1219 1581 811 2004 
Q 403 2428 403 3163 
Q 403 3881 828 4315 
Q 1253 4750 1959 4750 
Q 2769 4750 3195 4129 
Q 3622 3509 3622 2328 
Q 3622 1225 3098 567 
Q 2575 -91 1691 -91 
Q 1453 -91 1209 -44 
Q 966 3 703 97 
z
M 1959 2075 
Q 2384 2075 2632 2365 
Q 2881 2656 2881 3163 
Q 2881 3666 2632 3958 
Q 2384 4250 1959 4250 
Q 1534 4250 1286 3958 
Q 1038 3666 1038 3163 
Q 1038 2656 1286 2365 
Q 1534 2075 1959 2075 
z
" id="DejaVuSans-39" transform="scale(0.015625)"/>
        <path d="M 691 4666 
L 3169 4666 
L 3169 4134 
L 1269 4134 
L 1269 2991 
Q 1406 3038 1543 3061 
Q 1681 3084 1819 3084 
Q 2600 3084 3056 2656 
Q 3513 2228 3513 1497 
Q 3513 744 3044 326 
Q 2575 -91 1722 -91 
Q 1428 -91 1123 -41 
Q 819 9 494 109 
L 494 744 
Q 775 591 1075 516 
Q 1375 441 1709 441 
Q 2250 441 2565 725 
Q 2881 1009 2881 1497 
Q 2881 1984 2565 2268 
Q 2250 2553 1709 2553 
Q 1456 2553 1204 2497 
Q 953 2441 691 2322 
L 691 4666 
z
" id="DejaVuSans-35" transform="scale(0.015625)"/>
        <path d="M 2597 2516 
Q 3050 2419 3304 2112 
Q 3559 1806 3559 1356 
Q 3559 666 3084 287 
Q 2609 -91 1734 -91 
Q 1441 -91 1130 -33 
Q 819 25 488 141 
L 488 750 
Q 750 597 1062 519 
Q 1375 441 1716 441 
Q 2309 441 2620 675 
Q 2931 909 2931 1356 
Q 2931 1769 2642 2001 
Q 2353 2234 1838 2234 
L 1294 2234 
L 1294 2753 
L 1863 2753 
Q 2328 2753 2575 2939 
Q 2822 3125 2822 3475 
Q 2822 3834 2567 4026 
Q 2313 4219 1838 4219 
Q 1578 4219 1281 4162 
Q 984 4106 628 3988 
L 628 4550 
Q 988 4650 1302 4700 
Q 1616 4750 1894 4750 
Q 2613 4750 3031 4423 
Q 3450 4097 3450 3541 
Q 3450 3153 3228 2886 
Q 3006 2619 2597 2516 
z
" id="DejaVuSans-33" transform="scale(0.015625)"/>
       </defs>
       <use xlink:href="#DejaVuSans-59"/>
       <use x="47.833984" xlink:href="#DejaVuSans-3a"/>
       <use x="81.525391" xlink:href="#DejaVuSans-31"/>
       <use x="145.148438" xlink:href="#DejaVuSans-39"/>
       <use x="208.771484" xlink:href="#DejaVuSans-35"/>
       <use x="272.394531" xlink:href="#DejaVuSans-33"/>
      </g>
     </g>
    </g>
    <g id="xtick_2">
     <g id="line2d_2">
      <g>
       <use style="stroke:#000000;stroke-width:0.8;" x="138.525" xlink:href="#mc1913b983f" y="285.118125"/>
      </g>
     </g>
     <g id="text_2">
      <!-- Y:1954 -->
      <g transform="translate(121.724219 299.716562)scale(0.1 -0.1)">
       <defs>
        <path d="M 2419 4116 
L 825 1625 
L 2419 1625 
L 2419 4116 
z
M 2253 4666 
L 3047 4666 
L 3047 1625 
L 3713 1625 
L 3713 1100 
L 3047 1100 
L 3047 0 
L 2419 0 
L 2419 1100 
L 313 1100 
L 313 1709 
L 2253 4666 
z
" id="DejaVuSans-34" transform="scale(0.015625)"/>
       </defs>
       <use xlink:href="#DejaVuSans-59"/>
       <use x="47.833984" xlink:href="#DejaVuSans-3a"/>
       <use x="81.525391" xlink:href="#DejaVuSans-31"/>
       <use x="145.148438" xlink:href="#DejaVuSans-39"/>
       <use x="208.771484" xlink:href="#DejaVuSans-35"/>
       <use x="272.394531" xlink:href="#DejaVuSans-34"/>
      </g>
     </g>
    </g>
    <g id="xtick_3">
     <g id="line2d_3">
      <g>
       <use style="stroke:#000000;stroke-width:0.8;" x="212.925" xlink:href="#mc1913b983f" y="285.118125"/>
      </g>
     </g>
     <g id="text_3">
      <!-- Y:1955 -->
      <g transform="translate(196.124219 299.716562)scale(0.1 -0.1)">
       <use xlink:href="#DejaVuSans-59"/>
       <use x="47.833984" xlink:href="#DejaVuSans-3a"/>
       <use x="81.525391" xlink:href="#DejaVuSans-31"/>
       <use x="145.148438" xlink:href="#DejaVuSans-39"/>
       <use x="208.771484" xlink:href="#DejaVuSans-35"/>
       <use x="272.394531" xlink:href="#DejaVuSans-35"/>
      </g>
     </g>
    </g>
    <g id="xtick_4">
     <g id="line2d_4">
      <g>
       <use style="stroke:#000000;stroke-width:0.8;" x="287.325" xlink:href="#mc1913b983f" y="285.118125"/>
      </g>
     </g>
     <g id="text_4">
      <!-- Y:1956 -->
      <g transform="translate(270.524219 299.716562)scale(0.1 -0.1)">
       <defs>
        <path d="M 2113 2584 
Q 1688 2584 1439 2293 
Q 1191 2003 1191 1497 
Q 1191 994 1439 701 
Q 1688 409 2113 409 
Q 2538 409 2786 701 
Q 3034 994 3034 1497 
Q 3034 2003 2786 2293 
Q 2538 2584 2113 2584 
z
M 3366 4563 
L 3366 3988 
Q 3128 4100 2886 4159 
Q 2644 4219 2406 4219 
Q 1781 4219 1451 3797 
Q 1122 3375 1075 2522 
Q 1259 2794 1537 2939 
Q 1816 3084 2150 3084 
Q 2853 3084 3261 2657 
Q 3669 2231 3669 1497 
Q 3669 778 3244 343 
Q 2819 -91 2113 -91 
Q 1303 -91 875 529 
Q 447 1150 447 2328 
Q 447 3434 972 4092 
Q 1497 4750 2381 4750 
Q 2619 4750 2861 4703 
Q 3103 4656 3366 4563 
z
" id="DejaVuSans-36" transform="scale(0.015625)"/>
       </defs>
       <use xlink:href="#DejaVuSans-59"/>
       <use x="47.833984" xlink:href="#DejaVuSans-3a"/>
       <use x="81.525391" xlink:href="#DejaVuSans-31"/>
       <use x="145.148438" xlink:href="#DejaVuSans-39"/>
       <use x="208.771484" xlink:href="#DejaVuSans-35"/>
       <use x="272.394531" xlink:href="#DejaVuSans-36"/>
      </g>
     </g>
    </g>
    <g id="xtick_5">
     <g id="line2d_5">
      <g>
       <use style="stroke:#000000;stroke-width:0.8;" x="361.725" xlink:href="#mc1913b983f" y="285.118125"/>
      </g>
     </g>
     <g id="text_5">
      <!-- Y:1957 -->
      <g transform="translate(344.924219 299.716562)scale(0.1 -0.1)">
       <defs>
        <path d="M 525 4666 
L 3525 4666 
L 3525 4397 
L 1831 0 
L 1172 0 
L 2766 4134 
L 525 4134 
L 525 4666 
z
" id="DejaVuSans-37" transform="scale(0.015625)"/>
       </defs>
       <use xlink:href="#DejaVuSans-59"/>
       <use x="47.833984" xlink:href="#DejaVuSans-3a"/>
       <use x="81.525391" xlink:href="#DejaVuSans-31"/>
       <use x="145.148438" xlink:href="#DejaVuSans-39"/>
       <use x="208.771484" xlink:href="#DejaVuSans-35"/>
       <use x="272.394531" xlink:href="#DejaVuSans-37"/>
      </g>
     </g>
    </g>
    <g id="xtick_6">
     <g id="line2d_6">
      <g>
       <use style="stroke:#000000;stroke-width:0.8;" x="436.125" xlink:href="#mc1913b983f" y="285.118125"/>
      </g>
     </g>
     <g id="text_6">
      <!-- Y:1958 -->
      <g transform="translate(419.324219 299.716562)scale(0.1 -0.1)">
       <defs>
        <path d="M 2034 2216 
Q 1584 2216 1326 1975 
Q 1069 1734 1069 1313 
Q 1069 891 1326 650 
Q 1584 409 2034 409 
Q 2484 409 2743 651 
Q 3003 894 3003 1313 
Q 3003 1734 2745 1975 
Q 2488 2216 2034 2216 
z
M 1403 2484 
Q 997 2584 770 2862 
Q 544 3141 544 3541 
Q 544 4100 942 4425 
Q 1341 4750 2034 4750 
Q 2731 4750 3128 4425 
Q 3525 4100 3525 3541 
Q 3525 3141 3298 2862 
Q 3072 2584 2669 2484 
Q 3125 2378 3379 2068 
Q 3634 1759 3634 1313 
Q 3634 634 3220 271 
Q 2806 -91 2034 -91 
Q 1263 -91 848 271 
Q 434 634 434 1313 
Q 434 1759 690 2068 
Q 947 2378 1403 2484 
z
M 1172 3481 
Q 1172 3119 1398 2916 
Q 1625 2713 2034 2713 
Q 2441 2713 2670 2916 
Q 2900 3119 2900 3481 
Q 2900 3844 2670 4047 
Q 2441 4250 2034 4250 
Q 1625 4250 1398 4047 
Q 1172 3844 1172 3481 
z
" id="DejaVuSans-38" transform="scale(0.015625)"/>
       </defs>
       <use xlink:href="#DejaVuSans-59"/>
       <use x="47.833984" xlink:href="#DejaVuSans-3a"/>
       <use x="81.525391" xlink:href="#DejaVuSans-31"/>
       <use x="145.148438" xlink:href="#DejaVuSans-39"/>
       <use x="208.771484" xlink:href="#DejaVuSans-35"/>
       <use x="272.394531" xlink:href="#DejaVuSans-38"/>
      </g>
     </g>
    </g>
    <g id="xtick_7">
     <g id="line2d_7">
      <g>
       <use style="stroke:#000000;stroke-width:0.8;" x="510.525" xlink:href="#mc1913b983f" y="285.118125"/>
      </g>
     </g>
     <g id="text_7">
      <!-- Y:1959 -->
      <g transform="translate(493.724219 299.716562)scale(0.1 -0.1)">
       <use xlink:href="#DejaVuSans-59"/>
       <use x="47.833984" xlink:href="#DejaVuSans-3a"/>
       <use x="81.525391" xlink:href="#DejaVuSans-31"/>
       <use x="145.148438" xlink:href="#DejaVuSans-39"/>
       <use x="208.771484" xlink:href="#DejaVuSans-35"/>
       <use x="272.394531" xlink:href="#DejaVuSans-39"/>
      </g>
     </g>
    </g>
    <g id="xtick_8">
     <g id="line2d_8">
      <g>
       <use style="stroke:#000000;stroke-width:0.8;" x="584.925" xlink:href="#mc1913b983f" y="285.118125"/>
      </g>
     </g>
     <g id="text_8">
      <!-- Y:1960 -->
      <g transform="translate(568.124219 299.716562)scale(0.1 -0.1)">
       <defs>
        <path d="M 2034 4250 
Q 1547 4250 1301 3770 
Q 1056 3291 1056 2328 
Q 1056 1369 1301 889 
Q 1547 409 2034 409 
Q 2525 409 2770 889 
Q 3016 1369 3016 2328 
Q 3016 3291 2770 3770 
Q 2525 4250 2034 4250 
z
M 2034 4750 
Q 2819 4750 3233 4129 
Q 3647 3509 3647 2328 
Q 3647 1150 3233 529 
Q 2819 -91 2034 -91 
Q 1250 -91 836 529 
Q 422 1150 422 2328 
Q 422 3509 836 4129 
Q 1250 4750 2034 4750 
z
" id="DejaVuSans-30" transform="scale(0.015625)"/>
       </defs>
       <use xlink:href="#DejaVuSans-59"/>
       <use x="47.833984" xlink:href="#DejaVuSans-3a"/>
       <use x="81.525391" xlink:href="#DejaVuSans-31"/>
       <use x="145.148438" xlink:href="#DejaVuSans-39"/>
       <use x="208.771484" xlink:href="#DejaVuSans-36"/>
       <use x="272.394531" xlink:href="#DejaVuSans-30"/>
      </g>
     </g>
    </g>
    <g id="xtick_9">
     <g id="line2d_9">
      <g>
       <use style="stroke:#000000;stroke-width:0.8;" x="659.325" xlink:href="#mc1913b983f" y="285.118125"/>
      </g>
     </g>
     <g id="text_9">
      <!-- Y:1961 -->
      <g transform="translate(642.524219 299.716562)scale(0.1 -0.1)">
       <use xlink:href="#DejaVuSans-59"/>
       <use x="47.833984" xlink:href="#DejaVuSans-3a"/>
       <use x="81.525391" xlink:href="#DejaVuSans-31"/>
       <use x="145.148438" xlink:href="#DejaVuSans-39"/>
       <use x="208.771484" xlink:href="#DejaVuSans-36"/>
       <use x="272.394531" xlink:href="#DejaVuSans-31"/>
      </g>
     </g>
    </g>
    <g id="xtick_10">
     <g id="line2d_10">
      <g>
       <use style="stroke:#000000;stroke-width:0.8;" x="733.725" xlink:href="#mc1913b983f" y="285.118125"/>
      </g>
     </g>
     <g id="text_10">
      <!-- Y:1962 -->
      <g transform="translate(716.924219 299.716562)scale(0.1 -0.1)">
       <defs>
        <path d="M 1228 531 
L 3431 531 
L 3431 0 
L 469 0 
L 469 531 
Q 828 903 1448 1529 
Q 2069 2156 2228 2338 
Q 2531 2678 2651 2914 
Q 2772 3150 2772 3378 
Q 2772 3750 2511 3984 
Q 2250 4219 1831 4219 
Q 1534 4219 1204 4116 
Q 875 4013 500 3803 
L 500 4441 
Q 881 4594 1212 4672 
Q 1544 4750 1819 4750 
Q 2544 4750 2975 4387 
Q 3406 4025 3406 3419 
Q 3406 3131 3298 2873 
Q 3191 2616 2906 2266 
Q 2828 2175 2409 1742 
Q 1991 1309 1228 531 
z
" id="DejaVuSans-32" transform="scale(0.015625)"/>
       </defs>
       <use xlink:href="#DejaVuSans-59"/>
       <use x="47.833984" xlink:href="#DejaVuSans-3a"/>
       <use x="81.525391" xlink:href="#DejaVuSans-31"/>
       <use x="145.148438" xlink:href="#DejaVuSans-39"/>
       <use x="208.771484" xlink:href="#DejaVuSans-36"/>
       <use x="272.394531" xlink:href="#DejaVuSans-32"/>
      </g>
     </g>
    </g>
    <g id="xtick_11">
     <g id="line2d_11">
      <g>
       <use style="stroke:#000000;stroke-width:0.8;" x="808.125" xlink:href="#mc1913b983f" y="285.118125"/>
      </g>
     </g>
     <g id="text_11">
      <!-- Y:1963 -->
      <g transform="translate(791.324219 299.716562)scale(0.1 -0.1)">
       <use xlink:href="#DejaVuSans-59"/>
       <use x="47.833984" xlink:href="#DejaVuSans-3a"/>
       <use x="81.525391" xlink:href="#DejaVuSans-31"/>
       <use x="145.148438" xlink:href="#DejaVuSans-39"/>
       <use x="208.771484" xlink:href="#DejaVuSans-36"/>
       <use x="272.394531" xlink:href="#DejaVuSans-33"/>
      </g>
     </g>
    </g>
    <g id="xtick_12">
     <g id="line2d_12">
      <g>
       <use style="stroke:#000000;stroke-width:0.8;" x="882.525" xlink:href="#mc1913b983f" y="285.118125"/>
      </g>
     </g>
     <g id="text_12">
      <!-- Y:1964 -->
      <g transform="translate(865.724219 299.716562)scale(0.1 -0.1)">
       <use xlink:href="#DejaVuSans-59"/>
       <use x="47.833984" xlink:href="#DejaVuSans-3a"/>
       <use x="81.525391" xlink:href="#DejaVuSans-31"/>
       <use x="145.148438" xlink:href="#DejaVuSans-39"/>
       <use x="208.771484" xlink:href="#DejaVuSans-36"/>
       <use x="272.394531" xlink:href="#DejaVuSans-34"/>
      </g>
     </g>
    </g>
    <g id="xtick_13">
     <g id="line2d_13">
      <g>
       <use style="stroke:#000000;stroke-width:0.8;" x="956.925" xlink:href="#mc1913b983f" y="285.118125"/>
      </g>
     </g>
     <g id="text_13">
      <!-- Y:1965 -->
      <g transform="translate(940.124219 299.716562)scale(0.1 -0.1)">
       <use xlink:href="#DejaVuSans-59"/>
       <use x="47.833984" xlink:href="#DejaVuSans-3a"/>
       <use x="81.525391" xlink:href="#DejaVuSans-31"/>
       <use x="145.148438" xlink:href="#DejaVuSans-39"/>
       <use x="208.771484" xlink:href="#DejaVuSans-36"/>
       <use x="272.394531" xlink:href="#DejaVuSans-35"/>
      </g>
     </g>
    </g>
    <g id="xtick_14">
     <g id="line2d_14">
      <g>
       <use style="stroke:#000000;stroke-width:0.8;" x="1031.325" xlink:href="#mc1913b983f" y="285.118125"/>
      </g>
     </g>
     <g id="text_14">
      <!-- Y:1966 -->
      <g transform="translate(1014.524219 299.716562)scale(0.1 -0.1)">
       <use xlink:href="#DejaVuSans-59"/>
       <use x="47.833984" xlink:href="#DejaVuSans-3a"/>
       <use x="81.525391" xlink:href="#DejaVuSans-31"/>
       <use x="145.148438" xlink:href="#DejaVuSans-39"/>
       <use x="208.771484" xlink:href="#DejaVuSans-36"/>
       <use x="272.394531" xlink:href="#DejaVuSans-36"/>
      </g>
     </g>
    </g>
    <g id="xtick_15">
     <g id="line2d_15">
      <g>
       <use style="stroke:#000000;stroke-width:0.8;" x="1105.725" xlink:href="#mc1913b983f" y="285.118125"/>
      </g>
     </g>
     <g id="text_15">
      <!-- Y:1967 -->
      <g transform="translate(1088.924219 299.716562)scale(0.1 -0.1)">
       <use xlink:href="#DejaVuSans-59"/>
       <use x="47.833984" xlink:href="#DejaVuSans-3a"/>
       <use x="81.525391" xlink:href="#DejaVuSans-31"/>
       <use x="145.148438" xlink:href="#DejaVuSans-39"/>
       <use x="208.771484" xlink:href="#DejaVuSans-36"/>
       <use x="272.394531" xlink:href="#DejaVuSans-37"/>
      </g>
     </g>
    </g>
    <g id="xtick_16">
     <g id="line2d_16">
      <g>
       <use style="stroke:#000000;stroke-width:0.8;" x="1180.125" xlink:href="#mc1913b983f" y="285.118125"/>
      </g>
     </g>
     <g id="text_16">
      <!-- Y:1968 -->
      <g transform="translate(1163.324219 299.716562)scale(0.1 -0.1)">
       <use xlink:href="#DejaVuSans-59"/>
       <use x="47.833984" xlink:href="#DejaVuSans-3a"/>
       <use x="81.525391" xlink:href="#DejaVuSans-31"/>
       <use x="145.148438" xlink:href="#DejaVuSans-39"/>
       <use x="208.771484" xlink:href="#DejaVuSans-36"/>
       <use x="272.394531" xlink:href="#DejaVuSans-38"/>
      </g>
     </g>
    </g>
    <g id="xtick_17">
     <g id="line2d_17">
      <g>
       <use style="stroke:#000000;stroke-width:0.8;" x="1254.525" xlink:href="#mc1913b983f" y="285.118125"/>
      </g>
     </g>
     <g id="text_17">
      <!-- Y:1969 -->
      <g transform="translate(1237.724219 299.716562)scale(0.1 -0.1)">
       <use xlink:href="#DejaVuSans-59"/>
       <use x="47.833984" xlink:href="#DejaVuSans-3a"/>
       <use x="81.525391" xlink:href="#DejaVuSans-31"/>
       <use x="145.148438" xlink:href="#DejaVuSans-39"/>
       <use x="208.771484" xlink:href="#DejaVuSans-36"/>
       <use x="272.394531" xlink:href="#DejaVuSans-39"/>
      </g>
     </g>
    </g>
    <g id="xtick_18">
     <g id="line2d_18">
      <g>
       <use style="stroke:#000000;stroke-width:0.8;" x="1328.925" xlink:href="#mc1913b983f" y="285.118125"/>
      </g>
     </g>
     <g id="text_18">
      <!-- Y:1970 -->
      <g transform="translate(1312.124219 299.716562)scale(0.1 -0.1)">
       <use xlink:href="#DejaVuSans-59"/>
       <use x="47.833984" xlink:href="#DejaVuSans-3a"/>
       <use x="81.525391" xlink:href="#DejaVuSans-31"/>
       <use x="145.148438" xlink:href="#DejaVuSans-39"/>
       <use x="208.771484" xlink:href="#DejaVuSans-37"/>
       <use x="272.394531" xlink:href="#DejaVuSans-30"/>
      </g>
     </g>
    </g>
    <g id="xtick_19">
     <g id="line2d_19">
      <g>
       <use style="stroke:#000000;stroke-width:0.8;" x="1403.325" xlink:href="#mc1913b983f" y="285.118125"/>
      </g>
     </g>
     <g id="text_19">
      <!-- Y:1971 -->
      <g transform="translate(1386.524219 299.716562)scale(0.1 -0.1)">
       <use xlink:href="#DejaVuSans-59"/>
       <use x="47.833984" xlink:href="#DejaVuSans-3a"/>
       <use x="81.525391" xlink:href="#DejaVuSans-31"/>
       <use x="145.148438" xlink:href="#DejaVuSans-39"/>
       <use x="208.771484" xlink:href="#DejaVuSans-37"/>
       <use x="272.394531" xlink:href="#DejaVuSans-31"/>
      </g>
     </g>
    </g>
    <g id="xtick_20">
     <g id="line2d_20">
      <g>
       <use style="stroke:#000000;stroke-width:0.8;" x="1477.725" xlink:href="#mc1913b983f" y="285.118125"/>
      </g>
     </g>
     <g id="text_20">
      <!-- Y:1972 -->
      <g transform="translate(1460.924219 299.716562)scale(0.1 -0.1)">
       <use xlink:href="#DejaVuSans-59"/>
       <use x="47.833984" xlink:href="#DejaVuSans-3a"/>
       <use x="81.525391" xlink:href="#DejaVuSans-31"/>
       <use x="145.148438" xlink:href="#DejaVuSans-39"/>
       <use x="208.771484" xlink:href="#DejaVuSans-37"/>
       <use x="272.394531" xlink:href="#DejaVuSans-32"/>
      </g>
     </g>
    </g>
    <g id="xtick_21">
     <g id="line2d_21">
      <g>
       <use style="stroke:#000000;stroke-width:0.8;" x="1552.125" xlink:href="#mc1913b983f" y="285.118125"/>
      </g>
     </g>
     <g id="text_21">
      <!-- Y:1973 -->
      <g transform="translate(1535.324219 299.716562)scale(0.1 -0.1)">
       <use xlink:href="#DejaVuSans-59"/>
       <use x="47.833984" xlink:href="#DejaVuSans-3a"/>
       <use x="81.525391" xlink:href="#DejaVuSans-31"/>
       <use x="145.148438" xlink:href="#DejaVuSans-39"/>
       <use x="208.771484" xlink:href="#DejaVuSans-37"/>
       <use x="272.394531" xlink:href="#DejaVuSans-33"/>
      </g>
     </g>
    </g>
    <g id="xtick_22">
     <g id="line2d_22">
      <g>
       <use style="stroke:#000000;stroke-width:0.8;" x="1626.525" xlink:href="#mc1913b983f" y="285.118125"/>
      </g>
     </g>
     <g id="text_22">
      <!-- Y:1974 -->
      <g transform="translate(1609.724219 299.716562)scale(0.1 -0.1)">
       <use xlink:href="#DejaVuSans-59"/>
       <use x="47.833984" xlink:href="#DejaVuSans-3a"/>
       <use x="81.525391" xlink:href="#DejaVuSans-31"/>
       <use x="145.148438" xlink:href="#DejaVuSans-39"/>
       <use x="208.771484" xlink:href="#DejaVuSans-37"/>
       <use x="272.394531" xlink:href="#DejaVuSans-34"/>
      </g>
     </g>
    </g>
    <g id="xtick_23">
     <g id="line2d_23">
      <g>
       <use style="stroke:#000000;stroke-width:0.8;" x="1700.925" xlink:href="#mc1913b983f" y="285.118125"/>
      </g>
     </g>
     <g id="text_23">
      <!-- Y:1975 -->
      <g transform="translate(1684.124219 299.716562)scale(0.1 -0.1)">
       <use xlink:href="#DejaVuSans-59"/>
       <use x="47.833984" xlink:href="#DejaVuSans-3a"/>
       <use x="81.525391" xlink:href="#DejaVuSans-31"/>
       <use x="145.148438" xlink:href="#DejaVuSans-39"/>
       <use x="208.771484" xlink:href="#DejaVuSans-37"/>
       <use x="272.394531" xlink:href="#DejaVuSans-35"/>
      </g>
     </g>
    </g>
    <g id="xtick_24">
     <g id="line2d_24">
      <g>
       <use style="stroke:#000000;stroke-width:0.8;" x="1775.325" xlink:href="#mc1913b983f" y="285.118125"/>
      </g>
     </g>
     <g id="text_24">
      <!-- Y:1976 -->
      <g transform="translate(1758.524219 299.716562)scale(0.1 -0.1)">
       <use xlink:href="#DejaVuSans-59"/>
       <use x="47.833984" xlink:href="#DejaVuSans-3a"/>
       <use x="81.525391" xlink:href="#DejaVuSans-31"/>
       <use x="145.148438" xlink:href="#DejaVuSans-39"/>
       <use x="208.771484" xlink:href="#DejaVuSans-37"/>
       <use x="272.394531" xlink:href="#DejaVuSans-36"/>
      </g>
     </g>
    </g>
    <g id="xtick_25">
     <g id="line2d_25">
      <g>
       <use style="stroke:#000000;stroke-width:0.8;" x="1849.725" xlink:href="#mc1913b983f" y="285.118125"/>
      </g>
     </g>
     <g id="text_25">
      <!-- Y:1977 -->
      <g transform="translate(1832.924219 299.716562)scale(0.1 -0.1)">
       <use xlink:href="#DejaVuSans-59"/>
       <use x="47.833984" xlink:href="#DejaVuSans-3a"/>
       <use x="81.525391" xlink:href="#DejaVuSans-31"/>
       <use x="145.148438" xlink:href="#DejaVuSans-39"/>
       <use x="208.771484" xlink:href="#DejaVuSans-37"/>
       <use x="272.394531" xlink:href="#DejaVuSans-37"/>
      </g>
     </g>
    </g>
    <g id="xtick_26">
     <g id="line2d_26">
      <g>
       <use style="stroke:#000000;stroke-width:0.8;" x="1924.125" xlink:href="#mc1913b983f" y="285.118125"/>
      </g>
     </g>
     <g id="text_26">
      <!-- Y:1978 -->
      <g transform="translate(1907.324219 299.716562)scale(0.1 -0.1)">
       <use xlink:href="#DejaVuSans-59"/>
       <use x="47.833984" xlink:href="#DejaVuSans-3a"/>
       <use x="81.525391" xlink:href="#DejaVuSans-31"/>
       <use x="145.148438" xlink:href="#DejaVuSans-39"/>
       <use x="208.771484" xlink:href="#DejaVuSans-37"/>
       <use x="272.394531" xlink:href="#DejaVuSans-38"/>
      </g>
     </g>
    </g>
    <g id="xtick_27">
     <g id="line2d_27">
      <g>
       <use style="stroke:#000000;stroke-width:0.8;" x="1998.525" xlink:href="#mc1913b983f" y="285.118125"/>
      </g>
     </g>
     <g id="text_27">
      <!-- Y:1979 -->
      <g transform="translate(1981.724219 299.716562)scale(0.1 -0.1)">
       <use xlink:href="#DejaVuSans-59"/>
       <use x="47.833984" xlink:href="#DejaVuSans-3a"/>
       <use x="81.525391" xlink:href="#DejaVuSans-31"/>
       <use x="145.148438" xlink:href="#DejaVuSans-39"/>
       <use x="208.771484" xlink:href="#DejaVuSans-37"/>
       <use x="272.394531" xlink:href="#DejaVuSans-39"/>
      </g>
     </g>
    </g>
    <g id="xtick_28">
     <g id="line2d_28">
      <g>
       <use style="stroke:#000000;stroke-width:0.8;" x="2072.925" xlink:href="#mc1913b983f" y="285.118125"/>
      </g>
     </g>
     <g id="text_28">
      <!-- Y:1980 -->
      <g transform="translate(2056.124219 299.716562)scale(0.1 -0.1)">
       <use xlink:href="#DejaVuSans-59"/>
       <use x="47.833984" xlink:href="#DejaVuSans-3a"/>
       <use x="81.525391" xlink:href="#DejaVuSans-31"/>
       <use x="145.148438" xlink:href="#DejaVuSans-39"/>
       <use x="208.771484" xlink:href="#DejaVuSans-38"/>
       <use x="272.394531" xlink:href="#DejaVuSans-30"/>
      </g>
     </g>
    </g>
    <g id="xtick_29">
     <g id="line2d_29">
      <g>
       <use style="stroke:#000000;stroke-width:0.8;" x="2147.325" xlink:href="#mc1913b983f" y="285.118125"/>
      </g>
     </g>
     <g id="text_29">
      <!-- Y:1981 -->
      <g transform="translate(2130.524219 299.716562)scale(0.1 -0.1)">
       <use xlink:href="#DejaVuSans-59"/>
       <use x="47.833984" xlink:href="#DejaVuSans-3a"/>
       <use x="81.525391" xlink:href="#DejaVuSans-31"/>
       <use x="145.148438" xlink:href="#DejaVuSans-39"/>
       <use x="208.771484" xlink:href="#DejaVuSans-38"/>
       <use x="272.394531" xlink:href="#DejaVuSans-31"/>
      </g>
     </g>
    </g>
    <g id="xtick_30">
     <g id="line2d_30">
      <g>
       <use style="stroke:#000000;stroke-width:0.8;" x="2221.725" xlink:href="#mc1913b983f" y="285.118125"/>
      </g>
     </g>
     <g id="text_30">
      <!-- Y:1982 -->
      <g transform="translate(2204.924219 299.716562)scale(0.1 -0.1)">
       <use xlink:href="#DejaVuSans-59"/>
       <use x="47.833984" xlink:href="#DejaVuSans-3a"/>
       <use x="81.525391" xlink:href="#DejaVuSans-31"/>
       <use x="145.148438" xlink:href="#DejaVuSans-39"/>
       <use x="208.771484" xlink:href="#DejaVuSans-38"/>
       <use x="272.394531" xlink:href="#DejaVuSans-32"/>
      </g>
     </g>
    </g>
   </g>
   <g id="matplotlib.axis_2">
    <g id="ytick_1">
     <g id="line2d_31">
      <defs>
       <path d="M 0 0 
L -3.5 0 
" id="m31add5037a" style="stroke:#000000;stroke-width:0.8;"/>
      </defs>
      <g>
       <use style="stroke:#000000;stroke-width:0.8;" x="26.925" xlink:href="#m31add5037a" y="285.118125"/>
      </g>
     </g>
     <g id="text_31">
      <!-- 0 -->
      <g transform="translate(13.5625 288.917344)scale(0.1 -0.1)">
       <use xlink:href="#DejaVuSans-30"/>
      </g>
     </g>
    </g>
    <g id="ytick_2">
     <g id="line2d_32">
      <g>
       <use style="stroke:#000000;stroke-width:0.8;" x="26.925" xlink:href="#m31add5037a" y="241.318125"/>
      </g>
     </g>
     <g id="text_32">
      <!-- 2 -->
      <g transform="translate(13.5625 245.117344)scale(0.1 -0.1)">
       <use xlink:href="#DejaVuSans-32"/>
      </g>
     </g>
    </g>
    <g id="ytick_3">
     <g id="line2d_33">
      <g>
       <use style="stroke:#000000;stroke-width:0.8;" x="26.925" xlink:href="#m31add5037a" y="197.518125"/>
      </g>
     </g>
     <g id="text_33">
      <!-- 4 -->
      <g transform="translate(13.5625 201.317344)scale(0.1 -0.1)">
       <use xlink:href="#DejaVuSans-34"/>
      </g>
     </g>
    </g>
    <g id="ytick_4">
     <g id="line2d_34">
      <g>
       <use style="stroke:#000000;stroke-width:0.8;" x="26.925" xlink:href="#m31add5037a" y="153.718125"/>
      </g>
     </g>
     <g id="text_34">
      <!-- 6 -->
      <g transform="translate(13.5625 157.517344)scale(0.1 -0.1)">
       <use xlink:href="#DejaVuSans-36"/>
      </g>
     </g>
    </g>
    <g id="ytick_5">
     <g id="line2d_35">
      <g>
       <use style="stroke:#000000;stroke-width:0.8;" x="26.925" xlink:href="#m31add5037a" y="109.918125"/>
      </g>
     </g>
     <g id="text_35">
      <!-- 8 -->
      <g transform="translate(13.5625 113.717344)scale(0.1 -0.1)">
       <use xlink:href="#DejaVuSans-38"/>
      </g>
     </g>
    </g>
    <g id="ytick_6">
     <g id="line2d_36">
      <g>
       <use style="stroke:#000000;stroke-width:0.8;" x="26.925" xlink:href="#m31add5037a" y="66.118125"/>
      </g>
     </g>
     <g id="text_36">
      <!-- 10 -->
      <g transform="translate(7.2 69.917344)scale(0.1 -0.1)">
       <use xlink:href="#DejaVuSans-31"/>
       <use x="63.623047" xlink:href="#DejaVuSans-30"/>
      </g>
     </g>
    </g>
    <g id="ytick_7">
     <g id="line2d_37">
      <g>
       <use style="stroke:#000000;stroke-width:0.8;" x="26.925" xlink:href="#m31add5037a" y="22.318125"/>
      </g>
     </g>
     <g id="text_37">
      <!-- 12 -->
      <g transform="translate(7.2 26.117344)scale(0.1 -0.1)">
       <use xlink:href="#DejaVuSans-31"/>
       <use x="63.623047" xlink:href="#DejaVuSans-32"/>
      </g>
     </g>
    </g>
   </g>
   <g id="line2d_38">
    <path clip-path="url(#pd124c84e11)" d="M 26.925 285.118125 
L 28.475 281.176125 
L 30.025 282.928125 
L 31.575 272.197125 
L 33.125 281.395125 
L 34.675 285.118125 
L 36.225 267.817125 
L 37.775 285.118125 
L 39.325 284.461125 
L 40.875 285.118125 
L 42.425 285.118125 
L 43.975 196.204125 
L 45.525 271.321125 
L 47.075 269.788125 
L 48.625 252.049125 
L 50.175 206.497125 
L 51.725 278.329125 
L 53.275 266.722125 
L 54.825 245.479125 
L 56.375 283.585125 
L 59.475 228.397125 
L 61.025 265.189125 
L 62.575 237.376125 
L 64.125 137.074125 
L 65.675 257.086125 
L 67.225 260.152125 
L 68.775 216.352125 
L 70.325 248.764125 
L 71.875 262.561125 
L 73.425 266.722125 
L 74.975 220.732125 
L 76.525 155.251125 
L 78.075 173.647125 
L 79.625 178.465125 
L 81.175 235.843125 
L 82.725 223.141125 
L 84.275 258.619125 
L 85.825 249.859125 
L 87.375 262.561125 
L 88.925 273.511125 
L 90.475 248.107125 
L 92.025 260.152125 
L 93.575 242.632125 
L 95.125 268.912125 
L 96.675 284.899125 
L 98.225 285.118125 
L 107.525 285.118125 
L 109.075 276.358125 
L 110.625 271.102125 
L 112.175 285.118125 
L 113.725 271.978125 
L 115.275 285.118125 
L 116.825 285.118125 
L 118.375 282.052125 
L 119.925 212.848125 
L 121.475 275.044125 
L 123.025 188.101125 
L 124.575 284.242125 
L 126.125 157.222125 
L 129.225 231.025125 
L 130.775 238.909125 
L 132.325 151.747125 
L 133.875 265.846125 
L 135.425 224.674125 
L 136.975 250.954125 
L 138.525 191.824125 
L 140.075 241.318125 
L 141.625 234.529125 
L 143.175 204.964125 
L 144.725 217.885125 
L 146.275 181.312125 
L 147.825 231.682125 
L 149.375 218.542125 
L 150.925 230.149125 
L 152.475 214.600125 
L 154.025 179.122125 
L 155.575 180.217125 
L 157.125 254.239125 
L 158.675 219.637125 
L 160.225 277.672125 
L 163.325 246.355125 
L 164.875 282.928125 
L 166.425 177.589125 
L 167.975 285.118125 
L 183.475 285.118125 
L 185.025 282.271125 
L 186.575 285.118125 
L 188.125 285.118125 
L 189.675 270.007125 
L 191.225 285.118125 
L 192.775 285.118125 
L 194.325 282.928125 
L 195.875 224.017125 
L 197.425 261.904125 
L 198.975 278.329125 
L 200.525 226.645125 
L 202.075 243.727125 
L 203.625 270.664125 
L 205.175 188.758125 
L 206.725 283.585125 
L 208.275 236.062125 
L 209.825 269.569125 
L 211.375 206.059125 
L 212.925 226.207125 
L 214.475 248.545125 
L 216.025 142.987125 
L 217.575 202.774125 
L 219.125 218.104125 
L 220.675 229.492125 
L 222.225 158.755125 
L 223.775 234.529125 
L 225.325 247.888125 
L 226.875 195.985125 
L 228.425 136.198125 
L 229.975 235.186125 
L 231.525 245.917125 
L 233.075 282.928125 
L 234.625 257.524125 
L 236.175 205.621125 
L 237.725 247.012125 
L 239.275 278.548125 
L 240.825 283.147125 
L 242.375 285.118125 
L 250.125 285.118125 
L 251.675 279.862125 
L 253.225 285.118125 
L 267.175 285.118125 
L 268.725 229.492125 
L 270.275 260.371125 
L 271.825 227.302125 
L 273.375 275.044125 
L 274.925 264.751125 
L 276.475 205.621125 
L 278.025 255.115125 
L 279.575 240.442125 
L 281.125 227.521125 
L 282.675 247.450125 
L 284.225 238.471125 
L 285.775 215.038125 
L 287.325 258.838125 
L 288.875 168.610125 
L 290.425 242.851125 
L 291.975 201.460125 
L 293.525 252.925125 
L 295.075 186.787125 
L 296.625 230.587125 
L 298.175 176.932125 
L 299.725 185.692125 
L 301.275 215.914125 
L 302.825 155.032125 
L 304.375 270.664125 
L 305.925 170.362125 
L 307.475 258.619125 
L 309.025 268.474125 
L 310.575 252.487125 
L 312.125 276.358125 
L 313.675 282.928125 
L 315.225 247.669125 
L 316.775 285.118125 
L 318.325 282.928125 
L 319.875 284.680125 
L 321.425 285.118125 
L 326.075 285.118125 
L 327.625 258.619125 
L 329.175 284.461125 
L 330.725 284.899125 
L 332.275 285.118125 
L 333.825 285.118125 
L 335.375 282.928125 
L 336.925 285.118125 
L 338.475 278.548125 
L 340.025 282.271125 
L 341.575 285.118125 
L 343.125 280.081125 
L 344.675 284.680125 
L 346.225 241.099125 
L 347.775 254.677125 
L 349.325 280.081125 
L 350.875 274.606125 
L 352.425 275.482125 
L 353.975 208.687125 
L 355.525 243.289125 
L 357.075 230.149125 
L 358.625 174.742125 
L 360.175 146.053125 
L 361.725 215.695125 
L 363.275 179.560125 
L 364.825 241.318125 
L 366.375 172.114125 
L 367.925 213.724125 
L 369.475 235.624125 
L 371.025 264.094125 
L 372.575 232.996125 
L 374.125 79.915125 
L 375.675 167.734125 
L 377.225 175.399125 
L 378.775 245.698125 
L 380.325 272.635125 
L 381.875 275.044125 
L 383.425 199.708125 
L 384.975 240.442125 
L 386.525 252.487125 
L 388.075 184.597125 
L 389.625 219.637125 
L 391.175 285.118125 
L 394.275 271.102125 
L 395.825 249.859125 
L 397.375 280.081125 
L 398.925 285.118125 
L 411.325 285.118125 
L 412.875 277.672125 
L 414.425 285.118125 
L 415.975 284.899125 
L 417.525 285.118125 
L 419.075 285.118125 
L 420.625 172.114125 
L 422.175 223.798125 
L 423.725 263.218125 
L 425.275 241.975125 
L 426.825 213.505125 
L 428.375 194.014125 
L 429.925 222.484125 
L 431.475 143.863125 
L 433.025 237.595125 
L 434.575 175.180125 
L 436.125 227.521125 
L 437.675 99.187125 
L 439.225 255.334125 
L 440.775 215.914125 
L 442.325 225.112125 
L 443.875 201.679125 
L 445.425 175.618125 
L 446.975 185.035125 
L 448.525 201.241125 
L 450.075 183.721125 
L 451.625 220.075125 
L 453.175 232.996125 
L 454.725 242.632125 
L 456.275 152.404125 
L 457.825 270.664125 
L 459.375 268.474125 
L 460.925 279.205125 
L 462.475 270.007125 
L 464.025 231.682125 
L 465.575 284.242125 
L 467.125 285.118125 
L 474.875 285.118125 
L 476.425 281.395125 
L 477.975 285.118125 
L 487.275 285.118125 
L 488.825 284.899125 
L 490.375 285.118125 
L 491.925 276.139125 
L 493.475 284.899125 
L 496.575 254.020125 
L 498.125 275.482125 
L 499.675 224.017125 
L 501.225 236.062125 
L 502.775 260.809125 
L 504.325 197.518125 
L 505.875 86.923125 
L 507.425 264.751125 
L 508.975 242.194125 
L 510.525 148.024125 
L 512.075 231.463125 
L 513.625 162.478125 
L 515.175 190.291125 
L 516.725 275.044125 
L 518.275 216.571125 
L 519.825 186.349125 
L 521.375 226.426125 
L 522.925 230.149125 
L 524.475 231.901125 
L 526.025 206.278125 
L 527.575 249.421125 
L 529.125 245.041125 
L 530.675 248.764125 
L 532.225 264.751125 
L 533.775 243.070125 
L 535.325 240.442125 
L 536.875 262.342125 
L 538.425 279.862125 
L 539.975 254.896125 
L 541.525 276.577125 
L 543.075 285.118125 
L 553.925 285.118125 
L 555.475 248.764125 
L 557.025 285.118125 
L 563.225 285.118125 
L 566.325 262.999125 
L 567.875 278.767125 
L 569.425 227.521125 
L 570.975 284.899125 
L 572.525 204.307125 
L 574.075 158.974125 
L 575.625 282.928125 
L 577.175 280.300125 
L 578.725 201.898125 
L 580.275 247.012125 
L 581.825 227.302125 
L 583.375 160.507125 
L 584.925 202.555125 
L 586.475 213.943125 
L 588.025 198.394125 
L 589.575 114.955125 
L 591.125 147.805125 
L 592.675 233.872125 
L 594.225 267.379125 
L 595.775 217.009125 
L 597.325 234.967125 
L 598.875 150.214125 
L 600.425 225.112125 
L 601.975 254.458125 
L 603.525 231.244125 
L 605.075 269.131125 
L 606.625 247.231125 
L 608.175 257.305125 
L 609.725 256.429125 
L 611.275 245.917125 
L 612.825 247.669125 
L 614.375 259.714125 
L 615.925 280.081125 
L 617.475 285.118125 
L 637.625 285.118125 
L 639.175 280.519125 
L 640.725 262.999125 
L 642.275 281.614125 
L 643.825 276.139125 
L 645.375 284.023125 
L 646.925 268.474125 
L 648.475 201.898125 
L 650.025 245.479125 
L 651.575 280.300125 
L 653.125 178.027125 
L 654.675 271.978125 
L 656.225 171.457125 
L 657.775 212.629125 
L 659.325 243.727125 
L 660.875 217.228125 
L 662.425 238.252125 
L 663.975 191.824125 
L 665.525 211.534125 
L 667.075 137.512125 
L 668.625 232.777125 
L 670.175 181.750125 
L 671.725 245.698125 
L 673.275 126.562125 
L 674.825 282.052125 
L 676.375 213.067125 
L 677.925 274.387125 
L 679.475 251.611125 
L 681.025 285.118125 
L 682.575 257.524125 
L 684.125 272.635125 
L 685.675 247.450125 
L 687.225 278.548125 
L 688.775 271.321125 
L 690.325 268.255125 
L 691.875 282.052125 
L 693.425 285.118125 
L 696.525 285.118125 
L 698.075 279.643125 
L 699.625 285.118125 
L 701.175 285.118125 
L 702.725 284.899125 
L 704.275 285.118125 
L 712.025 285.118125 
L 713.575 281.614125 
L 715.125 254.239125 
L 716.675 271.978125 
L 718.225 262.561125 
L 719.775 251.611125 
L 721.325 171.895125 
L 722.875 254.458125 
L 724.425 245.698125 
L 725.975 176.275125 
L 727.525 227.302125 
L 729.075 257.962125 
L 730.625 226.864125 
L 732.175 233.653125 
L 733.725 285.118125 
L 735.275 49.693125 
L 736.825 219.418125 
L 738.375 151.966125 
L 739.925 166.201125 
L 741.475 233.872125 
L 743.025 242.194125 
L 744.575 235.624125 
L 746.125 194.671125 
L 747.675 138.607125 
L 749.225 231.901125 
L 750.775 256.867125 
L 752.325 266.065125 
L 753.875 199.051125 
L 755.425 266.284125 
L 756.975 257.086125 
L 758.525 285.118125 
L 760.075 277.672125 
L 761.625 285.118125 
L 763.175 284.899125 
L 764.725 275.482125 
L 766.275 285.118125 
L 786.425 285.118125 
L 787.975 217.885125 
L 789.525 265.408125 
L 791.075 280.957125 
L 792.625 208.468125 
L 794.175 262.561125 
L 795.725 272.197125 
L 797.275 279.862125 
L 798.825 190.291125 
L 800.375 246.355125 
L 801.925 223.141125 
L 803.475 265.189125 
L 805.025 88.894125 
L 806.575 265.189125 
L 808.125 151.528125 
L 809.675 157.879125 
L 811.225 167.515125 
L 812.775 218.104125 
L 814.325 201.241125 
L 815.875 212.848125 
L 817.425 190.729125 
L 818.975 206.278125 
L 820.525 238.252125 
L 822.075 180.655125 
L 823.625 258.181125 
L 825.175 247.012125 
L 826.725 210.877125 
L 828.275 252.487125 
L 829.825 246.574125 
L 831.375 265.408125 
L 832.925 247.231125 
L 834.475 241.099125 
L 836.025 240.004125 
L 837.575 241.318125 
L 839.125 285.118125 
L 856.175 285.118125 
L 857.725 233.434125 
L 859.275 280.519125 
L 860.825 285.118125 
L 862.375 285.118125 
L 863.925 274.387125 
L 865.475 252.487125 
L 867.025 267.379125 
L 868.575 275.263125 
L 870.125 272.854125 
L 871.675 146.710125 
L 873.225 231.682125 
L 874.775 205.840125 
L 876.325 172.771125 
L 877.875 167.296125 
L 879.425 175.837125 
L 880.975 153.937125 
L 882.525 202.774125 
L 884.075 203.869125 
L 885.625 190.729125 
L 887.175 190.948125 
L 888.725 254.458125 
L 890.275 139.921125 
L 891.825 208.468125 
L 893.375 246.136125 
L 894.925 213.505125 
L 896.475 239.128125 
L 898.025 212.848125 
L 899.575 215.476125 
L 901.125 221.827125 
L 902.675 248.983125 
L 904.225 238.909125 
L 905.775 269.569125 
L 907.325 267.817125 
L 908.875 253.363125 
L 910.425 285.118125 
L 911.975 225.988125 
L 913.525 282.709125 
L 915.075 282.928125 
L 916.625 285.118125 
L 918.175 208.030125 
L 919.725 285.118125 
L 921.275 273.730125 
L 922.825 285.118125 
L 924.375 285.118125 
L 925.925 261.028125 
L 927.475 279.424125 
L 929.025 285.118125 
L 930.575 285.118125 
L 932.125 276.577125 
L 933.675 285.118125 
L 936.775 285.118125 
L 938.325 280.519125 
L 939.875 271.759125 
L 941.425 265.189125 
L 942.975 284.023125 
L 944.525 269.788125 
L 946.075 202.336125 
L 947.625 148.462125 
L 949.175 226.426125 
L 950.725 226.864125 
L 952.275 250.297125 
L 953.825 267.379125 
L 955.375 202.336125 
L 956.925 175.399125 
L 958.475 187.006125 
L 960.025 185.254125 
L 961.575 221.827125 
L 963.125 100.501125 
L 964.675 229.492125 
L 966.225 174.742125 
L 967.775 209.125125 
L 969.325 217.228125 
L 970.875 198.613125 
L 972.425 178.027125 
L 973.975 231.682125 
L 977.075 186.130125 
L 978.625 215.695125 
L 980.175 263.656125 
L 981.725 280.738125 
L 983.275 266.284125 
L 984.825 285.118125 
L 986.375 285.118125 
L 987.925 281.395125 
L 989.475 285.118125 
L 991.025 285.118125 
L 992.575 283.585125 
L 994.125 285.118125 
L 1000.325 285.118125 
L 1001.875 250.297125 
L 1003.425 285.118125 
L 1004.975 284.680125 
L 1006.525 278.548125 
L 1008.075 285.118125 
L 1009.625 268.255125 
L 1011.175 261.466125 
L 1012.725 284.899125 
L 1014.275 284.242125 
L 1015.825 274.825125 
L 1017.375 244.822125 
L 1018.925 275.701125 
L 1020.475 280.519125 
L 1022.025 190.072125 
L 1023.575 243.727125 
L 1025.125 215.257125 
L 1026.675 212.848125 
L 1028.225 255.115125 
L 1029.775 222.922125 
L 1031.325 221.827125 
L 1032.875 205.402125 
L 1034.425 245.041125 
L 1035.975 198.175125 
L 1037.525 80.134125 
L 1039.075 227.521125 
L 1040.625 236.062125 
L 1042.175 195.109125 
L 1043.725 173.647125 
L 1045.275 232.339125 
L 1046.825 182.845125 
L 1048.375 154.156125 
L 1049.925 187.225125 
L 1051.475 153.937125 
L 1053.025 274.168125 
L 1054.575 269.569125 
L 1056.125 160.069125 
L 1057.675 232.777125 
L 1059.225 275.482125 
L 1060.775 171.019125 
L 1062.325 284.899125 
L 1063.875 269.788125 
L 1065.425 285.118125 
L 1071.625 285.118125 
L 1073.175 284.680125 
L 1074.725 285.118125 
L 1084.025 285.118125 
L 1085.575 262.780125 
L 1087.125 282.271125 
L 1088.675 262.123125 
L 1090.225 265.627125 
L 1091.775 283.147125 
L 1093.325 222.484125 
L 1094.875 273.292125 
L 1096.425 217.885125 
L 1097.975 280.738125 
L 1099.525 193.795125 
L 1101.075 252.268125 
L 1102.625 275.044125 
L 1104.175 257.743125 
L 1105.725 197.518125 
L 1107.275 192.919125 
L 1108.825 248.764125 
L 1110.375 209.344125 
L 1111.925 228.835125 
L 1113.475 169.267125 
L 1115.025 229.054125 
L 1116.575 255.115125 
L 1118.125 262.342125 
L 1119.675 268.693125 
L 1121.225 179.998125 
L 1122.775 71.593125 
L 1124.325 258.181125 
L 1125.875 199.708125 
L 1127.425 52.102125 
L 1128.975 238.909125 
L 1130.525 181.969125 
L 1132.075 261.028125 
L 1133.625 283.804125 
L 1135.175 251.392125 
L 1136.725 276.139125 
L 1138.275 263.218125 
L 1139.825 263.437125 
L 1141.375 285.118125 
L 1144.475 285.118125 
L 1146.025 284.899125 
L 1147.575 285.118125 
L 1149.125 263.875125 
L 1150.675 285.118125 
L 1156.875 285.118125 
L 1158.425 282.928125 
L 1159.975 248.107125 
L 1161.525 266.065125 
L 1163.075 257.086125 
L 1164.625 284.461125 
L 1166.175 234.310125 
L 1167.725 284.899125 
L 1169.275 268.912125 
L 1170.825 272.854125 
L 1172.375 278.986125 
L 1173.925 219.637125 
L 1175.475 256.867125 
L 1177.025 222.484125 
L 1178.575 245.479125 
L 1180.125 241.537125 
L 1181.675 220.294125 
L 1183.225 148.681125 
L 1184.775 169.924125 
L 1186.325 236.281125 
L 1187.875 199.489125 
L 1189.425 147.148125 
L 1190.975 207.154125 
L 1192.525 236.719125 
L 1194.075 225.550125 
L 1195.625 255.334125 
L 1197.175 238.909125 
L 1198.725 213.505125 
L 1201.825 244.384125 
L 1203.375 224.674125 
L 1204.925 281.614125 
L 1206.475 285.118125 
L 1208.025 285.118125 
L 1209.575 282.709125 
L 1211.125 285.118125 
L 1212.675 280.738125 
L 1214.225 285.118125 
L 1220.425 285.118125 
L 1221.975 270.226125 
L 1223.525 285.118125 
L 1225.075 284.899125 
L 1226.625 285.118125 
L 1229.725 285.118125 
L 1231.275 284.242125 
L 1232.825 280.519125 
L 1234.375 281.614125 
L 1235.925 284.899125 
L 1237.475 248.545125 
L 1239.025 271.321125 
L 1240.575 282.709125 
L 1242.125 268.912125 
L 1243.675 198.832125 
L 1245.225 220.951125 
L 1246.775 272.197125 
L 1248.325 162.478125 
L 1249.875 262.342125 
L 1251.425 195.109125 
L 1252.975 207.592125 
L 1254.525 199.708125 
L 1256.075 196.642125 
L 1257.625 252.925125 
L 1259.175 173.866125 
L 1260.725 144.082125 
L 1262.275 143.206125 
L 1263.825 224.017125 
L 1265.375 229.930125 
L 1266.925 179.779125 
L 1268.475 211.096125 
L 1270.025 254.239125 
L 1271.575 215.038125 
L 1273.125 249.859125 
L 1274.675 228.835125 
L 1276.225 250.078125 
L 1277.775 279.862125 
L 1279.325 171.238125 
L 1280.875 222.922125 
L 1282.425 239.785125 
L 1283.975 285.118125 
L 1285.525 285.118125 
L 1287.075 243.508125 
L 1288.625 285.118125 
L 1290.175 284.461125 
L 1291.725 285.118125 
L 1296.375 285.118125 
L 1297.925 281.395125 
L 1299.475 283.804125 
L 1301.025 285.118125 
L 1305.675 285.118125 
L 1307.225 284.899125 
L 1308.775 285.118125 
L 1310.325 285.118125 
L 1311.875 280.519125 
L 1313.425 272.854125 
L 1314.975 266.284125 
L 1316.525 238.909125 
L 1318.075 282.271125 
L 1319.625 229.054125 
L 1321.175 205.621125 
L 1322.725 154.375125 
L 1324.275 207.592125 
L 1325.825 201.022125 
L 1327.375 212.410125 
L 1328.925 171.238125 
L 1330.475 170.362125 
L 1332.025 67.432125 
L 1333.575 169.048125 
L 1336.675 256.429125 
L 1338.225 191.605125 
L 1339.775 197.518125 
L 1341.325 104.005125 
L 1342.875 237.376125 
L 1344.425 210.439125 
L 1345.975 223.579125 
L 1347.525 250.735125 
L 1349.075 251.392125 
L 1350.625 263.218125 
L 1352.175 283.147125 
L 1353.725 282.709125 
L 1355.275 207.154125 
L 1356.825 247.669125 
L 1358.375 285.118125 
L 1359.925 278.329125 
L 1361.475 284.680125 
L 1363.025 283.804125 
L 1364.575 285.118125 
L 1375.425 285.118125 
L 1376.975 281.833125 
L 1378.525 285.118125 
L 1380.075 265.189125 
L 1381.625 284.899125 
L 1383.175 285.118125 
L 1386.275 258.400125 
L 1387.825 248.107125 
L 1389.375 262.342125 
L 1390.925 237.157125 
L 1392.475 244.384125 
L 1394.025 237.157125 
L 1395.575 262.342125 
L 1397.125 234.529125 
L 1398.675 282.271125 
L 1400.225 202.555125 
L 1401.775 226.207125 
L 1403.325 214.381125 
L 1404.875 215.257125 
L 1406.425 164.668125 
L 1407.975 202.555125 
L 1409.525 227.521125 
L 1411.075 181.969125 
L 1412.625 217.228125 
L 1414.175 177.808125 
L 1415.725 193.795125 
L 1417.275 253.363125 
L 1418.825 161.164125 
L 1420.375 205.621125 
L 1421.925 141.892125 
L 1423.475 226.426125 
L 1425.025 210.439125 
L 1426.575 260.371125 
L 1428.125 265.627125 
L 1429.675 285.118125 
L 1431.225 254.239125 
L 1432.775 284.899125 
L 1434.325 284.242125 
L 1435.875 275.044125 
L 1437.425 284.242125 
L 1438.975 285.118125 
L 1440.525 285.118125 
L 1442.075 280.300125 
L 1443.625 278.329125 
L 1445.175 285.118125 
L 1454.475 285.118125 
L 1456.025 275.044125 
L 1457.575 282.271125 
L 1459.125 282.052125 
L 1460.675 284.899125 
L 1462.225 279.862125 
L 1463.775 281.614125 
L 1465.325 247.231125 
L 1466.875 284.899125 
L 1468.425 272.635125 
L 1469.975 223.141125 
L 1471.525 196.861125 
L 1473.075 194.014125 
L 1474.625 195.547125 
L 1476.175 239.128125 
L 1477.725 227.959125 
L 1479.275 172.114125 
L 1480.825 245.698125 
L 1482.375 205.402125 
L 1483.925 199.051125 
L 1487.025 247.888125 
L 1488.575 191.605125 
L 1490.125 185.911125 
L 1491.675 244.603125 
L 1493.225 222.265125 
L 1494.775 149.119125 
L 1496.325 219.418125 
L 1497.875 243.070125 
L 1499.425 269.131125 
L 1500.975 241.099125 
L 1502.525 280.519125 
L 1504.075 275.044125 
L 1505.625 285.118125 
L 1507.175 282.052125 
L 1508.725 280.081125 
L 1510.275 285.118125 
L 1511.825 284.461125 
L 1513.375 282.709125 
L 1514.925 284.461125 
L 1516.475 285.118125 
L 1518.025 245.698125 
L 1519.575 280.300125 
L 1521.125 273.949125 
L 1522.675 285.118125 
L 1525.775 285.118125 
L 1527.325 272.197125 
L 1528.875 254.896125 
L 1530.425 277.672125 
L 1531.975 274.387125 
L 1533.525 280.519125 
L 1535.075 280.300125 
L 1536.625 183.502125 
L 1538.175 212.848125 
L 1539.725 152.842125 
L 1541.275 229.711125 
L 1542.825 212.191125 
L 1544.375 250.954125 
L 1545.925 183.721125 
L 1547.475 224.893125 
L 1550.575 213.724125 
L 1552.125 138.169125 
L 1553.675 172.333125 
L 1555.225 264.751125 
L 1558.325 74.878125 
L 1559.875 168.829125 
L 1561.425 241.537125 
L 1562.975 198.832125 
L 1564.525 168.172125 
L 1566.075 189.196125 
L 1567.625 259.495125 
L 1569.175 242.413125 
L 1570.725 198.832125 
L 1572.275 195.328125 
L 1573.825 262.561125 
L 1575.375 251.611125 
L 1576.925 276.139125 
L 1578.475 281.614125 
L 1580.025 278.548125 
L 1581.575 269.788125 
L 1583.125 249.859125 
L 1584.675 277.453125 
L 1586.225 285.118125 
L 1587.775 284.461125 
L 1589.325 285.118125 
L 1590.875 284.680125 
L 1592.425 279.205125 
L 1593.975 282.928125 
L 1595.525 285.118125 
L 1600.175 285.118125 
L 1601.725 271.759125 
L 1603.275 285.118125 
L 1604.825 284.899125 
L 1606.375 281.614125 
L 1607.925 251.392125 
L 1609.475 231.463125 
L 1611.025 226.645125 
L 1612.575 264.094125 
L 1614.125 256.429125 
L 1615.675 100.282125 
L 1617.225 255.115125 
L 1618.775 183.064125 
L 1620.325 272.854125 
L 1621.875 237.376125 
L 1623.425 180.217125 
L 1624.975 261.028125 
L 1626.525 177.589125 
L 1628.075 238.471125 
L 1629.625 221.608125 
L 1631.175 172.114125 
L 1632.725 172.552125 
L 1634.275 263.437125 
L 1635.825 209.344125 
L 1637.375 195.766125 
L 1638.925 269.788125 
L 1640.475 172.771125 
L 1642.025 179.341125 
L 1643.575 217.885125 
L 1645.125 249.859125 
L 1646.675 208.468125 
L 1648.225 263.437125 
L 1649.775 220.075125 
L 1651.325 267.379125 
L 1652.875 223.798125 
L 1654.425 282.052125 
L 1655.975 284.023125 
L 1657.525 275.701125 
L 1659.075 226.426125 
L 1660.625 285.118125 
L 1663.725 285.118125 
L 1665.275 268.693125 
L 1666.825 285.118125 
L 1671.475 285.118125 
L 1673.025 284.899125 
L 1674.575 269.131125 
L 1676.125 285.118125 
L 1677.675 284.899125 
L 1679.225 237.814125 
L 1680.775 284.242125 
L 1682.325 283.585125 
L 1683.875 283.147125 
L 1685.425 232.558125 
L 1686.975 256.867125 
L 1688.525 277.234125 
L 1690.075 282.052125 
L 1691.625 182.407125 
L 1693.175 188.101125 
L 1694.725 230.368125 
L 1696.275 208.249125 
L 1697.825 217.447125 
L 1699.375 265.189125 
L 1700.925 180.655125 
L 1702.475 239.128125 
L 1704.025 153.718125 
L 1705.575 175.618125 
L 1707.125 230.368125 
L 1708.675 231.025125 
L 1710.225 199.489125 
L 1711.775 271.321125 
L 1713.325 185.035125 
L 1714.875 130.723125 
L 1716.425 219.637125 
L 1717.975 258.400125 
L 1719.525 241.318125 
L 1721.075 273.949125 
L 1722.625 205.621125 
L 1724.175 253.144125 
L 1725.725 257.305125 
L 1727.275 249.859125 
L 1728.825 272.635125 
L 1730.375 247.888125 
L 1731.925 280.957125 
L 1733.475 276.358125 
L 1735.025 284.899125 
L 1736.575 275.920125 
L 1738.125 285.118125 
L 1741.225 285.118125 
L 1742.775 280.300125 
L 1744.325 285.118125 
L 1747.425 285.118125 
L 1748.975 283.147125 
L 1750.525 280.519125 
L 1752.075 285.118125 
L 1753.625 261.247125 
L 1755.175 232.339125 
L 1756.725 252.925125 
L 1758.275 283.804125 
L 1759.825 226.864125 
L 1761.375 275.263125 
L 1762.925 234.529125 
L 1764.475 190.729125 
L 1766.025 131.599125 
L 1767.575 262.342125 
L 1769.125 284.242125 
L 1770.675 178.246125 
L 1772.225 254.677125 
L 1773.775 231.463125 
L 1775.325 243.508125 
L 1776.875 201.460125 
L 1778.425 206.497125 
L 1779.975 177.370125 
L 1781.525 215.257125 
L 1783.075 141.673125 
L 1784.625 244.165125 
L 1786.175 209.782125 
L 1787.725 203.212125 
L 1789.275 216.133125 
L 1790.825 256.429125 
L 1792.375 248.983125 
L 1793.925 256.648125 
L 1795.475 186.130125 
L 1797.025 268.474125 
L 1798.575 282.709125 
L 1800.125 282.052125 
L 1801.675 285.118125 
L 1803.225 285.118125 
L 1804.775 284.680125 
L 1806.325 285.118125 
L 1807.875 283.804125 
L 1809.425 283.804125 
L 1810.975 245.041125 
L 1812.525 284.461125 
L 1814.075 284.023125 
L 1815.625 284.242125 
L 1817.175 284.242125 
L 1818.725 284.461125 
L 1820.275 285.118125 
L 1821.825 284.242125 
L 1823.375 283.585125 
L 1824.925 283.585125 
L 1826.475 272.416125 
L 1828.025 277.015125 
L 1829.575 276.577125 
L 1831.125 282.271125 
L 1832.675 276.796125 
L 1834.225 269.131125 
L 1835.775 276.577125 
L 1837.325 249.421125 
L 1838.875 281.833125 
L 1840.425 252.049125 
L 1841.975 265.627125 
L 1843.525 168.172125 
L 1845.075 264.970125 
L 1846.625 205.621125 
L 1848.175 215.914125 
L 1849.725 238.909125 
L 1851.275 218.542125 
L 1852.825 135.322125 
L 1855.925 229.711125 
L 1857.475 208.468125 
L 1859.025 178.465125 
L 1860.575 217.009125 
L 1862.125 258.619125 
L 1863.675 224.017125 
L 1865.225 277.672125 
L 1866.775 226.207125 
L 1868.325 239.347125 
L 1869.875 224.236125 
L 1871.425 241.975125 
L 1872.975 276.358125 
L 1874.525 259.714125 
L 1876.075 256.429125 
L 1877.625 256.867125 
L 1879.175 285.118125 
L 1880.725 277.234125 
L 1882.275 278.329125 
L 1883.825 279.205125 
L 1885.375 282.709125 
L 1886.925 282.928125 
L 1888.475 249.859125 
L 1890.025 282.052125 
L 1891.575 282.052125 
L 1893.125 285.118125 
L 1894.675 285.118125 
L 1896.225 283.804125 
L 1897.775 285.118125 
L 1905.525 285.118125 
L 1907.075 271.321125 
L 1908.625 266.065125 
L 1910.175 282.052125 
L 1911.725 279.862125 
L 1913.275 225.550125 
L 1914.825 220.075125 
L 1916.375 202.555125 
L 1917.925 232.558125 
L 1919.475 133.351125 
L 1921.025 218.542125 
L 1922.575 191.167125 
L 1924.125 243.508125 
L 1925.675 184.597125 
L 1927.225 190.948125 
L 1928.775 192.262125 
L 1930.325 206.497125 
L 1931.875 252.049125 
L 1933.425 223.141125 
L 1934.975 240.442125 
L 1936.525 150.214125 
L 1938.075 198.394125 
L 1939.625 273.949125 
L 1941.175 184.597125 
L 1942.725 206.278125 
L 1944.275 257.962125 
L 1945.825 263.437125 
L 1947.375 260.809125 
L 1948.925 275.482125 
L 1950.475 266.941125 
L 1952.025 247.012125 
L 1953.575 285.118125 
L 1964.425 285.118125 
L 1965.975 266.722125 
L 1967.525 285.118125 
L 1972.175 285.118125 
L 1973.725 262.561125 
L 1975.275 278.110125 
L 1976.825 285.118125 
L 1978.375 252.925125 
L 1979.925 274.168125 
L 1981.475 280.300125 
L 1983.025 278.329125 
L 1984.575 241.318125 
L 1986.125 262.999125 
L 1987.675 197.737125 
L 1989.225 190.729125 
L 1990.775 208.687125 
L 1992.325 239.128125 
L 1993.875 127.876125 
L 1995.425 220.075125 
L 1996.975 227.521125 
L 1998.525 220.075125 
L 2000.075 220.951125 
L 2001.625 261.028125 
L 2003.175 130.504125 
L 2004.725 169.924125 
L 2006.275 221.827125 
L 2007.825 264.751125 
L 2009.375 196.861125 
L 2010.925 208.687125 
L 2012.475 143.644125 
L 2014.025 231.901125 
L 2015.575 219.637125 
L 2017.125 157.222125 
L 2018.675 253.363125 
L 2020.225 215.914125 
L 2021.775 247.012125 
L 2023.325 272.854125 
L 2024.875 283.366125 
L 2026.425 278.548125 
L 2027.975 218.761125 
L 2029.525 285.118125 
L 2032.625 285.118125 
L 2034.175 284.899125 
L 2035.725 285.118125 
L 2037.275 279.862125 
L 2038.825 285.118125 
L 2049.675 285.118125 
L 2051.225 278.329125 
L 2052.775 284.680125 
L 2054.325 280.957125 
L 2055.875 164.668125 
L 2057.425 274.825125 
L 2058.975 263.437125 
L 2060.525 222.484125 
L 2062.075 236.062125 
L 2063.625 228.178125 
L 2065.175 247.012125 
L 2066.725 232.777125 
L 2068.275 242.194125 
L 2069.825 238.909125 
L 2071.375 221.389125 
L 2072.925 133.132125 
L 2074.475 140.797125 
L 2076.025 259.714125 
L 2077.575 191.605125 
L 2079.125 217.009125 
L 2080.675 47.941125 
L 2082.225 277.672125 
L 2083.775 249.421125 
L 2085.325 240.442125 
L 2086.875 225.550125 
L 2088.425 115.174125 
L 2089.975 190.729125 
L 2091.525 203.431125 
L 2093.075 239.347125 
L 2094.625 226.207125 
L 2096.175 236.719125 
L 2097.725 267.817125 
L 2099.275 284.899125 
L 2100.825 285.118125 
L 2102.375 284.680125 
L 2103.925 285.118125 
L 2116.325 285.118125 
L 2117.875 262.561125 
L 2119.425 178.465125 
L 2120.975 278.986125 
L 2122.525 284.899125 
L 2124.075 285.118125 
L 2125.625 282.928125 
L 2127.175 273.730125 
L 2128.725 209.782125 
L 2130.275 244.822125 
L 2131.825 262.999125 
L 2133.375 247.450125 
L 2134.925 270.445125 
L 2136.475 141.454125 
L 2138.025 240.661125 
L 2139.575 235.405125 
L 2141.125 249.202125 
L 2142.675 186.787125 
L 2144.225 144.739125 
L 2145.775 222.484125 
L 2147.325 238.909125 
L 2148.875 225.112125 
L 2150.425 161.821125 
L 2151.975 217.666125 
L 2153.525 222.265125 
L 2155.075 237.814125 
L 2158.175 273.949125 
L 2159.725 247.231125 
L 2161.275 151.747125 
L 2162.825 217.009125 
L 2164.375 252.925125 
L 2165.925 179.779125 
L 2167.475 250.954125 
L 2169.025 266.065125 
L 2170.575 272.197125 
L 2172.125 233.434125 
L 2173.675 284.023125 
L 2175.225 282.271125 
L 2176.775 285.118125 
L 2178.325 283.585125 
L 2179.875 284.242125 
L 2181.425 285.118125 
L 2196.925 285.118125 
L 2198.475 276.139125 
L 2200.025 285.118125 
L 2201.575 271.978125 
L 2203.125 283.804125 
L 2204.675 283.366125 
L 2206.225 201.022125 
L 2207.775 278.110125 
L 2209.325 277.891125 
L 2210.875 249.202125 
L 2212.425 210.658125 
L 2213.975 256.648125 
L 2215.525 236.938125 
L 2217.075 200.803125 
L 2218.625 155.689125 
L 2220.175 222.046125 
L 2221.725 183.502125 
L 2223.275 216.571125 
L 2224.825 231.025125 
L 2226.375 201.022125 
L 2227.925 270.664125 
L 2229.475 229.492125 
L 2231.025 215.695125 
L 2232.575 193.795125 
L 2234.125 224.017125 
L 2235.675 236.500125 
L 2237.225 196.204125 
L 2238.775 253.144125 
L 2240.325 258.181125 
L 2241.875 192.481125 
L 2243.425 239.128125 
L 2244.975 279.862125 
L 2246.525 142.111125 
L 2248.075 266.941125 
L 2249.625 252.268125 
L 2251.175 272.416125 
L 2252.725 197.737125 
L 2254.275 285.118125 
L 2255.825 285.118125 
L 2257.375 243.508125 
L 2257.375 243.508125 
" style="fill:none;stroke:#008000;stroke-linecap:square;stroke-width:1.5;"/>
   </g>
   <g id="patch_18">
    <path d="M 26.925 285.118125 
L 26.925 22.318125 
" style="fill:none;stroke:#000000;stroke-linecap:square;stroke-linejoin:miter;stroke-width:0.8;"/>
   </g>
   <g id="patch_19">
    <path d="M 2258.925 285.118125 
L 2258.925 22.318125 
" style="fill:none;stroke:#000000;stroke-linecap:square;stroke-linejoin:miter;stroke-width:0.8;"/>
   </g>
   <g id="patch_20">
    <path d="M 26.925 285.118125 
L 2258.925 285.118125 
" style="fill:none;stroke:#000000;stroke-linecap:square;stroke-linejoin:miter;stroke-width:0.8;"/>
   </g>
   <g id="patch_21">
    <path d="M 26.925 22.318125 
L 2258.925 22.318125 
" style="fill:none;stroke:#000000;stroke-linecap:square;stroke-linejoin:miter;stroke-width:0.8;"/>
   </g>
   <g id="text_38">
    <!-- Quarter Monthly Rainfall over the 30 years -->
    <g transform="translate(1014.602813 16.318125)scale(0.12 -0.12)">
     <defs>
      <path d="M 2522 4238 
Q 1834 4238 1429 3725 
Q 1025 3213 1025 2328 
Q 1025 1447 1429 934 
Q 1834 422 2522 422 
Q 3209 422 3611 934 
Q 4013 1447 4013 2328 
Q 4013 3213 3611 3725 
Q 3209 4238 2522 4238 
z
M 3406 84 
L 4238 -825 
L 3475 -825 
L 2784 -78 
Q 2681 -84 2626 -87 
Q 2572 -91 2522 -91 
Q 1538 -91 948 567 
Q 359 1225 359 2328 
Q 359 3434 948 4092 
Q 1538 4750 2522 4750 
Q 3503 4750 4090 4092 
Q 4678 3434 4678 2328 
Q 4678 1516 4351 937 
Q 4025 359 3406 84 
z
" id="DejaVuSans-51" transform="scale(0.015625)"/>
      <path d="M 544 1381 
L 544 3500 
L 1119 3500 
L 1119 1403 
Q 1119 906 1312 657 
Q 1506 409 1894 409 
Q 2359 409 2629 706 
Q 2900 1003 2900 1516 
L 2900 3500 
L 3475 3500 
L 3475 0 
L 2900 0 
L 2900 538 
Q 2691 219 2414 64 
Q 2138 -91 1772 -91 
Q 1169 -91 856 284 
Q 544 659 544 1381 
z
M 1991 3584 
L 1991 3584 
z
" id="DejaVuSans-75" transform="scale(0.015625)"/>
      <path d="M 2194 1759 
Q 1497 1759 1228 1600 
Q 959 1441 959 1056 
Q 959 750 1161 570 
Q 1363 391 1709 391 
Q 2188 391 2477 730 
Q 2766 1069 2766 1631 
L 2766 1759 
L 2194 1759 
z
M 3341 1997 
L 3341 0 
L 2766 0 
L 2766 531 
Q 2569 213 2275 61 
Q 1981 -91 1556 -91 
Q 1019 -91 701 211 
Q 384 513 384 1019 
Q 384 1609 779 1909 
Q 1175 2209 1959 2209 
L 2766 2209 
L 2766 2266 
Q 2766 2663 2505 2880 
Q 2244 3097 1772 3097 
Q 1472 3097 1187 3025 
Q 903 2953 641 2809 
L 641 3341 
Q 956 3463 1253 3523 
Q 1550 3584 1831 3584 
Q 2591 3584 2966 3190 
Q 3341 2797 3341 1997 
z
" id="DejaVuSans-61" transform="scale(0.015625)"/>
      <path d="M 2631 2963 
Q 2534 3019 2420 3045 
Q 2306 3072 2169 3072 
Q 1681 3072 1420 2755 
Q 1159 2438 1159 1844 
L 1159 0 
L 581 0 
L 581 3500 
L 1159 3500 
L 1159 2956 
Q 1341 3275 1631 3429 
Q 1922 3584 2338 3584 
Q 2397 3584 2469 3576 
Q 2541 3569 2628 3553 
L 2631 2963 
z
" id="DejaVuSans-72" transform="scale(0.015625)"/>
      <path d="M 1172 4494 
L 1172 3500 
L 2356 3500 
L 2356 3053 
L 1172 3053 
L 1172 1153 
Q 1172 725 1289 603 
Q 1406 481 1766 481 
L 2356 481 
L 2356 0 
L 1766 0 
Q 1100 0 847 248 
Q 594 497 594 1153 
L 594 3053 
L 172 3053 
L 172 3500 
L 594 3500 
L 594 4494 
L 1172 4494 
z
" id="DejaVuSans-74" transform="scale(0.015625)"/>
      <path d="M 3597 1894 
L 3597 1613 
L 953 1613 
Q 991 1019 1311 708 
Q 1631 397 2203 397 
Q 2534 397 2845 478 
Q 3156 559 3463 722 
L 3463 178 
Q 3153 47 2828 -22 
Q 2503 -91 2169 -91 
Q 1331 -91 842 396 
Q 353 884 353 1716 
Q 353 2575 817 3079 
Q 1281 3584 2069 3584 
Q 2775 3584 3186 3129 
Q 3597 2675 3597 1894 
z
M 3022 2063 
Q 3016 2534 2758 2815 
Q 2500 3097 2075 3097 
Q 1594 3097 1305 2825 
Q 1016 2553 972 2059 
L 3022 2063 
z
" id="DejaVuSans-65" transform="scale(0.015625)"/>
      <path id="DejaVuSans-20" transform="scale(0.015625)"/>
      <path d="M 628 4666 
L 1569 4666 
L 2759 1491 
L 3956 4666 
L 4897 4666 
L 4897 0 
L 4281 0 
L 4281 4097 
L 3078 897 
L 2444 897 
L 1241 4097 
L 1241 0 
L 628 0 
L 628 4666 
z
" id="DejaVuSans-4d" transform="scale(0.015625)"/>
      <path d="M 1959 3097 
Q 1497 3097 1228 2736 
Q 959 2375 959 1747 
Q 959 1119 1226 758 
Q 1494 397 1959 397 
Q 2419 397 2687 759 
Q 2956 1122 2956 1747 
Q 2956 2369 2687 2733 
Q 2419 3097 1959 3097 
z
M 1959 3584 
Q 2709 3584 3137 3096 
Q 3566 2609 3566 1747 
Q 3566 888 3137 398 
Q 2709 -91 1959 -91 
Q 1206 -91 779 398 
Q 353 888 353 1747 
Q 353 2609 779 3096 
Q 1206 3584 1959 3584 
z
" id="DejaVuSans-6f" transform="scale(0.015625)"/>
      <path d="M 3513 2113 
L 3513 0 
L 2938 0 
L 2938 2094 
Q 2938 2591 2744 2837 
Q 2550 3084 2163 3084 
Q 1697 3084 1428 2787 
Q 1159 2491 1159 1978 
L 1159 0 
L 581 0 
L 581 3500 
L 1159 3500 
L 1159 2956 
Q 1366 3272 1645 3428 
Q 1925 3584 2291 3584 
Q 2894 3584 3203 3211 
Q 3513 2838 3513 2113 
z
" id="DejaVuSans-6e" transform="scale(0.015625)"/>
      <path d="M 3513 2113 
L 3513 0 
L 2938 0 
L 2938 2094 
Q 2938 2591 2744 2837 
Q 2550 3084 2163 3084 
Q 1697 3084 1428 2787 
Q 1159 2491 1159 1978 
L 1159 0 
L 581 0 
L 581 4863 
L 1159 4863 
L 1159 2956 
Q 1366 3272 1645 3428 
Q 1925 3584 2291 3584 
Q 2894 3584 3203 3211 
Q 3513 2838 3513 2113 
z
" id="DejaVuSans-68" transform="scale(0.015625)"/>
      <path d="M 603 4863 
L 1178 4863 
L 1178 0 
L 603 0 
L 603 4863 
z
" id="DejaVuSans-6c" transform="scale(0.015625)"/>
      <path d="M 2059 -325 
Q 1816 -950 1584 -1140 
Q 1353 -1331 966 -1331 
L 506 -1331 
L 506 -850 
L 844 -850 
Q 1081 -850 1212 -737 
Q 1344 -625 1503 -206 
L 1606 56 
L 191 3500 
L 800 3500 
L 1894 763 
L 2988 3500 
L 3597 3500 
L 2059 -325 
z
" id="DejaVuSans-79" transform="scale(0.015625)"/>
      <path d="M 2841 2188 
Q 3044 2119 3236 1894 
Q 3428 1669 3622 1275 
L 4263 0 
L 3584 0 
L 2988 1197 
Q 2756 1666 2539 1819 
Q 2322 1972 1947 1972 
L 1259 1972 
L 1259 0 
L 628 0 
L 628 4666 
L 2053 4666 
Q 2853 4666 3247 4331 
Q 3641 3997 3641 3322 
Q 3641 2881 3436 2590 
Q 3231 2300 2841 2188 
z
M 1259 4147 
L 1259 2491 
L 2053 2491 
Q 2509 2491 2742 2702 
Q 2975 2913 2975 3322 
Q 2975 3731 2742 3939 
Q 2509 4147 2053 4147 
L 1259 4147 
z
" id="DejaVuSans-52" transform="scale(0.015625)"/>
      <path d="M 603 3500 
L 1178 3500 
L 1178 0 
L 603 0 
L 603 3500 
z
M 603 4863 
L 1178 4863 
L 1178 4134 
L 603 4134 
L 603 4863 
z
" id="DejaVuSans-69" transform="scale(0.015625)"/>
      <path d="M 2375 4863 
L 2375 4384 
L 1825 4384 
Q 1516 4384 1395 4259 
Q 1275 4134 1275 3809 
L 1275 3500 
L 2222 3500 
L 2222 3053 
L 1275 3053 
L 1275 0 
L 697 0 
L 697 3053 
L 147 3053 
L 147 3500 
L 697 3500 
L 697 3744 
Q 697 4328 969 4595 
Q 1241 4863 1831 4863 
L 2375 4863 
z
" id="DejaVuSans-66" transform="scale(0.015625)"/>
      <path d="M 191 3500 
L 800 3500 
L 1894 563 
L 2988 3500 
L 3597 3500 
L 2284 0 
L 1503 0 
L 191 3500 
z
" id="DejaVuSans-76" transform="scale(0.015625)"/>
      <path d="M 2834 3397 
L 2834 2853 
Q 2591 2978 2328 3040 
Q 2066 3103 1784 3103 
Q 1356 3103 1142 2972 
Q 928 2841 928 2578 
Q 928 2378 1081 2264 
Q 1234 2150 1697 2047 
L 1894 2003 
Q 2506 1872 2764 1633 
Q 3022 1394 3022 966 
Q 3022 478 2636 193 
Q 2250 -91 1575 -91 
Q 1294 -91 989 -36 
Q 684 19 347 128 
L 347 722 
Q 666 556 975 473 
Q 1284 391 1588 391 
Q 1994 391 2212 530 
Q 2431 669 2431 922 
Q 2431 1156 2273 1281 
Q 2116 1406 1581 1522 
L 1381 1569 
Q 847 1681 609 1914 
Q 372 2147 372 2553 
Q 372 3047 722 3315 
Q 1072 3584 1716 3584 
Q 2034 3584 2315 3537 
Q 2597 3491 2834 3397 
z
" id="DejaVuSans-73" transform="scale(0.015625)"/>
     </defs>
     <use xlink:href="#DejaVuSans-51"/>
     <use x="78.710938" xlink:href="#DejaVuSans-75"/>
     <use x="142.089844" xlink:href="#DejaVuSans-61"/>
     <use x="203.369141" xlink:href="#DejaVuSans-72"/>
     <use x="244.482422" xlink:href="#DejaVuSans-74"/>
     <use x="283.691406" xlink:href="#DejaVuSans-65"/>
     <use x="345.214844" xlink:href="#DejaVuSans-72"/>
     <use x="386.328125" xlink:href="#DejaVuSans-20"/>
     <use x="418.115234" xlink:href="#DejaVuSans-4d"/>
     <use x="504.394531" xlink:href="#DejaVuSans-6f"/>
     <use x="565.576172" xlink:href="#DejaVuSans-6e"/>
     <use x="628.955078" xlink:href="#DejaVuSans-74"/>
     <use x="668.164062" xlink:href="#DejaVuSans-68"/>
     <use x="731.542969" xlink:href="#DejaVuSans-6c"/>
     <use x="759.326172" xlink:href="#DejaVuSans-79"/>
     <use x="818.505859" xlink:href="#DejaVuSans-20"/>
     <use x="850.292969" xlink:href="#DejaVuSans-52"/>
     <use x="917.525391" xlink:href="#DejaVuSans-61"/>
     <use x="978.804688" xlink:href="#DejaVuSans-69"/>
     <use x="1006.587891" xlink:href="#DejaVuSans-6e"/>
     <use x="1069.966797" xlink:href="#DejaVuSans-66"/>
     <use x="1105.171875" xlink:href="#DejaVuSans-61"/>
     <use x="1166.451172" xlink:href="#DejaVuSans-6c"/>
     <use x="1194.234375" xlink:href="#DejaVuSans-6c"/>
     <use x="1222.017578" xlink:href="#DejaVuSans-20"/>
     <use x="1253.804688" xlink:href="#DejaVuSans-6f"/>
     <use x="1314.986328" xlink:href="#DejaVuSans-76"/>
     <use x="1374.166016" xlink:href="#DejaVuSans-65"/>
     <use x="1435.689453" xlink:href="#DejaVuSans-72"/>
     <use x="1476.802734" xlink:href="#DejaVuSans-20"/>
     <use x="1508.589844" xlink:href="#DejaVuSans-74"/>
     <use x="1547.798828" xlink:href="#DejaVuSans-68"/>
     <use x="1611.177734" xlink:href="#DejaVuSans-65"/>
     <use x="1672.701172" xlink:href="#DejaVuSans-20"/>
     <use x="1704.488281" xlink:href="#DejaVuSans-33"/>
     <use x="1768.111328" xlink:href="#DejaVuSans-30"/>
     <use x="1831.734375" xlink:href="#DejaVuSans-20"/>
     <use x="1863.521484" xlink:href="#DejaVuSans-79"/>
     <use x="1922.701172" xlink:href="#DejaVuSans-65"/>
     <use x="1984.224609" xlink:href="#DejaVuSans-61"/>
     <use x="2045.503906" xlink:href="#DejaVuSans-72"/>
     <use x="2086.617188" xlink:href="#DejaVuSans-73"/>
    </g>
   </g>
  </g>
 </g>
 <defs>
  <clipPath id="pd124c84e11">
   <rect height="262.8" width="2232" x="26.925" y="22.318125"/>
  </clipPath>
 </defs>
</svg>
