<?xml version="1.0" encoding="utf-8" standalone="no"?>
<!DOCTYPE svg PUBLIC "-//W3C//DTD SVG 1.1//EN"
  "http://www.w3.org/Graphics/SVG/1.1/DTD/svg11.dtd">
<svg height="589.79625pt" version="1.1" viewBox="0 0 1159.665625 589.79625" width="1159.665625pt" xmlns="http://www.w3.org/2000/svg" xmlns:xlink="http://www.w3.org/1999/xlink">
 <metadata>
  <rdf:RDF xmlns:cc="http://creativecommons.org/ns#" xmlns:dc="http://purl.org/dc/elements/1.1/" xmlns:rdf="http://www.w3.org/1999/02/22-rdf-syntax-ns#">
   <cc:Work>
    <dc:type rdf:resource="http://purl.org/dc/dcmitype/StillImage"/>
    <dc:date>2021-04-10T17:47:06.629051</dc:date>
    <dc:format>image/svg+xml</dc:format>
    <dc:creator>
     <cc:Agent>
      <dc:title>Matplotlib v3.4.1, https://matplotlib.org/</dc:title>
     </cc:Agent>
    </dc:creator>
   </cc:Work>
  </rdf:RDF>
 </metadata>
 <defs>
  <style type="text/css">*{stroke-linecap:butt;stroke-linejoin:round;}</style>
 </defs>
 <g id="figure_1">
  <g id="patch_1">
   <path d="M 0 589.79625 
L 1159.665625 589.79625 
L 1159.665625 0 
L 0 0 
z
" style="fill:none;"/>
  </g>
  <g id="axes_1">
   <g id="patch_2">
    <path d="M 36.465625 565.918125 
L 1152.465625 565.918125 
L 1152.465625 22.318125 
L 36.465625 22.318125 
z
" style="fill:#ffffff;"/>
   </g>
   <g id="matplotlib.axis_1">
    <g id="xtick_1">
     <g id="line2d_1">
      <defs>
       <path d="M 0 0 
L 0 3.5 
" id="m30a7843285" style="stroke:#000000;stroke-width:0.8;"/>
      </defs>
      <g>
       <use style="stroke:#000000;stroke-width:0.8;" x="65.606824" xlink:href="#m30a7843285" y="565.918125"/>
      </g>
     </g>
     <g id="text_1">
      <!-- 0 -->
      <g transform="translate(62.425574 580.516562)scale(0.1 -0.1)">
       <defs>
        <path d="M 2034 4250 
Q 1547 4250 1301 3770 
Q 1056 3291 1056 2328 
Q 1056 1369 1301 889 
Q 1547 409 2034 409 
Q 2525 409 2770 889 
Q 3016 1369 3016 2328 
Q 3016 3291 2770 3770 
Q 2525 4250 2034 4250 
z
M 2034 4750 
Q 2819 4750 3233 4129 
Q 3647 3509 3647 2328 
Q 3647 1150 3233 529 
Q 2819 -91 2034 -91 
Q 1250 -91 836 529 
Q 422 1150 422 2328 
Q 422 3509 836 4129 
Q 1250 4750 2034 4750 
z
" id="DejaVuSans-30" transform="scale(0.015625)"/>
       </defs>
       <use xlink:href="#DejaVuSans-30"/>
      </g>
     </g>
    </g>
    <g id="xtick_2">
     <g id="line2d_2">
      <g>
       <use style="stroke:#000000;stroke-width:0.8;" x="281.467559" xlink:href="#m30a7843285" y="565.918125"/>
      </g>
     </g>
     <g id="text_2">
      <!-- 10 -->
      <g transform="translate(275.105059 580.516562)scale(0.1 -0.1)">
       <defs>
        <path d="M 794 531 
L 1825 531 
L 1825 4091 
L 703 3866 
L 703 4441 
L 1819 4666 
L 2450 4666 
L 2450 531 
L 3481 531 
L 3481 0 
L 794 0 
L 794 531 
z
" id="DejaVuSans-31" transform="scale(0.015625)"/>
       </defs>
       <use xlink:href="#DejaVuSans-31"/>
       <use x="63.623047" xlink:href="#DejaVuSans-30"/>
      </g>
     </g>
    </g>
    <g id="xtick_3">
     <g id="line2d_3">
      <g>
       <use style="stroke:#000000;stroke-width:0.8;" x="497.328294" xlink:href="#m30a7843285" y="565.918125"/>
      </g>
     </g>
     <g id="text_3">
      <!-- 20 -->
      <g transform="translate(490.965794 580.516562)scale(0.1 -0.1)">
       <defs>
        <path d="M 1228 531 
L 3431 531 
L 3431 0 
L 469 0 
L 469 531 
Q 828 903 1448 1529 
Q 2069 2156 2228 2338 
Q 2531 2678 2651 2914 
Q 2772 3150 2772 3378 
Q 2772 3750 2511 3984 
Q 2250 4219 1831 4219 
Q 1534 4219 1204 4116 
Q 875 4013 500 3803 
L 500 4441 
Q 881 4594 1212 4672 
Q 1544 4750 1819 4750 
Q 2544 4750 2975 4387 
Q 3406 4025 3406 3419 
Q 3406 3131 3298 2873 
Q 3191 2616 2906 2266 
Q 2828 2175 2409 1742 
Q 1991 1309 1228 531 
z
" id="DejaVuSans-32" transform="scale(0.015625)"/>
       </defs>
       <use xlink:href="#DejaVuSans-32"/>
       <use x="63.623047" xlink:href="#DejaVuSans-30"/>
      </g>
     </g>
    </g>
    <g id="xtick_4">
     <g id="line2d_4">
      <g>
       <use style="stroke:#000000;stroke-width:0.8;" x="713.189029" xlink:href="#m30a7843285" y="565.918125"/>
      </g>
     </g>
     <g id="text_4">
      <!-- 30 -->
      <g transform="translate(706.826529 580.516562)scale(0.1 -0.1)">
       <defs>
        <path d="M 2597 2516 
Q 3050 2419 3304 2112 
Q 3559 1806 3559 1356 
Q 3559 666 3084 287 
Q 2609 -91 1734 -91 
Q 1441 -91 1130 -33 
Q 819 25 488 141 
L 488 750 
Q 750 597 1062 519 
Q 1375 441 1716 441 
Q 2309 441 2620 675 
Q 2931 909 2931 1356 
Q 2931 1769 2642 2001 
Q 2353 2234 1838 2234 
L 1294 2234 
L 1294 2753 
L 1863 2753 
Q 2328 2753 2575 2939 
Q 2822 3125 2822 3475 
Q 2822 3834 2567 4026 
Q 2313 4219 1838 4219 
Q 1578 4219 1281 4162 
Q 984 4106 628 3988 
L 628 4550 
Q 988 4650 1302 4700 
Q 1616 4750 1894 4750 
Q 2613 4750 3031 4423 
Q 3450 4097 3450 3541 
Q 3450 3153 3228 2886 
Q 3006 2619 2597 2516 
z
" id="DejaVuSans-33" transform="scale(0.015625)"/>
       </defs>
       <use xlink:href="#DejaVuSans-33"/>
       <use x="63.623047" xlink:href="#DejaVuSans-30"/>
      </g>
     </g>
    </g>
    <g id="xtick_5">
     <g id="line2d_5">
      <g>
       <use style="stroke:#000000;stroke-width:0.8;" x="929.049764" xlink:href="#m30a7843285" y="565.918125"/>
      </g>
     </g>
     <g id="text_5">
      <!-- 40 -->
      <g transform="translate(922.687264 580.516562)scale(0.1 -0.1)">
       <defs>
        <path d="M 2419 4116 
L 825 1625 
L 2419 1625 
L 2419 4116 
z
M 2253 4666 
L 3047 4666 
L 3047 1625 
L 3713 1625 
L 3713 1100 
L 3047 1100 
L 3047 0 
L 2419 0 
L 2419 1100 
L 313 1100 
L 313 1709 
L 2253 4666 
z
" id="DejaVuSans-34" transform="scale(0.015625)"/>
       </defs>
       <use xlink:href="#DejaVuSans-34"/>
       <use x="63.623047" xlink:href="#DejaVuSans-30"/>
      </g>
     </g>
    </g>
    <g id="xtick_6">
     <g id="line2d_6">
      <g>
       <use style="stroke:#000000;stroke-width:0.8;" x="1144.910499" xlink:href="#m30a7843285" y="565.918125"/>
      </g>
     </g>
     <g id="text_6">
      <!-- 50 -->
      <g transform="translate(1138.547999 580.516562)scale(0.1 -0.1)">
       <defs>
        <path d="M 691 4666 
L 3169 4666 
L 3169 4134 
L 1269 4134 
L 1269 2991 
Q 1406 3038 1543 3061 
Q 1681 3084 1819 3084 
Q 2600 3084 3056 2656 
Q 3513 2228 3513 1497 
Q 3513 744 3044 326 
Q 2575 -91 1722 -91 
Q 1428 -91 1123 -41 
Q 819 9 494 109 
L 494 744 
Q 775 591 1075 516 
Q 1375 441 1709 441 
Q 2250 441 2565 725 
Q 2881 1009 2881 1497 
Q 2881 1984 2565 2268 
Q 2250 2553 1709 2553 
Q 1456 2553 1204 2497 
Q 953 2441 691 2322 
L 691 4666 
z
" id="DejaVuSans-35" transform="scale(0.015625)"/>
       </defs>
       <use xlink:href="#DejaVuSans-35"/>
       <use x="63.623047" xlink:href="#DejaVuSans-30"/>
      </g>
     </g>
    </g>
   </g>
   <g id="matplotlib.axis_2">
    <g id="ytick_1">
     <g id="line2d_7">
      <defs>
       <path d="M 0 0 
L -3.5 0 
" id="m2283589155" style="stroke:#000000;stroke-width:0.8;"/>
      </defs>
      <g>
       <use style="stroke:#000000;stroke-width:0.8;" x="36.465625" xlink:href="#m2283589155" y="541.209034"/>
      </g>
     </g>
     <g id="text_7">
      <!-- 0.0 -->
      <g transform="translate(13.5625 545.008253)scale(0.1 -0.1)">
       <defs>
        <path d="M 684 794 
L 1344 794 
L 1344 0 
L 684 0 
L 684 794 
z
" id="DejaVuSans-2e" transform="scale(0.015625)"/>
       </defs>
       <use xlink:href="#DejaVuSans-30"/>
       <use x="63.623047" xlink:href="#DejaVuSans-2e"/>
       <use x="95.410156" xlink:href="#DejaVuSans-30"/>
      </g>
     </g>
    </g>
    <g id="ytick_2">
     <g id="line2d_8">
      <g>
       <use style="stroke:#000000;stroke-width:0.8;" x="36.465625" xlink:href="#m2283589155" y="472.365758"/>
      </g>
     </g>
     <g id="text_8">
      <!-- 2.5 -->
      <g transform="translate(13.5625 476.164977)scale(0.1 -0.1)">
       <use xlink:href="#DejaVuSans-32"/>
       <use x="63.623047" xlink:href="#DejaVuSans-2e"/>
       <use x="95.410156" xlink:href="#DejaVuSans-35"/>
      </g>
     </g>
    </g>
    <g id="ytick_3">
     <g id="line2d_9">
      <g>
       <use style="stroke:#000000;stroke-width:0.8;" x="36.465625" xlink:href="#m2283589155" y="403.522482"/>
      </g>
     </g>
     <g id="text_9">
      <!-- 5.0 -->
      <g transform="translate(13.5625 407.321701)scale(0.1 -0.1)">
       <use xlink:href="#DejaVuSans-35"/>
       <use x="63.623047" xlink:href="#DejaVuSans-2e"/>
       <use x="95.410156" xlink:href="#DejaVuSans-30"/>
      </g>
     </g>
    </g>
    <g id="ytick_4">
     <g id="line2d_10">
      <g>
       <use style="stroke:#000000;stroke-width:0.8;" x="36.465625" xlink:href="#m2283589155" y="334.679206"/>
      </g>
     </g>
     <g id="text_10">
      <!-- 7.5 -->
      <g transform="translate(13.5625 338.478425)scale(0.1 -0.1)">
       <defs>
        <path d="M 525 4666 
L 3525 4666 
L 3525 4397 
L 1831 0 
L 1172 0 
L 2766 4134 
L 525 4134 
L 525 4666 
z
" id="DejaVuSans-37" transform="scale(0.015625)"/>
       </defs>
       <use xlink:href="#DejaVuSans-37"/>
       <use x="63.623047" xlink:href="#DejaVuSans-2e"/>
       <use x="95.410156" xlink:href="#DejaVuSans-35"/>
      </g>
     </g>
    </g>
    <g id="ytick_5">
     <g id="line2d_11">
      <g>
       <use style="stroke:#000000;stroke-width:0.8;" x="36.465625" xlink:href="#m2283589155" y="265.83593"/>
      </g>
     </g>
     <g id="text_11">
      <!-- 10.0 -->
      <g transform="translate(7.2 269.635149)scale(0.1 -0.1)">
       <use xlink:href="#DejaVuSans-31"/>
       <use x="63.623047" xlink:href="#DejaVuSans-30"/>
       <use x="127.246094" xlink:href="#DejaVuSans-2e"/>
       <use x="159.033203" xlink:href="#DejaVuSans-30"/>
      </g>
     </g>
    </g>
    <g id="ytick_6">
     <g id="line2d_12">
      <g>
       <use style="stroke:#000000;stroke-width:0.8;" x="36.465625" xlink:href="#m2283589155" y="196.992654"/>
      </g>
     </g>
     <g id="text_12">
      <!-- 12.5 -->
      <g transform="translate(7.2 200.791873)scale(0.1 -0.1)">
       <use xlink:href="#DejaVuSans-31"/>
       <use x="63.623047" xlink:href="#DejaVuSans-32"/>
       <use x="127.246094" xlink:href="#DejaVuSans-2e"/>
       <use x="159.033203" xlink:href="#DejaVuSans-35"/>
      </g>
     </g>
    </g>
    <g id="ytick_7">
     <g id="line2d_13">
      <g>
       <use style="stroke:#000000;stroke-width:0.8;" x="36.465625" xlink:href="#m2283589155" y="128.149379"/>
      </g>
     </g>
     <g id="text_13">
      <!-- 15.0 -->
      <g transform="translate(7.2 131.948597)scale(0.1 -0.1)">
       <use xlink:href="#DejaVuSans-31"/>
       <use x="63.623047" xlink:href="#DejaVuSans-35"/>
       <use x="127.246094" xlink:href="#DejaVuSans-2e"/>
       <use x="159.033203" xlink:href="#DejaVuSans-30"/>
      </g>
     </g>
    </g>
    <g id="ytick_8">
     <g id="line2d_14">
      <g>
       <use style="stroke:#000000;stroke-width:0.8;" x="36.465625" xlink:href="#m2283589155" y="59.306103"/>
      </g>
     </g>
     <g id="text_14">
      <!-- 17.5 -->
      <g transform="translate(7.2 63.105321)scale(0.1 -0.1)">
       <use xlink:href="#DejaVuSans-31"/>
       <use x="63.623047" xlink:href="#DejaVuSans-37"/>
       <use x="127.246094" xlink:href="#DejaVuSans-2e"/>
       <use x="159.033203" xlink:href="#DejaVuSans-35"/>
      </g>
     </g>
    </g>
   </g>
   <g id="line2d_15">
    <path clip-path="url(#paa462e9aed)" d="M 87.192898 541.209034 
L 108.778971 541.209034 
L 130.365045 541.209034 
L 151.951118 541.209034 
L 173.537192 541.209034 
L 195.123265 541.209034 
L 216.709339 541.209034 
L 238.295412 541.209034 
L 259.881486 541.209034 
L 281.467559 541.209034 
L 303.053633 541.209034 
L 324.639706 452.359902 
L 346.22578 379.900977 
L 367.811853 390.329357 
L 389.397927 380.897828 
L 410.984 331.870401 
L 432.570074 390.323849 
L 454.156147 541.209034 
L 475.742221 541.209034 
L 497.328294 541.209034 
L 518.914368 541.209034 
L 540.500441 541.209034 
L 562.086515 541.209034 
L 583.672588 541.209034 
L 605.258662 541.209034 
L 626.844735 541.209034 
L 648.430809 541.209034 
L 670.016882 541.209034 
L 691.602956 541.209034 
L 713.189029 541.209034 
L 734.775103 541.209034 
L 756.361176 541.209034 
L 777.94725 541.209034 
L 799.533323 541.209034 
L 821.119397 541.209034 
L 842.70547 541.209034 
L 864.291544 541.209034 
L 885.877617 541.209034 
L 907.463691 541.209034 
L 929.049764 541.209034 
L 950.635838 525.474215 
L 972.221911 538.166161 
L 993.807985 541.209034 
L 1015.394058 539.961594 
L 1036.980132 537.596139 
L 1058.566205 540.933661 
L 1080.152279 541.209034 
L 1101.738352 541.173236 
" style="fill:none;stroke:#1f77b4;stroke-linecap:square;stroke-width:1.5;"/>
   </g>
   <g id="line2d_16">
    <path clip-path="url(#paa462e9aed)" d="M 87.192898 541.209034 
L 108.778971 541.209034 
L 130.365045 541.209034 
L 151.951118 541.209034 
L 173.537192 541.129176 
L 195.123265 540.09928 
L 216.709339 498.980569 
L 238.295412 515.084388 
L 259.881486 470.928311 
L 281.467559 541.153959 
L 303.053633 541.209034 
L 324.639706 537.819191 
L 346.22578 497.358621 
L 367.811853 469.512893 
L 389.397927 236.684934 
L 410.984 439.009814 
L 432.570074 467.637602 
L 454.156147 541.209034 
L 475.742221 541.209034 
L 497.328294 541.209034 
L 518.914368 541.209034 
L 540.500441 541.209034 
L 562.086515 541.209034 
L 583.672588 541.209034 
L 605.258662 541.209034 
L 626.844735 541.209034 
L 648.430809 541.209034 
L 670.016882 541.209034 
L 691.602956 541.209034 
L 713.189029 541.209034 
L 734.775103 541.209034 
L 756.361176 541.209034 
L 777.94725 541.209034 
L 799.533323 541.209034 
L 821.119397 541.209034 
L 842.70547 541.209034 
L 864.291544 541.209034 
L 885.877617 541.209034 
L 907.463691 541.209034 
L 929.049764 521.340865 
L 950.635838 501.502986 
L 972.221911 540.446251 
L 993.807985 493.792539 
L 1015.394058 538.033982 
L 1036.980132 541.209034 
L 1058.566205 541.209034 
L 1080.152279 541.209034 
L 1101.738352 541.209034 
" style="fill:none;stroke:#ff7f0e;stroke-linecap:square;stroke-width:1.5;"/>
   </g>
   <g id="line2d_17">
    <path clip-path="url(#paa462e9aed)" d="M 87.192898 541.209034 
L 108.778971 541.209034 
L 130.365045 541.209034 
L 151.951118 541.209034 
L 173.537192 541.209034 
L 195.123265 541.209034 
L 216.709339 537.777885 
L 238.295412 541.203527 
L 259.881486 541.209034 
L 281.467559 535.073721 
L 303.053633 541.209034 
L 324.639706 511.33656 
L 346.22578 470.025087 
L 367.811853 457.068782 
L 389.397927 412.808063 
L 410.984 336.36449 
L 432.570074 47.027216 
L 454.156147 349.722839 
L 475.742221 541.209034 
L 497.328294 541.209034 
L 518.914368 541.209034 
L 540.500441 541.209034 
L 562.086515 541.209034 
L 583.672588 541.209034 
L 605.258662 541.209034 
L 626.844735 541.209034 
L 648.430809 541.209034 
L 670.016882 541.209034 
L 691.602956 541.209034 
L 713.189029 541.209034 
L 734.775103 541.209034 
L 756.361176 541.209034 
L 777.94725 541.209034 
L 799.533323 541.209034 
L 821.119397 541.209034 
L 842.70547 541.209034 
L 864.291544 541.209034 
L 885.877617 541.209034 
L 907.463691 541.209034 
L 929.049764 521.963208 
L 950.635838 541.209034 
L 972.221911 541.209034 
L 993.807985 540.856557 
L 1015.394058 541.20628 
L 1036.980132 541.209034 
L 1058.566205 541.209034 
L 1080.152279 541.209034 
L 1101.738352 541.209034 
" style="fill:none;stroke:#2ca02c;stroke-linecap:square;stroke-width:1.5;"/>
   </g>
   <g id="line2d_18">
    <path clip-path="url(#paa462e9aed)" d="M 87.192898 541.209034 
L 108.778971 493.880659 
L 130.365045 541.209034 
L 151.951118 541.209034 
L 173.537192 541.209034 
L 195.123265 541.20628 
L 216.709339 541.209034 
L 238.295412 541.209034 
L 259.881486 541.209034 
L 281.467559 541.20628 
L 303.053633 537.750348 
L 324.639706 539.504475 
L 346.22578 493.17295 
L 367.811853 451.630163 
L 389.397927 390.370663 
L 410.984 426.799771 
L 432.570074 424.954771 
L 454.156147 450.393738 
L 475.742221 541.209034 
L 497.328294 541.209034 
L 518.914368 541.209034 
L 540.500441 541.209034 
L 562.086515 541.209034 
L 583.672588 541.209034 
L 605.258662 541.209034 
L 626.844735 541.209034 
L 648.430809 541.209034 
L 670.016882 541.209034 
L 691.602956 541.209034 
L 713.189029 541.209034 
L 734.775103 541.209034 
L 756.361176 541.209034 
L 777.94725 541.209034 
L 799.533323 541.209034 
L 821.119397 541.209034 
L 842.70547 541.209034 
L 864.291544 541.209034 
L 885.877617 541.209034 
L 907.463691 541.209034 
L 929.049764 541.209034 
L 950.635838 541.209034 
L 972.221911 538.380952 
L 993.807985 536.588273 
L 1015.394058 541.209034 
L 1036.980132 541.209034 
L 1058.566205 541.209034 
L 1080.152279 541.209034 
L 1101.738352 541.209034 
" style="fill:none;stroke:#d62728;stroke-linecap:square;stroke-width:1.5;"/>
   </g>
   <g id="line2d_19">
    <path clip-path="url(#paa462e9aed)" d="M 87.192898 541.209034 
L 108.778971 541.209034 
L 130.365045 538.835318 
L 151.951118 541.209034 
L 173.537192 541.200773 
L 195.123265 541.209034 
L 216.709339 541.209034 
L 238.295412 541.209034 
L 259.881486 540.94743 
L 281.467559 513.043873 
L 303.053633 508.838926 
L 324.639706 538.722415 
L 346.22578 532.292453 
L 367.811853 534.23108 
L 389.397927 322.042335 
L 410.984 223.896607 
L 432.570074 437.878031 
L 454.156147 541.209034 
L 475.742221 541.209034 
L 497.328294 541.209034 
L 518.914368 541.209034 
L 540.500441 541.209034 
L 562.086515 541.209034 
L 583.672588 541.209034 
L 605.258662 541.209034 
L 626.844735 541.209034 
L 648.430809 541.209034 
L 670.016882 541.209034 
L 691.602956 541.209034 
L 713.189029 541.209034 
L 734.775103 541.209034 
L 756.361176 541.209034 
L 777.94725 541.209034 
L 799.533323 541.209034 
L 821.119397 541.209034 
L 842.70547 541.209034 
L 864.291544 541.209034 
L 885.877617 541.209034 
L 907.463691 541.209034 
L 929.049764 539.628392 
L 950.635838 533.746423 
L 972.221911 537.7889 
L 993.807985 541.112654 
L 1015.394058 540.952937 
L 1036.980132 541.052071 
L 1058.566205 541.209034 
L 1080.152279 441.061344 
L 1101.738352 535.178363 
" style="fill:none;stroke:#9467bd;stroke-linecap:square;stroke-width:1.5;"/>
   </g>
   <g id="line2d_20">
    <path clip-path="url(#paa462e9aed)" d="M 87.192898 541.209034 
L 108.778971 541.209034 
L 130.365045 541.209034 
L 151.951118 539.424616 
L 173.537192 541.209034 
L 195.123265 541.209034 
L 216.709339 541.209034 
L 238.295412 540.69684 
L 259.881486 511.978179 
L 281.467559 511.408157 
L 303.053633 517.573761 
L 324.639706 480.120265 
L 346.22578 477.294937 
L 367.811853 452.478313 
L 389.397927 237.568881 
L 410.984 541.209034 
L 432.570074 536.10637 
L 454.156147 541.209034 
L 475.742221 541.209034 
L 497.328294 541.209034 
L 518.914368 541.209034 
L 540.500441 541.209034 
L 562.086515 541.209034 
L 583.672588 541.209034 
L 605.258662 541.209034 
L 626.844735 541.209034 
L 648.430809 541.209034 
L 670.016882 541.209034 
L 691.602956 541.209034 
L 713.189029 541.209034 
L 734.775103 541.209034 
L 756.361176 541.209034 
L 777.94725 541.209034 
L 799.533323 541.209034 
L 821.119397 541.209034 
L 842.70547 541.209034 
L 864.291544 541.209034 
L 885.877617 541.209034 
L 907.463691 538.469072 
L 929.049764 541.209034 
L 950.635838 541.209034 
L 972.221911 523.948648 
L 993.807985 481.084071 
L 1015.394058 541.203527 
L 1036.980132 541.209034 
L 1058.566205 541.209034 
L 1080.152279 541.209034 
L 1101.738352 541.170482 
" style="fill:none;stroke:#8c564b;stroke-linecap:square;stroke-width:1.5;"/>
   </g>
   <g id="line2d_21">
    <path clip-path="url(#paa462e9aed)" d="M 87.192898 541.209034 
L 108.778971 541.209034 
L 130.365045 540.418713 
L 151.951118 541.209034 
L 173.537192 541.209034 
L 195.123265 541.209034 
L 216.709339 541.209034 
L 238.295412 541.203527 
L 259.881486 539.129967 
L 281.467559 541.209034 
L 303.053633 539.501721 
L 324.639706 530.965155 
L 346.22578 437.616426 
L 367.811853 521.134335 
L 389.397927 469.416512 
L 410.984 350.521421 
L 432.570074 258.896528 
L 454.156147 531.529669 
L 475.742221 541.209034 
L 497.328294 541.209034 
L 518.914368 541.209034 
L 540.500441 541.209034 
L 562.086515 541.209034 
L 583.672588 541.209034 
L 605.258662 541.209034 
L 626.844735 541.209034 
L 648.430809 541.209034 
L 670.016882 541.209034 
L 691.602956 541.209034 
L 713.189029 541.209034 
L 734.775103 541.209034 
L 756.361176 541.209034 
L 777.94725 541.209034 
L 799.533323 541.209034 
L 821.119397 541.209034 
L 842.70547 541.209034 
L 864.291544 541.209034 
L 885.877617 541.209034 
L 907.463691 531.400244 
L 929.049764 538.331385 
L 950.635838 479.277623 
L 972.221911 516.114283 
L 993.807985 541.200773 
L 1015.394058 503.967576 
L 1036.980132 505.330672 
L 1058.566205 541.209034 
L 1080.152279 541.209034 
L 1101.738352 541.209034 
" style="fill:none;stroke:#e377c2;stroke-linecap:square;stroke-width:1.5;"/>
   </g>
   <g id="line2d_22">
    <path clip-path="url(#paa462e9aed)" d="M 87.192898 541.209034 
L 108.778971 541.209034 
L 130.365045 540.812497 
L 151.951118 541.209034 
L 173.537192 541.209034 
L 195.123265 539.19881 
L 216.709339 541.209034 
L 238.295412 539.487952 
L 259.881486 541.209034 
L 281.467559 541.052071 
L 303.053633 539.490706 
L 324.639706 541.107146 
L 346.22578 452.574693 
L 367.811853 530.268461 
L 389.397927 444.134508 
L 410.984 447.662037 
L 432.570074 211.981212 
L 454.156147 343.648108 
L 475.742221 541.209034 
L 497.328294 541.209034 
L 518.914368 541.209034 
L 540.500441 541.209034 
L 562.086515 541.209034 
L 583.672588 541.209034 
L 605.258662 541.209034 
L 626.844735 541.209034 
L 648.430809 541.209034 
L 670.016882 541.209034 
L 691.602956 541.209034 
L 713.189029 541.209034 
L 734.775103 541.209034 
L 756.361176 541.209034 
L 777.94725 541.209034 
L 799.533323 541.209034 
L 821.119397 541.209034 
L 842.70547 541.209034 
L 864.291544 541.209034 
L 885.877617 541.209034 
L 907.463691 538.606758 
L 929.049764 510.524209 
L 950.635838 541.209034 
L 972.221911 513.627664 
L 993.807985 534.476162 
L 1015.394058 537.910064 
L 1036.980132 494.478218 
L 1058.566205 541.209034 
L 1080.152279 541.209034 
L 1101.738352 541.209034 
" style="fill:none;stroke:#7f7f7f;stroke-linecap:square;stroke-width:1.5;"/>
   </g>
   <g id="line2d_23">
    <path clip-path="url(#paa462e9aed)" d="M 87.192898 541.209034 
L 108.778971 541.209034 
L 130.365045 541.209034 
L 151.951118 541.209034 
L 173.537192 541.209034 
L 195.123265 541.200773 
L 216.709339 541.209034 
L 238.295412 541.209034 
L 259.881486 538.086303 
L 281.467559 541.209034 
L 303.053633 537.199602 
L 324.639706 486.283115 
L 346.22578 398.171983 
L 367.811853 419.909936 
L 389.397927 370.819172 
L 410.984 423.451234 
L 432.570074 408.586594 
L 454.156147 541.209034 
L 475.742221 541.209034 
L 497.328294 541.209034 
L 518.914368 541.209034 
L 540.500441 541.209034 
L 562.086515 541.209034 
L 583.672588 541.209034 
L 605.258662 541.209034 
L 626.844735 541.209034 
L 648.430809 541.209034 
L 670.016882 541.209034 
L 691.602956 541.209034 
L 713.189029 541.209034 
L 734.775103 541.209034 
L 756.361176 541.209034 
L 777.94725 541.209034 
L 799.533323 541.209034 
L 821.119397 541.209034 
L 842.70547 541.209034 
L 864.291544 541.209034 
L 885.877617 541.209034 
L 907.463691 541.209034 
L 929.049764 528.368386 
L 950.635838 541.209034 
L 972.221911 522.321193 
L 993.807985 540.206676 
L 1015.394058 535.842012 
L 1036.980132 538.799519 
L 1058.566205 541.203527 
L 1080.152279 541.209034 
L 1101.738352 541.209034 
" style="fill:none;stroke:#bcbd22;stroke-linecap:square;stroke-width:1.5;"/>
   </g>
   <g id="line2d_24">
    <path clip-path="url(#paa462e9aed)" d="M 87.192898 541.209034 
L 108.778971 541.209034 
L 130.365045 541.209034 
L 151.951118 541.209034 
L 173.537192 541.209034 
L 195.123265 541.209034 
L 216.709339 541.209034 
L 238.295412 541.209034 
L 259.881486 540.16537 
L 281.467559 534.217311 
L 303.053633 535.561132 
L 324.639706 446.27691 
L 346.22578 460.695446 
L 367.811853 461.080968 
L 389.397927 417.742749 
L 410.984 443.468105 
L 432.570074 255.608573 
L 454.156147 529.194506 
L 475.742221 541.209034 
L 497.328294 541.209034 
L 518.914368 541.209034 
L 540.500441 541.209034 
L 562.086515 541.209034 
L 583.672588 541.209034 
L 605.258662 541.209034 
L 626.844735 541.209034 
L 648.430809 541.209034 
L 670.016882 541.209034 
L 691.602956 541.209034 
L 713.189029 541.209034 
L 734.775103 541.209034 
L 756.361176 541.209034 
L 777.94725 541.209034 
L 799.533323 541.209034 
L 821.119397 541.209034 
L 842.70547 541.209034 
L 864.291544 541.209034 
L 885.877617 541.209034 
L 907.463691 541.209034 
L 929.049764 531.011968 
L 950.635838 539.903766 
L 972.221911 526.42976 
L 993.807985 538.518639 
L 1015.394058 499.280725 
L 1036.980132 501.442404 
L 1058.566205 541.209034 
L 1080.152279 541.209034 
L 1101.738352 541.209034 
" style="fill:none;stroke:#17becf;stroke-linecap:square;stroke-width:1.5;"/>
   </g>
   <g id="line2d_25">
    <path clip-path="url(#paa462e9aed)" d="M 87.192898 541.209034 
L 108.778971 541.209034 
L 130.365045 541.209034 
L 151.951118 541.209034 
L 173.537192 541.209034 
L 195.123265 541.209034 
L 216.709339 541.209034 
L 238.295412 541.209034 
L 259.881486 541.209034 
L 281.467559 541.209034 
L 303.053633 539.319975 
L 324.639706 484.732764 
L 346.22578 509.103284 
L 367.811853 490.925905 
L 389.397927 338.856616 
L 410.984 340.401459 
L 432.570074 364.413994 
L 454.156147 487.381854 
L 475.742221 541.209034 
L 497.328294 541.209034 
L 518.914368 541.209034 
L 540.500441 541.209034 
L 562.086515 541.209034 
L 583.672588 541.209034 
L 605.258662 541.209034 
L 626.844735 541.209034 
L 648.430809 541.209034 
L 670.016882 541.209034 
L 691.602956 541.209034 
L 713.189029 541.209034 
L 734.775103 541.209034 
L 756.361176 541.209034 
L 777.94725 541.209034 
L 799.533323 541.209034 
L 821.119397 541.209034 
L 842.70547 541.209034 
L 864.291544 541.209034 
L 885.877617 541.209034 
L 907.463691 541.209034 
L 929.049764 541.209034 
L 950.635838 463.760349 
L 972.221911 540.352624 
L 993.807985 509.400687 
L 1015.394058 499.068688 
L 1036.980132 541.209034 
L 1058.566205 541.209034 
L 1080.152279 541.209034 
L 1101.738352 541.209034 
" style="fill:none;stroke:#1f77b4;stroke-linecap:square;stroke-width:1.5;"/>
   </g>
   <g id="line2d_26">
    <path clip-path="url(#paa462e9aed)" d="M 87.192898 541.209034 
L 108.778971 541.209034 
L 130.365045 541.164974 
L 151.951118 541.209034 
L 173.537192 541.209034 
L 195.123265 541.209034 
L 216.709339 541.209034 
L 238.295412 541.209034 
L 259.881486 536.125647 
L 281.467559 541.209034 
L 303.053633 539.570564 
L 324.639706 541.189758 
L 346.22578 518.991932 
L 367.811853 368.987941 
L 389.397927 465.032572 
L 410.984 367.511941 
L 432.570074 149.39166 
L 454.156147 325.366088 
L 475.742221 541.209034 
L 497.328294 541.209034 
L 518.914368 541.209034 
L 540.500441 541.209034 
L 562.086515 541.209034 
L 583.672588 541.209034 
L 605.258662 541.209034 
L 626.844735 541.209034 
L 648.430809 541.209034 
L 670.016882 541.209034 
L 691.602956 541.209034 
L 713.189029 541.209034 
L 734.775103 541.209034 
L 756.361176 541.209034 
L 777.94725 541.209034 
L 799.533323 541.209034 
L 821.119397 541.209034 
L 842.70547 541.209034 
L 864.291544 541.209034 
L 885.877617 535.035169 
L 907.463691 541.209034 
L 929.049764 541.209034 
L 950.635838 521.563917 
L 972.221911 507.13712 
L 993.807985 541.209034 
L 1015.394058 523.320797 
L 1036.980132 541.209034 
L 1058.566205 531.07255 
L 1080.152279 541.209034 
L 1101.738352 502.530128 
" style="fill:none;stroke:#ff7f0e;stroke-linecap:square;stroke-width:1.5;"/>
   </g>
   <g id="line2d_27">
    <path clip-path="url(#paa462e9aed)" d="M 87.192898 541.209034 
L 108.778971 541.112654 
L 130.365045 541.209034 
L 151.951118 541.209034 
L 173.537192 540.487557 
L 195.123265 540.528863 
L 216.709339 541.209034 
L 238.295412 541.209034 
L 259.881486 447.119552 
L 281.467559 539.722019 
L 303.053633 541.209034 
L 324.639706 541.209034 
L 346.22578 497.898352 
L 367.811853 411.136549 
L 389.397927 456.272954 
L 410.984 464.27805 
L 432.570074 369.095337 
L 454.156147 475.394862 
L 475.742221 541.209034 
L 497.328294 541.209034 
L 518.914368 541.209034 
L 540.500441 541.209034 
L 562.086515 541.209034 
L 583.672588 541.209034 
L 605.258662 541.209034 
L 626.844735 541.209034 
L 648.430809 541.209034 
L 670.016882 541.209034 
L 691.602956 541.209034 
L 713.189029 541.209034 
L 734.775103 541.209034 
L 756.361176 541.209034 
L 777.94725 541.209034 
L 799.533323 541.209034 
L 821.119397 541.209034 
L 842.70547 541.209034 
L 864.291544 541.209034 
L 885.877617 541.209034 
L 907.463691 541.209034 
L 929.049764 527.184282 
L 950.635838 533.848311 
L 972.221911 537.970646 
L 993.807985 541.209034 
L 1015.394058 541.209034 
L 1036.980132 540.523355 
L 1058.566205 541.209034 
L 1080.152279 541.209034 
L 1101.738352 541.209034 
" style="fill:none;stroke:#2ca02c;stroke-linecap:square;stroke-width:1.5;"/>
   </g>
   <g id="line2d_28">
    <path clip-path="url(#paa462e9aed)" d="M 87.192898 541.209034 
L 108.778971 541.209034 
L 130.365045 539.361281 
L 151.951118 541.209034 
L 173.537192 541.209034 
L 195.123265 519.710656 
L 216.709339 541.209034 
L 238.295412 538.7114 
L 259.881486 540.382915 
L 281.467559 541.162221 
L 303.053633 491.253599 
L 324.639706 459.566416 
L 346.22578 467.32643 
L 367.811853 457.401984 
L 389.397927 367.043807 
L 410.984 427.521248 
L 432.570074 464.457043 
L 454.156147 438.280075 
L 475.742221 241.39106 
L 497.328294 541.209034 
L 518.914368 541.209034 
L 540.500441 541.209034 
L 562.086515 541.209034 
L 583.672588 541.209034 
L 605.258662 541.209034 
L 626.844735 541.209034 
L 648.430809 541.209034 
L 670.016882 541.209034 
L 691.602956 541.209034 
L 713.189029 541.209034 
L 734.775103 541.209034 
L 756.361176 541.209034 
L 777.94725 541.209034 
L 799.533323 541.209034 
L 821.119397 541.209034 
L 842.70547 541.209034 
L 864.291544 541.209034 
L 885.877617 541.209034 
L 907.463691 541.209034 
L 929.049764 538.857348 
L 950.635838 437.699038 
L 972.221911 540.996997 
L 993.807985 540.019422 
L 1015.394058 448.967306 
L 1036.980132 541.209034 
L 1058.566205 517.469119 
L 1080.152279 541.209034 
L 1101.738352 541.209034 
" style="fill:none;stroke:#d62728;stroke-linecap:square;stroke-width:1.5;"/>
   </g>
   <g id="line2d_29">
    <path clip-path="url(#paa462e9aed)" d="M 87.192898 541.209034 
L 108.778971 541.209034 
L 130.365045 541.209034 
L 151.951118 541.209034 
L 173.537192 541.209034 
L 195.123265 541.209034 
L 216.709339 541.209034 
L 238.295412 541.209034 
L 259.881486 541.209034 
L 281.467559 541.209034 
L 303.053633 541.187004 
L 324.639706 497.006143 
L 346.22578 471.704863 
L 367.811853 500.492367 
L 389.397927 448.320179 
L 410.984 466.668289 
L 432.570074 320.235887 
L 454.156147 385.862805 
L 475.742221 529.22755 
L 497.328294 541.209034 
L 518.914368 541.209034 
L 540.500441 541.209034 
L 562.086515 541.209034 
L 583.672588 541.209034 
L 605.258662 541.209034 
L 626.844735 541.209034 
L 648.430809 541.209034 
L 670.016882 541.209034 
L 691.602956 541.209034 
L 713.189029 541.209034 
L 734.775103 541.209034 
L 756.361176 541.209034 
L 777.94725 541.209034 
L 799.533323 541.209034 
L 821.119397 541.209034 
L 842.70547 541.209034 
L 864.291544 541.209034 
L 885.877617 541.209034 
L 907.463691 541.209034 
L 929.049764 541.209034 
L 950.635838 541.209034 
L 972.221911 526.170909 
L 993.807985 541.096131 
L 1015.394058 537.251923 
L 1036.980132 541.209034 
L 1058.566205 540.581183 
L 1080.152279 538.73343 
L 1101.738352 541.209034 
" style="fill:none;stroke:#9467bd;stroke-linecap:square;stroke-width:1.5;"/>
   </g>
   <g id="line2d_30">
    <path clip-path="url(#paa462e9aed)" d="M 87.192898 541.209034 
L 108.778971 541.209034 
L 130.365045 541.13193 
L 151.951118 541.209034 
L 173.537192 540.614228 
L 195.123265 541.209034 
L 216.709339 541.209034 
L 238.295412 541.209034 
L 259.881486 541.209034 
L 281.467559 540.983228 
L 303.053633 471.949945 
L 324.639706 474.41178 
L 346.22578 534.107162 
L 367.811853 362.318405 
L 389.397927 368.508792 
L 410.984 314.464067 
L 432.570074 443.82609 
L 454.156147 454.16635 
L 475.742221 541.209034 
L 497.328294 541.209034 
L 518.914368 541.209034 
L 540.500441 541.209034 
L 562.086515 541.209034 
L 583.672588 541.209034 
L 605.258662 541.209034 
L 626.844735 541.209034 
L 648.430809 541.209034 
L 670.016882 541.209034 
L 691.602956 541.209034 
L 713.189029 541.209034 
L 734.775103 541.209034 
L 756.361176 541.209034 
L 777.94725 541.209034 
L 799.533323 541.209034 
L 821.119397 541.209034 
L 842.70547 541.209034 
L 864.291544 541.209034 
L 885.877617 541.209034 
L 907.463691 541.209034 
L 929.049764 541.209034 
L 950.635838 525.510013 
L 972.221911 540.812497 
L 993.807985 541.209034 
L 1015.394058 541.151206 
L 1036.980132 541.134683 
L 1058.566205 541.209034 
L 1080.152279 541.209034 
L 1101.738352 541.209034 
" style="fill:none;stroke:#8c564b;stroke-linecap:square;stroke-width:1.5;"/>
   </g>
   <g id="line2d_31">
    <path clip-path="url(#paa462e9aed)" d="M 87.192898 541.209034 
L 108.778971 541.209034 
L 130.365045 541.04381 
L 151.951118 518.028126 
L 173.537192 541.209034 
L 195.123265 541.209034 
L 216.709339 539.801878 
L 238.295412 541.209034 
L 259.881486 540.930907 
L 281.467559 529.984826 
L 303.053633 538.818796 
L 324.639706 515.701223 
L 346.22578 537.199602 
L 367.811853 488.60451 
L 389.397927 452.684842 
L 410.984 462.851617 
L 432.570074 392.716842 
L 454.156147 233.79627 
L 475.742221 262.407535 
L 497.328294 541.209034 
L 518.914368 541.209034 
L 540.500441 541.209034 
L 562.086515 541.209034 
L 583.672588 541.209034 
L 605.258662 541.209034 
L 626.844735 541.209034 
L 648.430809 541.209034 
L 670.016882 541.209034 
L 691.602956 541.209034 
L 713.189029 541.209034 
L 734.775103 541.209034 
L 756.361176 541.209034 
L 777.94725 541.209034 
L 799.533323 541.209034 
L 821.119397 541.209034 
L 842.70547 541.209034 
L 864.291544 541.209034 
L 885.877617 541.209034 
L 907.463691 541.209034 
L 929.049764 531.570975 
L 950.635838 490.391682 
L 972.221911 521.459275 
L 993.807985 519.851096 
L 1015.394058 541.209034 
L 1036.980132 541.209034 
L 1058.566205 540.038698 
L 1080.152279 541.209034 
L 1101.738352 541.209034 
" style="fill:none;stroke:#e377c2;stroke-linecap:square;stroke-width:1.5;"/>
   </g>
   <g id="line2d_32">
    <path clip-path="url(#paa462e9aed)" d="M 87.192898 541.209034 
L 108.778971 541.209034 
L 130.365045 541.209034 
L 151.951118 541.209034 
L 173.537192 540.616982 
L 195.123265 541.209034 
L 216.709339 541.209034 
L 238.295412 541.209034 
L 259.881486 541.209034 
L 281.467559 541.209034 
L 303.053633 510.670157 
L 324.639706 541.052071 
L 346.22578 541.192512 
L 367.811853 489.058876 
L 389.397927 410.561019 
L 410.984 285.847294 
L 432.570074 251.466962 
L 454.156147 408.157012 
L 475.742221 407.038997 
L 497.328294 541.209034 
L 518.914368 541.209034 
L 540.500441 541.209034 
L 562.086515 541.209034 
L 583.672588 541.209034 
L 605.258662 541.209034 
L 626.844735 541.209034 
L 648.430809 541.209034 
L 670.016882 541.209034 
L 691.602956 541.209034 
L 713.189029 541.209034 
L 734.775103 541.209034 
L 756.361176 541.209034 
L 777.94725 541.209034 
L 799.533323 541.209034 
L 821.119397 541.209034 
L 842.70547 541.209034 
L 864.291544 541.209034 
L 885.877617 541.209034 
L 907.463691 541.209034 
L 929.049764 541.209034 
L 950.635838 540.663795 
L 972.221911 525.554073 
L 993.807985 508.632396 
L 1015.394058 541.209034 
L 1036.980132 540.198415 
L 1058.566205 541.209034 
L 1080.152279 541.209034 
L 1101.738352 541.209034 
" style="fill:none;stroke:#7f7f7f;stroke-linecap:square;stroke-width:1.5;"/>
   </g>
   <g id="line2d_33">
    <path clip-path="url(#paa462e9aed)" d="M 87.192898 541.209034 
L 108.778971 541.209034 
L 130.365045 541.209034 
L 151.951118 541.209034 
L 173.537192 541.209034 
L 195.123265 541.209034 
L 216.709339 541.209034 
L 238.295412 539.928549 
L 259.881486 541.209034 
L 281.467559 540.413206 
L 303.053633 541.195265 
L 324.639706 540.297549 
L 346.22578 526.999782 
L 367.811853 497.07774 
L 389.397927 383.982007 
L 410.984 421.892622 
L 432.570074 417.277369 
L 454.156147 219.644846 
L 475.742221 423.608196 
L 497.328294 541.209034 
L 518.914368 541.209034 
L 540.500441 541.209034 
L 562.086515 541.209034 
L 583.672588 541.209034 
L 605.258662 541.209034 
L 626.844735 541.209034 
L 648.430809 541.209034 
L 670.016882 541.209034 
L 691.602956 541.209034 
L 713.189029 541.209034 
L 734.775103 541.209034 
L 756.361176 541.209034 
L 777.94725 541.209034 
L 799.533323 541.209034 
L 821.119397 541.209034 
L 842.70547 541.209034 
L 864.291544 541.209034 
L 885.877617 541.209034 
L 907.463691 541.209034 
L 929.049764 541.209034 
L 950.635838 497.774434 
L 972.221911 541.209034 
L 993.807985 536.789296 
L 1015.394058 541.209034 
L 1036.980132 541.209034 
L 1058.566205 538.499363 
L 1080.152279 541.209034 
L 1101.738352 541.209034 
" style="fill:none;stroke:#bcbd22;stroke-linecap:square;stroke-width:1.5;"/>
   </g>
   <g id="line2d_34">
    <path clip-path="url(#paa462e9aed)" d="M 87.192898 541.209034 
L 108.778971 541.184251 
L 130.365045 541.164974 
L 151.951118 541.008012 
L 173.537192 541.209034 
L 195.123265 541.178743 
L 216.709339 541.209034 
L 238.295412 541.209034 
L 259.881486 541.209034 
L 281.467559 541.192512 
L 303.053633 530.320782 
L 324.639706 512.53994 
L 346.22578 530.240923 
L 367.811853 519.44079 
L 389.397927 471.531378 
L 410.984 485.079734 
L 432.570074 400.592512 
L 454.156147 415.465414 
L 475.742221 227.154271 
L 497.328294 273.394922 
L 518.914368 541.209034 
L 540.500441 541.209034 
L 562.086515 541.209034 
L 583.672588 541.209034 
L 605.258662 541.209034 
L 626.844735 541.209034 
L 648.430809 541.209034 
L 670.016882 541.209034 
L 691.602956 541.209034 
L 713.189029 541.209034 
L 734.775103 541.209034 
L 756.361176 541.209034 
L 777.94725 541.209034 
L 799.533323 541.209034 
L 821.119397 541.209034 
L 842.70547 541.209034 
L 864.291544 541.209034 
L 885.877617 532.958856 
L 907.463691 501.145001 
L 929.049764 533.798744 
L 950.635838 538.970251 
L 972.221911 531.970266 
L 993.807985 541.209034 
L 1015.394058 541.115407 
L 1036.980132 541.209034 
L 1058.566205 541.209034 
L 1080.152279 541.209034 
L 1101.738352 541.209034 
" style="fill:none;stroke:#17becf;stroke-linecap:square;stroke-width:1.5;"/>
   </g>
   <g id="line2d_35">
    <path clip-path="url(#paa462e9aed)" d="M 87.192898 541.209034 
L 108.778971 541.209034 
L 130.365045 538.91793 
L 151.951118 541.173236 
L 173.537192 541.209034 
L 195.123265 541.209034 
L 216.709339 541.209034 
L 238.295412 541.209034 
L 259.881486 536.56349 
L 281.467559 517.011999 
L 303.053633 540.721624 
L 324.639706 482.408615 
L 346.22578 495.634785 
L 367.811853 500.084815 
L 389.397927 271.084542 
L 410.984 333.285818 
L 432.570074 338.066295 
L 454.156147 541.209034 
L 475.742221 541.209034 
L 497.328294 541.209034 
L 518.914368 541.209034 
L 540.500441 541.209034 
L 562.086515 541.209034 
L 583.672588 541.209034 
L 605.258662 541.209034 
L 626.844735 541.209034 
L 648.430809 541.209034 
L 670.016882 541.209034 
L 691.602956 541.209034 
L 713.189029 541.209034 
L 734.775103 541.209034 
L 756.361176 541.209034 
L 777.94725 541.209034 
L 799.533323 541.209034 
L 821.119397 541.209034 
L 842.70547 541.209034 
L 864.291544 541.209034 
L 885.877617 541.209034 
L 907.463691 541.209034 
L 929.049764 541.209034 
L 950.635838 541.209034 
L 972.221911 540.53437 
L 993.807985 540.603213 
L 1015.394058 537.293229 
L 1036.980132 537.753102 
L 1058.566205 541.115407 
L 1080.152279 541.209034 
L 1101.738352 541.209034 
" style="fill:none;stroke:#1f77b4;stroke-linecap:square;stroke-width:1.5;"/>
   </g>
   <g id="line2d_36">
    <path clip-path="url(#paa462e9aed)" d="M 87.192898 541.209034 
L 108.778971 541.209034 
L 130.365045 541.209034 
L 151.951118 540.495818 
L 173.537192 541.209034 
L 195.123265 541.209034 
L 216.709339 541.209034 
L 238.295412 541.181497 
L 259.881486 530.276722 
L 281.467559 541.209034 
L 303.053633 540.484803 
L 324.639706 525.540304 
L 346.22578 501.869232 
L 367.811853 507.577717 
L 389.397927 431.461837 
L 410.984 368.996202 
L 432.570074 428.738397 
L 454.156147 200.622072 
L 475.742221 304.644262 
L 497.328294 406.625937 
L 518.914368 541.209034 
L 540.500441 541.209034 
L 562.086515 541.209034 
L 583.672588 541.209034 
L 605.258662 541.209034 
L 626.844735 541.209034 
L 648.430809 541.209034 
L 670.016882 541.209034 
L 691.602956 541.209034 
L 713.189029 541.209034 
L 734.775103 541.209034 
L 756.361176 541.209034 
L 777.94725 541.209034 
L 799.533323 541.209034 
L 821.119397 541.209034 
L 842.70547 541.209034 
L 864.291544 541.209034 
L 885.877617 541.209034 
L 907.463691 518.848738 
L 929.049764 510.650881 
L 950.635838 519.583984 
L 972.221911 539.598101 
L 993.807985 537.185833 
L 1015.394058 541.209034 
L 1036.980132 540.985982 
L 1058.566205 507.806277 
L 1080.152279 541.209034 
L 1101.738352 541.209034 
" style="fill:none;stroke:#ff7f0e;stroke-linecap:square;stroke-width:1.5;"/>
   </g>
   <g id="line2d_37">
    <path clip-path="url(#paa462e9aed)" d="M 87.192898 541.209034 
L 108.778971 527.878222 
L 130.365045 541.209034 
L 151.951118 541.209034 
L 173.537192 541.209034 
L 195.123265 541.209034 
L 216.709339 541.08787 
L 238.295412 540.170877 
L 259.881486 541.209034 
L 281.467559 541.209034 
L 303.053633 494.541554 
L 324.639706 540.471034 
L 346.22578 535.197639 
L 367.811853 516.508067 
L 389.397927 415.382802 
L 410.984 361.778673 
L 432.570074 306.026635 
L 454.156147 501.13674 
L 475.742221 541.209034 
L 497.328294 541.209034 
L 518.914368 541.209034 
L 540.500441 541.209034 
L 562.086515 541.209034 
L 583.672588 541.209034 
L 605.258662 541.209034 
L 626.844735 541.209034 
L 648.430809 541.209034 
L 670.016882 541.209034 
L 691.602956 541.209034 
L 713.189029 541.209034 
L 734.775103 541.209034 
L 756.361176 541.209034 
L 777.94725 541.209034 
L 799.533323 541.209034 
L 821.119397 541.209034 
L 842.70547 541.209034 
L 864.291544 541.209034 
L 885.877617 541.209034 
L 907.463691 541.209034 
L 929.049764 539.878982 
L 950.635838 538.22399 
L 972.221911 541.156713 
L 993.807985 500.787016 
L 1015.394058 537.706288 
L 1036.980132 538.648064 
L 1058.566205 539.435631 
L 1080.152279 541.209034 
L 1101.738352 541.209034 
" style="fill:none;stroke:#2ca02c;stroke-linecap:square;stroke-width:1.5;"/>
   </g>
   <g id="line2d_38">
    <path clip-path="url(#paa462e9aed)" d="M 87.192898 541.209034 
L 108.778971 541.209034 
L 130.365045 541.209034 
L 151.951118 540.994243 
L 173.537192 541.209034 
L 195.123265 541.209034 
L 216.709339 541.209034 
L 238.295412 537.318012 
L 259.881486 541.209034 
L 281.467559 541.209034 
L 303.053633 504.807464 
L 324.639706 420.832436 
L 346.22578 431.437054 
L 367.811853 483.901137 
L 389.397927 330.405416 
L 410.984 373.614209 
L 432.570074 313.500261 
L 454.156147 541.209034 
L 475.742221 541.209034 
L 497.328294 541.209034 
L 518.914368 541.209034 
L 540.500441 541.209034 
L 562.086515 541.209034 
L 583.672588 541.209034 
L 605.258662 541.209034 
L 626.844735 541.209034 
L 648.430809 541.209034 
L 670.016882 541.209034 
L 691.602956 541.209034 
L 713.189029 541.209034 
L 734.775103 541.209034 
L 756.361176 541.209034 
L 777.94725 541.209034 
L 799.533323 541.209034 
L 821.119397 541.209034 
L 842.70547 541.209034 
L 864.291544 541.209034 
L 885.877617 541.209034 
L 907.463691 534.266878 
L 929.049764 523.830238 
L 950.635838 522.624103 
L 972.221911 541.209034 
L 993.807985 538.659079 
L 1015.394058 541.209034 
L 1036.980132 541.209034 
L 1058.566205 541.209034 
L 1080.152279 541.209034 
L 1101.738352 541.209034 
" style="fill:none;stroke:#d62728;stroke-linecap:square;stroke-width:1.5;"/>
   </g>
   <g id="line2d_39">
    <path clip-path="url(#paa462e9aed)" d="M 87.192898 541.209034 
L 108.778971 541.209034 
L 130.365045 541.209034 
L 151.951118 541.209034 
L 173.537192 541.209034 
L 195.123265 541.209034 
L 216.709339 541.209034 
L 238.295412 541.129176 
L 259.881486 540.94743 
L 281.467559 433.293068 
L 303.053633 524.389245 
L 324.639706 437.418158 
L 346.22578 536.029266 
L 367.811853 505.663874 
L 389.397927 332.726811 
L 410.984 430.988196 
L 432.570074 246.898522 
L 454.156147 410.607832 
L 475.742221 541.209034 
L 497.328294 541.209034 
L 518.914368 541.209034 
L 540.500441 541.209034 
L 562.086515 541.209034 
L 583.672588 541.209034 
L 605.258662 541.209034 
L 626.844735 541.209034 
L 648.430809 541.209034 
L 670.016882 541.209034 
L 691.602956 541.209034 
L 713.189029 541.209034 
L 734.775103 541.209034 
L 756.361176 541.209034 
L 777.94725 541.209034 
L 799.533323 541.209034 
L 821.119397 541.209034 
L 842.70547 541.209034 
L 864.291544 541.209034 
L 885.877617 541.209034 
L 907.463691 541.209034 
L 929.049764 541.209034 
L 950.635838 541.209034 
L 972.221911 540.366392 
L 993.807985 526.484834 
L 1015.394058 541.187004 
L 1036.980132 526.762961 
L 1058.566205 541.209034 
L 1080.152279 541.209034 
L 1101.738352 540.85931 
" style="fill:none;stroke:#9467bd;stroke-linecap:square;stroke-width:1.5;"/>
   </g>
   <g id="line2d_40">
    <path clip-path="url(#paa462e9aed)" d="M 87.192898 541.209034 
L 108.778971 540.539877 
L 130.365045 541.209034 
L 151.951118 541.209034 
L 173.537192 541.209034 
L 195.123265 541.209034 
L 216.709339 541.209034 
L 238.295412 541.209034 
L 259.881486 541.209034 
L 281.467559 541.20628 
L 303.053633 540.823512 
L 324.639706 539.978116 
L 346.22578 530.521804 
L 367.811853 449.388626 
L 389.397927 405.634594 
L 410.984 418.213637 
L 432.570074 372.702724 
L 454.156147 253.639656 
L 475.742221 541.209034 
L 497.328294 541.209034 
L 518.914368 541.209034 
L 540.500441 541.209034 
L 562.086515 541.209034 
L 583.672588 541.209034 
L 605.258662 541.209034 
L 626.844735 541.209034 
L 648.430809 541.209034 
L 670.016882 541.209034 
L 691.602956 541.209034 
L 713.189029 541.209034 
L 734.775103 541.209034 
L 756.361176 541.209034 
L 777.94725 541.209034 
L 799.533323 541.209034 
L 821.119397 541.209034 
L 842.70547 541.209034 
L 864.291544 541.209034 
L 885.877617 541.209034 
L 907.463691 541.209034 
L 929.049764 528.090259 
L 950.635838 541.209034 
L 972.221911 531.414013 
L 993.807985 511.672515 
L 1015.394058 541.209034 
L 1036.980132 541.178743 
L 1058.566205 541.209034 
L 1080.152279 541.209034 
L 1101.738352 541.209034 
" style="fill:none;stroke:#8c564b;stroke-linecap:square;stroke-width:1.5;"/>
   </g>
   <g id="line2d_41">
    <path clip-path="url(#paa462e9aed)" d="M 87.192898 541.209034 
L 108.778971 541.209034 
L 130.365045 541.209034 
L 151.951118 455.512924 
L 173.537192 541.209034 
L 195.123265 541.209034 
L 216.709339 541.209034 
L 238.295412 540.928154 
L 259.881486 468.13052 
L 281.467559 540.41596 
L 303.053633 498.096621 
L 324.639706 436.592038 
L 346.22578 518.019865 
L 367.811853 473.34884 
L 389.397927 415.355265 
L 410.984 205.697198 
L 432.570074 541.209034 
L 454.156147 541.209034 
L 475.742221 541.209034 
L 497.328294 541.209034 
L 518.914368 541.209034 
L 540.500441 541.209034 
L 562.086515 541.209034 
L 583.672588 541.209034 
L 605.258662 541.209034 
L 626.844735 541.209034 
L 648.430809 541.209034 
L 670.016882 541.209034 
L 691.602956 541.209034 
L 713.189029 541.209034 
L 734.775103 541.209034 
L 756.361176 541.209034 
L 777.94725 541.209034 
L 799.533323 541.209034 
L 821.119397 541.209034 
L 842.70547 541.209034 
L 864.291544 541.209034 
L 885.877617 541.209034 
L 907.463691 541.209034 
L 929.049764 537.240908 
L 950.635838 541.209034 
L 972.221911 539.416355 
L 993.807985 541.030042 
L 1015.394058 461.849259 
L 1036.980132 538.301094 
L 1058.566205 541.209034 
L 1080.152279 541.209034 
L 1101.738352 540.113049 
" style="fill:none;stroke:#e377c2;stroke-linecap:square;stroke-width:1.5;"/>
   </g>
   <g id="line2d_42">
    <path clip-path="url(#paa462e9aed)" d="M 87.192898 541.209034 
L 108.778971 540.151601 
L 130.365045 541.175989 
L 151.951118 541.209034 
L 173.537192 541.209034 
L 195.123265 541.209034 
L 216.709339 541.209034 
L 238.295412 541.209034 
L 259.881486 541.209034 
L 281.467559 541.156713 
L 303.053633 521.707111 
L 324.639706 497.105278 
L 346.22578 492.159577 
L 367.811853 256.431939 
L 389.397927 446.20256 
L 410.984 533.735408 
L 432.570074 541.209034 
L 454.156147 541.209034 
L 475.742221 541.209034 
L 497.328294 541.209034 
L 518.914368 541.209034 
L 540.500441 541.209034 
L 562.086515 541.209034 
L 583.672588 541.209034 
L 605.258662 541.209034 
L 626.844735 541.209034 
L 648.430809 541.209034 
L 670.016882 541.209034 
L 691.602956 541.209034 
L 713.189029 541.209034 
L 734.775103 541.209034 
L 756.361176 541.209034 
L 777.94725 541.209034 
L 799.533323 541.209034 
L 821.119397 541.209034 
L 842.70547 539.154751 
L 864.291544 541.209034 
L 885.877617 541.209034 
L 907.463691 541.209034 
L 929.049764 537.271199 
L 950.635838 526.286566 
L 972.221911 541.209034 
L 993.807985 538.276311 
L 1015.394058 528.115043 
L 1036.980132 541.181497 
L 1058.566205 541.209034 
L 1080.152279 541.209034 
L 1101.738352 541.209034 
" style="fill:none;stroke:#7f7f7f;stroke-linecap:square;stroke-width:1.5;"/>
   </g>
   <g id="line2d_43">
    <path clip-path="url(#paa462e9aed)" d="M 87.192898 541.209034 
L 108.778971 541.209034 
L 130.365045 541.209034 
L 151.951118 540.966706 
L 173.537192 540.71887 
L 195.123265 518.799171 
L 216.709339 326.591498 
L 238.295412 450.093582 
L 259.881486 534.922266 
L 281.467559 539.482445 
L 303.053633 522.860924 
L 324.639706 457.035737 
L 346.22578 418.334801 
L 367.811853 541.209034 
L 389.397927 535.332572 
L 410.984 541.209034 
L 432.570074 541.209034 
L 454.156147 541.209034 
L 475.742221 535.726356 
L 497.328294 541.209034 
L 518.914368 541.209034 
L 540.500441 541.209034 
L 562.086515 541.209034 
L 583.672588 541.209034 
L 605.258662 541.209034 
L 626.844735 541.209034 
L 648.430809 541.209034 
L 670.016882 541.209034 
L 691.602956 541.209034 
L 713.189029 541.209034 
L 734.775103 541.209034 
L 756.361176 541.209034 
L 777.94725 541.209034 
L 799.533323 541.209034 
L 821.119397 541.209034 
L 842.70547 541.209034 
L 864.291544 541.209034 
L 885.877617 541.209034 
L 907.463691 539.438385 
L 929.049764 507.150889 
L 950.635838 540.853803 
L 972.221911 530.637461 
L 993.807985 532.251147 
L 1015.394058 541.209034 
L 1036.980132 517.149686 
L 1058.566205 540.303057 
L 1080.152279 541.192512 
L 1101.738352 541.209034 
" style="fill:none;stroke:#bcbd22;stroke-linecap:square;stroke-width:1.5;"/>
   </g>
   <g id="line2d_44">
    <path clip-path="url(#paa462e9aed)" d="M 87.192898 541.203527 
L 108.778971 541.209034 
L 130.365045 541.209034 
L 151.951118 541.209034 
L 173.537192 541.209034 
L 195.123265 541.209034 
L 216.709339 541.164974 
L 238.295412 541.209034 
L 259.881486 541.209034 
L 281.467559 539.967101 
L 303.053633 534.200789 
L 324.639706 494.883017 
L 346.22578 526.17917 
L 367.811853 530.951386 
L 389.397927 375.236157 
L 410.984 394.47923 
L 432.570074 290.580957 
L 454.156147 381.302626 
L 475.742221 541.209034 
L 497.328294 541.209034 
L 518.914368 541.209034 
L 540.500441 541.209034 
L 562.086515 541.209034 
L 583.672588 541.209034 
L 605.258662 541.209034 
L 626.844735 541.209034 
L 648.430809 541.209034 
L 670.016882 541.209034 
L 691.602956 541.209034 
L 713.189029 541.209034 
L 734.775103 541.209034 
L 756.361176 541.209034 
L 777.94725 541.209034 
L 799.533323 541.209034 
L 821.119397 541.209034 
L 842.70547 541.209034 
L 864.291544 541.209034 
L 885.877617 541.209034 
L 907.463691 541.209034 
L 929.049764 541.209034 
L 950.635838 541.209034 
L 972.221911 525.763357 
L 993.807985 528.682312 
L 1015.394058 541.093377 
L 1036.980132 432.698263 
L 1058.566205 541.209034 
L 1080.152279 541.209034 
L 1101.738352 537.728318 
" style="fill:none;stroke:#17becf;stroke-linecap:square;stroke-width:1.5;"/>
   </g>
   <g id="line2d_45">
    <path clip-path="url(#paa462e9aed)" d="M 87.192898 541.208851 
L 108.778971 539.125469 
L 130.365045 540.94027 
L 151.951118 537.473414 
L 173.537192 541.126147 
L 195.123265 539.617378 
L 216.709339 532.480716 
L 238.295412 536.923035 
L 259.881486 531.159017 
L 281.467559 533.841243 
L 303.053633 526.922402 
L 324.639706 500.148885 
L 346.22578 490.64172 
L 367.811853 467.938493 
L 389.397927 393.470079 
L 410.984 398.758895 
L 432.570074 364.420511 
L 454.156147 440.24679 
L 475.742221 494.593233 
L 497.328294 527.795794 
L 518.914368 541.209034 
L 540.500441 541.209034 
L 562.086515 541.209034 
L 583.672588 541.209034 
L 605.258662 541.209034 
L 626.844735 541.209034 
L 648.430809 541.209034 
L 670.016882 541.209034 
L 691.602956 541.209034 
L 713.189029 541.209034 
L 734.775103 541.209034 
L 756.361176 541.209034 
L 777.94725 541.209034 
L 799.533323 541.209034 
L 821.119397 541.209034 
L 842.70547 541.140558 
L 864.291544 541.209034 
L 885.877617 540.728233 
L 907.463691 538.332762 
L 929.049764 533.373384 
L 950.635838 524.365287 
L 972.221911 532.779037 
L 993.807985 530.176761 
L 1015.394058 529.578651 
L 1036.980132 531.657443 
L 1058.566205 538.714337 
L 1080.152279 537.787707 
L 1101.738352 539.552022 
" style="fill:none;stroke:#000000;stroke-dasharray:11.1,4.8;stroke-dashoffset:0;stroke-width:3;"/>
   </g>
   <g id="patch_3">
    <path d="M 36.465625 565.918125 
L 36.465625 22.318125 
" style="fill:none;stroke:#000000;stroke-linecap:square;stroke-linejoin:miter;stroke-width:0.8;"/>
   </g>
   <g id="patch_4">
    <path d="M 1152.465625 565.918125 
L 1152.465625 22.318125 
" style="fill:none;stroke:#000000;stroke-linecap:square;stroke-linejoin:miter;stroke-width:0.8;"/>
   </g>
   <g id="patch_5">
    <path d="M 36.465625 565.918125 
L 1152.465625 565.918125 
" style="fill:none;stroke:#000000;stroke-linecap:square;stroke-linejoin:miter;stroke-width:0.8;"/>
   </g>
   <g id="patch_6">
    <path d="M 36.465625 22.318125 
L 1152.465625 22.318125 
" style="fill:none;stroke:#000000;stroke-linecap:square;stroke-linejoin:miter;stroke-width:0.8;"/>
   </g>
   <g id="text_15">
    <!-- Quarter monthly Snow melt per year -->
    <g transform="translate(483.961563 16.318125)scale(0.12 -0.12)">
     <defs>
      <path d="M 2522 4238 
Q 1834 4238 1429 3725 
Q 1025 3213 1025 2328 
Q 1025 1447 1429 934 
Q 1834 422 2522 422 
Q 3209 422 3611 934 
Q 4013 1447 4013 2328 
Q 4013 3213 3611 3725 
Q 3209 4238 2522 4238 
z
M 3406 84 
L 4238 -825 
L 3475 -825 
L 2784 -78 
Q 2681 -84 2626 -87 
Q 2572 -91 2522 -91 
Q 1538 -91 948 567 
Q 359 1225 359 2328 
Q 359 3434 948 4092 
Q 1538 4750 2522 4750 
Q 3503 4750 4090 4092 
Q 4678 3434 4678 2328 
Q 4678 1516 4351 937 
Q 4025 359 3406 84 
z
" id="DejaVuSans-51" transform="scale(0.015625)"/>
      <path d="M 544 1381 
L 544 3500 
L 1119 3500 
L 1119 1403 
Q 1119 906 1312 657 
Q 1506 409 1894 409 
Q 2359 409 2629 706 
Q 2900 1003 2900 1516 
L 2900 3500 
L 3475 3500 
L 3475 0 
L 2900 0 
L 2900 538 
Q 2691 219 2414 64 
Q 2138 -91 1772 -91 
Q 1169 -91 856 284 
Q 544 659 544 1381 
z
M 1991 3584 
L 1991 3584 
z
" id="DejaVuSans-75" transform="scale(0.015625)"/>
      <path d="M 2194 1759 
Q 1497 1759 1228 1600 
Q 959 1441 959 1056 
Q 959 750 1161 570 
Q 1363 391 1709 391 
Q 2188 391 2477 730 
Q 2766 1069 2766 1631 
L 2766 1759 
L 2194 1759 
z
M 3341 1997 
L 3341 0 
L 2766 0 
L 2766 531 
Q 2569 213 2275 61 
Q 1981 -91 1556 -91 
Q 1019 -91 701 211 
Q 384 513 384 1019 
Q 384 1609 779 1909 
Q 1175 2209 1959 2209 
L 2766 2209 
L 2766 2266 
Q 2766 2663 2505 2880 
Q 2244 3097 1772 3097 
Q 1472 3097 1187 3025 
Q 903 2953 641 2809 
L 641 3341 
Q 956 3463 1253 3523 
Q 1550 3584 1831 3584 
Q 2591 3584 2966 3190 
Q 3341 2797 3341 1997 
z
" id="DejaVuSans-61" transform="scale(0.015625)"/>
      <path d="M 2631 2963 
Q 2534 3019 2420 3045 
Q 2306 3072 2169 3072 
Q 1681 3072 1420 2755 
Q 1159 2438 1159 1844 
L 1159 0 
L 581 0 
L 581 3500 
L 1159 3500 
L 1159 2956 
Q 1341 3275 1631 3429 
Q 1922 3584 2338 3584 
Q 2397 3584 2469 3576 
Q 2541 3569 2628 3553 
L 2631 2963 
z
" id="DejaVuSans-72" transform="scale(0.015625)"/>
      <path d="M 1172 4494 
L 1172 3500 
L 2356 3500 
L 2356 3053 
L 1172 3053 
L 1172 1153 
Q 1172 725 1289 603 
Q 1406 481 1766 481 
L 2356 481 
L 2356 0 
L 1766 0 
Q 1100 0 847 248 
Q 594 497 594 1153 
L 594 3053 
L 172 3053 
L 172 3500 
L 594 3500 
L 594 4494 
L 1172 4494 
z
" id="DejaVuSans-74" transform="scale(0.015625)"/>
      <path d="M 3597 1894 
L 3597 1613 
L 953 1613 
Q 991 1019 1311 708 
Q 1631 397 2203 397 
Q 2534 397 2845 478 
Q 3156 559 3463 722 
L 3463 178 
Q 3153 47 2828 -22 
Q 2503 -91 2169 -91 
Q 1331 -91 842 396 
Q 353 884 353 1716 
Q 353 2575 817 3079 
Q 1281 3584 2069 3584 
Q 2775 3584 3186 3129 
Q 3597 2675 3597 1894 
z
M 3022 2063 
Q 3016 2534 2758 2815 
Q 2500 3097 2075 3097 
Q 1594 3097 1305 2825 
Q 1016 2553 972 2059 
L 3022 2063 
z
" id="DejaVuSans-65" transform="scale(0.015625)"/>
      <path id="DejaVuSans-20" transform="scale(0.015625)"/>
      <path d="M 3328 2828 
Q 3544 3216 3844 3400 
Q 4144 3584 4550 3584 
Q 5097 3584 5394 3201 
Q 5691 2819 5691 2113 
L 5691 0 
L 5113 0 
L 5113 2094 
Q 5113 2597 4934 2840 
Q 4756 3084 4391 3084 
Q 3944 3084 3684 2787 
Q 3425 2491 3425 1978 
L 3425 0 
L 2847 0 
L 2847 2094 
Q 2847 2600 2669 2842 
Q 2491 3084 2119 3084 
Q 1678 3084 1418 2786 
Q 1159 2488 1159 1978 
L 1159 0 
L 581 0 
L 581 3500 
L 1159 3500 
L 1159 2956 
Q 1356 3278 1631 3431 
Q 1906 3584 2284 3584 
Q 2666 3584 2933 3390 
Q 3200 3197 3328 2828 
z
" id="DejaVuSans-6d" transform="scale(0.015625)"/>
      <path d="M 1959 3097 
Q 1497 3097 1228 2736 
Q 959 2375 959 1747 
Q 959 1119 1226 758 
Q 1494 397 1959 397 
Q 2419 397 2687 759 
Q 2956 1122 2956 1747 
Q 2956 2369 2687 2733 
Q 2419 3097 1959 3097 
z
M 1959 3584 
Q 2709 3584 3137 3096 
Q 3566 2609 3566 1747 
Q 3566 888 3137 398 
Q 2709 -91 1959 -91 
Q 1206 -91 779 398 
Q 353 888 353 1747 
Q 353 2609 779 3096 
Q 1206 3584 1959 3584 
z
" id="DejaVuSans-6f" transform="scale(0.015625)"/>
      <path d="M 3513 2113 
L 3513 0 
L 2938 0 
L 2938 2094 
Q 2938 2591 2744 2837 
Q 2550 3084 2163 3084 
Q 1697 3084 1428 2787 
Q 1159 2491 1159 1978 
L 1159 0 
L 581 0 
L 581 3500 
L 1159 3500 
L 1159 2956 
Q 1366 3272 1645 3428 
Q 1925 3584 2291 3584 
Q 2894 3584 3203 3211 
Q 3513 2838 3513 2113 
z
" id="DejaVuSans-6e" transform="scale(0.015625)"/>
      <path d="M 3513 2113 
L 3513 0 
L 2938 0 
L 2938 2094 
Q 2938 2591 2744 2837 
Q 2550 3084 2163 3084 
Q 1697 3084 1428 2787 
Q 1159 2491 1159 1978 
L 1159 0 
L 581 0 
L 581 4863 
L 1159 4863 
L 1159 2956 
Q 1366 3272 1645 3428 
Q 1925 3584 2291 3584 
Q 2894 3584 3203 3211 
Q 3513 2838 3513 2113 
z
" id="DejaVuSans-68" transform="scale(0.015625)"/>
      <path d="M 603 4863 
L 1178 4863 
L 1178 0 
L 603 0 
L 603 4863 
z
" id="DejaVuSans-6c" transform="scale(0.015625)"/>
      <path d="M 2059 -325 
Q 1816 -950 1584 -1140 
Q 1353 -1331 966 -1331 
L 506 -1331 
L 506 -850 
L 844 -850 
Q 1081 -850 1212 -737 
Q 1344 -625 1503 -206 
L 1606 56 
L 191 3500 
L 800 3500 
L 1894 763 
L 2988 3500 
L 3597 3500 
L 2059 -325 
z
" id="DejaVuSans-79" transform="scale(0.015625)"/>
      <path d="M 3425 4513 
L 3425 3897 
Q 3066 4069 2747 4153 
Q 2428 4238 2131 4238 
Q 1616 4238 1336 4038 
Q 1056 3838 1056 3469 
Q 1056 3159 1242 3001 
Q 1428 2844 1947 2747 
L 2328 2669 
Q 3034 2534 3370 2195 
Q 3706 1856 3706 1288 
Q 3706 609 3251 259 
Q 2797 -91 1919 -91 
Q 1588 -91 1214 -16 
Q 841 59 441 206 
L 441 856 
Q 825 641 1194 531 
Q 1563 422 1919 422 
Q 2459 422 2753 634 
Q 3047 847 3047 1241 
Q 3047 1584 2836 1778 
Q 2625 1972 2144 2069 
L 1759 2144 
Q 1053 2284 737 2584 
Q 422 2884 422 3419 
Q 422 4038 858 4394 
Q 1294 4750 2059 4750 
Q 2388 4750 2728 4690 
Q 3069 4631 3425 4513 
z
" id="DejaVuSans-53" transform="scale(0.015625)"/>
      <path d="M 269 3500 
L 844 3500 
L 1563 769 
L 2278 3500 
L 2956 3500 
L 3675 769 
L 4391 3500 
L 4966 3500 
L 4050 0 
L 3372 0 
L 2619 2869 
L 1863 0 
L 1184 0 
L 269 3500 
z
" id="DejaVuSans-77" transform="scale(0.015625)"/>
      <path d="M 1159 525 
L 1159 -1331 
L 581 -1331 
L 581 3500 
L 1159 3500 
L 1159 2969 
Q 1341 3281 1617 3432 
Q 1894 3584 2278 3584 
Q 2916 3584 3314 3078 
Q 3713 2572 3713 1747 
Q 3713 922 3314 415 
Q 2916 -91 2278 -91 
Q 1894 -91 1617 61 
Q 1341 213 1159 525 
z
M 3116 1747 
Q 3116 2381 2855 2742 
Q 2594 3103 2138 3103 
Q 1681 3103 1420 2742 
Q 1159 2381 1159 1747 
Q 1159 1113 1420 752 
Q 1681 391 2138 391 
Q 2594 391 2855 752 
Q 3116 1113 3116 1747 
z
" id="DejaVuSans-70" transform="scale(0.015625)"/>
     </defs>
     <use xlink:href="#DejaVuSans-51"/>
     <use x="78.710938" xlink:href="#DejaVuSans-75"/>
     <use x="142.089844" xlink:href="#DejaVuSans-61"/>
     <use x="203.369141" xlink:href="#DejaVuSans-72"/>
     <use x="244.482422" xlink:href="#DejaVuSans-74"/>
     <use x="283.691406" xlink:href="#DejaVuSans-65"/>
     <use x="345.214844" xlink:href="#DejaVuSans-72"/>
     <use x="386.328125" xlink:href="#DejaVuSans-20"/>
     <use x="418.115234" xlink:href="#DejaVuSans-6d"/>
     <use x="515.527344" xlink:href="#DejaVuSans-6f"/>
     <use x="576.708984" xlink:href="#DejaVuSans-6e"/>
     <use x="640.087891" xlink:href="#DejaVuSans-74"/>
     <use x="679.296875" xlink:href="#DejaVuSans-68"/>
     <use x="742.675781" xlink:href="#DejaVuSans-6c"/>
     <use x="770.458984" xlink:href="#DejaVuSans-79"/>
     <use x="829.638672" xlink:href="#DejaVuSans-20"/>
     <use x="861.425781" xlink:href="#DejaVuSans-53"/>
     <use x="924.902344" xlink:href="#DejaVuSans-6e"/>
     <use x="988.28125" xlink:href="#DejaVuSans-6f"/>
     <use x="1049.462891" xlink:href="#DejaVuSans-77"/>
     <use x="1131.25" xlink:href="#DejaVuSans-20"/>
     <use x="1163.037109" xlink:href="#DejaVuSans-6d"/>
     <use x="1260.449219" xlink:href="#DejaVuSans-65"/>
     <use x="1321.972656" xlink:href="#DejaVuSans-6c"/>
     <use x="1349.755859" xlink:href="#DejaVuSans-74"/>
     <use x="1388.964844" xlink:href="#DejaVuSans-20"/>
     <use x="1420.751953" xlink:href="#DejaVuSans-70"/>
     <use x="1484.228516" xlink:href="#DejaVuSans-65"/>
     <use x="1545.751953" xlink:href="#DejaVuSans-72"/>
     <use x="1586.865234" xlink:href="#DejaVuSans-20"/>
     <use x="1618.652344" xlink:href="#DejaVuSans-79"/>
     <use x="1677.832031" xlink:href="#DejaVuSans-65"/>
     <use x="1739.355469" xlink:href="#DejaVuSans-61"/>
     <use x="1800.634766" xlink:href="#DejaVuSans-72"/>
    </g>
   </g>
   <g id="legend_1">
    <g id="patch_7">
     <path d="M 43.465625 485.34 
L 110.45625 485.34 
Q 112.45625 485.34 112.45625 483.34 
L 112.45625 29.318125 
Q 112.45625 27.318125 110.45625 27.318125 
L 43.465625 27.318125 
Q 41.465625 27.318125 41.465625 29.318125 
L 41.465625 483.34 
Q 41.465625 485.34 43.465625 485.34 
z
" style="fill:#ffffff;opacity:0.8;stroke:#cccccc;stroke-linejoin:miter;"/>
    </g>
    <g id="line2d_46">
     <path d="M 45.465625 35.416562 
L 65.465625 35.416562 
" style="fill:none;stroke:#1f77b4;stroke-linecap:square;stroke-width:1.5;"/>
    </g>
    <g id="line2d_47"/>
    <g id="text_16">
     <!-- 1953.0 -->
     <g transform="translate(73.465625 38.916562)scale(0.1 -0.1)">
      <defs>
       <path d="M 703 97 
L 703 672 
Q 941 559 1184 500 
Q 1428 441 1663 441 
Q 2288 441 2617 861 
Q 2947 1281 2994 2138 
Q 2813 1869 2534 1725 
Q 2256 1581 1919 1581 
Q 1219 1581 811 2004 
Q 403 2428 403 3163 
Q 403 3881 828 4315 
Q 1253 4750 1959 4750 
Q 2769 4750 3195 4129 
Q 3622 3509 3622 2328 
Q 3622 1225 3098 567 
Q 2575 -91 1691 -91 
Q 1453 -91 1209 -44 
Q 966 3 703 97 
z
M 1959 2075 
Q 2384 2075 2632 2365 
Q 2881 2656 2881 3163 
Q 2881 3666 2632 3958 
Q 2384 4250 1959 4250 
Q 1534 4250 1286 3958 
Q 1038 3666 1038 3163 
Q 1038 2656 1286 2365 
Q 1534 2075 1959 2075 
z
" id="DejaVuSans-39" transform="scale(0.015625)"/>
      </defs>
      <use xlink:href="#DejaVuSans-31"/>
      <use x="63.623047" xlink:href="#DejaVuSans-39"/>
      <use x="127.246094" xlink:href="#DejaVuSans-35"/>
      <use x="190.869141" xlink:href="#DejaVuSans-33"/>
      <use x="254.492188" xlink:href="#DejaVuSans-2e"/>
      <use x="286.279297" xlink:href="#DejaVuSans-30"/>
     </g>
    </g>
    <g id="line2d_48">
     <path d="M 45.465625 50.094687 
L 65.465625 50.094687 
" style="fill:none;stroke:#ff7f0e;stroke-linecap:square;stroke-width:1.5;"/>
    </g>
    <g id="line2d_49"/>
    <g id="text_17">
     <!-- 1954.0 -->
     <g transform="translate(73.465625 53.594687)scale(0.1 -0.1)">
      <use xlink:href="#DejaVuSans-31"/>
      <use x="63.623047" xlink:href="#DejaVuSans-39"/>
      <use x="127.246094" xlink:href="#DejaVuSans-35"/>
      <use x="190.869141" xlink:href="#DejaVuSans-34"/>
      <use x="254.492188" xlink:href="#DejaVuSans-2e"/>
      <use x="286.279297" xlink:href="#DejaVuSans-30"/>
     </g>
    </g>
    <g id="line2d_50">
     <path d="M 45.465625 64.772812 
L 65.465625 64.772812 
" style="fill:none;stroke:#2ca02c;stroke-linecap:square;stroke-width:1.5;"/>
    </g>
    <g id="line2d_51"/>
    <g id="text_18">
     <!-- 1955.0 -->
     <g transform="translate(73.465625 68.272812)scale(0.1 -0.1)">
      <use xlink:href="#DejaVuSans-31"/>
      <use x="63.623047" xlink:href="#DejaVuSans-39"/>
      <use x="127.246094" xlink:href="#DejaVuSans-35"/>
      <use x="190.869141" xlink:href="#DejaVuSans-35"/>
      <use x="254.492188" xlink:href="#DejaVuSans-2e"/>
      <use x="286.279297" xlink:href="#DejaVuSans-30"/>
     </g>
    </g>
    <g id="line2d_52">
     <path d="M 45.465625 79.450937 
L 65.465625 79.450937 
" style="fill:none;stroke:#d62728;stroke-linecap:square;stroke-width:1.5;"/>
    </g>
    <g id="line2d_53"/>
    <g id="text_19">
     <!-- 1956.0 -->
     <g transform="translate(73.465625 82.950937)scale(0.1 -0.1)">
      <defs>
       <path d="M 2113 2584 
Q 1688 2584 1439 2293 
Q 1191 2003 1191 1497 
Q 1191 994 1439 701 
Q 1688 409 2113 409 
Q 2538 409 2786 701 
Q 3034 994 3034 1497 
Q 3034 2003 2786 2293 
Q 2538 2584 2113 2584 
z
M 3366 4563 
L 3366 3988 
Q 3128 4100 2886 4159 
Q 2644 4219 2406 4219 
Q 1781 4219 1451 3797 
Q 1122 3375 1075 2522 
Q 1259 2794 1537 2939 
Q 1816 3084 2150 3084 
Q 2853 3084 3261 2657 
Q 3669 2231 3669 1497 
Q 3669 778 3244 343 
Q 2819 -91 2113 -91 
Q 1303 -91 875 529 
Q 447 1150 447 2328 
Q 447 3434 972 4092 
Q 1497 4750 2381 4750 
Q 2619 4750 2861 4703 
Q 3103 4656 3366 4563 
z
" id="DejaVuSans-36" transform="scale(0.015625)"/>
      </defs>
      <use xlink:href="#DejaVuSans-31"/>
      <use x="63.623047" xlink:href="#DejaVuSans-39"/>
      <use x="127.246094" xlink:href="#DejaVuSans-35"/>
      <use x="190.869141" xlink:href="#DejaVuSans-36"/>
      <use x="254.492188" xlink:href="#DejaVuSans-2e"/>
      <use x="286.279297" xlink:href="#DejaVuSans-30"/>
     </g>
    </g>
    <g id="line2d_54">
     <path d="M 45.465625 94.129062 
L 65.465625 94.129062 
" style="fill:none;stroke:#9467bd;stroke-linecap:square;stroke-width:1.5;"/>
    </g>
    <g id="line2d_55"/>
    <g id="text_20">
     <!-- 1957.0 -->
     <g transform="translate(73.465625 97.629062)scale(0.1 -0.1)">
      <use xlink:href="#DejaVuSans-31"/>
      <use x="63.623047" xlink:href="#DejaVuSans-39"/>
      <use x="127.246094" xlink:href="#DejaVuSans-35"/>
      <use x="190.869141" xlink:href="#DejaVuSans-37"/>
      <use x="254.492188" xlink:href="#DejaVuSans-2e"/>
      <use x="286.279297" xlink:href="#DejaVuSans-30"/>
     </g>
    </g>
    <g id="line2d_56">
     <path d="M 45.465625 108.807187 
L 65.465625 108.807187 
" style="fill:none;stroke:#8c564b;stroke-linecap:square;stroke-width:1.5;"/>
    </g>
    <g id="line2d_57"/>
    <g id="text_21">
     <!-- 1958.0 -->
     <g transform="translate(73.465625 112.307187)scale(0.1 -0.1)">
      <defs>
       <path d="M 2034 2216 
Q 1584 2216 1326 1975 
Q 1069 1734 1069 1313 
Q 1069 891 1326 650 
Q 1584 409 2034 409 
Q 2484 409 2743 651 
Q 3003 894 3003 1313 
Q 3003 1734 2745 1975 
Q 2488 2216 2034 2216 
z
M 1403 2484 
Q 997 2584 770 2862 
Q 544 3141 544 3541 
Q 544 4100 942 4425 
Q 1341 4750 2034 4750 
Q 2731 4750 3128 4425 
Q 3525 4100 3525 3541 
Q 3525 3141 3298 2862 
Q 3072 2584 2669 2484 
Q 3125 2378 3379 2068 
Q 3634 1759 3634 1313 
Q 3634 634 3220 271 
Q 2806 -91 2034 -91 
Q 1263 -91 848 271 
Q 434 634 434 1313 
Q 434 1759 690 2068 
Q 947 2378 1403 2484 
z
M 1172 3481 
Q 1172 3119 1398 2916 
Q 1625 2713 2034 2713 
Q 2441 2713 2670 2916 
Q 2900 3119 2900 3481 
Q 2900 3844 2670 4047 
Q 2441 4250 2034 4250 
Q 1625 4250 1398 4047 
Q 1172 3844 1172 3481 
z
" id="DejaVuSans-38" transform="scale(0.015625)"/>
      </defs>
      <use xlink:href="#DejaVuSans-31"/>
      <use x="63.623047" xlink:href="#DejaVuSans-39"/>
      <use x="127.246094" xlink:href="#DejaVuSans-35"/>
      <use x="190.869141" xlink:href="#DejaVuSans-38"/>
      <use x="254.492188" xlink:href="#DejaVuSans-2e"/>
      <use x="286.279297" xlink:href="#DejaVuSans-30"/>
     </g>
    </g>
    <g id="line2d_58">
     <path d="M 45.465625 123.485312 
L 65.465625 123.485312 
" style="fill:none;stroke:#e377c2;stroke-linecap:square;stroke-width:1.5;"/>
    </g>
    <g id="line2d_59"/>
    <g id="text_22">
     <!-- 1959.0 -->
     <g transform="translate(73.465625 126.985312)scale(0.1 -0.1)">
      <use xlink:href="#DejaVuSans-31"/>
      <use x="63.623047" xlink:href="#DejaVuSans-39"/>
      <use x="127.246094" xlink:href="#DejaVuSans-35"/>
      <use x="190.869141" xlink:href="#DejaVuSans-39"/>
      <use x="254.492188" xlink:href="#DejaVuSans-2e"/>
      <use x="286.279297" xlink:href="#DejaVuSans-30"/>
     </g>
    </g>
    <g id="line2d_60">
     <path d="M 45.465625 138.163437 
L 65.465625 138.163437 
" style="fill:none;stroke:#7f7f7f;stroke-linecap:square;stroke-width:1.5;"/>
    </g>
    <g id="line2d_61"/>
    <g id="text_23">
     <!-- 1960.0 -->
     <g transform="translate(73.465625 141.663437)scale(0.1 -0.1)">
      <use xlink:href="#DejaVuSans-31"/>
      <use x="63.623047" xlink:href="#DejaVuSans-39"/>
      <use x="127.246094" xlink:href="#DejaVuSans-36"/>
      <use x="190.869141" xlink:href="#DejaVuSans-30"/>
      <use x="254.492188" xlink:href="#DejaVuSans-2e"/>
      <use x="286.279297" xlink:href="#DejaVuSans-30"/>
     </g>
    </g>
    <g id="line2d_62">
     <path d="M 45.465625 152.841562 
L 65.465625 152.841562 
" style="fill:none;stroke:#bcbd22;stroke-linecap:square;stroke-width:1.5;"/>
    </g>
    <g id="line2d_63"/>
    <g id="text_24">
     <!-- 1961.0 -->
     <g transform="translate(73.465625 156.341562)scale(0.1 -0.1)">
      <use xlink:href="#DejaVuSans-31"/>
      <use x="63.623047" xlink:href="#DejaVuSans-39"/>
      <use x="127.246094" xlink:href="#DejaVuSans-36"/>
      <use x="190.869141" xlink:href="#DejaVuSans-31"/>
      <use x="254.492188" xlink:href="#DejaVuSans-2e"/>
      <use x="286.279297" xlink:href="#DejaVuSans-30"/>
     </g>
    </g>
    <g id="line2d_64">
     <path d="M 45.465625 167.519687 
L 65.465625 167.519687 
" style="fill:none;stroke:#17becf;stroke-linecap:square;stroke-width:1.5;"/>
    </g>
    <g id="line2d_65"/>
    <g id="text_25">
     <!-- 1962.0 -->
     <g transform="translate(73.465625 171.019687)scale(0.1 -0.1)">
      <use xlink:href="#DejaVuSans-31"/>
      <use x="63.623047" xlink:href="#DejaVuSans-39"/>
      <use x="127.246094" xlink:href="#DejaVuSans-36"/>
      <use x="190.869141" xlink:href="#DejaVuSans-32"/>
      <use x="254.492188" xlink:href="#DejaVuSans-2e"/>
      <use x="286.279297" xlink:href="#DejaVuSans-30"/>
     </g>
    </g>
    <g id="line2d_66">
     <path d="M 45.465625 182.197812 
L 65.465625 182.197812 
" style="fill:none;stroke:#1f77b4;stroke-linecap:square;stroke-width:1.5;"/>
    </g>
    <g id="line2d_67"/>
    <g id="text_26">
     <!-- 1963.0 -->
     <g transform="translate(73.465625 185.697812)scale(0.1 -0.1)">
      <use xlink:href="#DejaVuSans-31"/>
      <use x="63.623047" xlink:href="#DejaVuSans-39"/>
      <use x="127.246094" xlink:href="#DejaVuSans-36"/>
      <use x="190.869141" xlink:href="#DejaVuSans-33"/>
      <use x="254.492188" xlink:href="#DejaVuSans-2e"/>
      <use x="286.279297" xlink:href="#DejaVuSans-30"/>
     </g>
    </g>
    <g id="line2d_68">
     <path d="M 45.465625 196.875937 
L 65.465625 196.875937 
" style="fill:none;stroke:#ff7f0e;stroke-linecap:square;stroke-width:1.5;"/>
    </g>
    <g id="line2d_69"/>
    <g id="text_27">
     <!-- 1964.0 -->
     <g transform="translate(73.465625 200.375937)scale(0.1 -0.1)">
      <use xlink:href="#DejaVuSans-31"/>
      <use x="63.623047" xlink:href="#DejaVuSans-39"/>
      <use x="127.246094" xlink:href="#DejaVuSans-36"/>
      <use x="190.869141" xlink:href="#DejaVuSans-34"/>
      <use x="254.492188" xlink:href="#DejaVuSans-2e"/>
      <use x="286.279297" xlink:href="#DejaVuSans-30"/>
     </g>
    </g>
    <g id="line2d_70">
     <path d="M 45.465625 211.554062 
L 65.465625 211.554062 
" style="fill:none;stroke:#2ca02c;stroke-linecap:square;stroke-width:1.5;"/>
    </g>
    <g id="line2d_71"/>
    <g id="text_28">
     <!-- 1965.0 -->
     <g transform="translate(73.465625 215.054062)scale(0.1 -0.1)">
      <use xlink:href="#DejaVuSans-31"/>
      <use x="63.623047" xlink:href="#DejaVuSans-39"/>
      <use x="127.246094" xlink:href="#DejaVuSans-36"/>
      <use x="190.869141" xlink:href="#DejaVuSans-35"/>
      <use x="254.492188" xlink:href="#DejaVuSans-2e"/>
      <use x="286.279297" xlink:href="#DejaVuSans-30"/>
     </g>
    </g>
    <g id="line2d_72">
     <path d="M 45.465625 226.232187 
L 65.465625 226.232187 
" style="fill:none;stroke:#d62728;stroke-linecap:square;stroke-width:1.5;"/>
    </g>
    <g id="line2d_73"/>
    <g id="text_29">
     <!-- 1966.0 -->
     <g transform="translate(73.465625 229.732187)scale(0.1 -0.1)">
      <use xlink:href="#DejaVuSans-31"/>
      <use x="63.623047" xlink:href="#DejaVuSans-39"/>
      <use x="127.246094" xlink:href="#DejaVuSans-36"/>
      <use x="190.869141" xlink:href="#DejaVuSans-36"/>
      <use x="254.492188" xlink:href="#DejaVuSans-2e"/>
      <use x="286.279297" xlink:href="#DejaVuSans-30"/>
     </g>
    </g>
    <g id="line2d_74">
     <path d="M 45.465625 240.910312 
L 65.465625 240.910312 
" style="fill:none;stroke:#9467bd;stroke-linecap:square;stroke-width:1.5;"/>
    </g>
    <g id="line2d_75"/>
    <g id="text_30">
     <!-- 1967.0 -->
     <g transform="translate(73.465625 244.410312)scale(0.1 -0.1)">
      <use xlink:href="#DejaVuSans-31"/>
      <use x="63.623047" xlink:href="#DejaVuSans-39"/>
      <use x="127.246094" xlink:href="#DejaVuSans-36"/>
      <use x="190.869141" xlink:href="#DejaVuSans-37"/>
      <use x="254.492188" xlink:href="#DejaVuSans-2e"/>
      <use x="286.279297" xlink:href="#DejaVuSans-30"/>
     </g>
    </g>
    <g id="line2d_76">
     <path d="M 45.465625 255.588437 
L 65.465625 255.588437 
" style="fill:none;stroke:#8c564b;stroke-linecap:square;stroke-width:1.5;"/>
    </g>
    <g id="line2d_77"/>
    <g id="text_31">
     <!-- 1968.0 -->
     <g transform="translate(73.465625 259.088437)scale(0.1 -0.1)">
      <use xlink:href="#DejaVuSans-31"/>
      <use x="63.623047" xlink:href="#DejaVuSans-39"/>
      <use x="127.246094" xlink:href="#DejaVuSans-36"/>
      <use x="190.869141" xlink:href="#DejaVuSans-38"/>
      <use x="254.492188" xlink:href="#DejaVuSans-2e"/>
      <use x="286.279297" xlink:href="#DejaVuSans-30"/>
     </g>
    </g>
    <g id="line2d_78">
     <path d="M 45.465625 270.266562 
L 65.465625 270.266562 
" style="fill:none;stroke:#e377c2;stroke-linecap:square;stroke-width:1.5;"/>
    </g>
    <g id="line2d_79"/>
    <g id="text_32">
     <!-- 1969.0 -->
     <g transform="translate(73.465625 273.766562)scale(0.1 -0.1)">
      <use xlink:href="#DejaVuSans-31"/>
      <use x="63.623047" xlink:href="#DejaVuSans-39"/>
      <use x="127.246094" xlink:href="#DejaVuSans-36"/>
      <use x="190.869141" xlink:href="#DejaVuSans-39"/>
      <use x="254.492188" xlink:href="#DejaVuSans-2e"/>
      <use x="286.279297" xlink:href="#DejaVuSans-30"/>
     </g>
    </g>
    <g id="line2d_80">
     <path d="M 45.465625 284.944687 
L 65.465625 284.944687 
" style="fill:none;stroke:#7f7f7f;stroke-linecap:square;stroke-width:1.5;"/>
    </g>
    <g id="line2d_81"/>
    <g id="text_33">
     <!-- 1970.0 -->
     <g transform="translate(73.465625 288.444687)scale(0.1 -0.1)">
      <use xlink:href="#DejaVuSans-31"/>
      <use x="63.623047" xlink:href="#DejaVuSans-39"/>
      <use x="127.246094" xlink:href="#DejaVuSans-37"/>
      <use x="190.869141" xlink:href="#DejaVuSans-30"/>
      <use x="254.492188" xlink:href="#DejaVuSans-2e"/>
      <use x="286.279297" xlink:href="#DejaVuSans-30"/>
     </g>
    </g>
    <g id="line2d_82">
     <path d="M 45.465625 299.622812 
L 65.465625 299.622812 
" style="fill:none;stroke:#bcbd22;stroke-linecap:square;stroke-width:1.5;"/>
    </g>
    <g id="line2d_83"/>
    <g id="text_34">
     <!-- 1971.0 -->
     <g transform="translate(73.465625 303.122812)scale(0.1 -0.1)">
      <use xlink:href="#DejaVuSans-31"/>
      <use x="63.623047" xlink:href="#DejaVuSans-39"/>
      <use x="127.246094" xlink:href="#DejaVuSans-37"/>
      <use x="190.869141" xlink:href="#DejaVuSans-31"/>
      <use x="254.492188" xlink:href="#DejaVuSans-2e"/>
      <use x="286.279297" xlink:href="#DejaVuSans-30"/>
     </g>
    </g>
    <g id="line2d_84">
     <path d="M 45.465625 314.300937 
L 65.465625 314.300937 
" style="fill:none;stroke:#17becf;stroke-linecap:square;stroke-width:1.5;"/>
    </g>
    <g id="line2d_85"/>
    <g id="text_35">
     <!-- 1972.0 -->
     <g transform="translate(73.465625 317.800937)scale(0.1 -0.1)">
      <use xlink:href="#DejaVuSans-31"/>
      <use x="63.623047" xlink:href="#DejaVuSans-39"/>
      <use x="127.246094" xlink:href="#DejaVuSans-37"/>
      <use x="190.869141" xlink:href="#DejaVuSans-32"/>
      <use x="254.492188" xlink:href="#DejaVuSans-2e"/>
      <use x="286.279297" xlink:href="#DejaVuSans-30"/>
     </g>
    </g>
    <g id="line2d_86">
     <path d="M 45.465625 328.979062 
L 65.465625 328.979062 
" style="fill:none;stroke:#1f77b4;stroke-linecap:square;stroke-width:1.5;"/>
    </g>
    <g id="line2d_87"/>
    <g id="text_36">
     <!-- 1973.0 -->
     <g transform="translate(73.465625 332.479062)scale(0.1 -0.1)">
      <use xlink:href="#DejaVuSans-31"/>
      <use x="63.623047" xlink:href="#DejaVuSans-39"/>
      <use x="127.246094" xlink:href="#DejaVuSans-37"/>
      <use x="190.869141" xlink:href="#DejaVuSans-33"/>
      <use x="254.492188" xlink:href="#DejaVuSans-2e"/>
      <use x="286.279297" xlink:href="#DejaVuSans-30"/>
     </g>
    </g>
    <g id="line2d_88">
     <path d="M 45.465625 343.657187 
L 65.465625 343.657187 
" style="fill:none;stroke:#ff7f0e;stroke-linecap:square;stroke-width:1.5;"/>
    </g>
    <g id="line2d_89"/>
    <g id="text_37">
     <!-- 1974.0 -->
     <g transform="translate(73.465625 347.157187)scale(0.1 -0.1)">
      <use xlink:href="#DejaVuSans-31"/>
      <use x="63.623047" xlink:href="#DejaVuSans-39"/>
      <use x="127.246094" xlink:href="#DejaVuSans-37"/>
      <use x="190.869141" xlink:href="#DejaVuSans-34"/>
      <use x="254.492188" xlink:href="#DejaVuSans-2e"/>
      <use x="286.279297" xlink:href="#DejaVuSans-30"/>
     </g>
    </g>
    <g id="line2d_90">
     <path d="M 45.465625 358.335312 
L 65.465625 358.335312 
" style="fill:none;stroke:#2ca02c;stroke-linecap:square;stroke-width:1.5;"/>
    </g>
    <g id="line2d_91"/>
    <g id="text_38">
     <!-- 1975.0 -->
     <g transform="translate(73.465625 361.835312)scale(0.1 -0.1)">
      <use xlink:href="#DejaVuSans-31"/>
      <use x="63.623047" xlink:href="#DejaVuSans-39"/>
      <use x="127.246094" xlink:href="#DejaVuSans-37"/>
      <use x="190.869141" xlink:href="#DejaVuSans-35"/>
      <use x="254.492188" xlink:href="#DejaVuSans-2e"/>
      <use x="286.279297" xlink:href="#DejaVuSans-30"/>
     </g>
    </g>
    <g id="line2d_92">
     <path d="M 45.465625 373.013438 
L 65.465625 373.013438 
" style="fill:none;stroke:#d62728;stroke-linecap:square;stroke-width:1.5;"/>
    </g>
    <g id="line2d_93"/>
    <g id="text_39">
     <!-- 1976.0 -->
     <g transform="translate(73.465625 376.513438)scale(0.1 -0.1)">
      <use xlink:href="#DejaVuSans-31"/>
      <use x="63.623047" xlink:href="#DejaVuSans-39"/>
      <use x="127.246094" xlink:href="#DejaVuSans-37"/>
      <use x="190.869141" xlink:href="#DejaVuSans-36"/>
      <use x="254.492188" xlink:href="#DejaVuSans-2e"/>
      <use x="286.279297" xlink:href="#DejaVuSans-30"/>
     </g>
    </g>
    <g id="line2d_94">
     <path d="M 45.465625 387.691563 
L 65.465625 387.691563 
" style="fill:none;stroke:#9467bd;stroke-linecap:square;stroke-width:1.5;"/>
    </g>
    <g id="line2d_95"/>
    <g id="text_40">
     <!-- 1977.0 -->
     <g transform="translate(73.465625 391.191563)scale(0.1 -0.1)">
      <use xlink:href="#DejaVuSans-31"/>
      <use x="63.623047" xlink:href="#DejaVuSans-39"/>
      <use x="127.246094" xlink:href="#DejaVuSans-37"/>
      <use x="190.869141" xlink:href="#DejaVuSans-37"/>
      <use x="254.492188" xlink:href="#DejaVuSans-2e"/>
      <use x="286.279297" xlink:href="#DejaVuSans-30"/>
     </g>
    </g>
    <g id="line2d_96">
     <path d="M 45.465625 402.369688 
L 65.465625 402.369688 
" style="fill:none;stroke:#8c564b;stroke-linecap:square;stroke-width:1.5;"/>
    </g>
    <g id="line2d_97"/>
    <g id="text_41">
     <!-- 1978.0 -->
     <g transform="translate(73.465625 405.869688)scale(0.1 -0.1)">
      <use xlink:href="#DejaVuSans-31"/>
      <use x="63.623047" xlink:href="#DejaVuSans-39"/>
      <use x="127.246094" xlink:href="#DejaVuSans-37"/>
      <use x="190.869141" xlink:href="#DejaVuSans-38"/>
      <use x="254.492188" xlink:href="#DejaVuSans-2e"/>
      <use x="286.279297" xlink:href="#DejaVuSans-30"/>
     </g>
    </g>
    <g id="line2d_98">
     <path d="M 45.465625 417.047813 
L 65.465625 417.047813 
" style="fill:none;stroke:#e377c2;stroke-linecap:square;stroke-width:1.5;"/>
    </g>
    <g id="line2d_99"/>
    <g id="text_42">
     <!-- 1979.0 -->
     <g transform="translate(73.465625 420.547813)scale(0.1 -0.1)">
      <use xlink:href="#DejaVuSans-31"/>
      <use x="63.623047" xlink:href="#DejaVuSans-39"/>
      <use x="127.246094" xlink:href="#DejaVuSans-37"/>
      <use x="190.869141" xlink:href="#DejaVuSans-39"/>
      <use x="254.492188" xlink:href="#DejaVuSans-2e"/>
      <use x="286.279297" xlink:href="#DejaVuSans-30"/>
     </g>
    </g>
    <g id="line2d_100">
     <path d="M 45.465625 431.725938 
L 65.465625 431.725938 
" style="fill:none;stroke:#7f7f7f;stroke-linecap:square;stroke-width:1.5;"/>
    </g>
    <g id="line2d_101"/>
    <g id="text_43">
     <!-- 1980.0 -->
     <g transform="translate(73.465625 435.225938)scale(0.1 -0.1)">
      <use xlink:href="#DejaVuSans-31"/>
      <use x="63.623047" xlink:href="#DejaVuSans-39"/>
      <use x="127.246094" xlink:href="#DejaVuSans-38"/>
      <use x="190.869141" xlink:href="#DejaVuSans-30"/>
      <use x="254.492188" xlink:href="#DejaVuSans-2e"/>
      <use x="286.279297" xlink:href="#DejaVuSans-30"/>
     </g>
    </g>
    <g id="line2d_102">
     <path d="M 45.465625 446.404063 
L 65.465625 446.404063 
" style="fill:none;stroke:#bcbd22;stroke-linecap:square;stroke-width:1.5;"/>
    </g>
    <g id="line2d_103"/>
    <g id="text_44">
     <!-- 1981.0 -->
     <g transform="translate(73.465625 449.904063)scale(0.1 -0.1)">
      <use xlink:href="#DejaVuSans-31"/>
      <use x="63.623047" xlink:href="#DejaVuSans-39"/>
      <use x="127.246094" xlink:href="#DejaVuSans-38"/>
      <use x="190.869141" xlink:href="#DejaVuSans-31"/>
      <use x="254.492188" xlink:href="#DejaVuSans-2e"/>
      <use x="286.279297" xlink:href="#DejaVuSans-30"/>
     </g>
    </g>
    <g id="line2d_104">
     <path d="M 45.465625 461.082188 
L 65.465625 461.082188 
" style="fill:none;stroke:#17becf;stroke-linecap:square;stroke-width:1.5;"/>
    </g>
    <g id="line2d_105"/>
    <g id="text_45">
     <!-- 1982.0 -->
     <g transform="translate(73.465625 464.582188)scale(0.1 -0.1)">
      <use xlink:href="#DejaVuSans-31"/>
      <use x="63.623047" xlink:href="#DejaVuSans-39"/>
      <use x="127.246094" xlink:href="#DejaVuSans-38"/>
      <use x="190.869141" xlink:href="#DejaVuSans-32"/>
      <use x="254.492188" xlink:href="#DejaVuSans-2e"/>
      <use x="286.279297" xlink:href="#DejaVuSans-30"/>
     </g>
    </g>
    <g id="line2d_106">
     <path d="M 45.465625 475.760313 
L 65.465625 475.760313 
" style="fill:none;stroke:#000000;stroke-dasharray:11.1,4.8;stroke-dashoffset:0;stroke-width:3;"/>
    </g>
    <g id="line2d_107"/>
    <g id="text_46">
     <!-- Mean -->
     <g transform="translate(73.465625 479.260313)scale(0.1 -0.1)">
      <defs>
       <path d="M 628 4666 
L 1569 4666 
L 2759 1491 
L 3956 4666 
L 4897 4666 
L 4897 0 
L 4281 0 
L 4281 4097 
L 3078 897 
L 2444 897 
L 1241 4097 
L 1241 0 
L 628 0 
L 628 4666 
z
" id="DejaVuSans-4d" transform="scale(0.015625)"/>
      </defs>
      <use xlink:href="#DejaVuSans-4d"/>
      <use x="86.279297" xlink:href="#DejaVuSans-65"/>
      <use x="147.802734" xlink:href="#DejaVuSans-61"/>
      <use x="209.082031" xlink:href="#DejaVuSans-6e"/>
     </g>
    </g>
   </g>
  </g>
 </g>
 <defs>
  <clipPath id="paa462e9aed">
   <rect height="543.6" width="1116" x="36.465625" y="22.318125"/>
  </clipPath>
 </defs>
</svg>
