<?xml version="1.0" encoding="utf-8" standalone="no"?>
<!DOCTYPE svg PUBLIC "-//W3C//DTD SVG 1.1//EN"
  "http://www.w3.org/Graphics/SVG/1.1/DTD/svg11.dtd">
<svg height="589.79625pt" version="1.1" viewBox="0 0 1162.85 589.79625" width="1162.85pt" xmlns="http://www.w3.org/2000/svg" xmlns:xlink="http://www.w3.org/1999/xlink">
 <metadata>
  <rdf:RDF xmlns:cc="http://creativecommons.org/ns#" xmlns:dc="http://purl.org/dc/elements/1.1/" xmlns:rdf="http://www.w3.org/1999/02/22-rdf-syntax-ns#">
   <cc:Work>
    <dc:type rdf:resource="http://purl.org/dc/dcmitype/StillImage"/>
    <dc:date>2021-04-10T17:47:04.288228</dc:date>
    <dc:format>image/svg+xml</dc:format>
    <dc:creator>
     <cc:Agent>
      <dc:title>Matplotlib v3.4.1, https://matplotlib.org/</dc:title>
     </cc:Agent>
    </dc:creator>
   </cc:Work>
  </rdf:RDF>
 </metadata>
 <defs>
  <style type="text/css">*{stroke-linecap:butt;stroke-linejoin:round;}</style>
 </defs>
 <g id="figure_1">
  <g id="patch_1">
   <path d="M 0 589.79625 
L 1162.85 589.79625 
L 1162.85 0 
L 0 0 
z
" style="fill:none;"/>
  </g>
  <g id="axes_1">
   <g id="patch_2">
    <path d="M 39.65 565.918125 
L 1155.65 565.918125 
L 1155.65 22.318125 
L 39.65 22.318125 
z
" style="fill:#ffffff;"/>
   </g>
   <g id="matplotlib.axis_1">
    <g id="xtick_1">
     <g id="line2d_1">
      <defs>
       <path d="M 0 0 
L 0 3.5 
" id="m1a5863cc5a" style="stroke:#000000;stroke-width:0.8;"/>
      </defs>
      <g>
       <use style="stroke:#000000;stroke-width:0.8;" x="68.791199" xlink:href="#m1a5863cc5a" y="565.918125"/>
      </g>
     </g>
     <g id="text_1">
      <!-- 0 -->
      <g transform="translate(65.609949 580.516562)scale(0.1 -0.1)">
       <defs>
        <path d="M 2034 4250 
Q 1547 4250 1301 3770 
Q 1056 3291 1056 2328 
Q 1056 1369 1301 889 
Q 1547 409 2034 409 
Q 2525 409 2770 889 
Q 3016 1369 3016 2328 
Q 3016 3291 2770 3770 
Q 2525 4250 2034 4250 
z
M 2034 4750 
Q 2819 4750 3233 4129 
Q 3647 3509 3647 2328 
Q 3647 1150 3233 529 
Q 2819 -91 2034 -91 
Q 1250 -91 836 529 
Q 422 1150 422 2328 
Q 422 3509 836 4129 
Q 1250 4750 2034 4750 
z
" id="DejaVuSans-30" transform="scale(0.015625)"/>
       </defs>
       <use xlink:href="#DejaVuSans-30"/>
      </g>
     </g>
    </g>
    <g id="xtick_2">
     <g id="line2d_2">
      <g>
       <use style="stroke:#000000;stroke-width:0.8;" x="284.651934" xlink:href="#m1a5863cc5a" y="565.918125"/>
      </g>
     </g>
     <g id="text_2">
      <!-- 10 -->
      <g transform="translate(278.289434 580.516562)scale(0.1 -0.1)">
       <defs>
        <path d="M 794 531 
L 1825 531 
L 1825 4091 
L 703 3866 
L 703 4441 
L 1819 4666 
L 2450 4666 
L 2450 531 
L 3481 531 
L 3481 0 
L 794 0 
L 794 531 
z
" id="DejaVuSans-31" transform="scale(0.015625)"/>
       </defs>
       <use xlink:href="#DejaVuSans-31"/>
       <use x="63.623047" xlink:href="#DejaVuSans-30"/>
      </g>
     </g>
    </g>
    <g id="xtick_3">
     <g id="line2d_3">
      <g>
       <use style="stroke:#000000;stroke-width:0.8;" x="500.512669" xlink:href="#m1a5863cc5a" y="565.918125"/>
      </g>
     </g>
     <g id="text_3">
      <!-- 20 -->
      <g transform="translate(494.150169 580.516562)scale(0.1 -0.1)">
       <defs>
        <path d="M 1228 531 
L 3431 531 
L 3431 0 
L 469 0 
L 469 531 
Q 828 903 1448 1529 
Q 2069 2156 2228 2338 
Q 2531 2678 2651 2914 
Q 2772 3150 2772 3378 
Q 2772 3750 2511 3984 
Q 2250 4219 1831 4219 
Q 1534 4219 1204 4116 
Q 875 4013 500 3803 
L 500 4441 
Q 881 4594 1212 4672 
Q 1544 4750 1819 4750 
Q 2544 4750 2975 4387 
Q 3406 4025 3406 3419 
Q 3406 3131 3298 2873 
Q 3191 2616 2906 2266 
Q 2828 2175 2409 1742 
Q 1991 1309 1228 531 
z
" id="DejaVuSans-32" transform="scale(0.015625)"/>
       </defs>
       <use xlink:href="#DejaVuSans-32"/>
       <use x="63.623047" xlink:href="#DejaVuSans-30"/>
      </g>
     </g>
    </g>
    <g id="xtick_4">
     <g id="line2d_4">
      <g>
       <use style="stroke:#000000;stroke-width:0.8;" x="716.373404" xlink:href="#m1a5863cc5a" y="565.918125"/>
      </g>
     </g>
     <g id="text_4">
      <!-- 30 -->
      <g transform="translate(710.010904 580.516562)scale(0.1 -0.1)">
       <defs>
        <path d="M 2597 2516 
Q 3050 2419 3304 2112 
Q 3559 1806 3559 1356 
Q 3559 666 3084 287 
Q 2609 -91 1734 -91 
Q 1441 -91 1130 -33 
Q 819 25 488 141 
L 488 750 
Q 750 597 1062 519 
Q 1375 441 1716 441 
Q 2309 441 2620 675 
Q 2931 909 2931 1356 
Q 2931 1769 2642 2001 
Q 2353 2234 1838 2234 
L 1294 2234 
L 1294 2753 
L 1863 2753 
Q 2328 2753 2575 2939 
Q 2822 3125 2822 3475 
Q 2822 3834 2567 4026 
Q 2313 4219 1838 4219 
Q 1578 4219 1281 4162 
Q 984 4106 628 3988 
L 628 4550 
Q 988 4650 1302 4700 
Q 1616 4750 1894 4750 
Q 2613 4750 3031 4423 
Q 3450 4097 3450 3541 
Q 3450 3153 3228 2886 
Q 3006 2619 2597 2516 
z
" id="DejaVuSans-33" transform="scale(0.015625)"/>
       </defs>
       <use xlink:href="#DejaVuSans-33"/>
       <use x="63.623047" xlink:href="#DejaVuSans-30"/>
      </g>
     </g>
    </g>
    <g id="xtick_5">
     <g id="line2d_5">
      <g>
       <use style="stroke:#000000;stroke-width:0.8;" x="932.234139" xlink:href="#m1a5863cc5a" y="565.918125"/>
      </g>
     </g>
     <g id="text_5">
      <!-- 40 -->
      <g transform="translate(925.871639 580.516562)scale(0.1 -0.1)">
       <defs>
        <path d="M 2419 4116 
L 825 1625 
L 2419 1625 
L 2419 4116 
z
M 2253 4666 
L 3047 4666 
L 3047 1625 
L 3713 1625 
L 3713 1100 
L 3047 1100 
L 3047 0 
L 2419 0 
L 2419 1100 
L 313 1100 
L 313 1709 
L 2253 4666 
z
" id="DejaVuSans-34" transform="scale(0.015625)"/>
       </defs>
       <use xlink:href="#DejaVuSans-34"/>
       <use x="63.623047" xlink:href="#DejaVuSans-30"/>
      </g>
     </g>
    </g>
    <g id="xtick_6">
     <g id="line2d_6">
      <g>
       <use style="stroke:#000000;stroke-width:0.8;" x="1148.094874" xlink:href="#m1a5863cc5a" y="565.918125"/>
      </g>
     </g>
     <g id="text_6">
      <!-- 50 -->
      <g transform="translate(1141.732374 580.516562)scale(0.1 -0.1)">
       <defs>
        <path d="M 691 4666 
L 3169 4666 
L 3169 4134 
L 1269 4134 
L 1269 2991 
Q 1406 3038 1543 3061 
Q 1681 3084 1819 3084 
Q 2600 3084 3056 2656 
Q 3513 2228 3513 1497 
Q 3513 744 3044 326 
Q 2575 -91 1722 -91 
Q 1428 -91 1123 -41 
Q 819 9 494 109 
L 494 744 
Q 775 591 1075 516 
Q 1375 441 1709 441 
Q 2250 441 2565 725 
Q 2881 1009 2881 1497 
Q 2881 1984 2565 2268 
Q 2250 2553 1709 2553 
Q 1456 2553 1204 2497 
Q 953 2441 691 2322 
L 691 4666 
z
" id="DejaVuSans-35" transform="scale(0.015625)"/>
       </defs>
       <use xlink:href="#DejaVuSans-35"/>
       <use x="63.623047" xlink:href="#DejaVuSans-30"/>
      </g>
     </g>
    </g>
   </g>
   <g id="matplotlib.axis_2">
    <g id="ytick_1">
     <g id="line2d_7">
      <defs>
       <path d="M 0 0 
L -3.5 0 
" id="m2ed5a13da1" style="stroke:#000000;stroke-width:0.8;"/>
      </defs>
      <g>
       <use style="stroke:#000000;stroke-width:0.8;" x="39.65" xlink:href="#m2ed5a13da1" y="544.901186"/>
      </g>
     </g>
     <g id="text_7">
      <!-- 0 -->
      <g transform="translate(26.2875 548.700405)scale(0.1 -0.1)">
       <use xlink:href="#DejaVuSans-30"/>
      </g>
     </g>
    </g>
    <g id="ytick_2">
     <g id="line2d_8">
      <g>
       <use style="stroke:#000000;stroke-width:0.8;" x="39.65" xlink:href="#m2ed5a13da1" y="477.797621"/>
      </g>
     </g>
     <g id="text_8">
      <!-- 1000 -->
      <g transform="translate(7.2 481.59684)scale(0.1 -0.1)">
       <use xlink:href="#DejaVuSans-31"/>
       <use x="63.623047" xlink:href="#DejaVuSans-30"/>
       <use x="127.246094" xlink:href="#DejaVuSans-30"/>
       <use x="190.869141" xlink:href="#DejaVuSans-30"/>
      </g>
     </g>
    </g>
    <g id="ytick_3">
     <g id="line2d_9">
      <g>
       <use style="stroke:#000000;stroke-width:0.8;" x="39.65" xlink:href="#m2ed5a13da1" y="410.694056"/>
      </g>
     </g>
     <g id="text_9">
      <!-- 2000 -->
      <g transform="translate(7.2 414.493274)scale(0.1 -0.1)">
       <use xlink:href="#DejaVuSans-32"/>
       <use x="63.623047" xlink:href="#DejaVuSans-30"/>
       <use x="127.246094" xlink:href="#DejaVuSans-30"/>
       <use x="190.869141" xlink:href="#DejaVuSans-30"/>
      </g>
     </g>
    </g>
    <g id="ytick_4">
     <g id="line2d_10">
      <g>
       <use style="stroke:#000000;stroke-width:0.8;" x="39.65" xlink:href="#m2ed5a13da1" y="343.59049"/>
      </g>
     </g>
     <g id="text_10">
      <!-- 3000 -->
      <g transform="translate(7.2 347.389709)scale(0.1 -0.1)">
       <use xlink:href="#DejaVuSans-33"/>
       <use x="63.623047" xlink:href="#DejaVuSans-30"/>
       <use x="127.246094" xlink:href="#DejaVuSans-30"/>
       <use x="190.869141" xlink:href="#DejaVuSans-30"/>
      </g>
     </g>
    </g>
    <g id="ytick_5">
     <g id="line2d_11">
      <g>
       <use style="stroke:#000000;stroke-width:0.8;" x="39.65" xlink:href="#m2ed5a13da1" y="276.486925"/>
      </g>
     </g>
     <g id="text_11">
      <!-- 4000 -->
      <g transform="translate(7.2 280.286144)scale(0.1 -0.1)">
       <use xlink:href="#DejaVuSans-34"/>
       <use x="63.623047" xlink:href="#DejaVuSans-30"/>
       <use x="127.246094" xlink:href="#DejaVuSans-30"/>
       <use x="190.869141" xlink:href="#DejaVuSans-30"/>
      </g>
     </g>
    </g>
    <g id="ytick_6">
     <g id="line2d_12">
      <g>
       <use style="stroke:#000000;stroke-width:0.8;" x="39.65" xlink:href="#m2ed5a13da1" y="209.38336"/>
      </g>
     </g>
     <g id="text_12">
      <!-- 5000 -->
      <g transform="translate(7.2 213.182578)scale(0.1 -0.1)">
       <use xlink:href="#DejaVuSans-35"/>
       <use x="63.623047" xlink:href="#DejaVuSans-30"/>
       <use x="127.246094" xlink:href="#DejaVuSans-30"/>
       <use x="190.869141" xlink:href="#DejaVuSans-30"/>
      </g>
     </g>
    </g>
    <g id="ytick_7">
     <g id="line2d_13">
      <g>
       <use style="stroke:#000000;stroke-width:0.8;" x="39.65" xlink:href="#m2ed5a13da1" y="142.279794"/>
      </g>
     </g>
     <g id="text_13">
      <!-- 6000 -->
      <g transform="translate(7.2 146.079013)scale(0.1 -0.1)">
       <defs>
        <path d="M 2113 2584 
Q 1688 2584 1439 2293 
Q 1191 2003 1191 1497 
Q 1191 994 1439 701 
Q 1688 409 2113 409 
Q 2538 409 2786 701 
Q 3034 994 3034 1497 
Q 3034 2003 2786 2293 
Q 2538 2584 2113 2584 
z
M 3366 4563 
L 3366 3988 
Q 3128 4100 2886 4159 
Q 2644 4219 2406 4219 
Q 1781 4219 1451 3797 
Q 1122 3375 1075 2522 
Q 1259 2794 1537 2939 
Q 1816 3084 2150 3084 
Q 2853 3084 3261 2657 
Q 3669 2231 3669 1497 
Q 3669 778 3244 343 
Q 2819 -91 2113 -91 
Q 1303 -91 875 529 
Q 447 1150 447 2328 
Q 447 3434 972 4092 
Q 1497 4750 2381 4750 
Q 2619 4750 2861 4703 
Q 3103 4656 3366 4563 
z
" id="DejaVuSans-36" transform="scale(0.015625)"/>
       </defs>
       <use xlink:href="#DejaVuSans-36"/>
       <use x="63.623047" xlink:href="#DejaVuSans-30"/>
       <use x="127.246094" xlink:href="#DejaVuSans-30"/>
       <use x="190.869141" xlink:href="#DejaVuSans-30"/>
      </g>
     </g>
    </g>
    <g id="ytick_8">
     <g id="line2d_14">
      <g>
       <use style="stroke:#000000;stroke-width:0.8;" x="39.65" xlink:href="#m2ed5a13da1" y="75.176229"/>
      </g>
     </g>
     <g id="text_14">
      <!-- 7000 -->
      <g transform="translate(7.2 78.975448)scale(0.1 -0.1)">
       <defs>
        <path d="M 525 4666 
L 3525 4666 
L 3525 4397 
L 1831 0 
L 1172 0 
L 2766 4134 
L 525 4134 
L 525 4666 
z
" id="DejaVuSans-37" transform="scale(0.015625)"/>
       </defs>
       <use xlink:href="#DejaVuSans-37"/>
       <use x="63.623047" xlink:href="#DejaVuSans-30"/>
       <use x="127.246094" xlink:href="#DejaVuSans-30"/>
       <use x="190.869141" xlink:href="#DejaVuSans-30"/>
      </g>
     </g>
    </g>
   </g>
   <g id="line2d_15">
    <path clip-path="url(#p75a834c3aa)" d="M 90.377273 503.228725 
L 111.963346 510.195625 
L 133.54942 515.526849 
L 155.135493 509.174174 
L 176.721567 518.676039 
L 198.30764 516.989458 
L 219.893714 519.571932 
L 241.479787 513.545032 
L 263.065861 512.187621 
L 284.651934 514.162654 
L 306.238008 519.870557 
L 327.824081 469.498608 
L 349.410155 349.407101 
L 370.996228 314.338436 
L 392.582302 377.125403 
L 414.168375 389.569451 
L 435.754449 357.823042 
L 457.340522 326.500823 
L 478.926596 330.159041 
L 500.512669 373.99431 
L 522.098743 461.882038 
L 543.684816 468.672476 
L 565.27089 482.080285 
L 586.856963 495.776545 
L 608.443037 477.736577 
L 630.02911 468.624966 
L 651.615184 489.084514 
L 673.201257 495.808218 
L 694.787331 510.993104 
L 716.373404 517.583325 
L 737.959478 527.960717 
L 759.545551 526.214185 
L 781.131625 489.111665 
L 802.717698 475.656346 
L 824.303772 458.407066 
L 845.889845 449.478709 
L 867.475919 463.266592 
L 889.061992 489.053976 
L 910.648066 503.337312 
L 932.234139 506.788153 
L 953.820213 509.82573 
L 975.406286 517.654589 
L 996.99236 508.414025 
L 1018.578433 442.447329 
L 1040.164507 468.994861 
L 1061.75058 494.755095 
L 1083.336654 507.518132 
L 1104.922727 512.024734 
" style="fill:none;stroke:#1f77b4;stroke-linecap:square;stroke-width:1.5;"/>
   </g>
   <g id="line2d_16">
    <path clip-path="url(#p75a834c3aa)" d="M 90.377273 514.386625 
L 111.963346 524.757233 
L 133.54942 526.060344 
L 155.135493 524.482732 
L 176.721567 526.603312 
L 198.30764 527.013926 
L 219.893714 525.490232 
L 241.479787 523.838719 
L 263.065861 519.653376 
L 284.651934 522.619313 
L 306.238008 527.254868 
L 327.824081 528.262367 
L 349.410155 523.617009 
L 370.996228 509.601758 
L 392.582302 453.520397 
L 414.168375 387.336512 
L 435.754449 261.555576 
L 457.340522 172.23804 
L 478.926596 302.359295 
L 500.512669 413.416494 
L 522.098743 419.42227 
L 543.684816 422.707204 
L 565.27089 478.415282 
L 586.856963 471.54679 
L 608.443037 489.708927 
L 630.02911 499.078443 
L 651.615184 486.966961 
L 673.201257 488.270072 
L 694.787331 472.795607 
L 716.373404 494.327511 
L 737.959478 490.360482 
L 759.545551 496.99067 
L 781.131625 493.211042 
L 802.717698 497.914465 
L 824.303772 501.382645 
L 845.889845 459.265629 
L 867.475919 458.922884 
L 889.061992 466.582065 
L 910.648066 475.238942 
L 932.234139 496.906213 
L 953.820213 489.573183 
L 975.406286 500.574987 
L 996.99236 469.402086 
L 1018.578433 431.068845 
L 1040.164507 479.826987 
L 1061.75058 507.131274 
L 1083.336654 511.264585 
L 1104.922727 511.137893 
" style="fill:none;stroke:#ff7f0e;stroke-linecap:square;stroke-width:1.5;"/>
   </g>
   <g id="line2d_17">
    <path clip-path="url(#p75a834c3aa)" d="M 90.377273 515.228218 
L 111.963346 520.908978 
L 133.54942 517.834447 
L 155.135493 521.779982 
L 176.721567 525.9789 
L 198.30764 525.30359 
L 219.893714 527.091974 
L 241.479787 524.598868 
L 263.065861 527.390605 
L 284.651934 528.391696 
L 306.238008 530.078277 
L 327.824081 524.356041 
L 349.410155 523.644159 
L 370.996228 512.832392 
L 392.582302 443.42127 
L 414.168375 293.933181 
L 435.754449 171.559348 
L 457.340522 235.734252 
L 478.926596 355.895519 
L 500.512669 368.356537 
L 522.098743 384.808339 
L 543.684816 468.910022 
L 565.27089 501.436939 
L 586.856963 505.777258 
L 608.443037 501.002571 
L 630.02911 515.611688 
L 651.615184 509.635693 
L 673.201257 495.76599 
L 694.787331 511.861847 
L 716.373404 519.103623 
L 737.959478 514.250888 
L 759.545551 525.11619 
L 781.131625 522.775416 
L 802.717698 511.383358 
L 824.303772 482.134585 
L 845.889845 479.932185 
L 867.475919 465.302709 
L 889.061992 466.487047 
L 910.648066 494.161228 
L 932.234139 478.683744 
L 953.820213 426.888025 
L 975.406286 447.483317 
L 996.99236 482.568953 
L 1018.578433 504.803317 
L 1040.164507 509.554249 
L 1061.75058 511.098302 
L 1083.336654 525.110157 
L 1104.922727 521.568827 
" style="fill:none;stroke:#2ca02c;stroke-linecap:square;stroke-width:1.5;"/>
   </g>
   <g id="line2d_18">
    <path clip-path="url(#p75a834c3aa)" d="M 90.377273 526.603312 
L 111.963346 521.12277 
L 133.54942 523.91564 
L 155.135493 525.348462 
L 176.721567 528.775166 
L 198.30764 526.633851 
L 219.893714 529.779646 
L 241.479787 530.729833 
L 263.065861 532.657356 
L 284.651934 529.864485 
L 306.238008 541.209034 
L 327.824081 531.239618 
L 349.410155 526.630456 
L 370.996228 508.247743 
L 392.582302 467.365969 
L 414.168375 476.250213 
L 435.754449 462.72363 
L 457.340522 455.749939 
L 478.926596 350.927399 
L 500.512669 354.673852 
L 522.098743 242.877621 
L 543.684816 317.782862 
L 565.27089 435.846921 
L 586.856963 450.191348 
L 608.443037 464.895484 
L 630.02911 466.035708 
L 651.615184 425.340576 
L 673.201257 414.767866 
L 694.787331 443.937081 
L 716.373404 462.448754 
L 737.959478 469.320636 
L 759.545551 412.825265 
L 781.131625 437.095745 
L 802.717698 442.851158 
L 824.303772 434.679554 
L 845.889845 402.563251 
L 867.475919 463.076555 
L 889.061992 432.042787 
L 910.648066 466.687264 
L 932.234139 475.136381 
L 953.820213 495.491489 
L 975.406286 501.501419 
L 996.99236 518.838927 
L 1018.578433 515.397896 
L 1040.164507 523.779896 
L 1061.75058 521.43158 
L 1083.336654 516.531336 
L 1104.922727 524.440504 
" style="fill:none;stroke:#d62728;stroke-linecap:square;stroke-width:1.5;"/>
   </g>
   <g id="line2d_19">
    <path clip-path="url(#p75a834c3aa)" d="M 90.377273 523.508415 
L 111.963346 531.194746 
L 133.54942 530.838426 
L 155.135493 532.464299 
L 176.721567 534.286248 
L 198.30764 529.579429 
L 219.893714 530.838426 
L 241.479787 531.186828 
L 263.065861 527.553499 
L 284.651934 527.845339 
L 306.238008 526.196088 
L 327.824081 531.239618 
L 349.410155 528.82946 
L 370.996228 527.394 
L 392.582302 496.604563 
L 414.168375 378.903607 
L 435.754449 341.154054 
L 457.340522 341.608788 
L 478.926596 412.553784 
L 500.512669 414.366681 
L 522.098743 417.060379 
L 543.684816 452.946889 
L 565.27089 436.036958 
L 586.856963 394.415402 
L 608.443037 359.723415 
L 630.02911 375.126616 
L 651.615184 420.263863 
L 673.201257 466.077936 
L 694.787331 464.54256 
L 716.373404 483.044046 
L 737.959478 495.165708 
L 759.545551 497.349634 
L 781.131625 469.483529 
L 802.717698 417.433669 
L 824.303772 423.630241 
L 845.889845 435.891042 
L 867.475919 467.257375 
L 889.061992 488.935202 
L 910.648066 490.279038 
L 932.234139 467.788272 
L 953.820213 475.863354 
L 975.406286 461.66485 
L 996.99236 408.155776 
L 1018.578433 454.98979 
L 1040.164507 489.328852 
L 1061.75058 498.175766 
L 1083.336654 491.554999 
L 1104.922727 468.907378 
" style="fill:none;stroke:#9467bd;stroke-linecap:square;stroke-width:1.5;"/>
   </g>
   <g id="line2d_20">
    <path clip-path="url(#p75a834c3aa)" d="M 90.377273 501.817013 
L 111.963346 510.195625 
L 133.54942 510.314398 
L 155.135493 516.543401 
L 176.721567 518.377408 
L 198.30764 520.528903 
L 219.893714 522.151004 
L 241.479787 525.992475 
L 263.065861 521.227968 
L 284.651934 524.020838 
L 306.238008 528.06931 
L 327.824081 524.313812 
L 349.410155 510.260105 
L 370.996228 506.727444 
L 392.582302 418.363497 
L 414.168375 316.167545 
L 435.754449 366.646202 
L 457.340522 409.167047 
L 478.926596 394.473091 
L 500.512669 333.896441 
L 522.098743 332.195151 
L 543.684816 402.278195 
L 565.27089 388.120416 
L 586.856963 419.144005 
L 608.443037 404.164993 
L 630.02911 445.559189 
L 651.615184 463.890998 
L 673.201257 486.327471 
L 694.787331 490.387632 
L 716.373404 491.548215 
L 737.959478 464.461116 
L 759.545551 465.634516 
L 781.131625 434.978185 
L 802.717698 427.173081 
L 824.303772 466.741557 
L 845.889845 487.272376 
L 867.475919 487.347035 
L 889.061992 430.688771 
L 910.648066 457.891248 
L 932.234139 484.532672 
L 953.820213 498.396342 
L 975.406286 502.142794 
L 996.99236 501.599833 
L 1018.578433 511.217075 
L 1040.164507 509.391362 
L 1061.75058 513.877598 
L 1083.336654 516.992854 
L 1104.922727 521.568827 
" style="fill:none;stroke:#8c564b;stroke-linecap:square;stroke-width:1.5;"/>
   </g>
   <g id="line2d_21">
    <path clip-path="url(#p75a834c3aa)" d="M 90.377273 520.549262 
L 111.963346 523.331953 
L 133.54942 520.7936 
L 155.135493 522.603477 
L 176.721567 523.074047 
L 198.30764 525.469873 
L 219.893714 526.79335 
L 241.479787 526.37255 
L 263.065861 525.001564 
L 284.651934 530.55337 
L 306.238008 527.79783 
L 327.824081 528.874708 
L 349.410155 525.788863 
L 370.996228 516.253064 
L 392.582302 502.930094 
L 414.168375 459.740723 
L 435.754449 382.853665 
L 457.340522 203.689219 
L 478.926596 224.634047 
L 500.512669 357.946714 
L 522.098743 412.010815 
L 543.684816 369.9481 
L 565.27089 388.581934 
L 586.856963 461.30853 
L 608.443037 464.624003 
L 630.02911 470.216529 
L 651.615184 476.460609 
L 673.201257 462.150499 
L 694.787331 475.374686 
L 716.373404 489.552824 
L 737.959478 468.234712 
L 759.545551 495.238106 
L 781.131625 492.369449 
L 802.717698 496.299148 
L 824.303772 501.518389 
L 845.889845 494.968887 
L 867.475919 473.854387 
L 889.061992 472.734523 
L 910.648066 481.808804 
L 932.234139 461.369232 
L 953.820213 472.171195 
L 975.406286 468.411174 
L 996.99236 469.022011 
L 1018.578433 480.66858 
L 1040.164507 495.437189 
L 1061.75058 500.384949 
L 1083.336654 510.830217 
L 1104.922727 520.470838 
" style="fill:none;stroke:#e377c2;stroke-linecap:square;stroke-width:1.5;"/>
   </g>
   <g id="line2d_22">
    <path clip-path="url(#p75a834c3aa)" d="M 90.377273 521.309411 
L 111.963346 526.990171 
L 133.54942 525.490232 
L 155.135493 527.227718 
L 176.721567 528.367941 
L 198.30764 524.353404 
L 219.893714 524.621489 
L 241.479787 526.0332 
L 263.065861 528.992347 
L 284.651934 533.570212 
L 306.238008 531.137057 
L 327.824081 529.508165 
L 349.410155 521.200818 
L 370.996228 519.032359 
L 392.582302 494.106935 
L 414.168375 446.153056 
L 435.754449 326.792663 
L 457.340522 47.027216 
L 478.926596 150.248014 
L 500.512669 339.956517 
L 522.098743 429.711434 
L 543.684816 450.975252 
L 565.27089 468.424749 
L 586.856963 478.316868 
L 608.443037 435.249666 
L 630.02911 443.848854 
L 651.615184 483.166215 
L 673.201257 447.454281 
L 694.787331 352.176217 
L 716.373404 397.954846 
L 737.959478 447.194866 
L 759.545551 487.97446 
L 781.131625 490.740557 
L 802.717698 472.710768 
L 824.303772 465.275559 
L 845.889845 488.246317 
L 867.475919 491.989374 
L 889.061992 483.780441 
L 910.648066 490.441926 
L 932.234139 478.092521 
L 953.820213 473.962974 
L 975.406286 485.276984 
L 996.99236 456.778174 
L 1018.578433 483.234083 
L 1040.164507 494.405559 
L 1061.75058 512.30979 
L 1083.336654 512.160478 
L 1104.922727 514.980867 
" style="fill:none;stroke:#7f7f7f;stroke-linecap:square;stroke-width:1.5;"/>
   </g>
   <g id="line2d_23">
    <path clip-path="url(#p75a834c3aa)" d="M 90.377273 517.94304 
L 111.963346 521.12277 
L 133.54942 522.558229 
L 155.135493 527.248835 
L 176.721567 531.001314 
L 198.30764 531.242256 
L 219.893714 530.512645 
L 241.479787 532.358725 
L 263.065861 530.051127 
L 284.651934 536.420772 
L 306.238008 533.580392 
L 327.824081 529.085862 
L 349.410155 524.132827 
L 370.996228 499.957366 
L 392.582302 484.8494 
L 414.168375 419.001477 
L 435.754449 382.337854 
L 457.340522 335.45633 
L 478.926596 306.214341 
L 500.512669 438.839257 
L 522.098743 463.049405 
L 543.684816 477.176645 
L 565.27089 481.618766 
L 586.856963 467.556006 
L 608.443037 485.283769 
L 630.02911 484.065497 
L 651.615184 490.79485 
L 673.201257 494.984723 
L 694.787331 494.622746 
L 716.373404 482.996537 
L 737.959478 459.302959 
L 759.545551 481.449847 
L 781.131625 476.352016 
L 802.717698 480.573561 
L 824.303772 446.57046 
L 845.889845 479.314564 
L 867.475919 484.306439 
L 889.061992 500.194912 
L 910.648066 505.91639 
L 932.234139 514.305182 
L 953.820213 504.233205 
L 975.406286 498.460822 
L 996.99236 500.079534 
L 1018.578433 503.116736 
L 1040.164507 508.006801 
L 1061.75058 518.367229 
L 1083.336654 522.938303 
L 1104.922727 519.415071 
" style="fill:none;stroke:#bcbd22;stroke-linecap:square;stroke-width:1.5;"/>
   </g>
   <g id="line2d_24">
    <path clip-path="url(#p75a834c3aa)" d="M 90.377273 521.119374 
L 111.963346 520.433884 
L 133.54942 522.123861 
L 155.135493 522.85686 
L 176.721567 525.897457 
L 198.30764 530.672144 
L 219.893714 527.390605 
L 241.479787 532.643781 
L 263.065861 531.517132 
L 284.651934 532.144933 
L 306.238008 535.83369 
L 327.824081 534.765864 
L 349.410155 523.399822 
L 370.996228 478.649434 
L 392.582302 496.7946 
L 414.168375 458.481725 
L 435.754449 374.410581 
L 457.340522 359.329766 
L 478.926596 253.845491 
L 500.512669 339.344177 
L 522.098743 360.320671 
L 543.684816 441.378369 
L 565.27089 475.863354 
L 586.856963 489.83788 
L 608.443037 508.006801 
L 630.02911 474.70616 
L 651.615184 437.611557 
L 673.201257 469.097416 
L 694.787331 453.330359 
L 716.373404 453.754548 
L 737.959478 491.582149 
L 759.545551 503.641975 
L 781.131625 516.422742 
L 802.717698 484.350553 
L 824.303772 437.720151 
L 845.889845 476.392741 
L 867.475919 498.586379 
L 889.061992 505.563466 
L 910.648066 496.088751 
L 932.234139 499.94681 
L 953.820213 512.73059 
L 975.406286 515.231613 
L 996.99236 525.924607 
L 1018.578433 523.997084 
L 1040.164507 520.685006 
L 1061.75058 526.562587 
L 1083.336654 529.671052 
L 1104.922727 526.467569 
" style="fill:none;stroke:#17becf;stroke-linecap:square;stroke-width:1.5;"/>
   </g>
   <g id="line2d_25">
    <path clip-path="url(#p75a834c3aa)" d="M 90.377273 520.956487 
L 111.963346 528.890544 
L 133.54942 530.105427 
L 155.135493 531.176273 
L 176.721567 534.340541 
L 198.30764 535.399321 
L 219.893714 536.729583 
L 241.479787 537.046311 
L 263.065861 536.485252 
L 284.651934 532.976346 
L 306.238008 538.385625 
L 327.824081 534.428018 
L 349.410155 525.870307 
L 370.996228 520.077564 
L 392.582302 477.573683 
L 414.168375 418.645157 
L 435.754449 357.98593 
L 457.340522 389.260633 
L 478.926596 315.118944 
L 500.512669 346.417785 
L 522.098743 407.938589 
L 543.684816 459.621949 
L 565.27089 474.64168 
L 586.856963 403.608456 
L 608.443037 451.728611 
L 630.02911 446.604394 
L 651.615184 441.60234 
L 673.201257 476.720025 
L 694.787331 473.718644 
L 716.373404 488.745165 
L 737.959478 490.333332 
L 759.545551 500.706959 
L 781.131625 505.129098 
L 802.717698 501.691456 
L 824.303772 506.432209 
L 845.889845 516.870685 
L 867.475919 511.047397 
L 889.061992 502.142794 
L 910.648066 511.128841 
L 932.234139 511.306813 
L 953.820213 509.147024 
L 975.406286 475.632592 
L 996.99236 487.374179 
L 1018.578433 478.008058 
L 1040.164507 481.835954 
L 1061.75058 504.660789 
L 1083.336654 512.621996 
L 1104.922727 514.706374 
" style="fill:none;stroke:#1f77b4;stroke-linecap:square;stroke-width:1.5;"/>
   </g>
   <g id="line2d_26">
    <path clip-path="url(#p75a834c3aa)" d="M 90.377273 521.662343 
L 111.963346 521.43158 
L 133.54942 526.684756 
L 155.135493 523.342509 
L 176.721567 525.897457 
L 198.30764 527.08519 
L 219.893714 524.865827 
L 241.479787 530.621239 
L 263.065861 530.89272 
L 284.651934 526.348795 
L 306.238008 533.607542 
L 327.824081 526.108611 
L 349.410155 531.734319 
L 370.996228 515.279123 
L 392.582302 447.222016 
L 414.168375 385.079819 
L 435.754449 239.294063 
L 457.340522 134.895718 
L 478.926596 351.063137 
L 500.512669 392.617966 
L 522.098743 420.833981 
L 543.684816 393.465215 
L 565.27089 413.884045 
L 586.856963 382.22926 
L 608.443037 419.775201 
L 630.02911 460.002024 
L 651.615184 473.392869 
L 673.201257 465.043293 
L 694.787331 480.071318 
L 716.373404 487.889997 
L 737.959478 409.431744 
L 759.545551 457.990796 
L 781.131625 490.116151 
L 802.717698 499.719819 
L 824.303772 494.75849 
L 845.889845 480.526052 
L 867.475919 460.714664 
L 889.061992 470.572849 
L 910.648066 488.405816 
L 932.234139 497.961974 
L 953.820213 506.67654 
L 975.406286 510.908265 
L 996.99236 507.70817 
L 1018.578433 499.054688 
L 1040.164507 504.91191 
L 1061.75058 506.917482 
L 1083.336654 515.173924 
L 1104.922727 491.986354 
" style="fill:none;stroke:#ff7f0e;stroke-linecap:square;stroke-width:1.5;"/>
   </g>
   <g id="line2d_27">
    <path clip-path="url(#p75a834c3aa)" d="M 90.377273 494.025484 
L 111.963346 512.119753 
L 133.54942 521.092231 
L 155.135493 523.933738 
L 176.721567 524.512902 
L 198.30764 526.467569 
L 219.893714 527.146274 
L 241.479787 529.88824 
L 263.065861 528.367941 
L 284.651934 530.24456 
L 306.238008 531.761463 
L 327.824081 538.904456 
L 349.410155 538.304174 
L 370.996228 519.792508 
L 392.582302 498.504936 
L 414.168375 501.786475 
L 435.754449 463.185149 
L 457.340522 343.91299 
L 478.926596 233.240019 
L 500.512669 330.876962 
L 522.098743 412.852415 
L 543.684816 442.969931 
L 565.27089 478.57817 
L 586.856963 483.447875 
L 608.443037 480.64143 
L 630.02911 452.020457 
L 651.615184 455.447913 
L 673.201257 458.180833 
L 694.787331 442.959751 
L 716.373404 380.637698 
L 737.959478 454.796357 
L 759.545551 465.381133 
L 781.131625 432.073332 
L 802.717698 473.732219 
L 824.303772 470.216529 
L 845.889845 433.349293 
L 867.475919 434.000848 
L 889.061992 438.432791 
L 910.648066 428.272579 
L 932.234139 438.015762 
L 953.820213 475.564723 
L 975.406286 498.745878 
L 996.99236 497.961974 
L 1018.578433 502.807925 
L 1040.164507 505.264835 
L 1061.75058 511.644659 
L 1083.336654 513.490739 
L 1104.922727 516.353363 
" style="fill:none;stroke:#2ca02c;stroke-linecap:square;stroke-width:1.5;"/>
   </g>
   <g id="line2d_28">
    <path clip-path="url(#p75a834c3aa)" d="M 90.377273 519.191858 
L 111.963346 522.049201 
L 133.54942 523.291228 
L 155.135493 523.659237 
L 176.721567 527.553499 
L 198.30764 528.700507 
L 219.893714 527.499199 
L 241.479787 524.852251 
L 263.065861 524.757233 
L 284.651934 530.60088 
L 306.238008 528.476535 
L 327.824081 511.095665 
L 349.410155 508.984137 
L 370.996228 490.170445 
L 392.582302 440.027748 
L 414.168375 370.61323 
L 435.754449 416.35453 
L 457.340522 449.169898 
L 478.926596 304.476855 
L 500.512669 203.361935 
L 522.098743 343.488802 
L 543.684816 419.690362 
L 565.27089 453.656134 
L 586.856963 473.423408 
L 608.443037 490.957744 
L 630.02911 496.489185 
L 651.615184 498.423492 
L 673.201257 493.844499 
L 694.787331 426.019282 
L 716.373404 421.353189 
L 737.959478 470.352266 
L 759.545551 484.933864 
L 781.131625 477.275059 
L 802.717698 483.804195 
L 824.303772 485.908181 
L 845.889845 429.524792 
L 867.475919 441.032228 
L 889.061992 404.606152 
L 910.648066 378.890032 
L 932.234139 439.768333 
L 953.820213 404.517917 
L 975.406286 397.812318 
L 996.99236 448.986645 
L 1018.578433 448.956106 
L 1040.164507 428.679804 
L 1061.75058 468.506193 
L 1083.336654 489.355995 
L 1104.922727 498.933278 
" style="fill:none;stroke:#d62728;stroke-linecap:square;stroke-width:1.5;"/>
   </g>
   <g id="line2d_29">
    <path clip-path="url(#p75a834c3aa)" d="M 90.377273 505.156241 
L 111.963346 512.452318 
L 133.54942 517.454372 
L 155.135493 517.556933 
L 176.721567 520.114894 
L 198.30764 522.524295 
L 219.893714 523.562716 
L 241.479787 529.318128 
L 263.065861 526.223238 
L 284.651934 528.961808 
L 306.238008 531.9515 
L 327.824081 531.028464 
L 349.410155 523.644159 
L 370.996228 522.001692 
L 392.582302 514.73955 
L 414.168375 497.344353 
L 435.754449 391.595381 
L 457.340522 389.688224 
L 478.926596 397.405094 
L 500.512669 364.59802 
L 522.098743 341.615572 
L 543.684816 352.583442 
L 565.27089 451.647167 
L 586.856963 488.911448 
L 608.443037 485.229475 
L 630.02911 479.718393 
L 651.615184 483.654876 
L 673.201257 479.823967 
L 694.787331 486.939811 
L 716.373404 478.126831 
L 737.959478 492.043668 
L 759.545551 501.910529 
L 781.131625 511.020254 
L 802.717698 515.82548 
L 824.303772 518.838927 
L 845.889845 475.395045 
L 867.475919 396.427764 
L 889.061992 440.950785 
L 910.648066 331.489302 
L 932.234139 373.867619 
L 953.820213 378.727145 
L 975.406286 410.782364 
L 996.99236 469.483529 
L 1018.578433 480.621071 
L 1040.164507 501.654126 
L 1061.75058 506.157332 
L 1083.336654 501.056864 
L 1104.922727 511.49685 
" style="fill:none;stroke:#9467bd;stroke-linecap:square;stroke-width:1.5;"/>
   </g>
   <g id="line2d_30">
    <path clip-path="url(#p75a834c3aa)" d="M 90.377273 520.929337 
L 111.963346 521.645372 
L 133.54942 527.662086 
L 155.135493 528.07233 
L 176.721567 521.173674 
L 198.30764 526.135003 
L 219.893714 529.996834 
L 241.479787 533.580392 
L 263.065861 530.784133 
L 284.651934 535.731887 
L 306.238008 527.662086 
L 327.824081 522.24452 
L 349.410155 514.115144 
L 370.996228 478.815716 
L 392.582302 365.641715 
L 414.168375 229.106701 
L 435.754449 361.895269 
L 457.340522 418.930213 
L 478.926596 421.53983 
L 500.512669 459.553322 
L 522.098743 476.352016 
L 543.684816 491.21565 
L 565.27089 505.074798 
L 586.856963 505.017109 
L 608.443037 511.346028 
L 630.02911 503.686848 
L 651.615184 500.785383 
L 673.201257 488.460109 
L 694.787331 480.207062 
L 716.373404 497.391862 
L 737.959478 448.199352 
L 759.545551 413.838797 
L 781.131625 461.800587 
L 802.717698 481.642521 
L 824.303772 482.270322 
L 845.889845 499.886102 
L 867.475919 486.804067 
L 889.061992 483.257838 
L 910.648066 471.682527 
L 932.234139 460.862466 
L 953.820213 477.682277 
L 975.406286 498.817142 
L 996.99236 510.667323 
L 1018.578433 510.932019 
L 1040.164507 508.848393 
L 1061.75058 517.060722 
L 1083.336654 512.323365 
L 1104.922727 515.149794 
" style="fill:none;stroke:#8c564b;stroke-linecap:square;stroke-width:1.5;"/>
   </g>
   <g id="line2d_31">
    <path clip-path="url(#p75a834c3aa)" d="M 90.377273 518.323115 
L 111.963346 520.05381 
L 133.54942 523.291228 
L 155.135493 520.977604 
L 176.721567 520.386375 
L 198.30764 523.5695 
L 219.893714 528.612272 
L 241.479787 530.299987 
L 263.065861 531.028464 
L 284.651934 527.536528 
L 306.238008 530.431202 
L 327.824081 529.339245 
L 349.410155 533.227468 
L 370.996228 519.364925 
L 392.582302 474.831717 
L 414.168375 452.661833 
L 435.754449 417.440453 
L 457.340522 290.560019 
L 478.926596 272.686327 
L 500.512669 315.103866 
L 522.098743 328.774479 
L 543.684816 359.75735 
L 565.27089 429.087029 
L 586.856963 462.757565 
L 608.443037 460.66037 
L 630.02911 460.168306 
L 651.615184 478.225245 
L 673.201257 484.469326 
L 694.787331 480.940061 
L 716.373404 468.363665 
L 737.959478 456.180919 
L 759.545551 477.269026 
L 781.131625 489.844664 
L 802.717698 468.767494 
L 824.303772 474.370199 
L 845.889845 495.301452 
L 867.475919 485.718143 
L 889.061992 488.673901 
L 910.648066 472.442683 
L 932.234139 491.374014 
L 953.820213 461.230482 
L 975.406286 439.311713 
L 996.99236 437.041445 
L 1018.578433 461.783624 
L 1040.164507 495.980157 
L 1061.75058 492.260855 
L 1083.336654 505.020504 
L 1104.922727 506.175806 
" style="fill:none;stroke:#e377c2;stroke-linecap:square;stroke-width:1.5;"/>
   </g>
   <g id="line2d_32">
    <path clip-path="url(#p75a834c3aa)" d="M 90.377273 511.88899 
L 111.963346 514.946557 
L 133.54942 517.644409 
L 155.135493 522.181174 
L 176.721567 519.381895 
L 198.30764 518.034663 
L 219.893714 523.94279 
L 241.479787 528.811362 
L 263.065861 528.476535 
L 284.651934 526.063739 
L 306.238008 528.449385 
L 327.824081 530.732852 
L 349.410155 533.227468 
L 370.996228 530.933445 
L 392.582302 503.581649 
L 414.168375 400.021502 
L 435.754449 162.437558 
L 457.340522 330.087777 
L 478.926596 333.824043 
L 500.512669 361.219583 
L 522.098743 323.344841 
L 543.684816 355.814076 
L 565.27089 409.703225 
L 586.856963 417.38616 
L 608.443037 445.077312 
L 630.02911 446.699413 
L 651.615184 415.811561 
L 673.201257 389.091714 
L 694.787331 435.276816 
L 716.373404 474.017275 
L 737.959478 489.708927 
L 759.545551 496.188293 
L 781.131625 454.60632 
L 802.717698 442.566102 
L 824.303772 466.850151 
L 845.889845 442.66112 
L 867.475919 462.913668 
L 889.061992 481.476238 
L 910.648066 496.604563 
L 932.234139 502.565097 
L 953.820213 505.997834 
L 975.406286 496.299148 
L 996.99236 484.957994 
L 1018.578433 502.142794 
L 1040.164507 512.757733 
L 1061.75058 515.611688 
L 1083.336654 516.748516 
L 1104.922727 519.7318 
" style="fill:none;stroke:#7f7f7f;stroke-linecap:square;stroke-width:1.5;"/>
   </g>
   <g id="line2d_33">
    <path clip-path="url(#p75a834c3aa)" d="M 90.377273 522.476785 
L 111.963346 526.823888 
L 133.54942 528.530829 
L 155.135493 525.221771 
L 176.721567 526.79335 
L 198.30764 529.864485 
L 219.893714 529.562459 
L 241.479787 535.399321 
L 263.065861 536.268064 
L 284.651934 526.253777 
L 306.238008 528.06931 
L 327.824081 533.646758 
L 349.410155 533.091724 
L 370.996228 527.156454 
L 392.582302 497.201825 
L 414.168375 415.937126 
L 435.754449 343.488802 
L 457.340522 247.896646 
L 478.926596 268.505506 
L 500.512669 379.653194 
L 522.098743 467.311669 
L 543.684816 489.339032 
L 565.27089 504.91191 
L 586.856963 503.591829 
L 608.443037 505.644909 
L 630.02911 516.89444 
L 651.615184 507.192358 
L 673.201257 479.528356 
L 694.787331 483.573433 
L 716.373404 492.427138 
L 737.959478 482.949027 
L 759.545551 457.125073 
L 781.131625 485.283769 
L 802.717698 471.760582 
L 824.303772 492.532336 
L 845.889845 439.026657 
L 867.475919 432.4534 
L 889.061992 377.502082 
L 910.648066 435.656891 
L 932.234139 446.102903 
L 953.820213 455.067838 
L 975.406286 494.826359 
L 996.99236 493.211042 
L 1018.578433 505.302165 
L 1040.164507 517.562966 
L 1061.75058 514.09139 
L 1083.336654 516.042667 
L 1104.922727 521.252098 
" style="fill:none;stroke:#bcbd22;stroke-linecap:square;stroke-width:1.5;"/>
   </g>
   <g id="line2d_34">
    <path clip-path="url(#p75a834c3aa)" d="M 90.377273 520.413525 
L 111.963346 523.118161 
L 133.54942 526.494719 
L 155.135493 526.573143 
L 176.721567 526.684756 
L 198.30764 527.251472 
L 219.893714 530.458352 
L 241.479787 532.575912 
L 263.065861 530.132571 
L 284.651934 533.095119 
L 306.238008 527.689236 
L 327.824081 531.767495 
L 349.410155 533.254618 
L 370.996228 530.315824 
L 392.582302 511.88899 
L 414.168375 493.923681 
L 435.754449 444.154269 
L 457.340522 391.04224 
L 478.926596 251.429299 
L 500.512669 292.214927 
L 522.098743 333.03675 
L 543.684816 439.121676 
L 565.27089 424.553277 
L 586.856963 434.655799 
L 608.443037 469.402086 
L 630.02911 484.611854 
L 651.615184 478.116651 
L 673.201257 504.275433 
L 694.787331 498.342049 
L 716.373404 495.610262 
L 737.959478 510.287248 
L 759.545551 498.109783 
L 781.131625 484.415032 
L 802.717698 492.260855 
L 824.303772 493.754003 
L 845.889845 483.234083 
L 867.475919 426.996619 
L 889.061992 446.414357 
L 910.648066 458.814291 
L 932.234139 475.600919 
L 953.820213 492.315149 
L 975.406286 497.17807 
L 996.99236 519.327595 
L 1018.578433 518.961095 
L 1040.164507 518.133078 
L 1061.75058 519.364925 
L 1083.336654 523.236934 
L 1104.922727 521.674408 
" style="fill:none;stroke:#17becf;stroke-linecap:square;stroke-width:1.5;"/>
   </g>
   <g id="line2d_35">
    <path clip-path="url(#p75a834c3aa)" d="M 90.377273 524.512902 
L 111.963346 529.033072 
L 133.54942 524.567196 
L 155.135493 523.595892 
L 176.721567 518.784633 
L 198.30764 524.258385 
L 219.893714 530.621239 
L 241.479787 531.53523 
L 263.065861 531.517132 
L 284.651934 522.809351 
L 306.238008 520.277781 
L 327.824081 526.805415 
L 349.410155 516.965704 
L 370.996228 520.457639 
L 392.582302 441.140822 
L 414.168375 269.750935 
L 435.754449 176.093093 
L 457.340522 190.932966 
L 478.926596 284.360045 
L 500.512669 348.993844 
L 522.098743 430.553027 
L 543.684816 372.774904 
L 565.27089 441.35801 
L 586.856963 475.751365 
L 608.443037 476.189128 
L 630.02911 443.183723 
L 651.615184 456.018025 
L 673.201257 493.25327 
L 694.787331 414.698488 
L 716.373404 392.324991 
L 737.959478 420.53535 
L 759.545551 467.133704 
L 781.131625 469.917898 
L 802.717698 475.181253 
L 824.303772 457.321142 
L 845.889845 481.214937 
L 867.475919 476.75924 
L 889.061992 460.144552 
L 910.648066 416.32738 
L 932.234139 456.00596 
L 953.820213 478.713907 
L 975.406286 495.966582 
L 996.99236 505.427722 
L 1018.578433 500.004875 
L 1040.164507 510.91166 
L 1061.75058 509.578004 
L 1083.336654 508.576912 
L 1104.922727 513.186075 
" style="fill:none;stroke:#1f77b4;stroke-linecap:square;stroke-width:1.5;"/>
   </g>
   <g id="line2d_36">
    <path clip-path="url(#p75a834c3aa)" d="M 90.377273 517.535816 
L 111.963346 521.360316 
L 133.54942 519.327595 
L 155.135493 520.872024 
L 176.721567 524.567196 
L 198.30764 526.68136 
L 219.893714 525.327345 
L 241.479787 529.381474 
L 263.065861 526.874793 
L 284.651934 528.557979 
L 306.238008 525.816013 
L 327.824081 531.36631 
L 349.410155 530.241164 
L 370.996228 521.882919 
L 392.582302 504.206055 
L 414.168375 439.430486 
L 435.754449 383.478078 
L 457.340522 254.096612 
L 478.926596 68.043308 
L 500.512669 143.394606 
L 522.098743 95.870197 
L 543.684816 245.71121 
L 565.27089 363.931386 
L 586.856963 442.114763 
L 608.443037 472.415533 
L 630.02911 478.625679 
L 651.615184 498.260605 
L 673.201257 487.362114 
L 694.787331 460.225995 
L 716.373404 471.285488 
L 737.959478 501.328352 
L 759.545551 477.649101 
L 781.131625 501.572683 
L 802.717698 492.94974 
L 824.303772 477.139315 
L 845.889845 477.081626 
L 867.475919 451.077055 
L 889.061992 468.126118 
L 910.648066 448.036458 
L 932.234139 476.508877 
L 953.820213 434.842441 
L 975.406286 457.43652 
L 996.99236 460.904701 
L 1018.578433 497.059297 
L 1040.164507 507.76247 
L 1061.75058 481.191182 
L 1083.336654 491.310669 
L 1104.922727 507.843913 
" style="fill:none;stroke:#ff7f0e;stroke-linecap:square;stroke-width:1.5;"/>
   </g>
   <g id="line2d_37">
    <path clip-path="url(#p75a834c3aa)" d="M 90.377273 513.164958 
L 111.963346 511.977225 
L 133.54942 518.866077 
L 155.135493 517.64139 
L 176.721567 522.585379 
L 198.30764 529.080581 
L 219.893714 527.119124 
L 241.479787 526.435896 
L 263.065861 527.146274 
L 284.651934 529.460656 
L 306.238008 525.653126 
L 327.824081 527.333292 
L 349.410155 530.458352 
L 370.996228 527.679056 
L 392.582302 489.980407 
L 414.168375 452.020457 
L 435.754449 355.922669 
L 457.340522 277.566219 
L 478.926596 341.751316 
L 500.512669 354.293777 
L 522.098743 365.967496 
L 543.684816 441.354614 
L 565.27089 434.978185 
L 586.856963 460.6434 
L 608.443037 493.102448 
L 630.02911 492.902231 
L 651.615184 482.351765 
L 673.201257 466.141282 
L 694.787331 473.067088 
L 716.373404 484.754382 
L 737.959478 494.079784 
L 759.545551 503.071863 
L 781.131625 504.341798 
L 802.717698 486.868547 
L 824.303772 463.48378 
L 845.889845 471.784336 
L 867.475919 478.849651 
L 889.061992 491.191895 
L 910.648066 491.066331 
L 932.234139 481.449847 
L 953.820213 484.062101 
L 975.406286 456.628862 
L 996.99236 466.280039 
L 1018.578433 504.161941 
L 1040.164507 491.690743 
L 1061.75058 502.570378 
L 1083.336654 509.255618 
L 1104.922727 513.523915 
" style="fill:none;stroke:#2ca02c;stroke-linecap:square;stroke-width:1.5;"/>
   </g>
   <g id="line2d_38">
    <path clip-path="url(#p75a834c3aa)" d="M 90.377273 516.748516 
L 111.963346 520.030055 
L 133.54942 523.589859 
L 155.135493 522.941323 
L 176.721567 520.7936 
L 198.30764 522.072956 
L 219.893714 522.88401 
L 241.479787 526.603312 
L 263.065861 527.309161 
L 284.651934 533.118874 
L 306.238008 532.141537 
L 327.824081 506.619226 
L 349.410155 413.395377 
L 370.996228 444.110155 
L 392.582302 430.933102 
L 414.168375 308.019696 
L 435.754449 200.064936 
L 457.340522 216.683013 
L 478.926596 99.046531 
L 500.512669 214.806401 
L 522.098743 384.645445 
L 543.684816 445.345397 
L 565.27089 413.178189 
L 586.856963 444.680267 
L 608.443037 473.691493 
L 630.02911 495.372716 
L 651.615184 499.618016 
L 673.201257 489.030221 
L 694.787331 487.374179 
L 716.373404 478.055567 
L 737.959478 447.62924 
L 759.545551 484.596017 
L 781.131625 472.116902 
L 802.717698 459.716968 
L 824.303772 461.040438 
L 845.889845 483.376611 
L 867.475919 483.301952 
L 889.061992 468.815004 
L 910.648066 425.992132 
L 932.234139 468.485075 
L 953.820213 492.016524 
L 975.406286 509.958078 
L 996.99236 512.73059 
L 1018.578433 512.191017 
L 1040.164507 518.784633 
L 1061.75058 518.177191 
L 1083.336654 518.784633 
L 1104.922727 516.458938 
" style="fill:none;stroke:#d62728;stroke-linecap:square;stroke-width:1.5;"/>
   </g>
   <g id="line2d_39">
    <path clip-path="url(#p75a834c3aa)" d="M 90.377273 520.0063 
L 111.963346 519.816263 
L 133.54942 524.811526 
L 155.135493 529.106973 
L 176.721567 527.79783 
L 198.30764 526.752624 
L 219.893714 529.318128 
L 241.479787 530.33166 
L 263.065861 529.833946 
L 284.651934 527.298982 
L 306.238008 525.001564 
L 327.824081 524.377158 
L 349.410155 509.85288 
L 370.996228 506.65618 
L 392.582302 465.791377 
L 414.168375 249.987056 
L 435.754449 278.957564 
L 457.340522 256.73338 
L 478.926596 236.769284 
L 500.512669 276.885252 
L 522.098743 408.780188 
L 543.684816 416.388464 
L 565.27089 463.646667 
L 586.856963 482.04635 
L 608.443037 472.822757 
L 630.02911 486.726019 
L 651.615184 491.473556 
L 673.201257 476.677797 
L 694.787331 477.655133 
L 716.373404 483.875459 
L 737.959478 485.60955 
L 759.545551 472.222476 
L 781.131625 476.894984 
L 802.717698 483.994233 
L 824.303772 492.695223 
L 845.889845 501.691456 
L 867.475919 495.220008 
L 889.061992 484.873155 
L 910.648066 475.999091 
L 932.234139 496.737287 
L 953.820213 499.237942 
L 975.406286 494.802604 
L 996.99236 489.736077 
L 1018.578433 505.302165 
L 1040.164507 504.586129 
L 1061.75058 517.820871 
L 1083.336654 515.662593 
L 1104.922727 518.908305 
" style="fill:none;stroke:#9467bd;stroke-linecap:square;stroke-width:1.5;"/>
   </g>
   <g id="line2d_40">
    <path clip-path="url(#p75a834c3aa)" d="M 90.377273 521.960967 
L 111.963346 515.540424 
L 133.54942 520.929337 
L 155.135493 518.253736 
L 176.721567 526.331825 
L 198.30764 525.873702 
L 219.893714 527.960717 
L 241.479787 531.376865 
L 263.065861 530.729833 
L 284.651934 531.503557 
L 306.238008 531.842906 
L 327.824081 529.972703 
L 349.410155 528.096461 
L 370.996228 526.538833 
L 392.582302 506.513652 
L 414.168375 445.274133 
L 435.754449 393.19713 
L 457.340522 247.587828 
L 478.926596 226.833044 
L 500.512669 360.058242 
L 522.098743 389.993639 
L 543.684816 386.243798 
L 565.27089 323.181954 
L 586.856963 393.370197 
L 608.443037 436.064109 
L 630.02911 449.882538 
L 651.615184 467.257375 
L 673.201257 465.761207 
L 694.787331 471.954014 
L 716.373404 491.92829 
L 737.959478 500.052384 
L 759.545551 512.109197 
L 781.131625 497.85338 
L 802.717698 491.999554 
L 824.303772 484.007808 
L 845.889845 493.021004 
L 867.475919 454.497726 
L 889.061992 439.525505 
L 910.648066 460.443183 
L 932.234139 474.460695 
L 953.820213 490.930594 
L 975.406286 499.078443 
L 996.99236 502.468576 
L 1018.578433 504.92209 
L 1040.164507 507.083764 
L 1061.75058 510.148116 
L 1083.336654 513.164958 
L 1104.922727 517.176858 
" style="fill:none;stroke:#8c564b;stroke-linecap:square;stroke-width:1.5;"/>
   </g>
   <g id="line2d_41">
    <path clip-path="url(#p75a834c3aa)" d="M 90.377273 516.504185 
L 111.963346 519.198642 
L 133.54942 519.137558 
L 155.135493 520.428603 
L 176.721567 518.621746 
L 198.30764 524.353404 
L 219.893714 530.621239 
L 241.479787 530.680062 
L 263.065861 527.662086 
L 284.651934 522.001692 
L 306.238008 527.119124 
L 327.824081 488.776838 
L 349.410155 472.57842 
L 370.996228 487.818733 
L 392.582302 441.873821 
L 414.168375 223.524362 
L 435.754449 131.352884 
L 457.340522 305.834267 
L 478.926596 302.685076 
L 500.512669 357.925597 
L 522.098743 431.041695 
L 543.684816 392.918858 
L 565.27089 366.646202 
L 586.856963 442.70863 
L 608.443037 469.646417 
L 630.02911 482.141369 
L 651.615184 496.713156 
L 673.201257 462.340536 
L 694.787331 462.886518 
L 716.373404 469.147569 
L 737.959478 484.632213 
L 759.545551 491.331786 
L 781.131625 486.885517 
L 802.717698 477.129135 
L 824.303772 438.181669 
L 845.889845 467.841062 
L 867.475919 471.926864 
L 889.061992 415.24824 
L 910.648066 460.524626 
L 932.234139 439.852789 
L 953.820213 458.51566 
L 975.406286 485.56204 
L 996.99236 501.165458 
L 1018.578433 464.206599 
L 1040.164507 460.063108 
L 1061.75058 495.657772 
L 1083.336654 502.495719 
L 1104.922727 503.029635 
" style="fill:none;stroke:#e377c2;stroke-linecap:square;stroke-width:1.5;"/>
   </g>
   <g id="line2d_42">
    <path clip-path="url(#p75a834c3aa)" d="M 90.377273 516.775203 
L 111.963346 516.357007 
L 133.54942 518.500725 
L 155.135493 518.447471 
L 176.721567 522.574871 
L 198.30764 526.967758 
L 219.893714 527.971916 
L 241.479787 528.441641 
L 263.065861 531.537988 
L 284.651934 532.336044 
L 306.238008 533.28268 
L 327.824081 526.395513 
L 349.410155 519.967421 
L 370.996228 474.769573 
L 392.582302 423.19449 
L 414.168375 371.933359 
L 435.754449 294.020127 
L 457.340522 341.854186 
L 478.926596 410.051781 
L 500.512669 470.35658 
L 522.098743 476.398028 
L 543.684816 489.07102 
L 565.27089 495.11993 
L 586.856963 476.690412 
L 608.443037 464.060562 
L 630.02911 434.658416 
L 651.615184 414.547719 
L 673.201257 483.285203 
L 694.787331 469.035815 
L 716.373404 419.274924 
L 737.959478 397.206239 
L 759.545551 483.986059 
L 781.131625 504.571944 
L 802.717698 511.399731 
L 824.303772 491.017023 
L 845.889845 436.31923 
L 867.475919 385.089254 
L 889.061992 417.12761 
L 910.648066 431.189404 
L 932.234139 428.521238 
L 953.820213 456.717512 
L 975.406286 479.022261 
L 996.99236 497.880759 
L 1018.578433 503.557002 
L 1040.164507 509.882714 
L 1061.75058 509.965393 
L 1083.336654 521.558735 
L 1104.922727 520.632061 
" style="fill:none;stroke:#7f7f7f;stroke-linecap:square;stroke-width:1.5;"/>
   </g>
   <g id="line2d_43">
    <path clip-path="url(#p75a834c3aa)" d="M 90.377273 522.277696 
L 111.963346 526.422542 
L 133.54942 525.584949 
L 155.135493 526.127098 
L 176.721567 526.514809 
L 198.30764 527.076802 
L 219.893714 507.53409 
L 241.479787 448.439811 
L 263.065861 467.473261 
L 284.651934 497.811259 
L 306.238008 509.815611 
L 327.824081 507.442486 
L 349.410155 461.146348 
L 370.996228 353.614085 
L 392.582302 404.510939 
L 414.168375 423.628268 
L 435.754449 364.402178 
L 457.340522 252.371581 
L 478.926596 181.247794 
L 500.512669 345.1637 
L 522.098743 401.232453 
L 543.684816 428.828794 
L 565.27089 426.866015 
L 586.856963 411.474135 
L 608.443037 459.056555 
L 630.02911 477.411775 
L 651.615184 489.569506 
L 673.201257 472.585908 
L 694.787331 499.520005 
L 716.373404 510.971946 
L 737.959478 504.763665 
L 759.545551 521.444759 
L 781.131625 525.076874 
L 802.717698 510.728696 
L 824.303772 505.770219 
L 845.889845 499.950185 
L 867.475919 512.557268 
L 889.061992 473.628812 
L 910.648066 492.215298 
L 932.234139 497.481331 
L 953.820213 490.94992 
L 975.406286 477.327896 
L 996.99236 487.153777 
L 1018.578433 510.611264 
L 1040.164507 508.761125 
L 1061.75058 513.505106 
L 1083.336654 515.778239 
L 1104.922727 518.029939 
" style="fill:none;stroke:#bcbd22;stroke-linecap:square;stroke-width:1.5;"/>
   </g>
   <g id="line2d_44">
    <path clip-path="url(#p75a834c3aa)" d="M 90.377273 517.915964 
L 111.963346 523.251899 
L 133.54942 524.031978 
L 155.135493 526.298588 
L 176.721567 523.801906 
L 198.30764 527.512975 
L 219.893714 529.860399 
L 241.479787 530.18314 
L 263.065861 528.460813 
L 284.651934 534.022021 
L 306.238008 534.317994 
L 327.824081 529.750691 
L 349.410155 531.346266 
L 370.996228 526.565137 
L 392.582302 500.076005 
L 414.168375 420.533116 
L 435.754449 324.801492 
L 457.340522 115.010583 
L 478.926596 233.051747 
L 500.512669 365.145645 
L 522.098743 387.131115 
L 543.684816 463.252923 
L 565.27089 425.303461 
L 586.856963 414.208605 
L 608.443037 456.094409 
L 630.02911 455.275987 
L 651.615184 446.364392 
L 673.201257 477.961649 
L 694.787331 497.851998 
L 716.373404 507.222534 
L 737.959478 509.537607 
L 759.545551 493.663883 
L 781.131625 480.97066 
L 802.717698 480.188185 
L 824.303772 476.867753 
L 845.889845 486.789499 
L 867.475919 500.095176 
L 889.061992 496.964077 
L 910.648066 486.501913 
L 932.234139 472.630646 
L 953.820213 457.887034 
L 975.406286 444.421985 
L 996.99236 465.15339 
L 1018.578433 483.56014 
L 1040.164507 467.492432 
L 1061.75058 486.370101 
L 1083.336654 501.178422 
L 1104.922727 501.97727 
" style="fill:none;stroke:#17becf;stroke-linecap:square;stroke-width:1.5;"/>
   </g>
   <g id="line2d_45">
    <path clip-path="url(#p75a834c3aa)" d="M 90.377273 516.937336 
L 111.963346 520.559079 
L 133.54942 522.56847 
L 155.135493 523.204592 
L 176.721567 524.675032 
L 198.30764 526.11498 
L 219.893714 526.861194 
L 241.479787 526.436742 
L 263.065861 526.273134 
L 284.651934 527.877582 
L 306.238008 529.092644 
L 327.824081 523.976013 
L 349.410155 511.547084 
L 370.996228 497.901133 
L 392.582302 465.817221 
L 414.168375 393.158641 
L 435.754449 330.932606 
L 457.340522 291.020547 
L 478.926596 287.147967 
L 500.512669 347.247739 
L 522.098743 385.016684 
L 543.684816 418.608156 
L 565.27089 441.212435 
L 586.856963 454.419589 
L 608.443037 466.133426 
L 630.02911 469.531647 
L 651.615184 471.934755 
L 673.201257 473.81804 
L 694.787331 469.077977 
L 716.373404 472.857282 
L 737.959478 475.916382 
L 759.545551 485.103265 
L 781.131625 484.476908 
L 802.717698 480.275762 
L 824.303772 475.050531 
L 845.889845 471.605698 
L 867.475919 466.713091 
L 889.061992 462.857931 
L 910.648066 464.117808 
L 932.234139 473.103627 
L 953.820213 475.664555 
L 975.406286 480.630722 
L 996.99236 486.213497 
L 1018.578433 491.502889 
L 1040.164507 498.735283 
L 1061.75058 506.845144 
L 1083.336654 511.580337 
L 1104.922727 512.973651 
" style="fill:none;stroke:#000000;stroke-dasharray:11.1,4.8;stroke-dashoffset:0;stroke-width:3;"/>
   </g>
   <g id="patch_3">
    <path d="M 39.65 565.918125 
L 39.65 22.318125 
" style="fill:none;stroke:#000000;stroke-linecap:square;stroke-linejoin:miter;stroke-width:0.8;"/>
   </g>
   <g id="patch_4">
    <path d="M 1155.65 565.918125 
L 1155.65 22.318125 
" style="fill:none;stroke:#000000;stroke-linecap:square;stroke-linejoin:miter;stroke-width:0.8;"/>
   </g>
   <g id="patch_5">
    <path d="M 39.65 565.918125 
L 1155.65 565.918125 
" style="fill:none;stroke:#000000;stroke-linecap:square;stroke-linejoin:miter;stroke-width:0.8;"/>
   </g>
   <g id="patch_6">
    <path d="M 39.65 22.318125 
L 1155.65 22.318125 
" style="fill:none;stroke:#000000;stroke-linecap:square;stroke-linejoin:miter;stroke-width:0.8;"/>
   </g>
   <g id="text_15">
    <!-- Quarter monthly inflow per year -->
    <g transform="translate(500.97125 16.318125)scale(0.12 -0.12)">
     <defs>
      <path d="M 2522 4238 
Q 1834 4238 1429 3725 
Q 1025 3213 1025 2328 
Q 1025 1447 1429 934 
Q 1834 422 2522 422 
Q 3209 422 3611 934 
Q 4013 1447 4013 2328 
Q 4013 3213 3611 3725 
Q 3209 4238 2522 4238 
z
M 3406 84 
L 4238 -825 
L 3475 -825 
L 2784 -78 
Q 2681 -84 2626 -87 
Q 2572 -91 2522 -91 
Q 1538 -91 948 567 
Q 359 1225 359 2328 
Q 359 3434 948 4092 
Q 1538 4750 2522 4750 
Q 3503 4750 4090 4092 
Q 4678 3434 4678 2328 
Q 4678 1516 4351 937 
Q 4025 359 3406 84 
z
" id="DejaVuSans-51" transform="scale(0.015625)"/>
      <path d="M 544 1381 
L 544 3500 
L 1119 3500 
L 1119 1403 
Q 1119 906 1312 657 
Q 1506 409 1894 409 
Q 2359 409 2629 706 
Q 2900 1003 2900 1516 
L 2900 3500 
L 3475 3500 
L 3475 0 
L 2900 0 
L 2900 538 
Q 2691 219 2414 64 
Q 2138 -91 1772 -91 
Q 1169 -91 856 284 
Q 544 659 544 1381 
z
M 1991 3584 
L 1991 3584 
z
" id="DejaVuSans-75" transform="scale(0.015625)"/>
      <path d="M 2194 1759 
Q 1497 1759 1228 1600 
Q 959 1441 959 1056 
Q 959 750 1161 570 
Q 1363 391 1709 391 
Q 2188 391 2477 730 
Q 2766 1069 2766 1631 
L 2766 1759 
L 2194 1759 
z
M 3341 1997 
L 3341 0 
L 2766 0 
L 2766 531 
Q 2569 213 2275 61 
Q 1981 -91 1556 -91 
Q 1019 -91 701 211 
Q 384 513 384 1019 
Q 384 1609 779 1909 
Q 1175 2209 1959 2209 
L 2766 2209 
L 2766 2266 
Q 2766 2663 2505 2880 
Q 2244 3097 1772 3097 
Q 1472 3097 1187 3025 
Q 903 2953 641 2809 
L 641 3341 
Q 956 3463 1253 3523 
Q 1550 3584 1831 3584 
Q 2591 3584 2966 3190 
Q 3341 2797 3341 1997 
z
" id="DejaVuSans-61" transform="scale(0.015625)"/>
      <path d="M 2631 2963 
Q 2534 3019 2420 3045 
Q 2306 3072 2169 3072 
Q 1681 3072 1420 2755 
Q 1159 2438 1159 1844 
L 1159 0 
L 581 0 
L 581 3500 
L 1159 3500 
L 1159 2956 
Q 1341 3275 1631 3429 
Q 1922 3584 2338 3584 
Q 2397 3584 2469 3576 
Q 2541 3569 2628 3553 
L 2631 2963 
z
" id="DejaVuSans-72" transform="scale(0.015625)"/>
      <path d="M 1172 4494 
L 1172 3500 
L 2356 3500 
L 2356 3053 
L 1172 3053 
L 1172 1153 
Q 1172 725 1289 603 
Q 1406 481 1766 481 
L 2356 481 
L 2356 0 
L 1766 0 
Q 1100 0 847 248 
Q 594 497 594 1153 
L 594 3053 
L 172 3053 
L 172 3500 
L 594 3500 
L 594 4494 
L 1172 4494 
z
" id="DejaVuSans-74" transform="scale(0.015625)"/>
      <path d="M 3597 1894 
L 3597 1613 
L 953 1613 
Q 991 1019 1311 708 
Q 1631 397 2203 397 
Q 2534 397 2845 478 
Q 3156 559 3463 722 
L 3463 178 
Q 3153 47 2828 -22 
Q 2503 -91 2169 -91 
Q 1331 -91 842 396 
Q 353 884 353 1716 
Q 353 2575 817 3079 
Q 1281 3584 2069 3584 
Q 2775 3584 3186 3129 
Q 3597 2675 3597 1894 
z
M 3022 2063 
Q 3016 2534 2758 2815 
Q 2500 3097 2075 3097 
Q 1594 3097 1305 2825 
Q 1016 2553 972 2059 
L 3022 2063 
z
" id="DejaVuSans-65" transform="scale(0.015625)"/>
      <path id="DejaVuSans-20" transform="scale(0.015625)"/>
      <path d="M 3328 2828 
Q 3544 3216 3844 3400 
Q 4144 3584 4550 3584 
Q 5097 3584 5394 3201 
Q 5691 2819 5691 2113 
L 5691 0 
L 5113 0 
L 5113 2094 
Q 5113 2597 4934 2840 
Q 4756 3084 4391 3084 
Q 3944 3084 3684 2787 
Q 3425 2491 3425 1978 
L 3425 0 
L 2847 0 
L 2847 2094 
Q 2847 2600 2669 2842 
Q 2491 3084 2119 3084 
Q 1678 3084 1418 2786 
Q 1159 2488 1159 1978 
L 1159 0 
L 581 0 
L 581 3500 
L 1159 3500 
L 1159 2956 
Q 1356 3278 1631 3431 
Q 1906 3584 2284 3584 
Q 2666 3584 2933 3390 
Q 3200 3197 3328 2828 
z
" id="DejaVuSans-6d" transform="scale(0.015625)"/>
      <path d="M 1959 3097 
Q 1497 3097 1228 2736 
Q 959 2375 959 1747 
Q 959 1119 1226 758 
Q 1494 397 1959 397 
Q 2419 397 2687 759 
Q 2956 1122 2956 1747 
Q 2956 2369 2687 2733 
Q 2419 3097 1959 3097 
z
M 1959 3584 
Q 2709 3584 3137 3096 
Q 3566 2609 3566 1747 
Q 3566 888 3137 398 
Q 2709 -91 1959 -91 
Q 1206 -91 779 398 
Q 353 888 353 1747 
Q 353 2609 779 3096 
Q 1206 3584 1959 3584 
z
" id="DejaVuSans-6f" transform="scale(0.015625)"/>
      <path d="M 3513 2113 
L 3513 0 
L 2938 0 
L 2938 2094 
Q 2938 2591 2744 2837 
Q 2550 3084 2163 3084 
Q 1697 3084 1428 2787 
Q 1159 2491 1159 1978 
L 1159 0 
L 581 0 
L 581 3500 
L 1159 3500 
L 1159 2956 
Q 1366 3272 1645 3428 
Q 1925 3584 2291 3584 
Q 2894 3584 3203 3211 
Q 3513 2838 3513 2113 
z
" id="DejaVuSans-6e" transform="scale(0.015625)"/>
      <path d="M 3513 2113 
L 3513 0 
L 2938 0 
L 2938 2094 
Q 2938 2591 2744 2837 
Q 2550 3084 2163 3084 
Q 1697 3084 1428 2787 
Q 1159 2491 1159 1978 
L 1159 0 
L 581 0 
L 581 4863 
L 1159 4863 
L 1159 2956 
Q 1366 3272 1645 3428 
Q 1925 3584 2291 3584 
Q 2894 3584 3203 3211 
Q 3513 2838 3513 2113 
z
" id="DejaVuSans-68" transform="scale(0.015625)"/>
      <path d="M 603 4863 
L 1178 4863 
L 1178 0 
L 603 0 
L 603 4863 
z
" id="DejaVuSans-6c" transform="scale(0.015625)"/>
      <path d="M 2059 -325 
Q 1816 -950 1584 -1140 
Q 1353 -1331 966 -1331 
L 506 -1331 
L 506 -850 
L 844 -850 
Q 1081 -850 1212 -737 
Q 1344 -625 1503 -206 
L 1606 56 
L 191 3500 
L 800 3500 
L 1894 763 
L 2988 3500 
L 3597 3500 
L 2059 -325 
z
" id="DejaVuSans-79" transform="scale(0.015625)"/>
      <path d="M 603 3500 
L 1178 3500 
L 1178 0 
L 603 0 
L 603 3500 
z
M 603 4863 
L 1178 4863 
L 1178 4134 
L 603 4134 
L 603 4863 
z
" id="DejaVuSans-69" transform="scale(0.015625)"/>
      <path d="M 2375 4863 
L 2375 4384 
L 1825 4384 
Q 1516 4384 1395 4259 
Q 1275 4134 1275 3809 
L 1275 3500 
L 2222 3500 
L 2222 3053 
L 1275 3053 
L 1275 0 
L 697 0 
L 697 3053 
L 147 3053 
L 147 3500 
L 697 3500 
L 697 3744 
Q 697 4328 969 4595 
Q 1241 4863 1831 4863 
L 2375 4863 
z
" id="DejaVuSans-66" transform="scale(0.015625)"/>
      <path d="M 269 3500 
L 844 3500 
L 1563 769 
L 2278 3500 
L 2956 3500 
L 3675 769 
L 4391 3500 
L 4966 3500 
L 4050 0 
L 3372 0 
L 2619 2869 
L 1863 0 
L 1184 0 
L 269 3500 
z
" id="DejaVuSans-77" transform="scale(0.015625)"/>
      <path d="M 1159 525 
L 1159 -1331 
L 581 -1331 
L 581 3500 
L 1159 3500 
L 1159 2969 
Q 1341 3281 1617 3432 
Q 1894 3584 2278 3584 
Q 2916 3584 3314 3078 
Q 3713 2572 3713 1747 
Q 3713 922 3314 415 
Q 2916 -91 2278 -91 
Q 1894 -91 1617 61 
Q 1341 213 1159 525 
z
M 3116 1747 
Q 3116 2381 2855 2742 
Q 2594 3103 2138 3103 
Q 1681 3103 1420 2742 
Q 1159 2381 1159 1747 
Q 1159 1113 1420 752 
Q 1681 391 2138 391 
Q 2594 391 2855 752 
Q 3116 1113 3116 1747 
z
" id="DejaVuSans-70" transform="scale(0.015625)"/>
     </defs>
     <use xlink:href="#DejaVuSans-51"/>
     <use x="78.710938" xlink:href="#DejaVuSans-75"/>
     <use x="142.089844" xlink:href="#DejaVuSans-61"/>
     <use x="203.369141" xlink:href="#DejaVuSans-72"/>
     <use x="244.482422" xlink:href="#DejaVuSans-74"/>
     <use x="283.691406" xlink:href="#DejaVuSans-65"/>
     <use x="345.214844" xlink:href="#DejaVuSans-72"/>
     <use x="386.328125" xlink:href="#DejaVuSans-20"/>
     <use x="418.115234" xlink:href="#DejaVuSans-6d"/>
     <use x="515.527344" xlink:href="#DejaVuSans-6f"/>
     <use x="576.708984" xlink:href="#DejaVuSans-6e"/>
     <use x="640.087891" xlink:href="#DejaVuSans-74"/>
     <use x="679.296875" xlink:href="#DejaVuSans-68"/>
     <use x="742.675781" xlink:href="#DejaVuSans-6c"/>
     <use x="770.458984" xlink:href="#DejaVuSans-79"/>
     <use x="829.638672" xlink:href="#DejaVuSans-20"/>
     <use x="861.425781" xlink:href="#DejaVuSans-69"/>
     <use x="889.208984" xlink:href="#DejaVuSans-6e"/>
     <use x="952.587891" xlink:href="#DejaVuSans-66"/>
     <use x="987.792969" xlink:href="#DejaVuSans-6c"/>
     <use x="1015.576172" xlink:href="#DejaVuSans-6f"/>
     <use x="1076.757812" xlink:href="#DejaVuSans-77"/>
     <use x="1158.544922" xlink:href="#DejaVuSans-20"/>
     <use x="1190.332031" xlink:href="#DejaVuSans-70"/>
     <use x="1253.808594" xlink:href="#DejaVuSans-65"/>
     <use x="1315.332031" xlink:href="#DejaVuSans-72"/>
     <use x="1356.445312" xlink:href="#DejaVuSans-20"/>
     <use x="1388.232422" xlink:href="#DejaVuSans-79"/>
     <use x="1447.412109" xlink:href="#DejaVuSans-65"/>
     <use x="1508.935547" xlink:href="#DejaVuSans-61"/>
     <use x="1570.214844" xlink:href="#DejaVuSans-72"/>
    </g>
   </g>
   <g id="legend_1">
    <g id="patch_7">
     <path d="M 46.65 485.34 
L 113.640625 485.34 
Q 115.640625 485.34 115.640625 483.34 
L 115.640625 29.318125 
Q 115.640625 27.318125 113.640625 27.318125 
L 46.65 27.318125 
Q 44.65 27.318125 44.65 29.318125 
L 44.65 483.34 
Q 44.65 485.34 46.65 485.34 
z
" style="fill:#ffffff;opacity:0.8;stroke:#cccccc;stroke-linejoin:miter;"/>
    </g>
    <g id="line2d_46">
     <path d="M 48.65 35.416562 
L 68.65 35.416562 
" style="fill:none;stroke:#1f77b4;stroke-linecap:square;stroke-width:1.5;"/>
    </g>
    <g id="line2d_47"/>
    <g id="text_16">
     <!-- 1953.0 -->
     <g transform="translate(76.65 38.916562)scale(0.1 -0.1)">
      <defs>
       <path d="M 703 97 
L 703 672 
Q 941 559 1184 500 
Q 1428 441 1663 441 
Q 2288 441 2617 861 
Q 2947 1281 2994 2138 
Q 2813 1869 2534 1725 
Q 2256 1581 1919 1581 
Q 1219 1581 811 2004 
Q 403 2428 403 3163 
Q 403 3881 828 4315 
Q 1253 4750 1959 4750 
Q 2769 4750 3195 4129 
Q 3622 3509 3622 2328 
Q 3622 1225 3098 567 
Q 2575 -91 1691 -91 
Q 1453 -91 1209 -44 
Q 966 3 703 97 
z
M 1959 2075 
Q 2384 2075 2632 2365 
Q 2881 2656 2881 3163 
Q 2881 3666 2632 3958 
Q 2384 4250 1959 4250 
Q 1534 4250 1286 3958 
Q 1038 3666 1038 3163 
Q 1038 2656 1286 2365 
Q 1534 2075 1959 2075 
z
" id="DejaVuSans-39" transform="scale(0.015625)"/>
       <path d="M 684 794 
L 1344 794 
L 1344 0 
L 684 0 
L 684 794 
z
" id="DejaVuSans-2e" transform="scale(0.015625)"/>
      </defs>
      <use xlink:href="#DejaVuSans-31"/>
      <use x="63.623047" xlink:href="#DejaVuSans-39"/>
      <use x="127.246094" xlink:href="#DejaVuSans-35"/>
      <use x="190.869141" xlink:href="#DejaVuSans-33"/>
      <use x="254.492188" xlink:href="#DejaVuSans-2e"/>
      <use x="286.279297" xlink:href="#DejaVuSans-30"/>
     </g>
    </g>
    <g id="line2d_48">
     <path d="M 48.65 50.094687 
L 68.65 50.094687 
" style="fill:none;stroke:#ff7f0e;stroke-linecap:square;stroke-width:1.5;"/>
    </g>
    <g id="line2d_49"/>
    <g id="text_17">
     <!-- 1954.0 -->
     <g transform="translate(76.65 53.594687)scale(0.1 -0.1)">
      <use xlink:href="#DejaVuSans-31"/>
      <use x="63.623047" xlink:href="#DejaVuSans-39"/>
      <use x="127.246094" xlink:href="#DejaVuSans-35"/>
      <use x="190.869141" xlink:href="#DejaVuSans-34"/>
      <use x="254.492188" xlink:href="#DejaVuSans-2e"/>
      <use x="286.279297" xlink:href="#DejaVuSans-30"/>
     </g>
    </g>
    <g id="line2d_50">
     <path d="M 48.65 64.772812 
L 68.65 64.772812 
" style="fill:none;stroke:#2ca02c;stroke-linecap:square;stroke-width:1.5;"/>
    </g>
    <g id="line2d_51"/>
    <g id="text_18">
     <!-- 1955.0 -->
     <g transform="translate(76.65 68.272812)scale(0.1 -0.1)">
      <use xlink:href="#DejaVuSans-31"/>
      <use x="63.623047" xlink:href="#DejaVuSans-39"/>
      <use x="127.246094" xlink:href="#DejaVuSans-35"/>
      <use x="190.869141" xlink:href="#DejaVuSans-35"/>
      <use x="254.492188" xlink:href="#DejaVuSans-2e"/>
      <use x="286.279297" xlink:href="#DejaVuSans-30"/>
     </g>
    </g>
    <g id="line2d_52">
     <path d="M 48.65 79.450937 
L 68.65 79.450937 
" style="fill:none;stroke:#d62728;stroke-linecap:square;stroke-width:1.5;"/>
    </g>
    <g id="line2d_53"/>
    <g id="text_19">
     <!-- 1956.0 -->
     <g transform="translate(76.65 82.950937)scale(0.1 -0.1)">
      <use xlink:href="#DejaVuSans-31"/>
      <use x="63.623047" xlink:href="#DejaVuSans-39"/>
      <use x="127.246094" xlink:href="#DejaVuSans-35"/>
      <use x="190.869141" xlink:href="#DejaVuSans-36"/>
      <use x="254.492188" xlink:href="#DejaVuSans-2e"/>
      <use x="286.279297" xlink:href="#DejaVuSans-30"/>
     </g>
    </g>
    <g id="line2d_54">
     <path d="M 48.65 94.129062 
L 68.65 94.129062 
" style="fill:none;stroke:#9467bd;stroke-linecap:square;stroke-width:1.5;"/>
    </g>
    <g id="line2d_55"/>
    <g id="text_20">
     <!-- 1957.0 -->
     <g transform="translate(76.65 97.629062)scale(0.1 -0.1)">
      <use xlink:href="#DejaVuSans-31"/>
      <use x="63.623047" xlink:href="#DejaVuSans-39"/>
      <use x="127.246094" xlink:href="#DejaVuSans-35"/>
      <use x="190.869141" xlink:href="#DejaVuSans-37"/>
      <use x="254.492188" xlink:href="#DejaVuSans-2e"/>
      <use x="286.279297" xlink:href="#DejaVuSans-30"/>
     </g>
    </g>
    <g id="line2d_56">
     <path d="M 48.65 108.807187 
L 68.65 108.807187 
" style="fill:none;stroke:#8c564b;stroke-linecap:square;stroke-width:1.5;"/>
    </g>
    <g id="line2d_57"/>
    <g id="text_21">
     <!-- 1958.0 -->
     <g transform="translate(76.65 112.307187)scale(0.1 -0.1)">
      <defs>
       <path d="M 2034 2216 
Q 1584 2216 1326 1975 
Q 1069 1734 1069 1313 
Q 1069 891 1326 650 
Q 1584 409 2034 409 
Q 2484 409 2743 651 
Q 3003 894 3003 1313 
Q 3003 1734 2745 1975 
Q 2488 2216 2034 2216 
z
M 1403 2484 
Q 997 2584 770 2862 
Q 544 3141 544 3541 
Q 544 4100 942 4425 
Q 1341 4750 2034 4750 
Q 2731 4750 3128 4425 
Q 3525 4100 3525 3541 
Q 3525 3141 3298 2862 
Q 3072 2584 2669 2484 
Q 3125 2378 3379 2068 
Q 3634 1759 3634 1313 
Q 3634 634 3220 271 
Q 2806 -91 2034 -91 
Q 1263 -91 848 271 
Q 434 634 434 1313 
Q 434 1759 690 2068 
Q 947 2378 1403 2484 
z
M 1172 3481 
Q 1172 3119 1398 2916 
Q 1625 2713 2034 2713 
Q 2441 2713 2670 2916 
Q 2900 3119 2900 3481 
Q 2900 3844 2670 4047 
Q 2441 4250 2034 4250 
Q 1625 4250 1398 4047 
Q 1172 3844 1172 3481 
z
" id="DejaVuSans-38" transform="scale(0.015625)"/>
      </defs>
      <use xlink:href="#DejaVuSans-31"/>
      <use x="63.623047" xlink:href="#DejaVuSans-39"/>
      <use x="127.246094" xlink:href="#DejaVuSans-35"/>
      <use x="190.869141" xlink:href="#DejaVuSans-38"/>
      <use x="254.492188" xlink:href="#DejaVuSans-2e"/>
      <use x="286.279297" xlink:href="#DejaVuSans-30"/>
     </g>
    </g>
    <g id="line2d_58">
     <path d="M 48.65 123.485312 
L 68.65 123.485312 
" style="fill:none;stroke:#e377c2;stroke-linecap:square;stroke-width:1.5;"/>
    </g>
    <g id="line2d_59"/>
    <g id="text_22">
     <!-- 1959.0 -->
     <g transform="translate(76.65 126.985312)scale(0.1 -0.1)">
      <use xlink:href="#DejaVuSans-31"/>
      <use x="63.623047" xlink:href="#DejaVuSans-39"/>
      <use x="127.246094" xlink:href="#DejaVuSans-35"/>
      <use x="190.869141" xlink:href="#DejaVuSans-39"/>
      <use x="254.492188" xlink:href="#DejaVuSans-2e"/>
      <use x="286.279297" xlink:href="#DejaVuSans-30"/>
     </g>
    </g>
    <g id="line2d_60">
     <path d="M 48.65 138.163437 
L 68.65 138.163437 
" style="fill:none;stroke:#7f7f7f;stroke-linecap:square;stroke-width:1.5;"/>
    </g>
    <g id="line2d_61"/>
    <g id="text_23">
     <!-- 1960.0 -->
     <g transform="translate(76.65 141.663437)scale(0.1 -0.1)">
      <use xlink:href="#DejaVuSans-31"/>
      <use x="63.623047" xlink:href="#DejaVuSans-39"/>
      <use x="127.246094" xlink:href="#DejaVuSans-36"/>
      <use x="190.869141" xlink:href="#DejaVuSans-30"/>
      <use x="254.492188" xlink:href="#DejaVuSans-2e"/>
      <use x="286.279297" xlink:href="#DejaVuSans-30"/>
     </g>
    </g>
    <g id="line2d_62">
     <path d="M 48.65 152.841562 
L 68.65 152.841562 
" style="fill:none;stroke:#bcbd22;stroke-linecap:square;stroke-width:1.5;"/>
    </g>
    <g id="line2d_63"/>
    <g id="text_24">
     <!-- 1961.0 -->
     <g transform="translate(76.65 156.341562)scale(0.1 -0.1)">
      <use xlink:href="#DejaVuSans-31"/>
      <use x="63.623047" xlink:href="#DejaVuSans-39"/>
      <use x="127.246094" xlink:href="#DejaVuSans-36"/>
      <use x="190.869141" xlink:href="#DejaVuSans-31"/>
      <use x="254.492188" xlink:href="#DejaVuSans-2e"/>
      <use x="286.279297" xlink:href="#DejaVuSans-30"/>
     </g>
    </g>
    <g id="line2d_64">
     <path d="M 48.65 167.519687 
L 68.65 167.519687 
" style="fill:none;stroke:#17becf;stroke-linecap:square;stroke-width:1.5;"/>
    </g>
    <g id="line2d_65"/>
    <g id="text_25">
     <!-- 1962.0 -->
     <g transform="translate(76.65 171.019687)scale(0.1 -0.1)">
      <use xlink:href="#DejaVuSans-31"/>
      <use x="63.623047" xlink:href="#DejaVuSans-39"/>
      <use x="127.246094" xlink:href="#DejaVuSans-36"/>
      <use x="190.869141" xlink:href="#DejaVuSans-32"/>
      <use x="254.492188" xlink:href="#DejaVuSans-2e"/>
      <use x="286.279297" xlink:href="#DejaVuSans-30"/>
     </g>
    </g>
    <g id="line2d_66">
     <path d="M 48.65 182.197812 
L 68.65 182.197812 
" style="fill:none;stroke:#1f77b4;stroke-linecap:square;stroke-width:1.5;"/>
    </g>
    <g id="line2d_67"/>
    <g id="text_26">
     <!-- 1963.0 -->
     <g transform="translate(76.65 185.697812)scale(0.1 -0.1)">
      <use xlink:href="#DejaVuSans-31"/>
      <use x="63.623047" xlink:href="#DejaVuSans-39"/>
      <use x="127.246094" xlink:href="#DejaVuSans-36"/>
      <use x="190.869141" xlink:href="#DejaVuSans-33"/>
      <use x="254.492188" xlink:href="#DejaVuSans-2e"/>
      <use x="286.279297" xlink:href="#DejaVuSans-30"/>
     </g>
    </g>
    <g id="line2d_68">
     <path d="M 48.65 196.875937 
L 68.65 196.875937 
" style="fill:none;stroke:#ff7f0e;stroke-linecap:square;stroke-width:1.5;"/>
    </g>
    <g id="line2d_69"/>
    <g id="text_27">
     <!-- 1964.0 -->
     <g transform="translate(76.65 200.375937)scale(0.1 -0.1)">
      <use xlink:href="#DejaVuSans-31"/>
      <use x="63.623047" xlink:href="#DejaVuSans-39"/>
      <use x="127.246094" xlink:href="#DejaVuSans-36"/>
      <use x="190.869141" xlink:href="#DejaVuSans-34"/>
      <use x="254.492188" xlink:href="#DejaVuSans-2e"/>
      <use x="286.279297" xlink:href="#DejaVuSans-30"/>
     </g>
    </g>
    <g id="line2d_70">
     <path d="M 48.65 211.554062 
L 68.65 211.554062 
" style="fill:none;stroke:#2ca02c;stroke-linecap:square;stroke-width:1.5;"/>
    </g>
    <g id="line2d_71"/>
    <g id="text_28">
     <!-- 1965.0 -->
     <g transform="translate(76.65 215.054062)scale(0.1 -0.1)">
      <use xlink:href="#DejaVuSans-31"/>
      <use x="63.623047" xlink:href="#DejaVuSans-39"/>
      <use x="127.246094" xlink:href="#DejaVuSans-36"/>
      <use x="190.869141" xlink:href="#DejaVuSans-35"/>
      <use x="254.492188" xlink:href="#DejaVuSans-2e"/>
      <use x="286.279297" xlink:href="#DejaVuSans-30"/>
     </g>
    </g>
    <g id="line2d_72">
     <path d="M 48.65 226.232187 
L 68.65 226.232187 
" style="fill:none;stroke:#d62728;stroke-linecap:square;stroke-width:1.5;"/>
    </g>
    <g id="line2d_73"/>
    <g id="text_29">
     <!-- 1966.0 -->
     <g transform="translate(76.65 229.732187)scale(0.1 -0.1)">
      <use xlink:href="#DejaVuSans-31"/>
      <use x="63.623047" xlink:href="#DejaVuSans-39"/>
      <use x="127.246094" xlink:href="#DejaVuSans-36"/>
      <use x="190.869141" xlink:href="#DejaVuSans-36"/>
      <use x="254.492188" xlink:href="#DejaVuSans-2e"/>
      <use x="286.279297" xlink:href="#DejaVuSans-30"/>
     </g>
    </g>
    <g id="line2d_74">
     <path d="M 48.65 240.910312 
L 68.65 240.910312 
" style="fill:none;stroke:#9467bd;stroke-linecap:square;stroke-width:1.5;"/>
    </g>
    <g id="line2d_75"/>
    <g id="text_30">
     <!-- 1967.0 -->
     <g transform="translate(76.65 244.410312)scale(0.1 -0.1)">
      <use xlink:href="#DejaVuSans-31"/>
      <use x="63.623047" xlink:href="#DejaVuSans-39"/>
      <use x="127.246094" xlink:href="#DejaVuSans-36"/>
      <use x="190.869141" xlink:href="#DejaVuSans-37"/>
      <use x="254.492188" xlink:href="#DejaVuSans-2e"/>
      <use x="286.279297" xlink:href="#DejaVuSans-30"/>
     </g>
    </g>
    <g id="line2d_76">
     <path d="M 48.65 255.588437 
L 68.65 255.588437 
" style="fill:none;stroke:#8c564b;stroke-linecap:square;stroke-width:1.5;"/>
    </g>
    <g id="line2d_77"/>
    <g id="text_31">
     <!-- 1968.0 -->
     <g transform="translate(76.65 259.088437)scale(0.1 -0.1)">
      <use xlink:href="#DejaVuSans-31"/>
      <use x="63.623047" xlink:href="#DejaVuSans-39"/>
      <use x="127.246094" xlink:href="#DejaVuSans-36"/>
      <use x="190.869141" xlink:href="#DejaVuSans-38"/>
      <use x="254.492188" xlink:href="#DejaVuSans-2e"/>
      <use x="286.279297" xlink:href="#DejaVuSans-30"/>
     </g>
    </g>
    <g id="line2d_78">
     <path d="M 48.65 270.266562 
L 68.65 270.266562 
" style="fill:none;stroke:#e377c2;stroke-linecap:square;stroke-width:1.5;"/>
    </g>
    <g id="line2d_79"/>
    <g id="text_32">
     <!-- 1969.0 -->
     <g transform="translate(76.65 273.766562)scale(0.1 -0.1)">
      <use xlink:href="#DejaVuSans-31"/>
      <use x="63.623047" xlink:href="#DejaVuSans-39"/>
      <use x="127.246094" xlink:href="#DejaVuSans-36"/>
      <use x="190.869141" xlink:href="#DejaVuSans-39"/>
      <use x="254.492188" xlink:href="#DejaVuSans-2e"/>
      <use x="286.279297" xlink:href="#DejaVuSans-30"/>
     </g>
    </g>
    <g id="line2d_80">
     <path d="M 48.65 284.944687 
L 68.65 284.944687 
" style="fill:none;stroke:#7f7f7f;stroke-linecap:square;stroke-width:1.5;"/>
    </g>
    <g id="line2d_81"/>
    <g id="text_33">
     <!-- 1970.0 -->
     <g transform="translate(76.65 288.444687)scale(0.1 -0.1)">
      <use xlink:href="#DejaVuSans-31"/>
      <use x="63.623047" xlink:href="#DejaVuSans-39"/>
      <use x="127.246094" xlink:href="#DejaVuSans-37"/>
      <use x="190.869141" xlink:href="#DejaVuSans-30"/>
      <use x="254.492188" xlink:href="#DejaVuSans-2e"/>
      <use x="286.279297" xlink:href="#DejaVuSans-30"/>
     </g>
    </g>
    <g id="line2d_82">
     <path d="M 48.65 299.622812 
L 68.65 299.622812 
" style="fill:none;stroke:#bcbd22;stroke-linecap:square;stroke-width:1.5;"/>
    </g>
    <g id="line2d_83"/>
    <g id="text_34">
     <!-- 1971.0 -->
     <g transform="translate(76.65 303.122812)scale(0.1 -0.1)">
      <use xlink:href="#DejaVuSans-31"/>
      <use x="63.623047" xlink:href="#DejaVuSans-39"/>
      <use x="127.246094" xlink:href="#DejaVuSans-37"/>
      <use x="190.869141" xlink:href="#DejaVuSans-31"/>
      <use x="254.492188" xlink:href="#DejaVuSans-2e"/>
      <use x="286.279297" xlink:href="#DejaVuSans-30"/>
     </g>
    </g>
    <g id="line2d_84">
     <path d="M 48.65 314.300937 
L 68.65 314.300937 
" style="fill:none;stroke:#17becf;stroke-linecap:square;stroke-width:1.5;"/>
    </g>
    <g id="line2d_85"/>
    <g id="text_35">
     <!-- 1972.0 -->
     <g transform="translate(76.65 317.800937)scale(0.1 -0.1)">
      <use xlink:href="#DejaVuSans-31"/>
      <use x="63.623047" xlink:href="#DejaVuSans-39"/>
      <use x="127.246094" xlink:href="#DejaVuSans-37"/>
      <use x="190.869141" xlink:href="#DejaVuSans-32"/>
      <use x="254.492188" xlink:href="#DejaVuSans-2e"/>
      <use x="286.279297" xlink:href="#DejaVuSans-30"/>
     </g>
    </g>
    <g id="line2d_86">
     <path d="M 48.65 328.979062 
L 68.65 328.979062 
" style="fill:none;stroke:#1f77b4;stroke-linecap:square;stroke-width:1.5;"/>
    </g>
    <g id="line2d_87"/>
    <g id="text_36">
     <!-- 1973.0 -->
     <g transform="translate(76.65 332.479062)scale(0.1 -0.1)">
      <use xlink:href="#DejaVuSans-31"/>
      <use x="63.623047" xlink:href="#DejaVuSans-39"/>
      <use x="127.246094" xlink:href="#DejaVuSans-37"/>
      <use x="190.869141" xlink:href="#DejaVuSans-33"/>
      <use x="254.492188" xlink:href="#DejaVuSans-2e"/>
      <use x="286.279297" xlink:href="#DejaVuSans-30"/>
     </g>
    </g>
    <g id="line2d_88">
     <path d="M 48.65 343.657187 
L 68.65 343.657187 
" style="fill:none;stroke:#ff7f0e;stroke-linecap:square;stroke-width:1.5;"/>
    </g>
    <g id="line2d_89"/>
    <g id="text_37">
     <!-- 1974.0 -->
     <g transform="translate(76.65 347.157187)scale(0.1 -0.1)">
      <use xlink:href="#DejaVuSans-31"/>
      <use x="63.623047" xlink:href="#DejaVuSans-39"/>
      <use x="127.246094" xlink:href="#DejaVuSans-37"/>
      <use x="190.869141" xlink:href="#DejaVuSans-34"/>
      <use x="254.492188" xlink:href="#DejaVuSans-2e"/>
      <use x="286.279297" xlink:href="#DejaVuSans-30"/>
     </g>
    </g>
    <g id="line2d_90">
     <path d="M 48.65 358.335312 
L 68.65 358.335312 
" style="fill:none;stroke:#2ca02c;stroke-linecap:square;stroke-width:1.5;"/>
    </g>
    <g id="line2d_91"/>
    <g id="text_38">
     <!-- 1975.0 -->
     <g transform="translate(76.65 361.835312)scale(0.1 -0.1)">
      <use xlink:href="#DejaVuSans-31"/>
      <use x="63.623047" xlink:href="#DejaVuSans-39"/>
      <use x="127.246094" xlink:href="#DejaVuSans-37"/>
      <use x="190.869141" xlink:href="#DejaVuSans-35"/>
      <use x="254.492188" xlink:href="#DejaVuSans-2e"/>
      <use x="286.279297" xlink:href="#DejaVuSans-30"/>
     </g>
    </g>
    <g id="line2d_92">
     <path d="M 48.65 373.013438 
L 68.65 373.013438 
" style="fill:none;stroke:#d62728;stroke-linecap:square;stroke-width:1.5;"/>
    </g>
    <g id="line2d_93"/>
    <g id="text_39">
     <!-- 1976.0 -->
     <g transform="translate(76.65 376.513438)scale(0.1 -0.1)">
      <use xlink:href="#DejaVuSans-31"/>
      <use x="63.623047" xlink:href="#DejaVuSans-39"/>
      <use x="127.246094" xlink:href="#DejaVuSans-37"/>
      <use x="190.869141" xlink:href="#DejaVuSans-36"/>
      <use x="254.492188" xlink:href="#DejaVuSans-2e"/>
      <use x="286.279297" xlink:href="#DejaVuSans-30"/>
     </g>
    </g>
    <g id="line2d_94">
     <path d="M 48.65 387.691563 
L 68.65 387.691563 
" style="fill:none;stroke:#9467bd;stroke-linecap:square;stroke-width:1.5;"/>
    </g>
    <g id="line2d_95"/>
    <g id="text_40">
     <!-- 1977.0 -->
     <g transform="translate(76.65 391.191563)scale(0.1 -0.1)">
      <use xlink:href="#DejaVuSans-31"/>
      <use x="63.623047" xlink:href="#DejaVuSans-39"/>
      <use x="127.246094" xlink:href="#DejaVuSans-37"/>
      <use x="190.869141" xlink:href="#DejaVuSans-37"/>
      <use x="254.492188" xlink:href="#DejaVuSans-2e"/>
      <use x="286.279297" xlink:href="#DejaVuSans-30"/>
     </g>
    </g>
    <g id="line2d_96">
     <path d="M 48.65 402.369688 
L 68.65 402.369688 
" style="fill:none;stroke:#8c564b;stroke-linecap:square;stroke-width:1.5;"/>
    </g>
    <g id="line2d_97"/>
    <g id="text_41">
     <!-- 1978.0 -->
     <g transform="translate(76.65 405.869688)scale(0.1 -0.1)">
      <use xlink:href="#DejaVuSans-31"/>
      <use x="63.623047" xlink:href="#DejaVuSans-39"/>
      <use x="127.246094" xlink:href="#DejaVuSans-37"/>
      <use x="190.869141" xlink:href="#DejaVuSans-38"/>
      <use x="254.492188" xlink:href="#DejaVuSans-2e"/>
      <use x="286.279297" xlink:href="#DejaVuSans-30"/>
     </g>
    </g>
    <g id="line2d_98">
     <path d="M 48.65 417.047813 
L 68.65 417.047813 
" style="fill:none;stroke:#e377c2;stroke-linecap:square;stroke-width:1.5;"/>
    </g>
    <g id="line2d_99"/>
    <g id="text_42">
     <!-- 1979.0 -->
     <g transform="translate(76.65 420.547813)scale(0.1 -0.1)">
      <use xlink:href="#DejaVuSans-31"/>
      <use x="63.623047" xlink:href="#DejaVuSans-39"/>
      <use x="127.246094" xlink:href="#DejaVuSans-37"/>
      <use x="190.869141" xlink:href="#DejaVuSans-39"/>
      <use x="254.492188" xlink:href="#DejaVuSans-2e"/>
      <use x="286.279297" xlink:href="#DejaVuSans-30"/>
     </g>
    </g>
    <g id="line2d_100">
     <path d="M 48.65 431.725938 
L 68.65 431.725938 
" style="fill:none;stroke:#7f7f7f;stroke-linecap:square;stroke-width:1.5;"/>
    </g>
    <g id="line2d_101"/>
    <g id="text_43">
     <!-- 1980.0 -->
     <g transform="translate(76.65 435.225938)scale(0.1 -0.1)">
      <use xlink:href="#DejaVuSans-31"/>
      <use x="63.623047" xlink:href="#DejaVuSans-39"/>
      <use x="127.246094" xlink:href="#DejaVuSans-38"/>
      <use x="190.869141" xlink:href="#DejaVuSans-30"/>
      <use x="254.492188" xlink:href="#DejaVuSans-2e"/>
      <use x="286.279297" xlink:href="#DejaVuSans-30"/>
     </g>
    </g>
    <g id="line2d_102">
     <path d="M 48.65 446.404063 
L 68.65 446.404063 
" style="fill:none;stroke:#bcbd22;stroke-linecap:square;stroke-width:1.5;"/>
    </g>
    <g id="line2d_103"/>
    <g id="text_44">
     <!-- 1981.0 -->
     <g transform="translate(76.65 449.904063)scale(0.1 -0.1)">
      <use xlink:href="#DejaVuSans-31"/>
      <use x="63.623047" xlink:href="#DejaVuSans-39"/>
      <use x="127.246094" xlink:href="#DejaVuSans-38"/>
      <use x="190.869141" xlink:href="#DejaVuSans-31"/>
      <use x="254.492188" xlink:href="#DejaVuSans-2e"/>
      <use x="286.279297" xlink:href="#DejaVuSans-30"/>
     </g>
    </g>
    <g id="line2d_104">
     <path d="M 48.65 461.082188 
L 68.65 461.082188 
" style="fill:none;stroke:#17becf;stroke-linecap:square;stroke-width:1.5;"/>
    </g>
    <g id="line2d_105"/>
    <g id="text_45">
     <!-- 1982.0 -->
     <g transform="translate(76.65 464.582188)scale(0.1 -0.1)">
      <use xlink:href="#DejaVuSans-31"/>
      <use x="63.623047" xlink:href="#DejaVuSans-39"/>
      <use x="127.246094" xlink:href="#DejaVuSans-38"/>
      <use x="190.869141" xlink:href="#DejaVuSans-32"/>
      <use x="254.492188" xlink:href="#DejaVuSans-2e"/>
      <use x="286.279297" xlink:href="#DejaVuSans-30"/>
     </g>
    </g>
    <g id="line2d_106">
     <path d="M 48.65 475.760313 
L 68.65 475.760313 
" style="fill:none;stroke:#000000;stroke-dasharray:11.1,4.8;stroke-dashoffset:0;stroke-width:3;"/>
    </g>
    <g id="line2d_107"/>
    <g id="text_46">
     <!-- Mean -->
     <g transform="translate(76.65 479.260313)scale(0.1 -0.1)">
      <defs>
       <path d="M 628 4666 
L 1569 4666 
L 2759 1491 
L 3956 4666 
L 4897 4666 
L 4897 0 
L 4281 0 
L 4281 4097 
L 3078 897 
L 2444 897 
L 1241 4097 
L 1241 0 
L 628 0 
L 628 4666 
z
" id="DejaVuSans-4d" transform="scale(0.015625)"/>
      </defs>
      <use xlink:href="#DejaVuSans-4d"/>
      <use x="86.279297" xlink:href="#DejaVuSans-65"/>
      <use x="147.802734" xlink:href="#DejaVuSans-61"/>
      <use x="209.082031" xlink:href="#DejaVuSans-6e"/>
     </g>
    </g>
   </g>
  </g>
 </g>
 <defs>
  <clipPath id="p75a834c3aa">
   <rect height="543.6" width="1116" x="39.65" y="22.318125"/>
  </clipPath>
 </defs>
</svg>
